<?xml version="1.0" encoding="utf-8"?>
<!-- Generator: Adobe Illustrator 26.2.1, SVG Export Plug-In . SVG Version: 6.00 Build 0)  -->
<svg version="1.1" id="Layer_1" xmlns="http://www.w3.org/2000/svg" xmlns:xlink="http://www.w3.org/1999/xlink" x="0px" y="0px"
	 viewBox="0 0 386.3 268" style="enable-background:new 0 0 386.3 268;" xml:space="preserve">
<style type="text/css">
	.st0{opacity:0.1;fill:#FBB03B;}
	.st1{opacity:0.15;fill:#4A4997;enable-background:new    ;}
	.st2{fill:#FFB93E;}
	.st3{fill:#FFA412;}
	.st4{fill:#58BC82;}
	.st5{fill:#E2810E;}
	.st6{fill:#FFB27D;}
	.st7{fill:#ED975D;}
	.st8{fill:#4A4997;}
	.st9{fill:#007BE0;}
	.st10{fill:#3D3C7C;}
	.st11{fill:#48ADFF;}
	.st12{opacity:0.2;fill:#ED9F4A;enable-background:new    ;}
	.st13{opacity:0.6;fill:#ED9F4A;enable-background:new    ;}
	.st14{fill:#9566F5;}
	.st15{fill:#8650F4;}
	.st16{fill:#F9DDBF;}
	.st17{fill:#F1A34F;}
	.st18{fill:#E5C1A1;}
	.st19{opacity:0.5;fill:#E2810E;enable-background:new    ;}
	.st20{fill:#ED985F;}
</style>
<path class="st0" d="M36.7,267.8c0,0-50.7-54.9-32.9-118.9c11.6-41.8,50.3-16.5,48.2-84.2S165.8-10.1,197.9,9.6S230.7,41.8,297,34
	s95.2,51.8,60.8,101.8c-30.1,43.8,67.9,39.4,9.7,132.2L36.7,267.8z"/>
<path class="st1" d="M26.9,239.6h349.4c0.2,0,0.3,0.1,0.3,0.3l0,0c0,0.2-0.1,0.3-0.3,0.3H26.9c-0.2,0-0.3-0.1-0.3-0.3l0,0
	C26.5,239.8,26.8,239.6,26.9,239.6z"/>
<g>
	<g>
		<path class="st2" d="M239,194.1l3,0.5c0.2,0,0.5,0.1,0.6,0.2c0.1,0.1,0.3,0.3,0.3,0.5v0.3l-7.1,42.9c-0.1,0.5-0.6,0.9-1.3,0.9
			h-0.1l-3-0.5h-0.1c-0.5-0.1-1.1-0.6-0.9-1.2l7.1-42.9c0-0.1,0-0.1,0.1-0.1c0-0.1,0.1-0.1,0.1-0.1c0.1-0.1,0.3-0.3,0.5-0.4
			C238.4,194.1,238.7,194,239,194.1L239,194.1z"/>
		<path class="st3" d="M239.8,215.8l-3.8,23c-0.1,0.5-0.6,0.9-1.2,0.8h-0.1l-3.1-0.5h-0.1c-0.5-0.1-1.1-0.5-1-1.1l3.3-20.1
			C235.5,217.7,237.8,217.2,239.8,215.8L239.8,215.8z"/>
		<g>
			
				<rect x="239.4" y="197.1" transform="matrix(0.1632 -0.9866 0.9866 0.1632 3.3564 403.6112)" class="st3" width="0.5" height="5.5"/>
			
				<rect x="239.1" y="198.5" transform="matrix(0.1626 -0.9867 0.9867 0.1626 1.8087 404.703)" class="st3" width="0.5" height="5.5"/>
			
				<rect x="238.6" y="200.7" transform="matrix(0.163 -0.9866 0.9866 0.163 -0.8258 406.0002)" class="st3" width="0.5" height="5.5"/>
			
				<rect x="238.3" y="203.5" transform="matrix(0.1628 -0.9867 0.9867 0.1628 -3.8448 408.0211)" class="st3" width="0.5" height="5.5"/>
			
				<rect x="237.7" y="206.8" transform="matrix(0.1628 -0.9867 0.9867 0.1628 -7.5708 410.1898)" class="st3" width="0.5" height="5.5"/>
			
				<rect x="237" y="211.7" transform="matrix(0.1626 -0.9867 0.9867 0.1626 -12.9555 413.7207)" class="st3" width="0.5" height="5.5"/>
			
				<rect x="236.3" y="216.3" transform="matrix(0.1632 -0.9866 0.9866 0.1632 -18.2222 416.6501)" class="st3" width="0.5" height="5.5"/>
			
				<rect x="235.6" y="220.6" transform="matrix(0.1628 -0.9867 0.9867 0.1628 -22.9215 419.6505)" class="st3" width="0.5" height="5.5"/>
			
				<rect x="239.7" y="195.4" transform="matrix(0.1626 -0.9867 0.9867 0.1626 5.4372 402.6622)" class="st3" width="0.5" height="5.5"/>
			
				<rect x="239.8" y="194.3" transform="matrix(0.1628 -0.9867 0.9867 0.1628 6.5439 401.7625)" class="st3" width="0.5" height="5.5"/>
			
				<rect x="240" y="193.3" transform="matrix(0.1626 -0.9867 0.9867 0.1626 7.6947 401.2127)" class="st3" width="0.5" height="5.5"/>
			<path class="st3" d="M237.6,195.2l5.5,0.9l0.1-0.3v-0.1l-5.5-0.9c0,0.1,0,0.1-0.1,0.1V195.2z"/>
			<path class="st3" d="M237.7,194.5l5.3,0.9c-0.1-0.2-0.1-0.4-0.3-0.5l-4.4-0.8C238.1,194.2,237.9,194.3,237.7,194.5L237.7,194.5z"
				/>
		</g>
	</g>
	<g>
		<path class="st2" d="M244.5,194.1l3,0.5c0.2,0,0.5,0.1,0.6,0.2s0.3,0.3,0.3,0.5v0.3l-7.1,42.9c-0.1,0.5-0.6,0.9-1.3,0.9l0,0
			l-3-0.4h-0.1c-0.5-0.1-1.1-0.6-0.9-1.2l7.1-42.9c0-0.1,0-0.1,0.1-0.1c0-0.1,0.1-0.1,0.1-0.1c0.1-0.1,0.3-0.3,0.5-0.4
			C244,194.1,244.3,194,244.5,194.1L244.5,194.1z"/>
		<path class="st3" d="M245.3,215.8l-3.8,23c-0.1,0.5-0.6,0.9-1.2,0.8h-0.1l-3-0.5H237c-0.5-0.1-1.1-0.5-1-1.1l3.3-20.1
			C241.1,217.7,243.4,217.2,245.3,215.8L245.3,215.8z"/>
		<g>
			
				<rect x="244.8" y="197.1" transform="matrix(0.1632 -0.9866 0.9866 0.1632 7.9132 409.0496)" class="st3" width="0.5" height="5.5"/>
			
				<rect x="244.7" y="198.6" transform="matrix(0.1626 -0.9867 0.9867 0.1626 6.4221 410.3225)" class="st3" width="0.5" height="5.5"/>
			
				<rect x="244.3" y="200.8" transform="matrix(0.163 -0.9866 0.9866 0.163 3.885 411.7032)" class="st3" width="0.5" height="5.5"/>
			
				<rect x="243.9" y="203.7" transform="matrix(0.1628 -0.9867 0.9867 0.1628 0.7947 413.7407)" class="st3" width="0.5" height="5.5"/>
			
				<rect x="243.3" y="206.7" transform="matrix(0.1628 -0.9867 0.9867 0.1628 -2.7484 415.7032)" class="st3" width="0.5" height="5.5"/>
			
				<rect x="242.5" y="211.7" transform="matrix(0.163 -0.9866 0.9866 0.163 -8.387 419.0371)" class="st3" width="0.5" height="5.5"/>
			
				<rect x="241.7" y="216.5" transform="matrix(0.1628 -0.9867 0.9867 0.1628 -13.7547 422.2169)" class="st3" width="0.5" height="5.5"/>
			
				<rect x="241.1" y="220.4" transform="matrix(0.1628 -0.9867 0.9867 0.1628 -18.138 424.9914)" class="st3" width="0.5" height="5.5"/>
			
				<rect x="245.2" y="195.6" transform="matrix(0.163 -0.9866 0.9866 0.163 9.738 408.1419)" class="st3" width="0.5" height="5.5"/>
			
				<rect x="245.4" y="194.5" transform="matrix(0.1626 -0.9867 0.9867 0.1626 11.1012 407.5243)" class="st3" width="0.5" height="5.5"/>
			
				<rect x="245.6" y="193.5" transform="matrix(0.1626 -0.9867 0.9867 0.1626 12.2215 406.8632)" class="st3" width="0.5" height="5.5"/>
			<path class="st3" d="M243.2,195.2l5.5,0.9l0.1-0.3v-0.1l-5.5-0.9c0,0.1,0,0.1-0.1,0.1V195.2z"/>
			<path class="st3" d="M243.4,194.5l5.3,0.9c-0.1-0.2-0.1-0.4-0.3-0.5l-4.4-0.8C243.7,194.2,243.5,194.3,243.4,194.5L243.4,194.5z"
				/>
		</g>
	</g>
	<g>
		<g>
			<path class="st2" d="M224.1,235.2v3c0,0.2-0.1,0.5-0.1,0.6s-0.3,0.3-0.5,0.4c-0.1,0-0.1,0.1-0.1,0.1h-0.1l-43.5-0.1
				c-0.5,0-1-0.5-1.1-1.2v-3.2c0-0.6,0.5-1.2,1.1-1.2l43.5,0.1h0.1c0.1,0,0.1,0,0.1,0.1c0.1,0.1,0.3,0.2,0.5,0.4
				C224,234.7,224.1,234.9,224.1,235.2L224.1,235.2z"/>
			<path class="st3" d="M202.7,239.5l-23.3-0.1c-0.5,0-0.9-0.5-0.9-1.2V235c0-0.6,0.4-1.2,0.9-1.2l20.4,0.1
				C200.3,235.6,201,237.8,202.7,239.5L202.7,239.5z"/>
			<g>
				
					<rect x="215.9" y="236.4" transform="matrix(2.443413e-03 -1 1 2.443413e-03 -18.5022 454.7313)" class="st3" width="5.5" height="0.5"/>
				
					<rect x="214.2" y="236.4" transform="matrix(2.443413e-03 -1 1 2.443413e-03 -20.2606 453.0887)" class="st3" width="5.5" height="0.5"/>
				
					<rect x="212.2" y="236.3" transform="matrix(2.617973e-03 -1 1 2.617973e-03 -22.1871 450.8874)" class="st3" width="5.5" height="0.5"/>
				
					<rect x="209.1" y="236.5" transform="matrix(2.268848e-03 -1 1 2.268848e-03 -25.3682 448.1474)" class="st3" width="5.5" height="0.5"/>
				
					<rect x="205.8" y="236.6" transform="matrix(2.443413e-03 -1 1 2.443413e-03 -28.7431 444.8321)" class="st3" width="5.5" height="0.5"/>
				
					<rect x="200.9" y="236.5" transform="matrix(2.443413e-03 -1 1 2.443413e-03 -33.5959 439.8107)" class="st3" width="5.5" height="0.5"/>
				
					<rect x="196.3" y="236.5" transform="matrix(2.443413e-03 -1 1 2.443413e-03 -38.2486 435.204)" class="st3" width="5.5" height="0.5"/>
				
					<rect x="192" y="236.4" transform="matrix(2.617973e-03 -1 1 2.617973e-03 -42.48 430.7892)" class="st3" width="5.5" height="0.5"/>
				
					<rect x="217.5" y="236.6" transform="matrix(2.443413e-03 -1 1 2.443413e-03 -17.1813 456.4802)" class="st3" width="5.5" height="0.5"/>
				
					<rect x="218.4" y="236.7" transform="matrix(2.094417e-03 -1 1 2.094417e-03 -16.2122 457.6163)" class="st3" width="5.5" height="0.5"/>
				
					<rect x="219.6" y="236.5" transform="matrix(2.443413e-03 -1 1 2.443413e-03 -14.9187 458.4556)" class="st3" width="5.5" height="0.5"/>
				<path class="st3" d="M222.8,234.1v5.5h0.5v-5.5H222.8z"/>
				<path class="st3" d="M223.5,234.1v5.4c0.1-0.1,0.3-0.2,0.5-0.4v-4.4C223.9,234.3,223.7,234.2,223.5,234.1L223.5,234.1z"/>
			</g>
		</g>
		<g>
			<path class="st2" d="M219.5,229.7v3c0,0.2-0.1,0.5-0.1,0.6s-0.3,0.3-0.5,0.4c-0.1,0-0.1,0.1-0.1,0.1h-0.1l-43.5-0.1
				c-0.5,0-1-0.5-1.1-1.2v-3.2c0-0.6,0.5-1.2,1.1-1.2l43.5,0.1h0.1c0.1,0,0.1,0,0.1,0.1h0.1l0.1,0.1l0,0l0.1,0.1l0,0v0.1
				C219.4,229.2,219.5,229.5,219.5,229.7L219.5,229.7z"/>
			<path class="st3" d="M198.1,234l-23.3-0.1c-0.5,0-0.9-0.5-0.9-1.2v-3.2c0-0.6,0.4-1.2,0.9-1.2l20.4,0.1v0.1
				C195.6,230.2,196.4,232.4,198.1,234L198.1,234z"/>
			<g>
				
					<rect x="211.1" y="231.1" transform="matrix(2.268848e-03 -1 1 2.268848e-03 -17.916 444.6554)" class="st3" width="5.5" height="0.5"/>
				
					<rect x="209.5" y="230.9" transform="matrix(2.268848e-03 -1 1 2.268848e-03 -19.434 442.8793)" class="st3" width="5.5" height="0.5"/>
				
					<rect x="207.5" y="230.9" transform="matrix(2.443413e-03 -1 1 2.443413e-03 -21.3813 440.8375)" class="st3" width="5.5" height="0.5"/>
				
					<rect x="204.5" y="231" transform="matrix(2.443413e-03 -1 1 2.443413e-03 -24.5158 437.8936)" class="st3" width="5.5" height="0.5"/>
				
					<rect x="201.2" y="231" transform="matrix(2.094417e-03 -1 1 2.094417e-03 -27.6591 434.7347)" class="st3" width="5.5" height="0.5"/>
				
					<rect x="196.3" y="231" transform="matrix(2.617973e-03 -1 1 2.617973e-03 -32.664 429.6892)" class="st3" width="5.5" height="0.5"/>
				
					<rect x="191.6" y="231" transform="matrix(2.443413e-03 -1 1 2.443413e-03 -37.4431 425.0439)" class="st3" width="5.5" height="0.5"/>
				
					<rect x="187.4" y="230.9" transform="matrix(2.094417e-03 -1 1 2.094417e-03 -41.4481 420.8622)" class="st3" width="5.5" height="0.5"/>
				
					<rect x="212.7" y="231" transform="matrix(2.268848e-03 -1 1 2.268848e-03 -16.3401 446.2036)" class="st3" width="5.5" height="0.5"/>
				
					<rect x="213.7" y="231" transform="matrix(2.443413e-03 -1 1 2.443413e-03 -15.2771 447.1451)" class="st3" width="5.5" height="0.5"/>
				
					<rect x="214.9" y="231" transform="matrix(2.443413e-03 -1 1 2.443413e-03 -14.1656 448.2955)" class="st3" width="5.5" height="0.5"/>
				<path class="st3" d="M218.1,228.5v5.5h0.5v-5.5H218.1z"/>
				<path class="st3" d="M218.9,228.5v5.4c0.1-0.1,0.3-0.2,0.5-0.4V229C219.2,228.8,219,228.6,218.9,228.5L218.9,228.5z"/>
			</g>
		</g>
		<path class="st2" d="M221.8,224.3v3c0,0.2-0.1,0.5-0.1,0.6s-0.3,0.3-0.5,0.4c-0.1,0-0.1,0.1-0.1,0.1H221l-43.5-0.1
			c-0.1,0-0.3-0.1-0.5-0.1c-0.3-0.1-0.5-0.5-0.5-0.9V224c0-0.6,0.5-1.2,1.1-1.2l43.5,0.1h0.1c0.1,0,0.1,0,0.1,0.1
			c0.1,0.1,0.3,0.2,0.5,0.4C221.8,223.9,221.8,224,221.8,224.3L221.8,224.3z"/>
		<path class="st3" d="M200.4,228.5l-23.3-0.1c-0.1,0-0.3-0.1-0.4-0.1c-0.2-0.1-0.5-0.5-0.5-0.9v-3.3c0-0.6,0.4-1.2,0.9-1.2
			l20.4,0.1c0.3,1.6,1,3.8,2.6,5.5C200.3,228.5,200.3,228.5,200.4,228.5L200.4,228.5z"/>
		<path class="st2" d="M222.8,218.8v3c0,0.2-0.1,0.5-0.1,0.6s-0.3,0.3-0.5,0.4c-0.1,0-0.1,0.1-0.1,0.1H222l-43.5-0.1
			c-0.5,0-1-0.5-1.1-1.2v-3.2c0-0.5,0.4-1.1,0.9-1.2h0.1l43.5,0.1h0.1c0.1,0,0.1,0,0.1,0.1c0.1,0.1,0.3,0.2,0.5,0.4
			C222.7,218.3,222.8,218.6,222.8,218.8L222.8,218.8z"/>
		<path class="st3" d="M201.4,223l-23.3-0.1c-0.5,0-0.9-0.5-0.9-1.2v-3.2c0-0.5,0.4-1.1,0.9-1.2h0.1l20.4,0.1l0,0
			C198.9,219.2,199.6,221.4,201.4,223L201.4,223z"/>
		<path class="st2" d="M219.6,213.3v3c0,0.2-0.1,0.5-0.1,0.6s-0.3,0.3-0.5,0.4c-0.1,0-0.1,0.1-0.1,0.1h-0.1l-43.5-0.1
			c-0.5,0-1-0.5-1.1-1.2v-3.3c0.1-0.5,0.3-0.9,0.8-1.1h0.2l43.5,0.1h0.2c0.1,0,0.1,0,0.1,0.1c0.1,0.1,0.3,0.2,0.5,0.4
			C219.5,212.8,219.6,213,219.6,213.3z"/>
		<path class="st3" d="M198.2,217.5l-23.3-0.1c-0.5,0-0.9-0.5-0.9-1.2v-3.3c0-0.5,0.3-0.9,0.8-1.1h0.1l20.4,0.1l0,0
			C195.7,213.7,196.5,215.8,198.2,217.5L198.2,217.5L198.2,217.5z"/>
		<path class="st2" d="M219.5,207.7v3c0,0.2-0.1,0.5-0.1,0.6s-0.3,0.3-0.5,0.4c-0.1,0-0.1,0-0.1,0.1h-0.1l-43.5-0.1H175
			c-0.5-0.1-0.9-0.5-0.9-1.1v-3.2c0-0.6,0.5-1.2,1.1-1.2l43.5,0.1h0.1c0.1,0,0.1,0,0.1,0.1h0.2l0.1,0.1l0,0l0.1,0.1l0,0v0.1
			C219.4,207.3,219.5,207.5,219.5,207.7L219.5,207.7z"/>
		<path class="st3" d="M198.1,212.1l-23.3-0.1h-0.1c-0.4-0.1-0.9-0.5-0.9-1.2v-3.2c0-0.6,0.4-1.2,0.9-1.2l20.4,0.1v0.1
			C195.7,208.3,196.5,210.4,198.1,212.1C198.1,212,198.1,212,198.1,212.1L198.1,212.1z"/>
		<path class="st2" d="M221.8,202.4v3c0,0.2-0.1,0.5-0.1,0.6s-0.3,0.3-0.5,0.4c-0.1,0-0.1,0.1-0.1,0.1H221l-43.5-0.1
			c-0.1,0-0.3-0.1-0.5-0.1c-0.3-0.1-0.5-0.5-0.5-0.9v-3.3c0-0.6,0.5-1.2,1.1-1.2l43.5,0.1h0.1c0.1,0,0.1,0,0.1,0.1
			c0.1,0.1,0.3,0.2,0.5,0.4C221.8,201.9,221.8,202.1,221.8,202.4L221.8,202.4z"/>
		<path class="st3" d="M200.4,206.7l-23.3-0.1c-0.1,0-0.3-0.1-0.4-0.1c-0.2-0.1-0.5-0.5-0.5-0.9v-3.3c0-0.6,0.4-1.2,0.9-1.2
			l20.4,0.1c0.3,1.6,1,3.8,2.6,5.5C200.3,206.6,200.4,206.7,200.4,206.7L200.4,206.7z"/>
		<path class="st2" d="M225.3,196.9v3c0,0.2-0.1,0.5-0.1,0.6s-0.3,0.3-0.5,0.4c-0.1,0-0.1,0.1-0.1,0.1h-0.1l-43.5-0.1
			c-0.5,0-1-0.5-1.1-1.2v-3.2c0-0.5,0.4-1.1,0.9-1.2h0.1l43.5,0.1h0.1c0.1,0,0.1,0,0.1,0.1c0.1,0.1,0.3,0.2,0.5,0.4
			C225.3,196.3,225.3,196.7,225.3,196.9L225.3,196.9z"/>
		<path class="st3" d="M204,201.2l-23.3-0.1c-0.5,0-0.9-0.5-0.9-1.2v-3.2c0-0.5,0.4-1.1,0.9-1.2h0.1l20.4,0.1l0,0
			C201.5,197.2,202.3,199.5,204,201.2L204,201.2z"/>
		<path class="st2" d="M219.6,191.4v3c0,0.2-0.1,0.5-0.1,0.6s-0.3,0.3-0.5,0.4c-0.1,0-0.1,0.1-0.1,0.1h-0.2l-43.5-0.1
			c-0.5,0-1-0.5-1.1-1.2V191c0-0.6,0.5-1.2,1.1-1.2l43.5,0.1h0.2c0.1,0,0.1,0,0.1,0.1c0,0,0.1,0,0.1,0.1h0.2l0.1,0.1l0,0v0.1
			C219.6,190.9,219.6,191.1,219.6,191.4L219.6,191.4z"/>
		<path class="st3" d="M198.3,195.6l-23.3-0.1c-0.5,0-0.9-0.5-0.9-1.2v-3.2c0-0.6,0.4-1.2,0.9-1.2l20.4,0.1v0.1
			C195.9,191.9,196.6,194.1,198.3,195.6L198.3,195.6L198.3,195.6z"/>
		<path class="st2" d="M222.8,186v3c0,0.2-0.1,0.5-0.1,0.6s-0.3,0.3-0.5,0.4c-0.1,0-0.1,0.1-0.1,0.1H222l-43.5-0.1
			c-0.1,0-0.3-0.1-0.5-0.1c-0.3-0.1-0.5-0.5-0.5-1v-3.3c0-0.5,0.4-1.1,0.9-1.2h0.1l43.5,0.1h0.1c0.1,0,0.1,0,0.1,0.1
			c0.1,0.1,0.3,0.2,0.5,0.4C222.8,185.6,222.8,185.7,222.8,186z"/>
		<path class="st3" d="M201.5,190.2l-23.3-0.1c-0.1,0-0.3-0.1-0.4-0.1c-0.2-0.1-0.5-0.5-0.5-1v-3.3c0-0.5,0.4-1.1,0.9-1.2h0.1
			l20.4,0.1l0,0c0.3,1.6,1,3.8,2.7,5.5L201.5,190.2L201.5,190.2z"/>
		<path class="st2" d="M219.6,180.4v3c0,0.2-0.1,0.5-0.1,0.6s-0.3,0.3-0.5,0.4c-0.1,0-0.1,0.1-0.1,0.1h-0.1l-43.5-0.1
			c-0.5,0-1-0.5-1.1-1.2V180c0-0.6,0.5-1.2,1.1-1.2l43.5,0.1h0.1c0.1,0,0.1,0,0.1,0.1c0.1,0.1,0.3,0.2,0.5,0.4
			C219.6,180,219.6,180.2,219.6,180.4L219.6,180.4z"/>
		<path class="st3" d="M198.3,184.6l-23.3-0.1c-0.5,0-0.9-0.5-0.9-1.2v-3.2c0-0.6,0.4-1.2,0.9-1.2l20.4,0.1
			C195.9,180.9,196.6,183,198.3,184.6L198.3,184.6L198.3,184.6z"/>
		<g>
			
				<rect x="213.5" y="225.6" transform="matrix(2.443413e-03 -1 1 2.443413e-03 -10.2057 441.5405)" class="st3" width="5.5" height="0.5"/>
			
				<rect x="211.9" y="225.6" transform="matrix(2.094417e-03 -1 1 2.094417e-03 -11.6964 440.013)" class="st3" width="5.5" height="0.5"/>
			
				<rect x="209.7" y="225.7" transform="matrix(2.094417e-03 -1 1 2.094417e-03 -13.8939 437.9023)" class="st3" width="5.5" height="0.5"/>
			
				<rect x="206.9" y="225.6" transform="matrix(2.443413e-03 -1 1 2.443413e-03 -16.7864 434.9299)" class="st3" width="5.5" height="0.5"/>
			
				<rect x="203.5" y="225.7" transform="matrix(2.443413e-03 -1 1 2.443413e-03 -20.1767 431.6802)" class="st3" width="5.5" height="0.5"/>
			
				<rect x="198.5" y="225.6" transform="matrix(2.443413e-03 -1 1 2.443413e-03 -25.1013 426.5063)" class="st3" width="5.5" height="0.5"/>
			
				<rect x="193.8" y="225.6" transform="matrix(2.094417e-03 -1 1 2.094417e-03 -29.6797 421.8677)" class="st3" width="5.5" height="0.5"/>
			
				<rect x="189.8" y="225.7" transform="matrix(2.443413e-03 -1 1 2.443413e-03 -33.8623 417.8625)" class="st3" width="5.5" height="0.5"/>
			
				<rect x="215.2" y="225.7" transform="matrix(2.443413e-03 -1 1 2.443413e-03 -8.5309 443.2723)" class="st3" width="5.5" height="0.5"/>
			
				<rect x="216.1" y="225.6" transform="matrix(2.094417e-03 -1 1 2.094417e-03 -7.4361 444.1833)" class="st3" width="5.5" height="0.5"/>
			
				<rect x="217.2" y="225.8" transform="matrix(2.443413e-03 -1 1 2.443413e-03 -6.5913 445.4883)" class="st3" width="5.5" height="0.5"/>
			<path class="st3" d="M220.4,223.1v5.5h0.5v-5.5H220.4z"/>
			<path class="st3" d="M221.1,223.1v5.4c0.1-0.1,0.3-0.2,0.5-0.4v-4.4C221.4,223.4,221.3,223.2,221.1,223.1L221.1,223.1z"/>
			
				<rect x="199.6" y="220" transform="matrix(2.443413e-03 -1 1 2.443413e-03 -18.3957 422.1121)" class="st3" width="5.5" height="0.5"/>
			
				<rect x="195" y="220" transform="matrix(2.268848e-03 -1 1 2.268848e-03 -23.007 417.507)" class="st3" width="5.5" height="0.5"/>
			
				<rect x="190.7" y="219.9" transform="matrix(2.443413e-03 -1 1 2.443413e-03 -27.1763 413.1192)" class="st3" width="5.5" height="0.5"/>
			<path class="st3" d="M219.1,223.1v-5.6h-0.3V212h-0.1v-5.4h0.1v5.4c0.1-0.1,0.3-0.2,0.5-0.4v-4.4c-0.1-0.1-0.2-0.3-0.4-0.4h0.1
				v-5.5h-0.5v5.5H218v5.5h0.1v5.5h0.4v5.5L219.1,223.1L219.1,223.1z"/>
			
				<rect x="217.2" y="220" transform="matrix(2.443413e-03 -1 1 2.443413e-03 -0.8608 439.6906)" class="st3" width="5.5" height="0.5"/>
			
				<rect x="218.1" y="220.1" transform="matrix(2.617973e-03 -1 1 2.617973e-03 -8.180179e-02 440.6995)" class="st3" width="5.5" height="0.5"/>
			<path class="st3" d="M221.4,217.5v5.5h0.5v-5.5H221.4z"/>
			<path class="st3" d="M222.1,217.7v5.4c0.1-0.1,0.3-0.2,0.5-0.4v-4.4C222.5,218,222.4,217.8,222.1,217.7L222.1,217.7z"/>
			<polygon class="st3" points="214.3,217.5 214.3,212.1 214.3,212.1 214.3,206.6 213.7,206.6 213.7,212.1 213.9,212.1 213.9,217.5 
				213.3,217.5 213.3,223.1 213.9,223.1 213.9,217.5 			"/>
			<polygon class="st3" points="210.7,212 210.6,212 210.6,206.6 210,206.6 210,212.1 210.1,212.1 210.1,217.5 210.3,217.5 
				210.3,223.1 210.8,223.1 210.8,217.5 210.7,217.5 			"/>
			<path class="st3" d="M218.9,212.3v5.4c0.1-0.1,0.3-0.2,0.5-0.4v-4.4C219.3,212.5,219.1,212.3,218.9,212.3L218.9,212.3z"/>
			<polygon class="st3" points="207.6,206.6 206.9,206.6 206.9,212.1 207,212.1 207,217.5 206.9,217.5 206.9,223 207.6,223 
				207.6,217.5 207.6,217.5 207.6,212 207.6,212 			"/>
			<polygon class="st3" points="204.2,206.6 203.8,206.6 203.8,212.1 203.8,212.1 203.8,217.5 204.3,217.5 204.3,212 204.2,212 			
				"/>
			<polygon class="st3" points="199.2,206.6 198.8,206.6 198.8,212.1 198.8,212.1 198.8,217.5 199.3,217.5 199.3,212 199.2,212 			
				"/>
			<polygon class="st3" points="194.6,206.6 194,206.6 194,212 194.1,212 194.1,217.5 194.7,217.5 194.7,212 194.6,212 			"/>
			<polygon class="st3" points="190.5,206.6 189.9,206.6 189.9,212 190,212 189.9,217.5 190.5,217.5 190.5,212 190.4,212 			"/>
			<polygon class="st3" points="215.8,206.6 215.4,206.6 215.4,212.1 215.4,212.1 215.4,217.5 215.4,217.5 215.4,223.1 215.8,223.1 
				215.8,217.5 216,217.5 216,212.1 215.8,212.1 			"/>
			<polygon class="st3" points="216.8,206.6 216.5,206.6 216.5,201.2 216.1,201.2 216.1,206.8 216.5,206.8 216.4,212.1 216.5,212.1 
				216.5,217.5 216.9,217.5 216.9,212.1 216.8,212.1 			"/>
			
				<rect x="211.9" y="203.8" transform="matrix(2.443413e-03 -1 1 2.443413e-03 10.0859 418.1222)" class="st3" width="5.5" height="0.5"/>
			<polygon class="st3" points="212.3,206.6 212.1,206.6 212.1,212.1 212.2,212.1 212.2,217.5 212.6,217.5 212.6,212 212.5,212 
				212.5,206.7 212.8,206.7 212.8,201.2 212.3,201.2 			"/>
			
				<rect x="206.8" y="203.7" transform="matrix(2.617973e-03 -1 1 2.617973e-03 5.0961 412.9633)" class="st3" width="5.5" height="0.5"/>
			
				<rect x="203.5" y="203.8" transform="matrix(2.443413e-03 -1 1 2.443413e-03 1.7464 409.8391)" class="st3" width="5.5" height="0.5"/>
			
				<rect x="198.6" y="203.6" transform="matrix(2.268848e-03 -1 1 2.268848e-03 -2.9914 404.7192)" class="st3" width="5.5" height="0.5"/>
			
				<rect x="193.9" y="203.8" transform="matrix(2.094417e-03 -1 1 2.094417e-03 -7.7918 400.2312)" class="st3" width="5.5" height="0.5"/>
			
				<rect x="189.6" y="203.7" transform="matrix(2.443413e-03 -1 1 2.443413e-03 -12.0207 395.819)" class="st3" width="5.5" height="0.5"/>
			<polygon class="st3" points="217.6,206.6 217.5,206.6 217.5,212.1 217.6,212.1 217.6,217.5 217,217.5 217,223.1 217.6,223.1 
				217.6,217.5 217.9,217.5 218,212.1 217.9,212.1 217.9,206.8 218.1,206.8 218.1,201.3 217.6,201.3 			"/>
			
				<rect x="217.3" y="203.7" transform="matrix(2.443413e-03 -1 1 2.443413e-03 15.5307 423.5335)" class="st3" width="5.5" height="0.5"/>
			<path class="st3" d="M221,206.7v-5.5h-0.5v5.5h0.3C220.8,206.8,220.9,206.8,221,206.7L221,206.7z"/>
			<path class="st3" d="M221.7,206.2v-4.4c-0.1-0.1-0.2-0.3-0.5-0.4v5.4C221.3,206.6,221.4,206.4,221.7,206.2L221.7,206.2z"/>
			
				<rect x="217.1" y="198.3" transform="matrix(2.443413e-03 -1 1 2.443413e-03 20.7693 417.9789)" class="st3" width="5.5" height="0.5"/>
			
				<rect x="210.3" y="198.3" transform="matrix(2.443413e-03 -1 1 2.443413e-03 14.0019 411.1039)" class="st3" width="5.5" height="0.5"/>
			
				<rect x="207.1" y="198.1" transform="matrix(2.443413e-03 -1 1 2.443413e-03 10.9369 407.7545)" class="st3" width="5.5" height="0.5"/>
			
				<rect x="202.3" y="198.1" transform="matrix(2.443413e-03 -1 1 2.443413e-03 6.1431 402.8995)" class="st3" width="5.5" height="0.5"/>
			
				<rect x="197.5" y="198.2" transform="matrix(2.443413e-03 -1 1 2.443413e-03 1.2889 398.2663)" class="st3" width="5.5" height="0.5"/>
			
				<rect x="193.4" y="198.1" transform="matrix(2.094417e-03 -1 1 2.094417e-03 -2.664 394.0491)" class="st3" width="5.5" height="0.5"/>
			
				<rect x="218.6" y="198.2" transform="matrix(2.443413e-03 -1 1 2.443413e-03 22.344 419.3835)" class="st3" width="5.5" height="0.5"/>
			
				<rect x="219.6" y="198.2" transform="matrix(2.443413e-03 -1 1 2.443413e-03 23.3704 420.3669)" class="st3" width="5.5" height="0.5"/>
			
				<rect x="220.6" y="198.2" transform="matrix(2.268848e-03 -1 1 2.268848e-03 24.4792 421.3497)" class="st3" width="5.5" height="0.5"/>
			<path class="st3" d="M224,195.7v5.5h0.5v-5.5H224z"/>
			<path class="st3" d="M224.7,195.8v5.4c0.1-0.1,0.3-0.2,0.5-0.4v-4.4C225,196,224.9,195.9,224.7,195.8L224.7,195.8z"/>
			<polygon class="st3" points="213.9,195.6 214.3,195.6 214.3,190.1 213.9,190.1 214,184.7 214.3,184.7 214.3,179.4 214,179.4 
				213.9,184.7 213.4,184.7 213.4,190.3 213.9,190.3 			"/>
			
				<rect x="209.7" y="192.7" transform="matrix(2.617973e-03 -1 1 2.617973e-03 18.9315 404.9806)" class="st3" width="5.5" height="0.5"/>
			
				<rect x="201.4" y="192.6" transform="matrix(2.443413e-03 -1 1 2.443413e-03 10.7481 396.5546)" class="st3" width="5.5" height="0.5"/>
			
				<rect x="196.3" y="192.5" transform="matrix(2.268848e-03 -1 1 2.268848e-03 5.8783 391.374)" class="st3" width="5.5" height="0.5"/>
			
				<rect x="191.7" y="192.7" transform="matrix(2.443413e-03 -1 1 2.443413e-03 1.0707 386.9575)" class="st3" width="5.5" height="0.5"/>
			
				<rect x="187.6" y="192.6" transform="matrix(2.268848e-03 -1 1 2.268848e-03 -2.9558 382.7359)" class="st3" width="5.5" height="0.5"/>
			<polygon class="st3" points="215.4,195.6 216,195.6 215.8,201.2 216.4,201.2 216.4,195.6 216,195.6 216,190.1 216,190.1 
				216,184.7 216,184.7 216.1,179.4 215.5,179.4 215.5,184.7 215.4,184.7 215.4,190.3 215.4,190.3 			"/>
			
				<rect x="214.1" y="192.6" transform="matrix(1.919855e-03 -1 1 1.919855e-03 23.5262 409.2901)" class="st3" width="5.5" height="0.5"/>
			<path class="st3" d="M219.1,190.3L219.1,190.3l0.1-5.5h-0.3v-5.5h-0.5v5.5h0.4v5.5h-0.4v5.5h-0.2v-5.5h-0.5v-5.4h0.5v-5.5h-0.5
				v5.5H217v5.5h0.5v5.5h0.3v5.5h0.5v-5.6h0.3v-5.4h0.1v5.4c0.1-0.1,0.3-0.2,0.5-0.4V191C219.3,190.5,219.3,190.4,219.1,190.3
				L219.1,190.3z"/>
			
				<rect x="199.6" y="187.3" transform="matrix(2.094417e-03 -1 1 2.094417e-03 14.3567 389.5004)" class="st3" width="5.5" height="0.5"/>
			
				<rect x="194.8" y="187.3" transform="matrix(2.443413e-03 -1 1 2.443413e-03 9.5853 384.6245)" class="st3" width="5.5" height="0.5"/>
			
				<rect x="190.8" y="187.2" transform="matrix(2.443413e-03 -1 1 2.443413e-03 5.567 380.5022)" class="st3" width="5.5" height="0.5"/>
			
				<rect x="217.2" y="187.4" transform="matrix(2.268848e-03 -1 1 2.268848e-03 31.8067 407.1584)" class="st3" width="5.5" height="0.5"/>
			
				<rect x="218.2" y="187.4" transform="matrix(2.443413e-03 -1 1 2.443413e-03 32.7786 408.072)" class="st3" width="5.5" height="0.5"/>
			<path class="st3" d="M221.5,184.7v5.5h0.5v-5.5H221.5z"/>
			<path class="st3" d="M222.7,189.8v-4.4c-0.1-0.1-0.2-0.3-0.5-0.4v5.4L222.7,189.8L222.7,189.8z"/>
			
				<rect x="209.7" y="181.8" transform="matrix(2.443413e-03 -1 1 2.443413e-03 29.8742 394.0937)" class="st3" width="5.5" height="0.5"/>
			<polygon class="st3" points="210.7,179.4 210.3,179.4 210.1,184.7 210.4,184.7 210.4,190.1 210.1,190.1 210.1,195.6 210.7,195.6 
				210.7,190.3 210.8,190.3 210.8,184.7 210.7,184.7 			"/>
			<polygon class="st3" points="207.1,184.6 207,184.6 207,190.3 207,190.3 207,195.6 207.6,195.6 207.6,190.1 207.6,190.1 
				207.6,184.7 207.6,184.7 207.7,179.3 207.1,179.3 			"/>
			
				<rect x="201.4" y="181.7" transform="matrix(2.443413e-03 -1 1 2.443413e-03 21.6745 385.6418)" class="st3" width="5.5" height="0.5"/>
			
				<rect x="196.3" y="181.8" transform="matrix(2.443413e-03 -1 1 2.443413e-03 16.5692 380.6771)" class="st3" width="5.5" height="0.5"/>
			
				<rect x="191.8" y="181.9" transform="matrix(2.617973e-03 -1 1 2.617973e-03 11.9012 376.1392)" class="st3" width="5.5" height="0.5"/>
			
				<rect x="187.6" y="181.6" transform="matrix(2.094417e-03 -1 1 2.094417e-03 8.087 371.7443)" class="st3" width="5.5" height="0.5"/>
			
				<rect x="213.9" y="181.9" transform="matrix(2.617973e-03 -1 1 2.617973e-03 33.9475 398.3193)" class="st3" width="5.5" height="0.5"/>
			<path class="st3" d="M219,179.4v5.4c0.1-0.1,0.3-0.2,0.5-0.4V180C219.3,179.7,219.2,179.5,219,179.4L219,179.4z"/>
		</g>
	</g>
	<g>
		<path class="st2" d="M233.5,194.1l3,0.5c0.2,0.1,0.5,0.1,0.6,0.3c0.1,0.1,0.3,0.3,0.3,0.5v0.3l-7.6,42.9c-0.1,0.5-0.6,0.9-1.3,0.9
			h-0.1l-3-0.5h-0.1c-0.5-0.1-1-0.6-0.9-1.2l7.6-42.9v-0.1l0,0c0-0.1,0.1-0.1,0.1-0.1l0,0v-0.1l0,0l0.1-0.1l0.1-0.1h0.1
			c0,0,0.1,0,0.1-0.1h0.1C232.9,194.1,233.2,194.1,233.5,194.1L233.5,194.1z"/>
		<path class="st3" d="M234,215.8l-4.1,23c-0.1,0.5-0.6,0.9-1.2,0.8h-0.1l-3-0.5h-0.1c-0.5-0.1-1.1-0.6-0.9-1.1l3.7-20.1h0.1
			C229.9,217.5,232.1,217.2,234,215.8L234,215.8z"/>
		<g>
			
				<rect x="233.7" y="197.1" transform="matrix(0.1757 -0.9844 0.9844 0.1757 -3.9032 395.0594)" class="st3" width="0.5" height="5.5"/>
			
				<rect x="233.4" y="198.7" transform="matrix(0.1752 -0.9845 0.9845 0.1752 -5.615 396.2334)" class="st3" width="0.5" height="5.5"/>
			
				<rect x="233.1" y="200.8" transform="matrix(0.1754 -0.9845 0.9845 0.1754 -7.9618 397.5361)" class="st3" width="0.5" height="5.5"/>
			
				<rect x="232.6" y="203.6" transform="matrix(0.1754 -0.9845 0.9845 0.1754 -11.115 399.4149)" class="st3" width="0.5" height="5.5"/>
			
				<rect x="232" y="206.9" transform="matrix(0.1752 -0.9845 0.9845 0.1752 -14.8129 401.5573)" class="st3" width="0.5" height="5.5"/>
			
				<rect x="231.1" y="211.8" transform="matrix(0.1755 -0.9845 0.9845 0.1755 -20.4329 404.6579)" class="st3" width="0.5" height="5.5"/>
			
				<rect x="230.1" y="216.5" transform="matrix(0.1752 -0.9845 0.9845 0.1752 -25.8279 407.5953)" class="st3" width="0.5" height="5.5"/>
			
				<rect x="229.5" y="220.5" transform="matrix(0.1757 -0.9844 0.9844 0.1757 -30.4263 410.2272)" class="st3" width="0.5" height="5.5"/>
			
				<rect x="234.1" y="195.5" transform="matrix(0.1754 -0.9845 0.9845 0.1754 -1.91 394.1491)" class="st3" width="0.5" height="5.5"/>
			
				<rect x="234.3" y="194.4" transform="matrix(0.1755 -0.9845 0.9845 0.1755 -0.7277 393.5108)" class="st3" width="0.5" height="5.5"/>
			
				<rect x="234.5" y="193.4" transform="matrix(0.1754 -0.9845 0.9845 0.1754 0.4508 392.7932)" class="st3" width="0.5" height="5.5"/>
			<path class="st3" d="M232.1,195.3l5.5,1l0.1-0.3v-0.1l-5.5-0.9c0,0.1,0,0.1-0.1,0.1V195.3z"/>
			<path class="st3" d="M232.3,194.5l5.3,0.9c-0.1-0.2-0.1-0.4-0.3-0.5l-4.4-0.8C232.5,194.2,232.4,194.3,232.3,194.5L232.3,194.5z"
				/>
		</g>
	</g>
	<path class="st4" d="M337.1,239.5h-18.7c-1-0.9,0.6-2.7,2.4-2.9c0.8-0.1,1.7,0.1,2.8,0.3c0.2-3.4,1.7-18.8,7.3-18.2
		c6.2,0.6,0,6.8-1.7,10.4c-1.3,2.6-2.7,6.6-3.3,8.3c0.5,0.1,1,0.2,1.6,0.3c0.9-2.5,4-11.1,7.7-10.5c4.6,0.5,2.7,4.1-0.5,6
		c-2.4,1.5-5.4,3.7-6.7,4.6c1.2,0.1,2.4,0.3,3.8,0.3C335,238.1,336.5,239,337.1,239.5L337.1,239.5z"/>
	<path class="st4" d="M93.5,238.9c-0.8-1.2-3-4.2-5.9-3.8c-3.3,0.4,3.7,2.6,5.7,3.9c-0.5,0-0.9,0-1.2-0.1c-1.4-0.5-3.8,0.4-4.6,0.8
		h13.2c-0.1-0.3-0.3-0.9-0.9-1.2c-0.2-0.1-0.6-0.1-1.3-0.1c0.8-0.9,1.3-4-0.9-3.1c-1.6,0.5-1.6,2.3-1.4,3.4c-0.3,0.1-0.6,0.1-1,0.1
		c-0.6-3.3-3-13.2-7.7-13.5c-4.8-0.2,4.1,10.3,7,13.5C94.3,238.8,93.8,238.8,93.5,238.9L93.5,238.9z"/>
	<g>
		<circle class="st5" cx="211.8" cy="141.4" r="19.1"/>
		<ellipse class="st2" cx="210.3" cy="142.3" rx="19.1" ry="19.1"/>
		<path class="st3" d="M210.5,159.9c-6.2,0-12.1-3.3-15.3-9c-2.3-4.1-2.7-8.7-1.5-13.2c1.3-4.5,4.3-8.2,8.3-10.4
			c4.1-2.3,8.7-2.7,13.2-1.5c4.5,1.3,8.2,4.3,10.4,8.3c4.7,8.4,1.6,19-6.9,23.8C216.2,159.1,213.3,159.9,210.5,159.9L210.5,159.9z
			 M210.4,126c-2.7,0-5.5,0.6-8,1.9c-3.9,2-6.6,5.6-7.8,9.8c-1.3,4.2-0.8,8.6,1.4,12.5c3,5.5,8.6,8.5,14.3,8.5
			c2.6,0,5.4-0.6,7.8-1.9c8-4.4,10.8-14.3,6.5-22.3c-2-3.9-5.6-6.6-9.8-7.8C213.4,126.1,211.9,126,210.4,126L210.4,126z"/>
		<path class="st3" d="M215,145.7c-0.1-0.3-0.3-0.6-0.5-0.9c-0.1-0.2-0.5-0.4-0.8-0.5c-0.3-0.2-0.6-0.2-1.1-0.2
			c-0.4,0-0.9-0.1-1.5,0c-1,0.1-1.9,0.1-2.7,0s-1.6-0.2-2.3-0.4c-0.6-0.2-1.3-0.5-1.8-1.1c-0.5-0.5-0.9-1.1-1.2-1.9
			c-0.2-0.8-0.4-1.4-0.4-2s0.1-1.3,0.4-1.9c0.2-0.5,0.6-1.2,1.2-1.7c0.5-0.5,1.2-1,1.9-1.4l-1.1-2.6l2.1-0.9l1.1,2.7
			c0.9-0.2,1.6-0.3,2.3-0.2c0.8,0.1,1.4,0.2,2,0.5s1.2,0.8,1.7,1.3s0.9,1.3,1.2,2l-4,1.6c-0.4-1-0.9-1.6-1.6-1.9
			c-0.6-0.3-1.3-0.3-2,0c-0.4,0.2-0.8,0.3-1,0.5s-0.4,0.5-0.5,0.8c-0.1,0.2-0.1,0.5-0.1,0.9c0,0.3,0.1,0.5,0.2,0.9
			c0.1,0.3,0.2,0.5,0.5,0.8c0.1,0.2,0.4,0.4,0.8,0.5s0.6,0.2,1.1,0.2c0.4,0,1,0.1,1.6,0h2.7c0.9,0.1,1.6,0.2,2.3,0.4
			c0.6,0.2,1.3,0.5,1.8,1.1c0.5,0.5,0.9,1.1,1.2,1.9c0.3,0.8,0.4,1.4,0.4,2.1c0,0.6-0.1,1.3-0.5,1.9c-0.3,0.5-0.8,1.2-1.2,1.7
			c-0.5,0.5-1.2,1-1.9,1.4l1,2.5l-2.2,0.9l-1-2.5c-0.8,0.2-1.6,0.3-2.3,0.4c-0.9,0-1.6-0.1-2.3-0.3c-0.8-0.2-1.4-0.6-1.9-1.2
			c-0.5-0.5-1.1-1.4-1.5-2.4l4-1.6c0.2,0.5,0.5,1.1,0.9,1.4c0.3,0.3,0.6,0.5,1.1,0.6c0.3,0.1,0.8,0.2,1.2,0.1s0.8-0.2,1.2-0.3
			s0.8-0.4,1.1-0.5c0.3-0.2,0.5-0.5,0.5-0.8c0.1-0.2,0.1-0.5,0.1-0.9C215.1,146.2,215.1,145.9,215,145.7L215,145.7z"/>
	</g>
	<path class="st6" d="M229.3,131.1c-0.9-0.5-2.6-1.8-2.6-1.5c-0.1,0.2,0,0.5,0.2,0.9c-1.1-0.4-2.3-0.6-4.8-0.2
		c-0.5,0.1-1,0.4-1.3,0.9c-0.2,0.4-0.3,0.9,0.3,1.3c1.3,0.9,0.9,0.3,2.8,1.6c1.8,1.3,4.2,1.5,5.5,0.6l1.8-0.3l0.2-3L229.3,131.1
		L229.3,131.1z"/>
	<path class="st6" d="M277.3,105.8c0,0-4.4,5.2-9.9,3c0,0-1.2-2.8-1.2-5.1V103c0-2.4-0.1-3.8-0.1-3.8l0,0c0.2-0.1,8.4-3.4,8.4-3.1
		C274.5,102.6,277.3,105.8,277.3,105.8z"/>
	<path class="st7" d="M273.9,97.8c-0.8,1.4-3.5,4.4-7.5,5.4c0-2.4-0.1-3.8-0.1-3.8l0,0C266.6,99.3,274.1,97.2,273.9,97.8L273.9,97.8
		z"/>
	<path class="st6" d="M264.4,99.1c0,0,9.1,2.2,10.4-3.7c1.2-5.8,3.3-9.4-2.5-11s-7.4,0.3-8.3,2.2C263.3,88.5,262.2,98.4,264.4,99.1
		L264.4,99.1z"/>
	<path class="st8" d="M274.8,97c0.1,0.1,2,0.6,5.8-6.8c0.5-1.2,1-3.7-0.4-5.9c-1.3-2.3-6.2-4.1-10.3-4.8s-5.1,1.5-5.9,3.8
		c-1,2.4-3.9,4.4-3.9,4.4c3.5,1.9,7.6-0.9,9-0.4c1.4,0.4,1.9,2.7,2,3.5s0.2,1.3,2,0.6c1.8-0.6,0.9,2.6,0.5,3.1
		C273.9,94.6,273.7,96.4,274.8,97L274.8,97z"/>
	<g>
		<path class="st9" d="M298.4,240.3h5.6c1.2,0,2.5-1.2,2.7-3.3c0.3-2.2,2.7-3.3,3.3-5.2c0.5-1.7-2.1-4.2-2.1-4.2l-0.4-0.5l-0.5-0.5
			l-4.4,1.1c0,0-0.1,1.1-0.1,2.4c-0.1,1-0.1,2,0,3c0.1,2.3-0.6,4.8-2.7,5.4C297.4,238.8,298.4,240.3,298.4,240.3L298.4,240.3z"/>
		<path class="st9" d="M259.6,240.3h14.7c0.1,0,0.2-0.1,0.3-0.1c1-0.5,0.6-4.3,0.5-5.5v-0.3c0,0-5.2-4.2-5.9-1
			c0,0.1-0.1,0.1-0.1,0.3l0,0c-0.9,3-4.9,4.4-7.3,4.7C260.2,238.8,259.8,239.8,259.6,240.3L259.6,240.3z"/>
		<path class="st8" d="M262.6,155.3c0,0,0.8,9.9,1.7,21.6c1.2,16,2.7,35.8,2.9,39.5c0.2,6.6,1.3,16.9,1.3,16.9s2.5,2.5,7.4,1.4
			c0,0,4.4-14.7,5.7-30.5c0-0.2,0-0.5,0.1-0.8c1.2-15.9,3-49.6,3-49.6L262.6,155.3z"/>
		<path class="st10" d="M262.6,155.3c0,0,0.8,9.9,1.7,21.6l17.3,27.3c0-0.2,0-0.5,0.1-0.8c1.2-15.9,3-49.6,3-49.6L262.6,155.3z"/>
		<path class="st8" d="M266.3,156.4c0,0,14.2,35.6,23.5,52.4c9.4,16.8,12.3,21.4,12.3,21.4s5.4-2.2,5.8-3.7c0,0-3.7-32.4-9.9-40.1
			c-3.5-4.4-7.6-17.8-7.8-22.5c-0.1-4.7-1.2-14-1.2-14L266.3,156.4L266.3,156.4z"/>
	</g>
	<g>
		<path class="st6" d="M298.6,150l0.1,2.3c0,0-1.5,4.1,2.7,6.2c0,0,1.8,0.8,1.9-0.6c0.1-1.4-0.1-0.9,0-2.8c0.1-1.9-0.6-3.9-1.9-4.5
			l-1.1-1.3L298.6,150L298.6,150z"/>
		<path class="st11" d="M300.2,151.6c-1.6,0.5-1.8,0.4-1.8,0.4s-7.6-14-8.4-15.2s-16.3-15.6-16.3-15.6l4.1-14.8
			c0,0,17.6,22.8,19.5,26c3.1,5.5,5.1,18,5.1,18S301.4,151.2,300.2,151.6L300.2,151.6z"/>
	</g>
	<path class="st11" d="M259.6,127c0.1,3,0.2,6.5,0.5,10c0,0.2,0,0.4,0.1,0.5c0.1,2.2,0.3,4.4,0.5,6.5c0.1,0.9,0.1,1.6,0.2,2.5v0.1
		c0,0.3,0.1,0.6,0.1,0.9c0.8,7.8,1.6,14.1,1.7,14.2c0.1,0.1,0.4,0.1,0.5,0.1c2-0.2,8.3,0.2,13.2-0.9c4.3-0.9,8-2.6,11.8-4.9
		c0.5-0.3,1.6-1.1,1.6-1.7c-0.1-0.6-0.2-1.6-0.5-2.8c-0.8-4.2-2-11.5-2.5-19.9c-0.1-1.6-0.2-3-0.4-4.7c-0.4-4.1-1.2-7.7-2-11.1
		c-1.7-6.2-4.3-11.1-7.4-12.9c-0.4-0.2-2.7,1.2-4.8,2.5c-1.9,1.3-4,1.6-5.8,1.4l-1.7,1.9c-2,2.4-4.3,5.6-4.9,10.2
		c-0.1,0.3-0.1,0.6-0.1,1.1C259.6,122.1,259.6,124.3,259.6,127L259.6,127z"/>
	<path class="st9" d="M259.6,127c0.1,3,0.2,6.5,0.5,10c0,0.2,0,0.4,0.1,0.5c11.8-7.4,13.5-21,13.5-21c-5.8,0.2-10.4,1.6-14,3.5
		C259.6,122.1,259.5,124.3,259.6,127z"/>
	<path class="st11" d="M229.8,132.7c-0.1-1.7,0.8-1.9,0.8-1.9s17.8-3.3,19.2-3.7c1.5-0.5,14.4-14,14.4-14s4.9-5.6,9-4.4
		c3.5,1.1,4.9,3.9,5.4,6.5c0.5,3-0.9,6.2-3.7,8c-6.1,3.8-18.2,11.1-21.1,11.9c-6.3,1.8-23.5,0.2-23.5,0.2S229.9,134.2,229.8,132.7
		L229.8,132.7z"/>
	<path class="st12" d="M250.7,167v66.2c0,3.9-3.1,7-7,7h-68c-0.5,0-1.2-0.1-1.7-0.2c-1.2-0.2-2.3-0.9-3-1.6
		c-0.5-0.5-1.2-1.2-1.5-1.9c0,0,0-0.1-0.1-0.1c-0.4-0.9-0.6-1.7-0.8-2.6v-66.1c0-3.7,1.9-7.2,5.1-9.1l0,0c2.6-1.6,4.4-4.6,4.4-8
		c0-1-0.1-1.9-0.4-2.8H242c-0.2,0.9-0.4,1.8-0.4,2.8c0,3.1,1.6,6,4.1,7.6l0,0c0.1,0.1,0.3,0.2,0.5,0.3l0,0
		C248.8,160.3,250.7,163.6,250.7,167L250.7,167z"/>
	<path class="st12" d="M250.7,167v66.2c0,3.7-2.9,6.8-6.6,7h-30.5c-4,0-7.2-3.3-7.2-7.2v-65.6c0-3.7,1.9-7.2,5.1-9.1
		c2.6-1.6,4.4-4.6,4.4-8c0-1-0.1-1.9-0.4-2.8h26.2c-0.2,0.9-0.4,1.8-0.4,2.8c0,2.6,1.1,5.1,2.7,6.7c0.5,0.5,1.1,1,1.7,1.3
		C248.8,160.3,250.7,163.6,250.7,167L250.7,167z"/>
	<path class="st13" d="M245.3,158.1c-2-1.2-11.2-5.7-34.3-5.5c-26.4,0.2-37.2,5.6-37.5,5.8c2.6-1.6,4.4-4.6,4.4-8
		c0-1-0.1-1.9-0.4-2.8h64.3c-0.2,0.9-0.4,1.8-0.4,2.8C241.3,153.6,242.9,156.4,245.3,158.1L245.3,158.1z"/>
	<path class="st14" d="M243.3,147.1v3c0,0.3-0.2,0.5-0.5,0.5h-66.1c-0.3,0-0.5-0.2-0.5-0.5v-3c0-0.3,0.2-0.5,0.5-0.5h66.1
		C242.9,146.6,243.3,146.9,243.3,147.1z"/>
	<path class="st15" d="M243.3,147.1v3c0,0.3-0.2,0.5-0.5,0.5h-25c-0.3,0-0.5-0.2-0.5-0.5v-3c0-0.3,0.2-0.5,0.5-0.5h25
		C242.9,146.6,243.3,146.9,243.3,147.1z"/>
	<g>
		<path class="st16" d="M199.1,161.9c0,0-1.6,2.4-3.3,2.4s-4-1.1-4-1.1s-1.4-3.1-0.5-4.4c0,0,1-0.4,1.9,0.3l0.5,0.5
			c0.2,0.3,0.5,0.5,0.9,0.5c1.1,0.3,2.4-0.4,2.9,0.3c0.2,0.4,0.5,0.8,0.9,1C198.8,161.8,199.1,161.9,199.1,161.9z"/>
		<path class="st16" d="M176.9,179.4c0,0,6-14.6,16.9-14.8c0,0,10.1,1.1,10.6,14.8H176.9z"/>
		<path class="st17" d="M190.7,164.8c0,0,4.4,1,5.7,0.4c0,0,0.1-1.8-1.6-1.6c-1.2,0.1-2-0.4-2.6-0.6
			C191.6,162.7,190.6,164.1,190.7,164.8L190.7,164.8z"/>
		<path class="st18" d="M194.6,162.1c-0.2,0.1-1.2-2.9-1.2-2.9l0.5,0.5c0.2,0.3,0.5,0.5,0.9,0.5
			C194.8,160.3,194.9,161.9,194.6,162.1L194.6,162.1z"/>
		<path class="st18" d="M198.5,161.6c-0.1,0-2,1.2-2.3,1.2s1.5-2.3,1.5-2.3C198,161,198.3,161.3,198.5,161.6L198.5,161.6z"/>
		<path class="st18" d="M182.7,175.2c-0.1-0.1,4.3-6.5,5.5-6.6s4,1.4,5.8,1.6c1.9,0.1,3.9-0.3,4.3,0.8c0.3,1.2,1.4,5.3,0.8,5.9
			C198.4,177.5,185.1,177.3,182.7,175.2L182.7,175.2z"/>
	</g>
	<g>
		<path class="st19" d="M177.9,235.2c-0.3,0.1-0.6,0.3-1.1,0.5c-0.3,0.1-0.6,0.4-1,0.5c-1.6,0.9-3.3,1.5-4.9,1.9
			c-0.5-0.5-1.2-1.2-1.5-1.9c-0.2,0.1-0.5,0.2-0.9,0.4v-50c1.2,0.1,2.5,0.4,3.7,0.8c6.8,1.8,12.8,6.1,16.4,12.5
			C195.9,212.6,191,228.3,177.9,235.2L177.9,235.2z"/>
		<g>
			<circle class="st5" cx="158.7" cy="211.2" r="27.2"/>
			<path class="st2" d="M170.7,235.6c-0.3,0.1-0.6,0.4-1,0.5c-0.1,0.1-0.2,0.1-0.3,0.1c-0.2,0.1-0.5,0.2-0.9,0.4
				c-12.9,6.3-28.8,1.5-35.8-11.3c-6.8-12.3-3-27.3,8-35.2c0.9-0.6,1.8-1.2,2.7-1.7c0.3-0.1,0.6-0.4,1.1-0.5l1-0.5
				c1.1-0.5,2.2-0.9,3.3-1.2c1.6-0.5,3.3-0.9,4.9-1c5.2-0.5,10.3,0.4,14.8,2.6c4.8,2.3,9,6.2,11.8,11.3
				C187.4,212,183.1,228.1,170.7,235.6L170.7,235.6z"/>
			<path class="st3" d="M156.7,237.4c-2.3,0-4.7-0.3-6.9-1c-6.3-1.8-11.6-6-14.8-11.8c-3.1-5.8-4-12.5-2-18.9
				c1.8-6.3,6-11.6,11.8-14.8c5.8-3.1,12.5-4,18.9-2c6.3,1.8,11.6,6,14.8,11.8c3.1,5.8,4,12.5,2,18.9c-1.9,6.3-6,11.6-11.8,14.8
				C164.9,236.3,160.8,237.4,156.7,237.4z M136.3,223.9c3,5.5,8,9.4,14,11.2s12.3,1,17.7-1.9c5.5-2.9,9.4-8,11.2-14s1-12.3-1.9-17.7
				c-2.9-5.5-8-9.4-14-11.2s-12.3-1-17.7,1.9c-5.5,2.9-9.4,8-11.2,14S133.2,218.4,136.3,223.9z"/>
			<path class="st3" d="M168.8,214.9c-0.1-0.1-0.1-0.2-0.1-0.4c-0.4-1-1-1.7-1.6-2.3c-0.8-0.6-1.6-1.2-2.6-1.5s-2-0.5-3.3-0.5
				c-1.2-0.1-2.5-0.1-4.1-0.1c-0.9,0-1.6,0-2.3-0.1c-0.6-0.1-1.2-0.1-1.6-0.3s-0.8-0.4-1.1-0.8c-0.2-0.3-0.5-0.6-0.6-1.1
				c-0.1-0.4-0.2-0.9-0.3-1.3c0-0.4,0-0.9,0.1-1.2s0.4-0.8,0.8-1.1s0.9-0.5,1.4-0.9c1.1-0.4,2-0.4,3,0s1.6,1.4,2.3,2.8l5.5-2.3
				c-0.5-1.2-1.1-2.1-1.8-3c-0.8-0.9-1.6-1.4-2.4-1.9c-0.9-0.4-1.9-0.6-3-0.8c-1.1-0.1-2.2,0-3.3,0.3l-1.6-3.9l-3,1.2l1.6,3.9
				c-1.1,0.5-2,1.2-2.8,1.9s-1.3,1.6-1.7,2.5s-0.6,1.8-0.6,2.8s0.1,1.9,0.5,3c0.5,1.2,1.1,2,1.8,2.7s1.6,1.2,2.6,1.5s2,0.5,3.3,0.5
				c1.2,0.1,2.5,0.1,4.1,0c0.9-0.1,1.6-0.1,2.2,0c0.5,0.1,1.2,0.1,1.6,0.3c0.4,0.1,0.9,0.4,1.1,0.8c0.3,0.3,0.5,0.8,0.8,1.2
				c0.1,0.4,0.2,0.9,0.2,1.3s-0.1,0.9-0.3,1.2c-0.1,0.4-0.5,0.8-0.9,1.1s-0.9,0.6-1.5,0.9c-0.5,0.2-1.1,0.3-1.6,0.4
				c-0.5,0.1-1.1,0-1.6-0.1s-1-0.5-1.5-1s-0.9-1.1-1.2-1.9l-5.5,2.3c0.5,1.4,1.3,2.6,2.1,3.4c0.9,0.9,1.8,1.4,2.8,1.7s2,0.5,3.3,0.5
				c1.2-0.1,2.3-0.2,3.3-0.5l1.4,3.5l3-1.2l-1.4-3.5c1.1-0.5,2-1.2,2.8-1.9c0.8-0.6,1.3-1.4,1.7-2.3c0-0.1,0.1-0.1,0.1-0.1
				c0.4-0.9,0.6-1.8,0.6-2.7C169.3,217,169.2,216,168.8,214.9L168.8,214.9z"/>
		</g>
		<g>
			<path class="st8" d="M136.3,116.5c0.1-0.3-7.3,3.3-7.6,3.8c-3.4,3.9-2.4,8.7-0.5,8.8c1.2,0,1,2.1,1,2.1l14-5.9
				C143.3,125.2,141.6,115.4,136.3,116.5L136.3,116.5z"/>
			<path class="st8" d="M138,117.2c0,0,0.5-5.5-5.6-5.5c0,0,1.8,0.5,2.8,1.5c0,0-4-2.3-8.2,1.3c-4.3,3.5-1.6,12.4-2.9,14
				c-1.3,1.6-6.3,1.9-5.7,7.4c0.5,5.5,15.9,12.1,14.9,16.8c0,0,6-8.8,1.7-12.9c0,0,2,1.9,2.3,4.4c0,0,0.5-4.6-2.3-6
				c-2.6-1.3-4.7-6-4.5-6.9C130.9,130.3,138,117.2,138,117.2L138,117.2z"/>
			<path class="st20" d="M132.4,143c-0.9-4.5-6.9-5.9-9.6-2.3c-0.5,0.6-0.9,1.4-1,2.4c-0.6,5.2,7.6,26.1,8.7,28.1
				c2.1,3.4,14.7,15.4,14.7,15.4l2.3-1.4c0,0-9-15.2-10.4-16.7C135.8,166.9,134.3,151.6,132.4,143L132.4,143z"/>
			<path class="st20" d="M144.6,185.1c0,0,3.4-2.3,4.7-2c1.3,0.2,5.1,1.2,5.2,1.7c0.1,0.5-4.2,0.9-4.4,1.2s-3.1,2.2-4.2,1.6
				C144.7,187.1,144.6,185.1,144.6,185.1L144.6,185.1z"/>
			<path class="st8" d="M120.8,235.7l-3-0.4c0,0-10.3-8.1-11.8-23.3c-0.2-1.5-0.2-3-0.1-4.7c0-0.1,0-0.3-0.1-0.5l0,0
				c-0.3-0.5-1.2-1.7-2.3-3.5c-1.1-1.7-2.9-5.2-5.1-8.8c-3.7-6.8-8-14.7-9.4-17.4c-4.7-8.2-2.4-13.7-2.4-13.7s13.1-1.3,16.8-4.4
				l1.3,1.9c0,0,2.8,12.5,2.6,12.6c0.2,0.4,0.2,0.9,0.4,1.3c2.3,6.9,4.8,15.5,6.2,22.6c0.8,4,1.2,7.4,1,9.8c-0.1,0.9,0,1.9,0.2,3.7
				C116.4,219.8,120.8,235.7,120.8,235.7L120.8,235.7z"/>
			<path class="st9" d="M127.2,239.6h-12.7c0,0-0.3-1.9,0.3-3.4c0.6-1.4,1.5-1.4,0.1-3.7c0.9,0.9,3.4,1.2,5.3,0.9
				c0.2,0.3,1.4,2.8,2.2,3.3C123.3,237.3,126.9,237.2,127.2,239.6L127.2,239.6z"/>
			<path class="st10" d="M107.8,174.7c-1.1,6.1-3.8,16.3-9.1,19.6c-3.7-6.8-8-14.7-9.4-17.4c-4.7-8.2-2.4-13.7-2.4-13.7
				s13.1-1.3,16.8-4.4l1.3,1.9c0,0,2.8,12.5,2.6,12.6C107.6,174,107.6,174.4,107.8,174.7L107.8,174.7z"/>
			<path class="st9" d="M131.1,140.2c0,0,1.7,1.8,2.6,4.1c0,0-2.8,8.2-9.5,9.2C124.3,153.6,129.4,140.2,131.1,140.2z"/>
			<path class="st8" d="M98.9,164.2l0.1-2.3c-4.7,0.5-16.3-5.7-16.3-5.7s-4.9,3.3-5.6,12.7c-0.3,4.6-2.4,24-2.6,29.9
				c-0.1,2-0.1,3.7-0.1,4.2l0,0c0,0.1-0.1,0.3-0.2,0.5c-1,1.2-1.8,2.6-2.6,4c-7.2,13.4-3.4,31.6-3.4,31.6l1.6-0.4
				c0,0,6.1-18.9,10.1-27.1c0.6-1.4,1.3-2.5,1.8-3c1.5-1.8,3-4.9,4.7-8.6c2.9-7,5.8-16.4,7.8-23.5C94.3,176.2,98.9,164.2,98.9,164.2
				L98.9,164.2z"/>
			<path class="st6" d="M126.6,148.4c-7.7-1.7-2.7-12.6-2.4-12.5c1.1-0.2,3.4-2,5.5-5.8l0.2,0.2l4.7,4.2c0,0-1.1,1.6-1.9,3.1
				c-0.8,1.3-1.3,2.5-1.2,2.9C132,141,128.7,148.9,126.6,148.4L126.6,148.4z"/>
			<path class="st20" d="M134.8,134.6c0,0-1.1,1.6-1.9,3.1c-2.9-1.8-2.9-5.5-2.7-7.3C130.1,130.4,134.8,134.6,134.8,134.6z"/>
			<path class="st6" d="M134.9,136.7c0,0-7.2-4.1-4.6-8.4c2.6-4.4,3.3-8,8-5.6s4.6,4.6,4.1,6.2C141.9,130.7,136.9,137.6,134.9,136.7
				L134.9,136.7z"/>
			<path class="st8" d="M143.6,126.4c-0.3-1.9-1.3-2.2-1.9-1.9c-2.7-4.4-6.8-7.7-9.9-7.3c-3.2,0.4-2.8,8.2-2.8,8.2s0.9,1.6,4.3,2.5
				c1.1,0.3,2.3,0.1,3.4-0.2c-2.3,1.3-4.8,1.8-4.8,1.8c4.5,0.4,8.8-3.8,9.2-4.2c0.1,0.6,0.5,1.9,0.3,2.9c-0.3,1.3-1.5,3.8-0.8,4.1
				C140.6,132.1,144.1,129.4,143.6,126.4L143.6,126.4z"/>
			<path class="st9" d="M78.1,239.6H65.5c0,0-0.3-1.9,0.3-3.4c0.6-1.4,1.6-2,1.4-3.8c0.9,0.9,2,1.7,4,1.5c0.2,0.3,1.4,2.3,2.2,2.8
				C74.2,237.3,77.8,237.2,78.1,239.6L78.1,239.6z"/>
			<path class="st11" d="M127.5,157.1c-1.6,0.5-4,0.9-6.2,1.2c-3.3,0.3-6.8,0.5-8.6,1.3c-0.6,0.2-1.1,0.5-1.3,1
				c-0.8,2.3-4.3,6-4.3,6c-22.1-1-24.5-10.3-24.5-10.3C97.4,139,122.7,134,122.7,134s1.8-0.8,6.3,2.8c3,2.4,2.6,3.3,2.6,3.3
				S132.3,155.4,127.5,157.1L127.5,157.1z"/>
			<path class="st9" d="M121.2,158.2c-3.3,0.3-6.8,0.5-8.6,1.3c-0.8-11.1,4.4-19.2,4.4-19.2S120.5,154,121.2,158.2L121.2,158.2z"/>
			<path class="st6" d="M124.7,138.1c0,0-8.3,0.9-9,6.2c-0.6,5.5,8,27.5,9.2,29.6c2.3,3.7,15.6,16.2,15.6,16.2l2.4-1.5
				c0,0-9.4-16-11-17.5C129.8,168.7,127.5,139.9,124.7,138.1L124.7,138.1z"/>
			<path class="st11" d="M115.8,147.5c0,0.1,7.6,2.5,12.7,0c0,0,1.1-11.5-4.8-10.8c-5.9,0.5-9.4,2.5-9.6,5.4
				C114,145,115.9,147.5,115.8,147.5L115.8,147.5z"/>
			<path class="st6" d="M139.7,188.5c0,0,3-2.7,4.3-2.8s5.2,0.4,5.3,0.9s-4,1.6-4.2,1.9c-0.2,0.3-2.7,2.6-3.9,2.3
				C140.1,190.4,139.7,188.5,139.7,188.5L139.7,188.5z"/>
		</g>
	</g>
</g>
</svg>
