<?xml version="1.0" encoding="utf-8"?>
<!-- Generator: Adobe Illustrator 26.2.1, SVG Export Plug-In . SVG Version: 6.00 Build 0)  -->
<svg version="1.1" id="Layer_1" xmlns="http://www.w3.org/2000/svg" xmlns:xlink="http://www.w3.org/1999/xlink" x="0px" y="0px"
	 viewBox="0 0 400 283.7" style="enable-background:new 0 0 400 283.7;" xml:space="preserve">
<style type="text/css">
	.st0{opacity:0.1;}
	.st1{fill:#48ADFF;}
	.st2{fill:url(#SVGID_1_);}
	.st3{fill:url(#SVGID_00000137098495839186057770000003340270644987386795_);}
	.st4{fill:url(#SVGID_00000168796544864718688630000006188491333000709282_);}
	.st5{fill:url(#SVGID_00000112618523724895093320000015531861514115771807_);}
	.st6{fill:#FFFFFF;}
	.st7{fill:#A379F6;}
	.st8{opacity:0.1;fill:#A379F6;enable-background:new    ;}
	.st9{fill:url(#SVGID_00000098931453073701495410000017475904466719213482_);}
	.st10{fill:url(#SVGID_00000113344188697087737200000009491180306910140346_);}
	.st11{fill:url(#SVGID_00000072959149499584548680000002318775901100518814_);}
	.st12{fill:#007BE0;}
	.st13{fill:url(#SVGID_00000127764523156608808180000006316901031557762207_);}
	.st14{fill:#4A4997;}
	.st15{fill:url(#SVGID_00000067200427517219649430000006357037971339812282_);}
	.st16{fill:url(#SVGID_00000135683811612855902880000006336400653193481618_);}
	.st17{fill:url(#SVGID_00000065032673435947539380000006314291437261548678_);}
	.st18{fill:url(#SVGID_00000000907249655204255810000012129824389033866684_);}
	.st19{fill:url(#SVGID_00000003067603084423245980000002248399644250585509_);}
	.st20{fill:#3D3C7C;}
	.st21{fill:url(#SVGID_00000181769959093940127130000013197801778312279171_);}
	.st22{opacity:0.5;fill:#FFFFFF;enable-background:new    ;}
	.st23{fill:#E16F7C;}
	.st24{opacity:0.1;fill:#E16F7C;enable-background:new    ;}
	.st25{opacity:0.74;fill:#FFFFFF;enable-background:new    ;}
</style>
<g class="st0">
	<g>
		<g>
			<path class="st1" d="M24.5,247.9c0,0-49.1-59.1-8.3-123C52.5,68.3,94.7,72,125.7,95.1c13.2,9.8,51.2,1.2,83.7-56.5
				c44.2-78.7,197.2-31,169.3,90.1c-13.5,58.7,41.1,60.7,13.3,119.3L24.5,247.9L24.5,247.9z"/>
		</g>
		<g>
			<ellipse class="st1" cx="206.6" cy="251.2" rx="193.4" ry="28.1"/>
		</g>
	</g>
</g>
<linearGradient id="SVGID_1_" gradientUnits="userSpaceOnUse" x1="233.1605" y1="-1399.281" x2="229.7405" y2="-1331.741" gradientTransform="matrix(1 0 0 -1 0 -1144)">
	<stop  offset="0" style="stop-color:#3D3C7C"/>
	<stop  offset="1" style="stop-color:#3D3C7C"/>
</linearGradient>
<polygon class="st2" points="204.7,178.6 199,229.4 264.7,229.4 256.2,178.6 "/>
<linearGradient id="SVGID_00000120545477595534384340000011128673950837508258_" gradientUnits="userSpaceOnUse" x1="90.3" y1="-1257.7856" x2="360.3846" y2="-1257.7856" gradientTransform="matrix(1 0 0 -1 0 -1144)">
	<stop  offset="0" style="stop-color:#3D3C7C"/>
	<stop  offset="1" style="stop-color:#3D3C7C"/>
</linearGradient>
<path style="fill:url(#SVGID_00000120545477595534384340000011128673950837508258_);" d="M90.3,49.8v119.8c0,9.9,7.8,17.9,17.7,18.2
	c43.7,1.1,196.7,3.9,238.4,3.2c7.2-0.1,13-5.8,13.2-13c0.8-27.8,2.1-94.7-2.7-125.8c-1-6.5-6.5-11.4-13.1-11.6
	c-36.6-1.2-198.8-4.9-240.4-4C96,36.7,90.3,42.6,90.3,49.8L90.3,49.8z"/>
<linearGradient id="SVGID_00000065033999422997425060000006704432822301300903_" gradientUnits="userSpaceOnUse" x1="235.9885" y1="-1100.8722" x2="215.3785" y2="-1366.8922" gradientTransform="matrix(1 0 0 -1 0 -1144)">
	<stop  offset="0" style="stop-color:#48ADFF"/>
	<stop  offset="1" style="stop-color:#3840F7"/>
</linearGradient>
<path style="fill:url(#SVGID_00000065033999422997425060000006704432822301300903_);" d="M97.8,49.2V163c0,5.8,4.6,10.4,10.4,10.5
	l232.2,2.9c5.7,0.1,10.4-4.5,10.4-10.2l0.4-112.8c0-4.1-3.2-7.4-7.3-7.5l-237.7-4.8C101.6,41,97.8,44.6,97.8,49.2L97.8,49.2z"/>
<linearGradient id="SVGID_00000052813976974309271310000018180036650459069849_" gradientUnits="userSpaceOnUse" x1="233.3456" y1="-1373.7698" x2="201.9556" y2="-1442.6898" gradientTransform="matrix(1 0 0 -1 0 -1144)">
	<stop  offset="0" style="stop-color:#3D3C7C"/>
	<stop  offset="1" style="stop-color:#3D3C7C"/>
</linearGradient>
<path style="fill:url(#SVGID_00000052813976974309271310000018180036650459069849_);" d="M278.9,239.8h-96.2c-2.6,0-4.6-1.9-4.1-3.9
	l1.2-4.9c0.4-1.5,2-2.6,3.9-2.6l92.8-2.9c2-0.1,3.8,1,4.2,2.5l2.2,7.8C283.5,237.9,281.6,239.8,278.9,239.8L278.9,239.8z"/>
<path class="st6" d="M97.8,49.2V163c0,5.8,4.6,10.4,10.4,10.5l232.2,2.9c5.7,0.1,10.4-4.5,10.4-10.2l0.4-112.8
	c0-4.1-3.2-7.4-7.3-7.5l-237.7-4.8C101.6,41,97.8,44.6,97.8,49.2L97.8,49.2z"/>
<path class="st7" d="M351.1,66.6V53.4c0-4.1-3.2-7.4-7.3-7.5l-237.7-4.8c-4.6-0.1-8.2,3.6-8.2,8.1v17.4L351.1,66.6L351.1,66.6z"/>
<g>
	<circle class="st6" cx="113.1" cy="56.5" r="2.7"/>
	<circle class="st6" cx="122.5" cy="56.5" r="2.7"/>
	<circle class="st6" cx="131.7" cy="56.6" r="2.7"/>
</g>
<g>
	<path class="st8" d="M337,170.1l-223.2-3.2c-3.4-0.1-6.1-2.8-6.1-6.2v-22.3c0-3.2,2.6-5.7,5.7-5.7l223.7,2.5c2.6,0,4.6,2.1,4.6,4.7
		v25.5C341.8,168,339.6,170.2,337,170.1L337,170.1z"/>
	<path class="st8" d="M256.6,129.9l-142.6-2c-3.5-0.1-6.3-2.9-6.3-6.4V77.3c0-2.5,2-4.5,4.5-4.5h143.5c2.9,0,5.2,2.3,5.2,5.2v47.8
		C260.9,128.1,259,130,256.6,129.9L256.6,129.9z"/>
	<path class="st8" d="M337.1,130h-68c-2.4,0-4.4-1.9-4.4-4.3V78.2c0-3,2.4-5.4,5.4-5.4h68.4c1.8,0,3.3,1.5,3.3,3.3v49.2
		C341.8,127.9,339.7,130,337.1,130z"/>
</g>
<linearGradient id="SVGID_00000126318321149919345160000009113466771964040882_" gradientUnits="userSpaceOnUse" x1="156.0905" y1="-1268.4219" x2="152.9705" y2="-1411.8019" gradientTransform="matrix(1 0 0 -1 0 -1144)">
	<stop  offset="0" style="stop-color:#3D3C7C"/>
	<stop  offset="1" style="stop-color:#3D3C7C"/>
</linearGradient>
<path style="fill:url(#SVGID_00000126318321149919345160000009113466771964040882_);" d="M63.6,235.8c0,1.8,1.5,3.3,3.3,3.3H245
	c1.8,0,3.3-1.5,3.3-3.3l1.5-102.3c0-1.8-2.1-5.3-6-5.1l-174-4.5c-2.3-0.1-4.5,0.8-6.1,2.4s-2.5,3.8-2.4,6.1L63.6,235.8L63.6,235.8z"
	/>
<path class="st6" d="M66.9,232.7c0,1.7,1.4,3.1,3.1,3.1h170.7c1.7,0,3.1-1.4,3.1-3.1l1.4-92.9c-0.2-5.6-5.1-7.6-8-7.5l-166.8-4.5
	c-1.6,0-3.1,0.6-4.3,1.7c-1.1,1.1-1.8,2.7-1.7,4.3L66.9,232.7L66.9,232.7z"/>
<linearGradient id="SVGID_00000075881800146169623460000017639255094735003318_" gradientUnits="userSpaceOnUse" x1="156.8351" y1="-1271.9193" x2="154.5651" y2="-1367.9493" gradientTransform="matrix(1 0 0 -1 0 -1144)">
	<stop  offset="0" style="stop-color:#3D3C7C"/>
	<stop  offset="1" style="stop-color:#3D3C7C"/>
</linearGradient>
<path style="fill:url(#SVGID_00000075881800146169623460000017639255094735003318_);" d="M258.5,247.6H49.8c-0.3,0-0.6-0.3-0.6-0.6
	v-7.7c0-0.3,0.3-0.6,0.6-0.6h208.6c0.3,0,0.6,0.3,0.6,0.6v7.7C259.1,247.3,258.8,247.6,258.5,247.6z"/>
<path class="st1" d="M245,149.2l0.1-9.3c-0.2-5.6-5.1-7.6-8-7.5l-166.8-4.5c-1.6,0-3.1,0.6-4.3,1.7c-1.1,1.1-1.8,2.7-1.7,4.3
	l0.4,15.3H245L245,149.2z"/>
<g>
	<path class="st6" d="M241.9,188.6L241.9,188.6c-0.2,0-0.4-0.2-0.4-0.5l0.1-7.5c0-0.2,0.2-0.4,0.5-0.4l0,0c0.2,0,0.5,0.2,0.4,0.5
		l-0.1,7.5C242.4,188.4,242.2,188.6,241.9,188.6z"/>
	<path class="st6" d="M242.2,170.1L242.2,170.1c-0.2,0-0.4-0.2-0.4-0.5l0.4-28.9c0-1.7-0.5-3.1-1.6-4.1c-1.9-1.8-4.9-1.7-5-1.7
		l-53.3-1.4c-0.2,0-0.4-0.2-0.4-0.5c0-0.2,0.2-0.5,0.5-0.4l53.3,1.4c0.3,0,3.5-0.1,5.7,2c1.2,1.1,1.8,2.7,1.8,4.7l-0.4,28.9
		C242.7,169.9,242.5,170.1,242.2,170.1L242.2,170.1z"/>
</g>
<g class="st0">
	<path class="st1" d="M76.2,153.7h93.5c2.3,0,4.2,1.9,4.2,4.2v34.4c0,2.3-1.9,4.2-4.2,4.2H76.2c-2.3,0-4.2-1.9-4.2-4.2v-34.4
		C71.9,155.6,73.8,153.7,76.2,153.7z"/>
	<path class="st1" d="M182.2,153.7h54.9c1.7,0,3,1.4,3,3v36.7c0,1.7-1.4,3-3,3h-54.9c-1.7,0-3-1.4-3-3v-36.7
		C179.2,155.1,180.5,153.7,182.2,153.7z"/>
	<path class="st1" d="M75.7,202.7h160.7c2,0,3.7,1.7,3.7,3.7V228c0,2-1.7,3.7-3.7,3.7H75.7c-2,0-3.7-1.7-3.7-3.7v-21.6
		C71.9,204.4,73.6,202.7,75.7,202.7z"/>
</g>
<circle class="st6" cx="73.3" cy="138.2" r="2.1"/>
<circle class="st6" cx="80.4" cy="138.4" r="2.1"/>
<circle class="st6" cx="87.1" cy="138.8" r="2.1"/>
<g>
	<ellipse class="st6" cx="238.6" cy="71.8" rx="29.4" ry="29.8"/>
	<path class="st7" d="M237.6,87.8c-1.3,0-2.5-0.7-3.1-1.8l-11.1-18.6c-1-1.7-0.5-4,1.2-5.1c1.7-1,4-0.5,5,1.3l7.7,12.9l10.1-20.2
		c0.9-1.8,3.1-2.5,4.9-1.6c1.8,0.9,2.5,3.1,1.6,5l-13.1,26.1C240.2,87,239,87.8,237.6,87.8L237.6,87.8L237.6,87.8z"/>
</g>
<g>
	<ellipse class="st6" cx="106.6" cy="186.1" rx="29.4" ry="29.8"/>
	<path class="st1" d="M105.6,202.1c-1.3,0-2.5-0.7-3.1-1.8l-11.1-18.6c-1-1.7-0.5-4,1.2-5.1s4-0.5,5,1.3l7.7,12.9l10.2-20.2
		c0.9-1.8,3.1-2.5,4.9-1.6s2.5,3.1,1.6,5l-13.1,26.1c-0.6,1.2-1.8,2-3.1,2C105.7,202.1,105.6,202.1,105.6,202.1L105.6,202.1z"/>
</g>
<linearGradient id="SVGID_00000042695609284951043210000006856556499582427806_" gradientUnits="userSpaceOnUse" x1="9245.666" y1="-1375.6213" x2="9207.2256" y2="-1397.5613" gradientTransform="matrix(-1 0 0 -1 9370.4004 -1144)">
	<stop  offset="0" style="stop-color:#FEBBBA"/>
	<stop  offset="1" style="stop-color:#FF928E"/>
</linearGradient>
<path style="fill:url(#SVGID_00000042695609284951043210000006856556499582427806_);" d="M130.6,267.3c0,0,24.4-42.7,27.7-46.7
	c0.6-0.7,1.4-1,2.3-0.9l6.8,0.8l8,17.3l-13.3-7.8c1.3,9.1-15.8,22.7-21.7,27.6c-0.6,0.5-0.6,1.4-0.1,2l2.3,2.5
	c-3.9,3.9-8.3,6.4-13.3,7.6L130.6,267.3L130.6,267.3z"/>
<path class="st12" d="M141.3,260.7c0,0,1.5,0.5,2,1.8c0.2,0.6,0,1.4-0.6,1.8c-2.5,1.8-10.6,7.5-14.3,8.6c-0.3,0.1-0.6-0.2-0.5-0.5
	c0.2-0.9,0.8-2.6,2.8-5.1l-0.2,0.4c-0.2,0.5,0.3,0.9,0.7,0.7C133.8,266.8,138.9,263.7,141.3,260.7L141.3,260.7z"/>
<linearGradient id="SVGID_00000083778423743379374820000012096576916392901810_" gradientUnits="userSpaceOnUse" x1="9241.8701" y1="-1380.9624" x2="9373.3799" y2="-1298.6326" gradientTransform="matrix(-1 0 0 -1 9370.4004 -1144)">
	<stop  offset="0" style="stop-color:#FEBBBA"/>
	<stop  offset="1" style="stop-color:#FF928E"/>
</linearGradient>
<path style="fill:url(#SVGID_00000083778423743379374820000012096576916392901810_);" d="M140.1,277.8c0,0,3.7-8.8,3.7-8.9
	c3.4-20.4,11.5-37.9,13.9-42.5c0.4-0.8,1.2-1.3,2.1-1.4l6.8-0.6l11.3,15.3l-14.6-4.9c3.1,8.7-10.9,25.4-15.6,31.4
	c-0.5,0.6-0.4,1.5,0.3,1.9l2.8,1.9c-3,4.6-6.8,8-11.5,10.1L140.1,277.8L140.1,277.8z"/>
<path class="st12" d="M149.3,269.1c0,0,1.6,0.2,2.3,1.4c0.4,0.6,0.3,1.3-0.2,1.8c-2.1,2.2-8.9,9.5-12.3,11.3
	c-0.3,0.1-0.6-0.1-0.6-0.4c0-0.9,0.3-2.7,1.7-5.6l-0.1,0.4c-0.1,0.5,0.5,0.9,0.8,0.5C143.1,276.7,147.5,272.6,149.3,269.1
	L149.3,269.1z"/>
<path class="st14" d="M198.6,221.2c0,0,6.2,9.2,6.7,13.4s-1.7,5.6-8.2,6.2c-19.2,1.6-28.7-4.2-28.7-4.2c-1.3-8.4-2.2-10.5-13.2-15.1
	c0,0,13.9,1.1,16.7,0C174.7,220.5,198.7,221.2,198.6,221.2L198.6,221.2z"/>
<g>
	<path class="st14" d="M174,169.8c0,0,4.3-5.1,8.9,1.2c0.8,1.1,4,0.2,5.2,2.6c0.6,1.2,1.9,1.9,3.2,1.7c3.3-0.6,8.8-0.7,11.5,4.6
		c2.1,4,0.5,6.3-1.6,7.7c-1.5,1-2.1,3-1.1,4.5c0.9,1.5,1,3.5-1.2,5.9c-5.1,5.4-15.1-3.4-15.1-3.4l-8-18.8L174,169.8L174,169.8z"/>
	<path class="st1" d="M181.9,220c0,0-7.2-6.9-10.7-11.4c-1.9-2.4-2.5-5.7-1.6-8.7c1.6-5.4,4.5-11.1,4.8-12c0.4-1.4,8.5-1.3,8.5-1.3
		s15.9,10.3,22.1,27.8l-7,2.2c0,0-4.1-6.9-8.2-11.4c0,0,7.1,9.4,7.3,13.2L181.9,220L181.9,220z"/>
	
		<linearGradient id="SVGID_00000023247030605035958530000018372926076405466009_" gradientUnits="userSpaceOnUse" x1="-11359.0098" y1="-1362.9446" x2="-11320.7139" y2="-1362.9446" gradientTransform="matrix(1 0 0 -1 11551.1104 -1144)">
		<stop  offset="0" style="stop-color:#FEBBBA"/>
		<stop  offset="1" style="stop-color:#FF928E"/>
	</linearGradient>
	<path style="fill:url(#SVGID_00000023247030605035958530000018372926076405466009_);" d="M168.2,222.7l5.4-5.9l6.2,1.7
		c0,0,7.3,1.1,11.4,0l4.2-1.1l9.4-2.9l1.5,4.2c0.4,1.1,0,2.2-0.9,2.9c-0.8,0.6-1.8,1.2-2.4,1.5c-1.2,0.5-28.6,0.2-28.6,0.2
		L168.2,222.7L168.2,222.7z"/>
	
		<linearGradient id="SVGID_00000122716045821631251800000007712850845993079706_" gradientUnits="userSpaceOnUse" x1="-13288.6699" y1="-674.1624" x2="-13286.7998" y2="-660.4624" gradientTransform="matrix(0.9974 -7.167153e-02 -7.167153e-02 -0.9974 13382.2578 -1424.6034)">
		<stop  offset="0" style="stop-color:#FEBBBA"/>
		<stop  offset="1" style="stop-color:#FF928E"/>
	</linearGradient>
	<path style="fill:url(#SVGID_00000122716045821631251800000007712850845993079706_);" d="M177.2,177l5.4,10.1
		c-0.4,2.2-5.9,2.3-6.8,0.9c-0.1-0.1-0.1-0.3-0.2-0.4l-3.2-6.7c-0.1-0.7,1.7-2.9,2.2-3.2l2.1-1.1C177.7,176.1,174.3,176.1,177.2,177
		L177.2,177z"/>
	<g>
		
			<linearGradient id="SVGID_00000135661193116038750420000010769524885198400696_" gradientUnits="userSpaceOnUse" x1="-15028.4248" y1="2515.7764" x2="-15010.8047" y2="2547.1362" gradientTransform="matrix(0.5458 -0.8379 -0.8379 -0.5458 10488.3115 -11030.2939)">
			<stop  offset="0" style="stop-color:#FEBBBA"/>
			<stop  offset="1" style="stop-color:#FF928E"/>
		</linearGradient>
		<path style="fill:url(#SVGID_00000135661193116038750420000010769524885198400696_);" d="M166.3,174.7c0,0-0.6,3.4,2.1,7.7
			c2.7,4.3,5.3,4.1,6.7,2.6s3-4.1,2.2-8.4C176.5,172.2,167.2,170.3,166.3,174.7L166.3,174.7z"/>
		<path class="st14" d="M174,177c0,0-4.3-5.7-7.7-0.7l0.1,1.7c0,0-4.3-0.2-3.9-4.2s4-6.7,8.9-5.4s7.8,2.9,8.3,6.3s-2.2,2.8-2.2,2.8
			s-1.1-2.4-2.3-2.5c-1.3-0.2-0.8,1.7-0.8,1.7L174,177L174,177z"/>
		
			<linearGradient id="SVGID_00000080207859891546579300000004739270283332298632_" gradientUnits="userSpaceOnUse" x1="-15024.7334" y1="2513.6995" x2="-15007.1133" y2="2545.0598" gradientTransform="matrix(0.5458 -0.8379 -0.8379 -0.5458 10488.3115 -11030.2939)">
			<stop  offset="0" style="stop-color:#FEBBBA"/>
			<stop  offset="1" style="stop-color:#FF928E"/>
		</linearGradient>
		<path style="fill:url(#SVGID_00000080207859891546579300000004739270283332298632_);" d="M175,176.9c0,0-2.2-2.9-0.2-3.5
			s2,2.9,1.8,4.1L175,176.9z"/>
	</g>
</g>
<linearGradient id="SVGID_00000178887282338122850550000007522796749389975181_" gradientUnits="userSpaceOnUse" x1="-11505.0312" y1="-1115.0231" x2="-11525.0615" y2="-1120.5131" gradientTransform="matrix(0.9988 -4.937274e-02 -4.937274e-02 -0.9988 11626.6309 -1463.2518)">
	<stop  offset="0" style="stop-color:#3D3C7C"/>
	<stop  offset="1" style="stop-color:#3D3C7C"/>
</linearGradient>
<path style="fill:url(#SVGID_00000178887282338122850550000007522796749389975181_);" d="M186.1,225.1L186.1,225.1h-24.9
	c-0.6,0-1.1-0.5-1.1-1.1s0.5-1.1,1.1-1.1h24.9c0.6,0,1.1,0.5,1.1,1.1C187.2,224.5,186.7,225,186.1,225.1L186.1,225.1z"/>
<path class="st20" d="M138.9,202.5h20.7c1.5,0,2.9,0.9,3.6,2.3l9.6,20.3H147c-1,0-1.9-0.6-2.2-1.5l-7.4-18.8
	C136.9,203.6,137.7,202.5,138.9,202.5L138.9,202.5z"/>
<path class="st1" d="M153.4,212.9c0.4,1.4,0.1,2.8-0.7,3c-0.9,0.3-1.9-0.6-2.4-2s-0.1-2.8,0.7-3C151.9,210.6,153,211.5,153.4,212.9z
	"/>
<linearGradient id="SVGID_00000054945515853202872410000015918611666685586318_" gradientUnits="userSpaceOnUse" x1="224.8351" y1="-1365.8625" x2="296.9379" y2="-1365.8625" gradientTransform="matrix(1 0 0 -1 0 -1144)">
	<stop  offset="0" style="stop-color:#3D3C7C"/>
	<stop  offset="1" style="stop-color:#3D3C7C"/>
</linearGradient>
<path style="fill:url(#SVGID_00000054945515853202872410000015918611666685586318_);" d="M226,171.3c-0.4,17.9-1.6,79.8-1,101.7
	c0.1,2.3,1.6,4.2,3.6,4.3c9.8,0.4,45.8,1.3,61.8,0.5c3.3-0.2,6-3.3,6.1-7.2c0.3-18.8,1.1-71.7-0.7-96c-0.2-2.9-2.2-5.2-4.6-5.5
	c-10.7-1.2-46.8-4.3-60.7-3.3C228,165.9,226.1,168.3,226,171.3L226,171.3z"/>
<path class="st6" d="M230.4,176.8c-0.5,14.5-2.2,62.6-1.7,80.4c0.1,2.6,1.8,4.7,4.1,4.9c9.1,0.6,40.3,2,53.8,0.8
	c2.4-0.2,4.3-2.5,4.4-5.3c0.7-14.8,2.6-59.6,2.1-77.2c-0.1-2.8-1.9-5.1-4.3-5.4c-9.9-1-43.1-3.5-54.4-2.8
	C232.1,172.3,230.4,174.3,230.4,176.8L230.4,176.8z"/>
<path class="st22" d="M250.2,168.9L250.2,168.9c0,0.6,0.4,1,0.8,1c2.3,0.1,8.8,0.5,11.8,0.7c0.6,0,1-0.6,0.9-1.2v-0.1
	c-0.1-0.4-0.4-0.8-0.8-0.8c-2-0.2-7.9-0.8-11.9-0.6C250.6,167.9,250.2,168.3,250.2,168.9L250.2,168.9z"/>
<path class="st23" d="M293.1,185.7c0-1.9,0-3.9-0.1-5.5c-0.1-2.8-1.9-5.1-4.3-5.4c-9.9-1-43.1-3.5-54.4-2.8
	c-2.1,0.1-3.8,2.2-3.9,4.7c-0.1,2.2-0.1,4-0.3,7.5L293.1,185.7L293.1,185.7z"/>
<g>
	<path class="st24" d="M261.2,216.6h-25.8c-1.5,0-2.8-1.3-2.8-2.8v-22.6c0-1.4,1.1-2.6,2.5-2.6l26,0.6c1.4,0,2.6,1.2,2.6,2.7v22
		C263.8,215.4,262.6,216.6,261.2,216.6z"/>
	<path class="st24" d="M266.8,189.2h22.3c0.4,0,0.8,0.4,0.8,0.8v25.7c0,0.5-0.4,0.8-0.8,0.8H267c-0.5,0-1-0.4-1-1V190
		C266,189.6,266.4,189.2,266.8,189.2z"/>
	<path class="st24" d="M232.4,220.1h56.7c0.5,0,0.9,0.4,0.9,0.9v16.9c0,0.4-0.4,0.8-0.8,0.8h-56.6c-0.5,0-0.9-0.4-0.9-0.9v-17
		C231.7,220.5,232,220.1,232.4,220.1L232.4,220.1z"/>
	<path class="st24" d="M283.9,259.7l-49.6-0.7c-1.5,0-2.6-1.1-2.6-2.4v-12c0-1.2,1.1-2.1,2.3-2.1h52.2c1.2,0,2.2,0.9,2.2,2v11.2
		C288.5,258,286.4,259.8,283.9,259.7L283.9,259.7z"/>
</g>
<circle class="st25" cx="235.5" cy="179.8" r="1.8"/>
<circle class="st25" cx="241.4" cy="180" r="1.8"/>
<circle class="st25" cx="246.8" cy="180.3" r="1.8"/>
<g>
	<ellipse class="st6" cx="263.4" cy="213.2" rx="22.7" ry="23"/>
	<path class="st23" d="M262.6,225.6c-1,0-1.9-0.5-2.4-1.4l-8.6-14.4c-0.8-1.4-0.4-3.1,1-3.9s3.1-0.4,3.9,1l5.9,10l7.9-15.6
		c0.7-1.4,2.4-2,3.8-1.2s1.9,2.4,1.2,3.8l-10.2,20.2C264.6,225,263.7,225.6,262.6,225.6C262.7,225.6,262.6,225.6,262.6,225.6
		L262.6,225.6z"/>
</g>
</svg>
