<?xml version="1.0" encoding="utf-8"?>
<!-- Generator: Adobe Illustrator 26.2.1, SVG Export Plug-In . SVG Version: 6.00 Build 0)  -->
<svg version="1.1" id="Layer_1" xmlns="http://www.w3.org/2000/svg" xmlns:xlink="http://www.w3.org/1999/xlink" x="0px" y="0px"
	 viewBox="0 0 387.4 270.9" style="enable-background:new 0 0 387.4 270.9;" xml:space="preserve">
<style type="text/css">
	.st0{opacity:0.1;fill:#E16F7C;}
	.st1{fill:#FFFFFF;}
	.st2{fill:#4A4997;}
	.st3{fill:#F2F2F2;}
	.st4{opacity:0.3;fill:#D6D6D6;enable-background:new    ;}
	.st5{fill:#F4A261;}
	.st6{fill:#EBF3FA;}
	.st7{clip-path:url(#SVGID_00000181068480723357789900000005223010186607825293_);}
	.st8{fill:#FFA683;}
	.st9{fill:#E57C5C;}
	.st10{fill:#A379F6;}
	.st11{fill:#ED7D5A;}
	.st12{fill:#48ADFF;}
	.st13{fill:#007BE0;}
	.st14{opacity:0.58;fill:#ED7D5A;enable-background:new    ;}
	.st15{fill:#3D3C7C;}
	.st16{clip-path:url(#SVGID_00000051356716127365779870000010774643393701674670_);fill:#FBBE42;}
	.st17{clip-path:url(#SVGID_00000127726202709926973510000003154757671280489096_);}
	.st18{clip-path:url(#SVGID_00000134226137682160976850000007421995298132204173_);}
	.st19{fill:#E16F7C;}
	.st20{fill:#58BC82;}
	.st21{fill:#40A068;}
	.st22{opacity:0.85;fill:#D6D6D6;enable-background:new    ;}
	.st23{fill:#FBBE42;}
</style>
<ellipse class="st0" cx="201.5" cy="260.9" rx="185.9" ry="10"/>
<path class="st0" d="M38.7,256.1C17,256-0.5,238.2,0,216.5c0.3-11.8,4.7-23.2,18.1-29.4c35.3-16.4-13.9-123,48.4-133.6
	s59.9-91.8,132.8-31.2C272.3,83,285.4,1,332.9,43.6s-31.2,96.7,27.9,124.6c38.9,18.4,26.2,51.4,12.9,71.7
	c-7.2,11-19.5,17.6-32.7,17.6C341,257.5,38.7,256.1,38.7,256.1z"/>
<path class="st1" d="M129.9,86.5c0,0.1-0.1,0.1-0.5,0.4c0,0-0.1,0-0.1-0.1c-0.4-2.4-0.9-4.7-1.4-6.8c0.4,0.2,0.6,0.4,0.6,0.4
	s0.1-0.1,0.1-0.2C129.2,82.3,129.6,84.4,129.9,86.5C130,86.4,129.9,86.5,129.9,86.5L129.9,86.5z"/>
<path class="st2" d="M219.5,55.7h-82.7c-8,0-14.5,6.5-14.5,14.5v172.7c0,8,6.5,14.5,14.5,14.5h82.7c8,0,14.5-6.5,14.5-14.5V70.2
	C234,62.2,227.5,55.7,219.5,55.7z"/>
<path class="st2" d="M219.5,55.7h-82.7c-8,0-14.5,6.5-14.5,14.5v172.7c0,4.7,2.2,8.8,5.6,11.5l105-190
	C230.6,59.3,225.4,55.7,219.5,55.7L219.5,55.7z"/>
<path class="st1" d="M194.3,62.8h-30.7c-0.8,0-1.5,0.7-1.5,1.5l0,0c0,0.8,0.7,1.5,1.5,1.5h30.7c0.8,0,1.5-0.7,1.5-1.5l0,0
	C195.8,63.5,195.1,62.8,194.3,62.8z"/>
<path class="st3" d="M219.5,61.1h-12.1l-4.4,8.3c-1.6,3.1-4.8,5-8.3,5h-33c-3.5,0-6.7-1.9-8.3-5l-4.4-8.3h-12.1
	c-5,0-9.1,4.1-9.1,9.1v172.7c0,5,4.1,9.1,9.1,9.1h82.6c5,0,9.1-4.1,9.1-9.1V70.2C228.6,65.2,224.5,61.1,219.5,61.1L219.5,61.1z"/>
<path class="st4" d="M228.6,70.2v1.9l-98.1,177.5c-1.7-1.7-2.8-4-2.8-6.6V70.2c0-5,4.1-9.1,9.1-9.1h12.1l4.4,8.3
	c1.6,3.1,4.8,5,8.3,5h33c3.5,0,6.7-1.9,8.3-5l4.4-8.3h12.2C224.5,61.1,228.6,65.2,228.6,70.2L228.6,70.2z"/>
<path class="st1" d="M268.1,87.2H144.3c-4,0-7.3,3.3-7.3,7.3v29.2c0,4,3.3,7.3,7.3,7.3h123.8c4,0,7.3-3.3,7.3-7.3V94.5
	C275.4,90.4,272.2,87.2,268.1,87.2z"/>
<path class="st5" d="M198.2,101.8l0.9,2.6c0.1,0.2,0.2,0.3,0.4,0.3h2.8c0.4,0,0.6,0.6,0.3,0.8l-2.2,1.6c-0.2,0.1-0.2,0.3-0.2,0.5
	l0.9,2.6c0.1,0.4-0.3,0.7-0.7,0.5l-2.2-1.6c-0.2-0.1-0.4-0.1-0.5,0l-2.2,1.6c-0.3,0.3-0.8-0.1-0.7-0.5l0.9-2.6
	c0.1-0.2,0-0.4-0.2-0.5l-2.2-1.6c-0.3-0.3-0.2-0.8,0.3-0.8h2.8c0.2,0,0.4-0.1,0.4-0.3l0.9-2.6C197.5,101.4,198,101.4,198.2,101.8z"
	/>
<path class="st5" d="M213.5,101.8l0.9,2.6c0.1,0.2,0.2,0.3,0.4,0.3h2.8c0.4,0,0.6,0.6,0.3,0.8l-2.2,1.6c-0.2,0.1-0.2,0.3-0.2,0.5
	l0.9,2.6c0.1,0.4-0.3,0.7-0.7,0.5l-2.2-1.6c-0.2-0.1-0.4-0.1-0.5,0l-2.2,1.6c-0.3,0.3-0.8-0.1-0.7-0.5l0.9-2.6
	c0.1-0.2,0-0.4-0.2-0.5l-2.2-1.6c-0.3-0.3-0.2-0.8,0.3-0.8h2.8c0.2,0,0.4-0.1,0.4-0.3l0.9-2.6C212.8,101.4,213.4,101.4,213.5,101.8z
	"/>
<path class="st5" d="M228.8,101.8l0.9,2.6c0.1,0.2,0.2,0.3,0.4,0.3h2.8c0.4,0,0.6,0.6,0.3,0.8l-2.2,1.6c-0.2,0.1-0.2,0.3-0.2,0.5
	l0.9,2.6c0.1,0.4-0.3,0.7-0.7,0.5l-2.2-1.6c-0.2-0.1-0.4-0.1-0.5,0l-2.2,1.6c-0.3,0.3-0.8-0.1-0.7-0.5l0.9-2.6
	c0.1-0.2,0-0.4-0.2-0.5l-2.2-1.6c-0.3-0.3-0.2-0.8,0.3-0.8h2.8c0.2,0,0.4-0.1,0.4-0.3l0.9-2.6C228.1,101.4,228.7,101.4,228.8,101.8z
	"/>
<path class="st5" d="M244.1,101.8l0.9,2.6c0.1,0.2,0.2,0.3,0.4,0.3h2.8c0.4,0,0.6,0.6,0.3,0.8l-2.2,1.6c-0.2,0.1-0.2,0.3-0.2,0.5
	l0.9,2.6c0.1,0.4-0.3,0.7-0.7,0.5l-2.2-1.6c-0.2-0.1-0.4-0.1-0.5,0l-2.2,1.6c-0.3,0.3-0.8-0.1-0.7-0.5l0.9-2.6
	c0.1-0.2,0-0.4-0.2-0.5l-2.2-1.6c-0.3-0.3-0.2-0.8,0.3-0.8h2.8c0.2,0,0.4-0.1,0.4-0.3l0.9-2.6C243.4,101.4,244,101.4,244.1,101.8z"
	/>
<path class="st5" d="M259.4,101.8l0.9,2.6c0.1,0.2,0.2,0.3,0.4,0.3h2.8c0.4,0,0.6,0.6,0.3,0.8l-2.2,1.6c-0.2,0.1-0.2,0.3-0.2,0.5
	l0.9,2.6c0.1,0.4-0.3,0.7-0.7,0.5l-2.2-1.6c-0.2-0.1-0.4-0.1-0.5,0l-2.2,1.6c-0.3,0.3-0.8-0.1-0.7-0.5l0.9-2.6
	c0.1-0.2,0-0.4-0.2-0.5l-2.2-1.6c-0.3-0.3-0.2-0.8,0.3-0.8h2.8c0.2,0,0.4-0.1,0.4-0.3l0.9-2.6C258.7,101.4,259.3,101.4,259.4,101.8
	L259.4,101.8z"/>
<rect x="192.9" y="115.1" class="st5" width="44.5" height="1.2"/>
<rect x="192.9" y="94.8" class="st5" width="44.5" height="2.3"/>
<rect x="192.9" y="119.8" class="st5" width="44.5" height="1.2"/>
<rect x="192.9" y="124.2" class="st5" width="20.3" height="1.2"/>
<circle class="st6" cx="165.4" cy="109.7" r="17.8"/>
<g>
	<g>
		<g>
			<g>
				<g>
					<g>
						<g>
							<defs>
								<circle id="SVGID_1_" cx="165.4" cy="109.7" r="17.8"/>
							</defs>
							<clipPath id="SVGID_00000183971056231975017830000011572917727015852725_">
								<use xlink:href="#SVGID_1_"  style="overflow:visible;"/>
							</clipPath>
							<g style="clip-path:url(#SVGID_00000183971056231975017830000011572917727015852725_);">
								<path class="st2" d="M174.2,120.5l-1.6-16.4c0-4.2-1.7-8.1-6.1-6.9l0,0c-2-1.1-4.5-0.8-6.2,0.8c-1.7,1.7-2.7,4.2-2.7,6.7
									l-1.7,16L174.2,120.5z"/>
								<g>
									<path class="st8" d="M168,112.1v3.6c0,0-0.5,2.8-2.9,3.3c-2.5-0.7-2.9-3.3-2.9-3.3v-3.6H168L168,112.1z"/>
									<path class="st9" d="M168,111.6v2.3c-0.9,0.5-1.9,0.7-2.9,0.7s-2-0.3-2.9-0.7v-2.3H168L168,111.6z"/>
								</g>
								<path class="st8" d="M171,104.3c-2.6-0.1-4.4-2.1-4.4-2.1c-1.6,1.4-7.2,2.1-7.2,2.1v2.2c0,1.7,0.7,3.7,1.8,5.3
									c0.9,1.3,2.4,2,4,2s3.1-0.7,4-2c1.1-1.6,1.8-3.6,1.8-5.3L171,104.3L171,104.3z"/>
								<path class="st8" d="M179.3,121.7c-2.3-3.9-11.8-6-11.8-6l-2.5,1l-2.5-1c0,0-9.5,2.1-11.8,6l-2.8,20.9l4.4-0.1l2.6-17.4
									c0,0,1.6,5.6,1.5,8.9s-1.1,8.7-1.1,8.7h19.3c0,0-1-5.4-1.1-8.7s1.5-8.9,1.5-8.9l2.6,17.4l4.4,0.1L179.3,121.7L179.3,121.7z"
									/>
								<path class="st10" d="M172.8,117.3c-0.8,2.2-2.7,5.5-7.7,5.8c-5-0.3-6.9-3.6-7.7-5.8c-1.5,0.6-3,1.3-4.2,2.1l1.7,5.7
									l0.1,0.1v-0.1c0,0,0.1,0.2,0.2,0.7c0,0.1,0,0.1,0.1,0.2c0.4,1.7,1.4,5.6,1.3,8.1c-0.1,3.3-1.1,8.7-1.1,8.7h19.3
									c0,0-1-5.4-1.1-8.7s1.5-8.9,1.5-8.9v0.2c0-0.1,0.1-0.2,0.1-0.2l1.7-5.6C175.7,118.6,174.2,117.9,172.8,117.3L172.8,117.3z"
									/>
							</g>
						</g>
					</g>
				</g>
			</g>
		</g>
	</g>
</g>
<path class="st8" d="M288,138c-0.6,0-1.2-0.4-1.5-0.9l-9.1-18.1c0,0-1.1-4.4-2.4-4.4l-0.1,5.8l6.2,22.3c0.4,1.4,1.1,2.6,2.9,2.6
	c3.8,0.1,10.7,1.3,15.2,2.5c4.6,1.2,8.5,0,8.5,0C308,137.6,291.9,138.1,288,138L288,138z"/>
<path class="st8" d="M301.6,135.7v5.2h-7.8V138c0,0-5.1-1.2-4.9-5.9c0.3-4.6,2.4-6.9,3.6-7.3s6.9,1.9,7,2.2c0.1,0.3,0.7,5.2,0.7,5.2
	L301.6,135.7L301.6,135.7z"/>
<path class="st2" d="M293.4,128.7c0,0,1.4-2,2.7-1c1.3,1,0.6,2.9-1,3.9c0,0,1.6,5.5,4.8,5.2c3.2-0.3,7.4-3.7,7-9.1
	c-0.4-5.3-7.3-9.1-11.1-8.3C292.1,120.1,288.3,124.4,293.4,128.7L293.4,128.7z"/>
<path class="st2" d="M307,124.4c0,0,4.2-5.4,8.4-0.7c4.2,4.6,6.9,9.9,8.8,10.9s-1.6,3.4-6.3,1.9C313.2,134.9,307.2,129.2,307,124.4z
	"/>
<path class="st11" d="M293.8,140.9V138c0,0,3.2,0.1,4.6-1.1c0,0-1,2.2-3,2.3v1.7H293.8z"/>
<path class="st2" d="M290.4,182.1c0,0,1.8,28.8,4.2,34.8c2.3,6,17.2,33.5,17.2,33.5l7.7-1.7l-11-32.8c-0.1,2-1.5-7.4,1.2-17
	c1.6-5.6,1-11.7-1.4-16.6l-19.2-0.2"/>
<path class="st2" d="M308.1,180.9c0,0-0.7,8-9.9,17.1c-9.3,9.2-12.9,15.3-12.9,15.3l-1.4,39.7h-7.7c0,0-4.5-41.8-4.4-43.3
	s12.8-28.8,14.3-31.2S308.1,180.9,308.1,180.9z"/>
<path class="st12" d="M302.4,140.5c0,0,8.2,0.6,5.2,10.8c-3.3,11.1,0.5,29,1.2,30.8l-2.5,1c-7.4,2.8-15.6,2.6-22.8-0.5l0,0
	c0,0,6.5-14.4,1.9-21.9c-3-4.8-2.1-9.7,1.4-14.1c2.3-2.8,5.1-5.7,6.2-5.8L302.4,140.5L302.4,140.5z"/>
<path class="st13" d="M292.1,158c-3.8,1.4-1,11.6-5.1,25.9c-1.1-0.3-2.3-0.7-3.4-1.2l0,0c0,0,6.5-14.4,1.9-21.9
	c-1.5-2.4-2-4.8-1.7-7.1l16.3-3.7C300,149.8,297.3,156,292.1,158L292.1,158z"/>
<path class="st8" d="M257,132.4c0,0,14.9,24.8,19.3,26.2c1.9,0.6,14-4.1,19.1-4.9c2.7-0.5,4.7-3,4.4-5.7l0,0
	c-0.3-3.2-3.9-5.9-7.1-5.2L276,148c0,0-14.2-14.7-17.3-18c0,0-1.3-4.1-3.3-4.1C253.6,125.9,256.3,131,257,132.4L257,132.4z"/>
<path class="st13" d="M268.9,255.4c2.1-0.7,6.1-1.5,7.5-2.5h7.4c-0.1,1.5-0.1,2.9-0.1,3.9c0,0.6-0.5,1.2-1.2,1.2h-14.8
	c-1,0-1.3-1.3-0.5-1.8C267.6,255.8,268.2,255.6,268.9,255.4L268.9,255.4z"/>
<path class="st13" d="M305.2,254.6c1.9-1.1,5.6-2.9,6.7-4.2l7.2-1.7c0.3,1.5,0.6,2.9,0.8,3.8c0.1,0.6-0.3,1.3-0.9,1.4l-14.4,3.3
	c-0.9,0.2-1.6-0.9-0.9-1.6C304.1,255.4,304.5,255,305.2,254.6L305.2,254.6z"/>
<path class="st14" d="M276.3,150.2c3.5,0.1,19.2-5.8,23.4-3c-0.8-2.8-4.1-5-6.9-4.4l-16.7,5.2c0,0-14.2-14.7-17.3-18
	C258.6,130,272.4,150.1,276.3,150.2z"/>
<path class="st1" d="M306.9,124l-1.1,0.2c0,0,1.4,2.3,1.1,4.4l1.4-0.3C308.3,128.4,308.1,124.5,306.9,124z"/>
<path class="st1" d="M207.7,141.1H83.9c-4,0-7.3,3.3-7.3,7.3v29.2c0,4,3.3,7.3,7.3,7.3h123.8c4,0,7.3-3.3,7.3-7.3v-29.2
	C214.9,144.4,211.7,141.1,207.7,141.1z"/>
<path class="st5" d="M137.7,155.7l0.9,2.6c0.1,0.2,0.2,0.3,0.4,0.3h2.8c0.4,0,0.6,0.6,0.3,0.8l-2.2,1.6c-0.2,0.1-0.2,0.3-0.2,0.5
	l0.9,2.6c0.1,0.4-0.3,0.7-0.7,0.5l-2.2-1.6c-0.2-0.1-0.4-0.1-0.5,0l-2.2,1.6c-0.3,0.3-0.8-0.1-0.7-0.5l0.9-2.6
	c0.1-0.2,0-0.4-0.2-0.5l-2.2-1.6c-0.3-0.3-0.2-0.8,0.3-0.8h2.8c0.2,0,0.4-0.1,0.4-0.3l0.9-2.6C137,155.3,137.6,155.3,137.7,155.7z"
	/>
<path class="st5" d="M153,155.7l0.9,2.6c0.1,0.2,0.2,0.3,0.4,0.3h2.8c0.4,0,0.6,0.6,0.3,0.8l-2.2,1.6c-0.2,0.1-0.2,0.3-0.2,0.5
	l0.9,2.6c0.1,0.4-0.3,0.7-0.7,0.5L153,163c-0.2-0.1-0.4-0.1-0.5,0l-2.2,1.6c-0.3,0.3-0.8-0.1-0.7-0.5l0.9-2.6c0.1-0.2,0-0.4-0.2-0.5
	l-2.2-1.6c-0.3-0.3-0.2-0.8,0.3-0.8h2.8c0.2,0,0.4-0.1,0.4-0.3l0.9-2.6C152.3,155.3,152.9,155.3,153,155.7z"/>
<path class="st5" d="M168.3,155.7l0.9,2.6c0.1,0.2,0.2,0.3,0.4,0.3h2.8c0.4,0,0.6,0.6,0.3,0.8l-2.2,1.6c-0.2,0.1-0.2,0.3-0.2,0.5
	l0.9,2.6c0.1,0.4-0.3,0.7-0.7,0.5l-2.2-1.6c-0.2-0.1-0.4-0.1-0.5,0l-2.2,1.6c-0.3,0.3-0.8-0.1-0.7-0.5l0.9-2.6
	c0.1-0.2,0-0.4-0.2-0.5l-2.2-1.6c-0.3-0.3-0.2-0.8,0.3-0.8h2.8c0.2,0,0.4-0.1,0.4-0.3l0.9-2.6C167.6,155.3,168.2,155.3,168.3,155.7z
	"/>
<path class="st5" d="M183.6,155.7l0.9,2.6c0.1,0.2,0.2,0.3,0.4,0.3h2.8c0.4,0,0.6,0.6,0.3,0.8l-2.2,1.6c-0.2,0.1-0.2,0.3-0.2,0.5
	l0.9,2.6c0.1,0.4-0.3,0.7-0.7,0.5l-2.2-1.6c-0.2-0.1-0.4-0.1-0.5,0l-2.2,1.6c-0.3,0.3-0.8-0.1-0.7-0.5l0.9-2.6
	c0.1-0.2,0-0.4-0.2-0.5l-2.2-1.6c-0.3-0.3-0.2-0.8,0.3-0.8h2.8c0.2,0,0.4-0.1,0.4-0.3l0.9-2.6C182.9,155.3,183.5,155.3,183.6,155.7z
	"/>
<path class="st5" d="M198.9,155.7l0.9,2.6c0.1,0.2,0.2,0.3,0.4,0.3h2.8c0.4,0,0.6,0.6,0.3,0.8l-2.2,1.6c-0.2,0.1-0.2,0.3-0.2,0.5
	l0.9,2.6c0.1,0.4-0.3,0.7-0.7,0.5l-2.2-1.6c-0.2-0.1-0.4-0.1-0.5,0l-2.2,1.6c-0.3,0.3-0.8-0.1-0.7-0.5l0.9-2.6
	c0.1-0.2,0-0.4-0.2-0.5l-2.2-1.6c-0.3-0.3-0.2-0.8,0.3-0.8h2.8c0.2,0,0.4-0.1,0.4-0.3l0.9-2.6C198.2,155.3,198.8,155.3,198.9,155.7z
	"/>
<rect x="132.4" y="169.1" class="st5" width="44.5" height="1.2"/>
<rect x="132.4" y="148.8" class="st5" width="44.5" height="2.3"/>
<rect x="132.4" y="173.8" class="st5" width="44.5" height="1.2"/>
<rect x="132.4" y="178.2" class="st5" width="20.3" height="1.2"/>
<circle class="st6" cx="104.9" cy="163.7" r="17.8"/>
<path class="st2" d="M66.9,231.6c0,0,30.1-25.2,35.4-16.3s-2.5,37.8-2.5,37.8L66.9,231.6z"/>
<path class="st15" d="M82.7,241.9l17.1,11.2c0,0,7.1-26.4,3.1-36.5C104.8,229.8,90.7,238.2,82.7,241.9z"/>
<path class="st2" d="M82.4,228.9c0,0,18.7,15,20.2,20.4c2.5,8.7-12.1,7.8-18.5,7.8S37.6,256,37.6,256l0.4-6.2l37.1-1.8
	c0,0-20.6-3-19.8-14.9C56,221.2,82.4,228.9,82.4,228.9z"/>
<path class="st2" d="M101.5,254.2c-3.4,3.4-12.7,2.8-17.4,2.8c-6.3,0-46.5-1.1-46.5-1.1l0.4-6.2l37.1-1.8c0,0,14.8,7.1,26.2,6.3
	H101.5L101.5,254.2z"/>
<path class="st13" d="M37.7,255.8c0,0-1.6,3.7-0.4,6.1c1.3,2.4-4.2,0.7-5.1-4.1c-0.9-4.8-0.5-10.6,5.6-8L37.7,255.8L37.7,255.8z"/>
<path class="st12" d="M58.7,191.8c0,0,13.5-39.1,13.9-39c1.6,0.7,4.4,1.3,4.4,1.3l-5.6,43L58.7,191.8z"/>
<path class="st13" d="M72.7,187.3c-3.1-1.5-6.9-3.2-11.4-2.9c-1.9,5.3-2.6,7.3-2.6,7.3l12.7,5.3L72.7,187.3L72.7,187.3z"/>
<path class="st8" d="M75.6,181.4c-1,3.7-5,3-5,3v3.5h-6.8v-4.8l0,0c3.6,0.8,7.4-1.8,5.7-3c-1.7-1.3-2.1-3.4-1.2-4.4s3-0.3,3-0.3
	c2-0.1,3.5-0.3,4.4-0.8C76.1,176.8,76.2,179.4,75.6,181.4z"/>
<path class="st2" d="M71.4,175.5c0,0-2.1-0.8-3,0.3c-0.9,1-0.5,3.1,1.2,4.4s-2.2,3.8-5.7,3c-3.6-0.8-5.5-8.2-2.5-13.1
	c2.8-4.4,12.6-6.4,14.6-1.7S78.1,175.3,71.4,175.5z"/>
<path class="st9" d="M70.7,187.9v-3.5c0,0-2.3-0.3-3.2-0.8c0,0,1.2,1.5,2,1.8v2.5H70.7z"/>
<path class="st12" d="M72.5,188c0,0-11.3-3.9-14.5,4.9c-3.2,8.8,2.2,29.9-3.5,37.2l0,0c8.9,4.2,19.1,4.5,28.3,1l1.2-0.5
	c0,0-4-27-4.1-26c-0.2,0.8,13.3,5.1,16,3.6s19-19.9,19-19.9l-5.5-0.8l-14.7,9.7C94.7,197.2,76.2,188.2,72.5,188z"/>
<path class="st8" d="M114.9,188.4c0,0,5.6-2.4,6-3.6h-8.1c-0.8,0-1.6,0.4-2.1,1.1l-1.2,1.7C109.5,187.6,114.9,188.4,114.9,188.4z"/>
<path class="st13" d="M84,230.7c0,0-3.5-23.7-4.1-25.9c0.1,0.1,0.2,0.1,0.3,0.2c-0.3-0.2-0.4-0.4-0.4-0.4s-8.6-2.1-11.7-5.7
	c0,0,2.9,6,6.7,7.4c3.4,1.2,2.2,19.4,4.8,25.8c1.1-0.3,2.1-0.6,3.1-1L84,230.7L84,230.7z"/>
<path class="st8" d="M73,153c0,0,1.4-5.1,3.6-5.5v6.7L73,153z"/>
<g>
	<g>
		<g>
			<g>
				<g>
					<g>
						<g>
							<defs>
								<circle id="SVGID_00000106143535198278438840000006695531538405099913_" cx="104.9" cy="163.7" r="17.8"/>
							</defs>
							<clipPath id="SVGID_00000085237880882983128060000008325037555187831703_">
								<use xlink:href="#SVGID_00000106143535198278438840000006695531538405099913_"  style="overflow:visible;"/>
							</clipPath>
							<path style="clip-path:url(#SVGID_00000085237880882983128060000008325037555187831703_);fill:#FBBE42;" d="M124.4,189.7
								l-1.1-10.3c-0.2-1.7-1.1-3.1-2.6-4.1l-3.6-2.3l0,0l-2.9-1.1l-3-1.2l-2.5-1l-1.1-0.4l-2.7,1.4l-2.7-1.4l-1,0.4l-2.3,0.9
								l-3.2,1.2l-3,1.2l0,0l-3.5,2.3c-1.4,0.9-2.3,2.4-2.6,4.1l-1.1,10.3h7.2v8.5H117v-8.5L124.4,189.7L124.4,189.7z"/>
						</g>
					</g>
				</g>
			</g>
		</g>
	</g>
</g>
<g>
	<g>
		<g>
			<g>
				<g>
					<g>
						<g>
							<defs>
								<circle id="SVGID_00000153665735173828096930000011211199819495265964_" cx="104.9" cy="163.7" r="17.8"/>
							</defs>
							<clipPath id="SVGID_00000139976466570359505910000006736175370196048061_">
								<use xlink:href="#SVGID_00000153665735173828096930000011211199819495265964_"  style="overflow:visible;"/>
							</clipPath>
							<g style="clip-path:url(#SVGID_00000139976466570359505910000006736175370196048061_);">
								<path class="st2" d="M105,151.4L105,151.4c-4,0-7.2,3.2-7.2,7.2v3.5h14.5v-3.5C112.3,154.7,109,151.4,105,151.4z"/>
								<g>
									<path class="st8" d="M107.9,167.5v2.7c-0.4,1.5-1.6,4.4-2.9,4.4c-1.2,0-2.5-3-2.7-4.5v-2.6L107.9,167.5L107.9,167.5z"/>
									<path class="st9" d="M107.9,167v2.3c-0.9,0.5-1.8,0.7-2.8,0.7s-2-0.3-2.8-0.7V167C102.3,167,107.9,167,107.9,167z"/>
								</g>
								<g>
									<circle class="st8" cx="99.5" cy="162.1" r="1.8"/>
									<circle class="st8" cx="110.5" cy="162.1" r="1.8"/>
								</g>
								<path class="st8" d="M110.8,159.2c-2.1-1.2-2.9-2.1-2.9-2.1h-5.7c-0.5,1.3-2.8,2.1-2.8,2.1v2.9c0,1.7,0.7,3.7,1.8,5.2
									c0.5,0.6,1.1,1.1,1.7,1.5c0.7,0.3,1.4,0.5,2.2,0.5c1.6,0,3-0.7,3.9-2c1.1-1.6,1.8-3.6,1.8-5.2V159.2z"/>
							</g>
						</g>
					</g>
				</g>
			</g>
		</g>
	</g>
</g>
<path class="st1" d="M260.5,194.8H136.7c-4,0-7.3,3.3-7.3,7.3v29.2c0,4,3.3,7.3,7.3,7.3h123.8c4,0,7.3-3.3,7.3-7.3v-29.2
	C267.8,198,264.6,194.8,260.5,194.8z"/>
<path class="st5" d="M192.9,209.4l0.9,2.6c0.1,0.2,0.2,0.3,0.4,0.3h2.8c0.4,0,0.6,0.6,0.3,0.8l-2.2,1.6c-0.2,0.1-0.2,0.3-0.2,0.5
	l0.9,2.6c0.1,0.4-0.3,0.7-0.7,0.5l-2.2-1.6c-0.2-0.1-0.4-0.1-0.5,0l-2.2,1.6c-0.3,0.3-0.8-0.1-0.7-0.5l0.9-2.6
	c0.1-0.2,0-0.4-0.2-0.5l-2.2-1.6c-0.3-0.3-0.2-0.8,0.3-0.8h2.8c0.2,0,0.4-0.1,0.4-0.3l0.9-2.6C192.2,209,192.7,209,192.9,209.4z"/>
<path class="st5" d="M208.1,209.4l0.9,2.6c0.1,0.2,0.2,0.3,0.4,0.3h2.8c0.4,0,0.6,0.6,0.3,0.8l-2.2,1.6c-0.2,0.1-0.2,0.3-0.2,0.5
	l0.9,2.6c0.1,0.4-0.3,0.7-0.7,0.5l-2.2-1.6c-0.2-0.1-0.4-0.1-0.5,0l-2.2,1.6c-0.3,0.3-0.8-0.1-0.7-0.5l0.9-2.6
	c0.1-0.2,0-0.4-0.2-0.5l-2.2-1.6c-0.3-0.3-0.2-0.8,0.3-0.8h2.8c0.2,0,0.4-0.1,0.4-0.3l0.9-2.6C207.4,209,208,209,208.1,209.4z"/>
<path class="st5" d="M223.4,209.4l0.9,2.6c0.1,0.2,0.2,0.3,0.4,0.3h2.8c0.4,0,0.6,0.6,0.3,0.8l-2.2,1.6c-0.2,0.1-0.2,0.3-0.2,0.5
	l0.9,2.6c0.1,0.4-0.3,0.7-0.7,0.5l-2.2-1.6c-0.2-0.1-0.4-0.1-0.5,0l-2.2,1.6c-0.3,0.3-0.8-0.1-0.7-0.5l0.9-2.6
	c0.1-0.2,0-0.4-0.2-0.5l-2.2-1.6c-0.3-0.3-0.2-0.8,0.3-0.8h2.8c0.2,0,0.4-0.1,0.4-0.3l0.9-2.6C222.8,209,223.3,209,223.4,209.4z"/>
<path class="st5" d="M222.9,209.1c-0.2,0-0.3,0.1-0.4,0.3l-0.9,2.6c-0.1,0.2-0.2,0.3-0.4,0.3h-2.8c-0.4,0-0.6,0.6-0.3,0.8l2.2,1.6
	c0.2,0.1,0.2,0.3,0.2,0.5l-0.9,2.6c-0.1,0.4,0.3,0.7,0.7,0.5l2.2-1.6c0.1,0,0.1-0.1,0.2-0.1v-7.5L222.9,209.1L222.9,209.1z"/>
<path class="st5" d="M238.8,209.4l0.9,2.6c0.1,0.2,0.2,0.3,0.4,0.3h2.8c0.4,0,0.6,0.6,0.3,0.8l-2.2,1.6c-0.2,0.1-0.2,0.3-0.2,0.5
	l0.9,2.6c0.1,0.4-0.3,0.7-0.7,0.5l-2.2-1.6c-0.2-0.1-0.4-0.1-0.5,0l-2.2,1.6c-0.3,0.3-0.8-0.1-0.7-0.5l0.9-2.6
	c0.1-0.2,0-0.4-0.2-0.5l-2.2-1.6c-0.3-0.3-0.2-0.8,0.3-0.8h2.8c0.2,0,0.4-0.1,0.4-0.3l0.9-2.6C238.1,209,238.6,209,238.8,209.4z"/>
<path class="st5" d="M254.1,209.4l0.9,2.6c0.1,0.2,0.2,0.3,0.4,0.3h2.8c0.4,0,0.6,0.6,0.3,0.8l-2.2,1.6c-0.2,0.1-0.2,0.3-0.2,0.5
	l0.9,2.6c0.1,0.4-0.3,0.7-0.7,0.5l-2.2-1.6c-0.2-0.1-0.4-0.1-0.5,0l-2.2,1.6c-0.3,0.3-0.8-0.1-0.7-0.5l0.9-2.6
	c0.1-0.2,0-0.4-0.2-0.5l-2.2-1.6c-0.3-0.3-0.2-0.8,0.3-0.8h2.8c0.2,0,0.4-0.1,0.4-0.3l0.9-2.6C253.3,209,253.9,209,254.1,209.4
	L254.1,209.4z"/>
<rect x="187.6" y="222.8" class="st5" width="44.5" height="1.2"/>
<rect x="187.6" y="202.4" class="st5" width="44.5" height="2.3"/>
<rect x="187.6" y="227.5" class="st5" width="44.5" height="1.2"/>
<rect x="187.6" y="231.8" class="st5" width="20.3" height="1.2"/>
<circle class="st6" cx="160.1" cy="216.8" r="17.8"/>
<g>
	<g>
		<g>
			<g>
				<g>
					<g>
						<g>
							<defs>
								<circle id="SVGID_00000121248249340550120230000007877572957232073607_" cx="160.1" cy="216.8" r="17.8"/>
							</defs>
							<clipPath id="SVGID_00000047754560337660172970000004966699583778135696_">
								<use xlink:href="#SVGID_00000121248249340550120230000007877572957232073607_"  style="overflow:visible;"/>
							</clipPath>
							<g style="clip-path:url(#SVGID_00000047754560337660172970000004966699583778135696_);">
								<path class="st2" d="M152.9,213c0,0-1-4,0.6-5.8s4.7-3.6,7.2-2.7c0,0,2-1.2,3.8-0.2s4.5,1.9,4.7,0.7c0,0,0.2,4.6-1.9,5.4
									l-0.9,3.6h-13.2L152.9,213L152.9,213z"/>
								<path class="st19" d="M173.9,228.8c-2.3-3.9-11.8-6-11.8-6l-2.5,1l-2.5-1c0,0-9.5,2.1-11.8,6l-2.8,20.9l4.4-0.1l2.6-17.4
									c0,0,1.6,5.6,1.5,8.9c-0.1,3.3-1.1,8.7-1.1,8.7h19.3c0,0-1-5.4-1.1-8.7s1.5-8.9,1.5-8.9l2.6,17.4l4.4,0.1L173.9,228.8
									L173.9,228.8z"/>
								<g>
									<path class="st8" d="M162.6,219.2v3.6c0,0-0.5,2.8-2.9,3.3c-2.5-0.7-2.9-3.3-2.9-3.3v-3.6H162.6L162.6,219.2z"/>
									<path class="st9" d="M162.6,218.7v2.3c-0.9,0.5-1.9,0.7-2.9,0.7s-2-0.3-2.9-0.7v-2.3H162.6L162.6,218.7z"/>
								</g>
								<path class="st8" d="M165.6,211.4c-2.6-0.1-4.4-2.1-4.4-2.1c-1.6,1.4-7.2,2.1-7.2,2.1v2.2c0,1.7,0.7,3.7,1.8,5.3
									c0.9,1.3,2.4,2,4,2s3.1-0.7,4-2c1.1-1.6,1.8-3.6,1.8-5.3L165.6,211.4L165.6,211.4z"/>
								<circle class="st8" cx="153.9" cy="213.9" r="1.6"/>
								<circle class="st8" cx="165.6" cy="213.9" r="1.6"/>
							</g>
						</g>
					</g>
				</g>
			</g>
		</g>
	</g>
</g>
<path class="st20" d="M339.1,238.6l1.3-0.4c0.2-2.2-0.8-6-5.8-11.8c-9.4-10.7-17.4-26-15.4-32c0,0-9.2,13.8-3,22.9
	C322,225.9,337.4,227.7,339.1,238.6z"/>
<path class="st21" d="M339.6,238.4l0.8-0.3c0.2-2.2-0.8-6-5.8-11.8c-9.4-10.7-17.4-26-15.4-32c0,0-4.9,12.7,1.4,21.2
	C326.8,224,337.9,225.7,339.6,238.4L339.6,238.4z"/>
<path class="st20" d="M342.8,229.4c-0.5,2.3-1.2,4-1.7,5.3l0.6,0.1c2.7-3.7,7.3-11,8.3-20.3c1.5-13.6,3.4-30.6,3.4-30.6
	s-13.8,11.4-10.7,27.3C344.2,219.2,343.8,225.2,342.8,229.4L342.8,229.4z"/>
<path class="st21" d="M347.7,204.8c-0.8,11.3-2.9,23.8-5.7,28.8c0.4-0.3,0.8-0.6,1.3-1c2.6-4.1,5.8-10.4,6.6-18
	c1.5-13.6,3.4-30.6,3.4-30.6S348.7,190,347.7,204.8L347.7,204.8z"/>
<path class="st20" d="M345.3,234.7c-1.2,1.3-2.3,2.3-3.2,3l0.4,0.3c3.2-1.5,9-4.8,13.1-10.6c6-8.6,13.6-19.3,13.6-19.3
	s-13.5,2.6-17.3,14.4C350,228.3,347.5,232.2,345.3,234.7L345.3,234.7z"/>
<path class="st21" d="M357.7,219.9c-4.7,7.4-10.8,15-14.5,17.3c0.4-0.1,0.8-0.1,1.2-0.2c3.3-1.8,7.8-4.8,11.1-9.7
	c6-8.6,13.6-19.3,13.6-19.3S363.9,210.3,357.7,219.9L357.7,219.9z"/>
<path class="st20" d="M340.1,234.3c0.8,2.4,1.5,4.1,1.8,5.2l0.5-0.1c-0.8-4.3-2.2-11.6-3.5-16.4c-1.9-7.1-0.4-10.5-2-22.9
	c-1.5-12.4-8.9-28.7-8.9-28.7s-4.7,17.2,2,33.6C337,221.5,336.4,223.6,340.1,234.3z"/>
<path class="st21" d="M342,239.5L342,239.5l0.1-1.8c-0.8-4.3-2-10.5-3.2-14.8c-1.9-7.1-0.4-10.5-2-22.9c-1.5-12.4-8.9-28.7-8.9-28.7
	s2.3,24.5,5.7,35.3C336.9,216.6,341.4,236.6,342,239.5L342,239.5z"/>
<path class="st1" d="M328,237.1l3,17.5c0.3,1.6,1.7,2.8,3.4,2.8h17.1c1.7,0,3.1-1.2,3.4-2.8l3-17.5c0.3-1.6-1-3-2.6-3h-24.6
	C329,234,327.7,235.5,328,237.1L328,237.1z"/>
<path class="st22" d="M357.8,236.2L357.8,236.2c0-0.2-0.1-0.3-0.1-0.5l0,0c-0.1-0.1-0.1-0.3-0.2-0.4v-0.1l-0.3-0.3l-0.1-0.1
	c-0.1-0.1-0.2-0.2-0.3-0.2s-0.1-0.1-0.2-0.1s-0.2-0.1-0.2-0.1c-0.1,0-0.2-0.1-0.3-0.1s-0.1,0-0.2-0.1c-0.2,0-0.4-0.1-0.6-0.1h-24.6
	c-1.5,0-2.6,1.2-2.6,2.7h22v0.4l-3,17.5c-0.3,1.6-1.7,2.8-3.4,2.8h7.8c1.7,0,3.1-1.2,3.4-2.8l3-17.5
	C357.8,236.7,357.8,236.4,357.8,236.2L357.8,236.2z"/>
<path class="st19" d="M88.4,116.9c-1.7-1.7-4.4-1.7-6.1,0l-0.6,0.6l-0.6-0.6c-0.8-0.8-1.9-1.3-3-1.3s-2.2,0.4-3,1.3
	c-1.7,1.7-1.7,4.4,0,6.1l0.6,0.6l6.1,6.1l6.1-6.1l0.6-0.6c0.8-0.8,1.3-1.9,1.3-3C89.7,118.8,89.3,117.7,88.4,116.9z"/>
<g>
	<path class="st10" d="M322.6,82c0.7-0.1,1.2-0.6,1.2-1.3s-0.6-1.4-1.4-1.4h-3c-1.4,0-1.5,0-2-0.1c-1.1-0.2,0.2-1.6-0.5-4.2
		s-3.2-2.4-3.1-1.2s0.3,4.1-0.4,5c-1.5,2-3.9,2.2-3.9,2.2v6.8h2.7c1.2,1.4,3.5,1.7,3.7,1.7h5.1c0.7,0,1.2-0.6,1.2-1.2
		c0-0.4-0.2-0.7-0.5-1c0.7,0,1.3-0.6,1.3-1.3c0-0.6-0.4-1.1-0.9-1.3h0.2c0.7,0,1.4-0.6,1.4-1.4l0,0C323.5,82.6,323.1,82.1,322.6,82
		L322.6,82z"/>
	<polygon class="st10" points="301.9,88.9 306.5,89 306.5,79 301.9,79 	"/>
</g>
<path class="st23" d="M253.6,166l-1.3,4c-0.1,0.2-0.3,0.4-0.5,0.4h-4.2c-0.5,0-0.7,0.7-0.3,1l3.4,2.5c0.2,0.1,0.3,0.4,0.2,0.6
	l-1.3,4c-0.2,0.5,0.4,0.9,0.8,0.6l3.4-2.5c0.2-0.1,0.4-0.1,0.6,0l3.4,2.5c0.4,0.3,1-0.1,0.8-0.6l-1.3-4c-0.1-0.2,0-0.5,0.2-0.6
	l3.4-2.5c0.4-0.3,0.2-1-0.3-1h-4.2c-0.2,0-0.4-0.2-0.5-0.4l-1.3-4C254.4,165.5,253.7,165.5,253.6,166z"/>
</svg>
