<?xml version="1.0" encoding="utf-8"?>
<!-- Generator: Adobe Illustrator 26.2.1, SVG Export Plug-In . SVG Version: 6.00 Build 0)  -->
<svg version="1.1" id="Layer_1" xmlns="http://www.w3.org/2000/svg" xmlns:xlink="http://www.w3.org/1999/xlink" x="0px" y="0px"
	 viewBox="0 0 398 276.1" style="enable-background:new 0 0 398 276.1;" xml:space="preserve">
<style type="text/css">
	.st0{opacity:0.1;}
	.st1{fill:#48ADFF;}
	.st2{fill:#9566F5;}
	.st3{opacity:0.15;}
	.st4{opacity:0.5;fill:none;stroke:#4A4997;stroke-width:0.66;stroke-miterlimit:10;enable-background:new    ;}
	.st5{fill:#FFFFFF;}
	.st6{opacity:0.5;fill:none;stroke:#4A4997;stroke-width:0.56;stroke-miterlimit:10;enable-background:new    ;}
	.st7{fill:#E16F7C;}
	.st8{opacity:0.5;fill:#E16F7C;enable-background:new    ;}
	.st9{enable-background:new    ;}
	.st10{opacity:0.7;fill:#9566F5;enable-background:new    ;}
	.st11{fill:#FF9985;}
	.st12{fill:#4A4997;}
	.st13{fill:#1A3174;}
	.st14{fill:#FFB288;}
	.st15{fill:#007BE0;}
</style>
<g class="st0">
	<path class="st1" d="M37.8,275.9c0,0-52.2-56.6-33.9-122.5c12-43.1,51.8-17,49.7-86.7S170.8-10.4,203.9,9.9S237.7,43.1,306,35
		s98,53.4,62.6,104.9c-31,45.1,70,40.6,10,136.2L37.8,275.9z"/>
</g>
<g class="st0">
	<path class="st2" d="M107.8,220.9c0-7.3-1.5-14.5-4.4-21.3c-2.9-6.7-7.8-12.4-14.1-16.2c-4.5-2.6-10.6-3.8-14.6-0.4
		c-1.3,1.2-2.3,2.6-2.9,4.3c-1.7,4.2-1.8,9-0.1,13.3c1.5,3.5,3.8,6.7,6.6,9.3c7.2,7.3,16.6,13,26.8,13"/>
	<path class="st2" d="M106.5,235.5c-4.5-4.9-10.6-8.1-17.2-9c-2.3-0.3-7.4-1.1-8.8,1.4s1.8,6.1,3.5,7.4c1.9,1.7,4,3,6.2,4
		c5.6,2.1,11.9,0.9,16.2-3.2"/>
	<path class="st2" d="M276.5,222.1c-3.6-10.4-5-21.9-1.8-32.4s11.7-19.8,22.5-22c1.5-0.4,3-0.4,4.5-0.1c1.5,0.5,2.8,1.3,3.8,2.4
		c5.2,5.1,6.6,13.1,5,20.2s-5.7,13.3-10.4,18.9c-5.1,6.1-11.6,11.9-19.5,12.8"/>
	<path class="st2" d="M281.5,234c1.5-2.4,4-3.9,6.4-5.2c4.9-2.7,10.2-5,15.8-5.8c3-0.4,6.7-0.1,8.2,2.6c1.3,2.2,0.4,5-1,7.1
		c-2.4,3.5-6.1,5.8-10.2,6.5c-2.6,0.3-5.3,0.2-7.9-0.2c-3.6-0.5-7.3-1.2-10.5-3"/>
	<path class="st2" d="M295,180.6c-10.9,13.4-20.7,27.6-29.5,42.4"/>
	<path class="st2" d="M303.4,231.8c-9.8,2-19.9,2.9-29.9,2.6"/>
	<path class="st2" d="M80.8,194.3c15.6,9.4,29.6,21.3,41.5,35.2"/>
	<path class="st2" d="M87.9,232.1c9.9,3.3,20.2,5.1,30.7,5.3"/>
</g>
<g class="st3">
	<path class="st1" d="M108.3,250.7l176.5-0.4L265,132.9c-0.8-4.5-4.7-7.9-9.3-7.8l-157.5,0.3c-5.2,0-9.4,4.2-9.4,9.4
		c0,0.5,0,1.1,0.1,1.6L108.3,250.7z"/>
</g>
<line class="st4" x1="113.2" y1="168.6" x2="246.4" y2="168.6"/>
<line class="st4" x1="124.9" y1="206.9" x2="258.1" y2="206.9"/>
<path class="st1" d="M89.2,137.4l-0.2-1.1c-0.9-5.1,2.6-10,7.7-10.9c0.5-0.1,1-0.1,1.6-0.1l157.5-0.3c4.6,0,8.5,3.3,9.3,7.9l0.8,4.8
	C266.3,137,89.2,137.4,89.2,137.4z"/>
<path class="st5" d="M103.7,130.6c-1.2-0.9-2.6-0.9-3.3,0c-0.6,1.2-0.2,2.6,0.9,3.3c1.2,0.9,2.6,0.9,3.3,0S104.9,131.5,103.7,130.6z
	"/>
<path class="st5" d="M111.4,130.6c-1.2-0.9-2.6-0.9-3.3,0c-0.6,1.2-0.2,2.6,0.9,3.3c1.2,0.9,2.6,0.9,3.3,0
	C112.9,132.7,112.5,131.3,111.4,130.6z"/>
<path class="st5" d="M119.1,130.6c-1.2-0.9-2.6-0.9-3.3,0c-0.6,1.2-0.2,2.6,0.9,3.3c1.2,0.9,2.6,0.9,3.3,0S120.2,131.5,119.1,130.6z
	"/>
<line class="st6" x1="78.9" y1="250.4" x2="321.8" y2="250.4"/>
<path class="st7" d="M244.5,111.8l4.6-4.6h17.3c3.5,0,6.4-2.9,6.4-6.4v-1.4c0-3.5-2.8-6.4-6.4-6.4h-15.5c-3.5,0-6.4,2.9-6.4,6.4
	V111.8z"/>
<path class="st5" d="M263.5,99.9c0,0.9,0.7,1.6,1.6,1.6s1.6-0.7,1.6-1.6s-0.7-1.6-1.6-1.6l0,0C264.2,98.3,263.5,99.1,263.5,99.9z"/>
<path class="st5" d="M257.7,99.9c0,0.9,0.7,1.6,1.6,1.6s1.6-0.7,1.6-1.6s-0.7-1.6-1.6-1.6l0,0C258.4,98.3,257.7,99.1,257.7,99.9z"/>
<path class="st5" d="M251.9,99.9c0,0.9,0.7,1.6,1.6,1.6s1.6-0.7,1.6-1.6s-0.7-1.6-1.6-1.6l0,0C252.6,98.3,251.9,99.1,251.9,99.9z"/>
<circle class="st8" cx="270.6" cy="92.9" r="3.3"/>
<path class="st2" d="M240.7,92.2l-4.6-4.6h-17.3c-3.5,0-6.4-2.9-6.4-6.4v-1.4c0-3.5,2.9-6.4,6.4-6.4h15.5c3.5,0,6.4,2.9,6.4,6.4
	L240.7,92.2L240.7,92.2z"/>
<path class="st5" d="M221.6,80.3c0,0.9-0.7,1.6-1.6,1.6c-0.9,0-1.6-0.7-1.6-1.6s0.7-1.6,1.6-1.6C220.9,78.7,221.6,79.4,221.6,80.3
	L221.6,80.3z"/>
<path class="st5" d="M227.4,80.3c0,0.9-0.7,1.6-1.6,1.6s-1.6-0.7-1.6-1.6s0.7-1.6,1.6-1.6l0,0C226.7,78.8,227.4,79.5,227.4,80.3z"/>
<path class="st5" d="M233.2,80.3c0,0.9-0.7,1.6-1.6,1.6s-1.6-0.7-1.6-1.6s0.7-1.6,1.6-1.6l0,0C232.5,78.8,233.2,79.5,233.2,80.3z"/>
<polygon class="st7" points="133.1,115.1 73.3,115.1 68.9,97.4 128.8,97.4 "/>
<g class="st9">
	<path class="st5" d="M91.4,102.2l2,7.4h-2.1l-0.8-2.9h-2.9l0.8,2.9h-2.1l-2-7.4h2.1l0.7,2.8H90l-0.7-2.8H91.4z"/>
	<path class="st5" d="M93.5,105.9c-0.6-2.2,0.7-3.9,3.1-3.9s4.6,1.6,5.2,3.9c0.6,2.2-0.7,3.9-3.1,3.9S94.1,108.1,93.5,105.9z
		 M99.6,105.9c-0.3-1.3-1.4-2.1-2.6-2.1s-1.8,0.8-1.4,2.1c0.3,1.3,1.4,2.1,2.6,2.1C99.3,108,100,107.2,99.6,105.9z"/>
</g>
<g class="st9">
	<path class="st5" d="M101.8,102.2h2.1l1.5,5.7h3.5l0.4,1.7h-5.6L101.8,102.2z"/>
</g>
<g class="st9">
	<path class="st5" d="M114.9,108.2h-3.1l-0.2,1.4h-2.1l1.3-7.4h2.1l5.3,7.4H116L114.9,108.2z M113.9,106.6l-1.6-2.4l-0.3,2.4H113.9z
		"/>
</g>
<circle class="st10" cx="66.9" cy="217.2" r="6"/>
<path class="st8" d="M61.7,202.9c0-1.6-1.3-3-2.9-3s-3,1.3-3,2.9s1.3,3,2.9,3l0,0C60.3,205.8,61.7,204.5,61.7,202.9L61.7,202.9z"/>
<path class="st8" d="M323.6,241.9c0-1.6-1.4-2.9-3-2.9s-2.9,1.4-2.9,3s1.3,2.9,2.9,2.9C322.3,244.9,323.6,243.6,323.6,241.9
	L323.6,241.9z"/>
<path class="st10" d="M300.4,149.8c0-1.6-1.4-2.9-3-2.9s-2.9,1.4-2.9,3s1.3,2.9,2.9,2.9C299.1,152.8,300.4,151.5,300.4,149.8
	L300.4,149.8z"/>
<circle class="st8" cx="177" cy="102.7" r="5.1"/>
<path class="st2" d="M286.6,122.4h51.1c3.3,0,6,2.7,6,6v25.4c0,3.3-2.7,6-6,6h-51.1c-3.3,0-6-2.7-6-6v-25.4
	C280.6,125.1,283.3,122.4,286.6,122.4z"/>
<path class="st5" d="M283.3,193.7l-0.5-1.7h-2.6l-0.5,1.7H278l2.5-7.2h1.9l2.5,7.2H283.3z M282.4,190.7c-0.5-1.6-0.8-2.4-0.8-2.6
	s-0.1-0.4-0.1-0.5c-0.1,0.4-0.4,1.5-0.9,3.1H282.4z"/>
<path class="st5" d="M287.2,193.7h-1.5V186h1.5V193.7z"/>
<path class="st5" d="M293.8,191c0,0.8-0.2,1.5-0.7,2.1c-0.5,0.5-1.3,0.8-2,0.8c-0.5,0-1-0.1-1.4-0.3s-0.7-0.6-0.9-1
	c-0.2-0.5-0.3-1-0.3-1.5c0-0.8,0.2-1.5,0.7-2.1c0.5-0.5,1.3-0.8,2-0.8c0.5,0,1,0.1,1.4,0.4c0.4,0.2,0.7,0.6,0.9,1
	C293.7,190,293.8,190.5,293.8,191z M290,191c0,0.4,0.1,0.9,0.3,1.2c0.2,0.3,0.5,0.4,0.9,0.4c0.3,0,0.7-0.1,0.9-0.4
	c0.4-0.8,0.4-1.7,0-2.5c-0.4-0.5-1.1-0.5-1.6-0.1l-0.1,0.1C290.1,190.1,290,190.6,290,191z"/>
<path class="st5" d="M300.1,193.7h-1.5v-3.2c0-0.8-0.3-1.2-0.9-1.2c-0.4,0-0.7,0.1-0.9,0.4c-0.2,0.4-0.3,0.9-0.3,1.4v2.6H295V186
	h1.5v1.6c0,0.1,0,0.4,0,0.9v0.4h0.1c0.3-0.5,1-0.9,1.6-0.8c0.5,0,1.1,0.2,1.5,0.5c0.4,0.4,0.5,0.9,0.5,1.5L300.1,193.7z"/>
<path class="st5" d="M305.2,193.7l-0.3-0.8l0,0c-0.2,0.3-0.5,0.5-0.8,0.7c-0.3,0.1-0.7,0.2-1,0.2c-0.5,0-0.9-0.1-1.2-0.4
	c-0.3-0.3-0.5-0.8-0.5-1.3s0.2-1,0.6-1.3c0.6-0.3,1.2-0.5,1.9-0.5h1v-0.2c0.1-0.4-0.2-0.8-0.6-0.8c-0.1,0-0.1,0-0.2,0
	c-0.5,0-1.1,0.2-1.6,0.4l-0.5-1c0.7-0.3,1.4-0.5,2.1-0.5c0.6,0,1.2,0.1,1.7,0.5c0.4,0.4,0.6,0.9,0.6,1.5v3.7L305.2,193.7z
	 M304.7,191.2h-0.6c-0.3,0-0.7,0.1-1,0.2c-0.2,0.1-0.3,0.4-0.3,0.7c0,0.4,0.2,0.6,0.7,0.6c0.3,0,0.6-0.1,0.8-0.3
	c0.2-0.2,0.3-0.5,0.3-0.8L304.7,191.2z"/>
<path class="st5" d="M301.1,147.5h-3.4v-5.1h-4v5.1h-3.4v-12.6h3.4v4.7h4v-4.7h3.4V147.5z"/>
<path class="st5" d="M308.3,147.6c-1.4,0.1-2.7-0.4-3.8-1.3c-0.9-1-1.4-2.3-1.3-3.7c-0.1-1.4,0.4-2.7,1.2-3.8c2-1.7,4.9-1.8,7-0.2
	c0.8,0.9,1.3,2.1,1.2,3.3v1.5h-6c0,0.5,0.2,1,0.6,1.3s1,0.5,1.5,0.5c0.6,0,1.1-0.1,1.6-0.2c0.6-0.1,1.1-0.3,1.6-0.6v2.4
	c-0.5,0.3-1.1,0.5-1.6,0.6C309.7,147.6,309,147.7,308.3,147.6z M308.1,139.8c-0.4,0-0.7,0.1-1,0.4c-0.3,0.3-0.5,0.7-0.5,1.2h2.9
	c0-0.4-0.1-0.8-0.4-1.1C308.9,140,308.5,139.8,308.1,139.8z"/>
<path class="st5" d="M317.9,147.5h-3.4v-13.4h3.4V147.5z"/>
<path class="st5" d="M323.6,147.5h-3.4v-13.4h3.4V147.5z"/>
<path class="st5" d="M335.2,142.6c0.1,1.4-0.4,2.7-1.3,3.7c-1,0.9-2.3,1.4-3.6,1.3c-1.3,0.1-2.6-0.4-3.5-1.4s-1.4-2.3-1.3-3.7
	c-0.1-1.4,0.4-2.7,1.3-3.7c1-0.9,2.3-1.4,3.6-1.3c0.9,0,1.8,0.2,2.5,0.6c0.7,0.4,1.3,1,1.7,1.8C335,140.7,335.2,141.6,335.2,142.6z
	 M328.9,142.6c0,0.7,0.1,1.3,0.3,1.9c0.2,0.4,0.6,0.7,1.1,0.6c0.5,0,0.9-0.2,1.1-0.6c0.4-1.2,0.4-2.6,0-3.8
	c-0.4-0.6-1.2-0.8-1.8-0.4c-0.2,0.1-0.3,0.3-0.4,0.4C329,141.3,328.9,141.9,328.9,142.6z"/>
<path class="st11" d="M166.6,194.4c-1.9,17-0.3,34.2,4.8,50.6l5.4-4.9c0,0-5.5-22,0.8-44.8L166.6,194.4z"/>
<path class="st12" d="M208.2,125.4c-2.8-2.3-15-6.8-24.7-3.9c-0.1-0.1-0.1-0.1-0.2-0.2c-2.1-1.5-4.8-1.8-7.5-1.5
	c-5,0.6-6.6,4.8-10.7,5.9c-1.6,0.4-3.2-0.4-4.8-0.2c-2.1,0.3-3.5,2.2-4.3,4c-0.8,1.8-1.1,3.8-2.4,5.4c-1.1,1.4-2.7,2.3-3.9,3.6
	s-1.9,3.3-0.7,4.5c0.6,0.6,1.4,0.8,2,1.4c1.6,1.6-0.1,4.1-0.7,6.3c-0.7,2.4,0.1,5.1,2.1,6.7c1.4,1.2,3.5,2,3.7,3.7
	c0.2,1.4-0.9,2.9-0.2,4.1c0.9,1.8,4.2,1.1,5.9,2.4c1.2,0.9,1.3,2.5,1.9,3.8c1.2,2.6,3.8,4.3,6.7,4.3c1.6,0,3.2-0.4,4.7,0.1
	c1.9,0.6,3,2.6,5,2.9c4.1,0.7,5.1-3.8,7.9-6.4c3.5-3.2,10.3-3.2,11.9-7.5c0.4-1,0.4-2.2,1.2-2.9s2.2-0.7,3.1-1.4
	c1.7-1.2,1-3.9,1.8-5.7c0.1-0.1,0.7-1.1,0.9-1.1C213.8,143.7,215.6,131.4,208.2,125.4z"/>
<path class="st12" d="M206.1,154.1c4.8-4.6,9-17.1,5.5-26.1c-1.9-4.8-3.4-7.8-6.7-7.9c-2.6-0.1-6.9-2.3-8.8-2.8
	c-5.5-1.3-13,1.8-15.7,6.4c-1.6,2.6-1.6,3.1-3.2,5.6V154h28.9V154.1z"/>
<path class="st11" d="M272.9,168.6c-0.6,0.4-1.3,0.9-2,1.4c-8,6.3-16.3,10.5-27,18.1c-1.7,1.2-4,1.1-5.7-0.2c-2.2-1.8-4.3-3.5-7.3-6
	l-7.6,12.3l0.6,0.4c4.8,3,10.2,6.3,13.9,7.6c5.1,1.8,24.3-15.1,35-26.9L272.9,168.6z"/>
<path class="st1" d="M206.7,187.5c-11.3-8.9,0.2-28.8,11.6-19.9c9.4,7.4,15.7,12.6,20.3,16.7c0.7,0.7,0.8,1.8,0.1,2.6
	c0,0,0,0-0.1,0.1l-11.2,11.2c-1.5,1.5-3.9,1.7-5.6,0.4C216.2,194.6,211.4,191.2,206.7,187.5z"/>
<path class="st1" d="M190.9,182.8c5.9-13.1-13.5-25.5-19.5-12.3c-4.9,10.8-8.1,18.4-10.3,24.1c-0.3,0.9,0.1,2,1.1,2.3h0.1l15.1,4.8
	c2,0.6,4.3-0.3,5.2-2.2C185.8,193.5,188.5,188.3,190.9,182.8z"/>
<polygon class="st1" points="176.1,165.6 182.3,163.8 179.5,167 "/>
<polygon class="st1" points="215.3,165.9 210.1,164.4 213.5,167.7 "/>
<path class="st13" d="M221.6,249.8c-3-2.9-7.6-3.7-11.4-1.9c-1.4,0.6-2.8,1.3-4.2,1.9H221.6z"/>
<path class="st13" d="M184.8,249.8c-0.8-0.4-1.7-0.9-2.5-1.4c-3.8-2.2-8.7-1.6-11.9,1.4H184.8z"/>
<path class="st11" d="M275,163.4c0.5,0.2,0.7,0.8,0.5,1.3l0,0l-2.3,4.7c-0.2,0.5-0.7,0.8-1.3,0.6c-0.5-0.2-0.8-0.7-0.6-1.3
	c0-0.1,0.1-0.1,0.1-0.2l2.3-4.7C273.9,163.4,274.5,163.2,275,163.4L275,163.4z"/>
<path class="st11" d="M279,174.7c0.6-0.5,1.1-1.1,1.4-1.9c0.1-0.5,0.1-1-0.1-1.5c-0.4-1.2-0.9-2.3-1.6-3.4c-0.7-1.2-2-1.8-3.3-1.7
	c-1.5,0.2-2.9,1-3.8,2.2c-1.7,2.1-2.3,2.9-2.5,5.1c-0.3,2.8,1.1,4.5,4.8,3.3C275.7,176.3,277.6,176,279,174.7z"/>
<path class="st11" d="M275.8,168l7.2-2.2c0.5-0.2,0.7-0.7,0.5-1.2c-0.2-0.4-0.6-0.6-1-0.6l-7.2,2.2c-0.5,0.1-0.8,0.6-0.6,1.1l0,0
	C274.8,167.9,275.3,168.1,275.8,168L275.8,168z"/>
<path class="st11" d="M277.2,170.1l7.2-2.2c0.5-0.1,0.8-0.6,0.7-1.1c-0.1-0.5-0.6-0.8-1.1-0.7h-0.1l-7.2,2.2
	c-0.5,0.1-0.8,0.7-0.6,1.1l0,0C276.2,170,276.8,170.3,277.2,170.1z"/>
<path class="st11" d="M277,173.1l7.2-2.2c0.5-0.2,0.7-0.7,0.5-1.2c-0.2-0.4-0.6-0.6-1-0.6l-7.2,2.2c-0.5,0.1-0.8,0.6-0.7,1.1
	C276,172.9,276.5,173.2,277,173.1L277,173.1L277,173.1z"/>
<path class="st11" d="M275.9,175.7l7.2-2.2c0.5-0.2,0.7-0.7,0.5-1.2c-0.2-0.4-0.6-0.6-1-0.6l-7.2,2.2c-0.5,0.1-0.8,0.6-0.7,1.1
	C274.8,175.5,275.3,175.8,275.9,175.7C275.8,175.7,275.9,175.7,275.9,175.7L275.9,175.7z"/>
<path class="st12" d="M166.8,250h57.3c-1.4-16.9-8.8-24.5-9.8-37.9c-1.1-16,10.9-43.2-7.1-48.8l-0.4-0.1c2.9,1.8,4.3,4.8,4.7,8.3
	c0.4,3.2-0.5,6.4-2.5,8.9c-11.4,14.1-21.7,6.7-26.8,0.9c-2.5-2.8-3.6-6.6-2.8-10.3c0.6-2.9,1.6-6.1,3.5-7.5
	c-16.8,6.1-4.8,32.7-5.9,48.5C176,225.5,168.3,233.1,166.8,250z"/>
<path class="st1" d="M183.1,182.2c5.3,5.4,14.7,11.2,25.3-1c2.7-3.1,3.8-7.2,3-11.2c-0.5-2.8-2.1-5.3-4.5-6.8
	c-0.8-0.5-1.8-0.9-2.7-1.2c-3.5-1.1-7.6-6.2-16-0.9c-0.6,0.4-1.2,0.7-1.9,0.9c-1.2,0.3-2.3,0.9-3.3,1.6c-1.6,1.2-2.6,3.7-3.2,6.3
	C178.6,174.2,179.9,178.9,183.1,182.2z"/>
<path class="st11" d="M203.1,164.5c0,2.4-3.3,3.2-7.3,3.2s-7.3-0.8-7.3-3.2s3.3-4.3,7.3-4.3S203.1,162.1,203.1,164.5z"/>
<path class="st14" d="M186.4,122.8h16c0.4,0,0.6,0.3,0.6,0.6v7.6c0,0.4-0.3,0.6-0.6,0.6h-16.1c-0.1,0-0.1-0.1-0.1-0.1V123
	C186.1,122.9,186.2,122.8,186.4,122.8z"/>
<path class="st11" d="M201.8,123.5c2.5,2,3.9,5,3.9,8.2v8.4c0,5.6-4.6,10.1-10.2,10.1s-10.1-4.6-10.1-10.2l0,0v-8.1L201.8,123.5z"/>
<path class="st11" d="M200.5,162l0.1-20.6c0-1.2-0.7-2.2-1.6-2.2h-6.4c-0.9,0-1.6,1-1.6,2.2l-0.1,20.7L200.5,162z"/>
<path class="st11" d="M185.2,135.6c-1.8-0.3-3.6,0.8-3.9,2.6s0.8,3.6,2.6,3.9s3.6-0.8,3.9-2.6c0-0.2,0.1-0.4,0.1-0.6
	C188.1,137.2,186.9,135.8,185.2,135.6L185.2,135.6z"/>
<path class="st11" d="M204.6,135.6c-1.8-0.3-3.6,0.8-3.9,2.6s0.8,3.6,2.6,3.9s3.6-0.8,3.9-2.6c0-0.2,0.1-0.4,0.1-0.6
	C207.5,137.2,206.3,135.8,204.6,135.6L204.6,135.6z"/>
<path class="st12" d="M188.4,133c-1.2,1.9-1.9,4.1-3.2,6c-0.8,1.2-1.9,2.2-3.2,3c-1.7,1-4,1.4-5.4,0.1s-1.3-3.3-0.7-5
	c1.3-3.5,4.7-5.8,6.3-9.1c1.2-2.4,1.5-3.6,3.7-5.2c1.3-1,3.1-3.1,4.8-3c2,0.2,4,0.5,5.9,1l4.3,0.9c0.2,0,0.3,0.1,0.5,0.2
	c0.1,0.1,1.1,0.3,1.2,0.4c0.2,0.7,4.1,2.4,3.9,3.1s-5,0.8-5.6,0.9C195.9,126.5,191.3,129,188.4,133z"/>
<path class="st15" d="M191,159.4c0,0,1.8,6.8,4.7,8.2l-3.4,5.8c0,0-6.1-5-4-12.5L191,159.4z"/>
<path class="st15" d="M200.5,159.4c0,0-1.8,6.8-4.8,8.2l3.4,5.8c0,0,6.1-5,4-12.5L200.5,159.4z"/>
<path class="st2" d="M109.1,179.4h47c1,0,1.8,0.8,1.8,1.8v13.1c0,1-0.8,1.8-1.8,1.8h-47c-1,0-1.8-0.8-1.8-1.8v-13.1
	C107.3,180.2,108.1,179.4,109.1,179.4z"/>
<path class="st5" d="M115.4,192.7c0.1-1.1,0-2.2-0.2-3.2c-0.4-1.6-1.1-3.1-1.9-4.5h1.1c0.8,1.3,1.3,2.8,1.7,4.3l0,0
	c0.7-1.2,1.2-2.5,1.3-3.9c0-0.2,0-0.3,0-0.4h0.9c0,0.1,0,0.3,0,0.4c-0.2,1.7-0.9,3.4-1.9,4.8c-0.1,0.1-0.1,0.2-0.1,0.3
	c0,0.6,0,1.5,0,2.3L115.4,192.7z"/>
<path class="st5" d="M123.3,190.1c-0.6,0.3-1.3,0.5-2,0.5c-1.1,0-2.3-0.4-2.3-1.7c0-0.7,0.6-1.3,1.4-1.4v-0.1
	c-0.6-0.1-1.1-0.6-1.1-1.2c0-0.7,0.7-1.5,2.2-1.5c0.6,0,1.2,0.1,1.7,0.4l-0.2,0.6c-0.4-0.2-0.9-0.3-1.4-0.3c-0.8,0-1.3,0.3-1.3,0.8
	s0.7,0.8,1.5,0.8h0.7v0.7h-0.7c-1,0-1.7,0.3-1.7,0.9s0.7,1,1.5,1c0.6,0,1.1-0.2,1.6-0.4L123.3,190.1z"/>
<path class="st5" d="M125.3,189.1c0,0.5,0.1,0.7,0.5,0.7l-0.1,0.7c-0.1,0-0.3,0-0.4,0c-0.6,0-1-0.3-1-1.4V185h1V189.1z"/>
<path class="st5" d="M131.7,185c-0.1,0.6-0.1,2.5-0.1,3.9c0,0.6,0.2,0.9,0.5,0.9l-0.1,0.7c-0.1,0-0.2,0-0.3,0
	c-0.5,0-0.9-0.3-0.9-1.1l0,0c-0.4,0.7-1.1,1.1-1.9,1.1c-1.3,0-2.2-1.1-2.2-2.8c-0.2-1.5,0.9-2.8,2.4-3l0,0c0.7,0,1.4,0.4,1.7,1.1
	h0.1c0-0.3,0-0.7,0.1-1L131.7,185z M129.1,189.8c0.7-0.1,1.3-0.7,1.5-1.4c0.1-0.3,0.1-0.5,0.1-0.8c0-0.2,0-0.4-0.1-0.6
	c-0.1-0.7-0.7-1.3-1.4-1.4c-0.9,0-1.6,0.9-1.6,2.2C127.6,188.9,128.1,189.8,129.1,189.8L129.1,189.8z"/>
<path class="st5" d="M140.9,185.6c-0.3,0-0.6,0-1.4,0l0,0c0.6,0.5,1,1.3,1,2.1c0.1,1.5-0.9,2.7-2.4,2.9c-0.1,0-0.2,0-0.3,0
	c-1.4,0-2.6-1.1-2.6-2.6c0-0.1,0-0.2,0-0.2c-0.1-1.5,1-2.8,2.5-2.9c0.1,0,0.2,0,0.4,0h2.9L140.9,185.6z M139.5,187.7
	c0-0.9-0.5-2.1-1.6-2.1s-1.6,1.1-1.6,2.1s0.7,2.1,1.6,2.1S139.5,189,139.5,187.7L139.5,187.7z"/>
<path class="st5" d="M146.6,185c-0.1,0.6-0.1,2.5-0.1,3.9c0,0.6,0.2,0.9,0.6,0.9l-0.1,0.7c-0.1,0-0.2,0-0.3,0
	c-0.5,0-0.9-0.3-0.9-1.1l0,0c-0.4,0.7-1.1,1.1-1.9,1.1c-1.3,0-2.2-1.1-2.2-2.8c-0.2-1.5,0.9-2.8,2.4-3l0,0c0.7,0,1.4,0.4,1.7,1.1
	h0.1c0-0.3,0-0.7,0.1-1L146.6,185z M144,189.8c0.7-0.1,1.3-0.7,1.5-1.4c0.1-0.3,0.1-0.5,0.1-0.8c0-0.2,0-0.4,0-0.6
	c-0.1-0.7-0.7-1.3-1.4-1.4c-0.9,0-1.6,0.9-1.6,2.2C142.5,188.9,143.1,189.8,144,189.8z"/>
<path class="st5" d="M151.7,185.8c-0.3-0.1-0.7-0.2-1-0.2c-1.1,0-2,0.9-2,2v0.1c0,0.9,0.6,1.8,1.6,1.9c0.5,0.1,1,0.2,1.5,0.3
	c0.1,0,0.1,0.1,0.1,0.2c0,0.7-0.3,1.4-0.7,2l-0.7-0.2c0.2-0.4,0.3-0.8,0.4-1.2c-0.4-0.1-0.8-0.1-1.1-0.2c-1.2-0.3-2.1-1.3-2.1-2.6
	c-0.1-1.6,1.2-2.9,2.8-3c0.1,0,0.1,0,0.2,0c0.4,0,0.8,0.1,1.2,0.2L151.7,185.8z"/>
</svg>
