<?xml version="1.0" encoding="utf-8"?>
<!-- Generator: Adobe Illustrator 26.2.1, SVG Export Plug-In . SVG Version: 6.00 Build 0)  -->
<svg version="1.1" id="Layer_1" xmlns="http://www.w3.org/2000/svg" xmlns:xlink="http://www.w3.org/1999/xlink" x="0px" y="0px"
	 viewBox="0 0 386.3 268" style="enable-background:new 0 0 386.3 268;" xml:space="preserve">
<style type="text/css">
	.st0{opacity:0.1;}
	.st1{fill:#48ADFF;}
	.st2{fill:#FFFFFF;}
	.st3{fill:#A379F6;}
	.st4{fill:#4A4997;}
	.st5{fill:#FFAE73;}
	.st6{fill:#007BE0;}
	.st7{fill:#3D3C7C;}
	.st8{fill:#F99352;}
	.st9{fill:#E5E5E5;}
	.st10{fill:#F9924F;}
	.st11{opacity:0.15;fill:#4A4997;enable-background:new    ;}
	.st12{opacity:0.15;}
	.st13{opacity:0.6;}
	.st14{fill:#ECECEC;}
	.st15{fill:#F0EBFE;}
	.st16{fill:#ECFAFE;}
	.st17{opacity:0.25;fill:#FFFFFF;enable-background:new    ;}
	.st18{opacity:0.5;fill:#D2D3D6;enable-background:new    ;}
	.st19{fill:#D2D3D6;}
	.st20{opacity:0.25;}
	.st21{opacity:0.4;enable-background:new    ;}
	.st22{fill:#FFA05E;}
	.st23{opacity:0.25;fill:#A379F6;enable-background:new    ;}
</style>
<g class="st0">
	<path class="st1" d="M36.7,267.8c0,0-50.7-54.9-32.9-118.9c11.6-41.8,50.3-16.5,48.2-84.2S165.8-10.1,197.9,9.6S230.7,41.8,297,34
		s95.2,51.8,60.8,101.8c-30.1,43.8,67.9,39.4,9.7,132.2L36.7,267.8z"/>
</g>
<g>
	<path class="st2" d="M313.5,76.6v157.5c0.2,2.6-1.8,4.8-4.4,5H81.8c-2.5,0-4.4-2.2-4.4-5V76.6c-0.2-2.6,1.8-4.8,4.4-5H309
		C311.6,71.7,313.6,74,313.5,76.6L313.5,76.6z"/>
	<path class="st3" d="M312.8,76.5v11.8H77.7V76.5c0-2.4,2-4.4,4.4-4.4h226.3C310.8,72.1,312.8,74.1,312.8,76.5z"/>
	<circle class="st2" cx="86.9" cy="80.2" r="2.1"/>
	<circle class="st2" cx="95" cy="80.2" r="2.1"/>
	<circle class="st2" cx="103.4" cy="80.2" r="2.1"/>
	<path class="st4" d="M90.2,191.4c0.2-1.7-1.1-3.3-2.8-3.4c-0.2,0-0.4,0-0.7,0c0.7,0.2,1.3,0.5,1.8,0.9c-1.7-0.8-3.7-0.5-5.1,0.8
		c-2.7,2.2-1,7.7-1.8,8.8s-3.9,1.3-3.6,4.6s10,7.6,9.3,10.4c0,0,3.8-5.5,1.1-8c0.8,0.7,1.2,1.7,1.4,2.7c0,0,0.4-2.9-1.5-3.8
		c-1.6-0.8-2.9-3.8-2.8-4.3C85.8,199.6,90.2,191.4,90.2,191.4z"/>
	<path class="st5" d="M86.5,207.9c0,0,2.9,11.8,5.7,14.2c1.7,1.4,6.7,4.7,6.7,4.7l-2.1,0.8c0,0-6.9-2.3-8.5-4.2s-5.8-11-5.8-11
		L86.5,207.9z"/>
	<path class="st4" d="M59.7,228.6l0.1,0.1c0.6,1.1,2.1,3.7,3.6,6.7c0.7,1.4,1.5,2.8,2.3,4.2c1.3,2.3,2.4,4.4,3.1,5.5
		s1.2,1.9,1.4,2.2l0,0c0.1,0.1,0.1,0.2,0.1,0.3c-0.1,1-0.1,1.9,0,2.9c0.5,5.6,3.1,10.7,7.3,14.5l1.9,0.3c0,0-2.7-9.9-3.5-15.6
		c-0.1-0.7-0.2-1.5-0.1-2.2c0.1-2.1-0.1-4.1-0.6-6.1c-1.1-4.8-2.4-9.5-3.9-14.1c-0.1-0.3-2.8-9.9-2.8-9.9c-2.2,2-10.4,2.8-10.4,2.8
		S56.8,223.6,59.7,228.6z"/>
	<path class="st6" d="M83.5,267.7h-7.9c-0.1-0.7,0-1.4,0.2-2.1c0.4-0.9,1-0.9,0.1-2.3c0.5,0.5,2.1,0.7,3.3,0.6
		c0.3,0.8,0.8,1.5,1.4,2.1C81,266.4,83.3,266.2,83.5,267.7z"/>
	<path class="st7" d="M59.7,228.6l0.1,0.1c0.6,1.1,4,7.3,5.6,10.2c-1.1-4.9-1.3-10-0.6-15L59.7,228.6z"/>
	<path class="st4" d="M89.2,191c-1.6,0.7-3.2,1.4-4.8,2.3c-2.1,2.4-1.5,5.5-0.3,5.5c0.8,0,0.6,1.3,0.6,1.3l8.8-3.7
		C93.5,196.4,92.4,190.3,89.2,191z"/>
	<path class="st6" d="M86.2,206.1c0.7,1.5,1.1,3.1,1.2,4.8c0,0-1.6,2.5-5.8,3.2C81.6,214.1,85.2,206.1,86.2,206.1z"/>
	<path class="st4" d="M65.8,220.8v-1.5c-3,0.4-10.2-3.5-10.2-3.5s-3.1,2.1-3.5,7.9c-0.2,2.9-1.5,15-1.7,18.6
		c-0.1,1.3-0.1,2.2-0.1,2.6l0,0c0,0.1-0.1,0.2-0.1,0.3c-0.6,0.8-1.1,1.6-1.6,2.5c-4.5,8.4-2.1,19.8-2.1,19.8l1-0.3
		c0,0,3.8-11.8,6.3-16.9c0.3-0.7,0.7-1.3,1.1-1.9c1.2-1.7,2.2-3.5,2.9-5.4C59.8,238.5,65.8,220.8,65.8,220.8z"/>
	<path class="st6" d="M52.9,267.7H45c-0.1-0.7,0-1.4,0.2-2.1c0.4-0.9,1-1.3,0.9-2.3c0.6,0.7,1.6,1,2.5,0.9c0.4,0.7,0.9,1.3,1.4,1.8
		C50.4,266.4,52.7,266.2,52.9,267.7z"/>
	<path class="st1" d="M81.1,215.8c-1.1,0.2,0.2,1-1.3,1.2c-1.8,0.1-3.6,0.4-5.4,0.8c-0.3,0.1-0.6,0.3-0.8,0.6c-0.5,1.5-3.6,4-3.6,4
		c-13.8-0.6-14.7-6.8-14.7-6.8c9-8.7,16.6-13.4,22.9-14c1.6-0.2,3.1,0,4.6,0.5c2.2,1,3.4,4,3.4,4S85.1,215.1,81.1,215.8z"/>
	<path class="st6" d="M79.8,217c-1.8,0.1-3.6,0.4-5.4,0.8c-0.3-4.2,0.7-8.4,2.8-12.1C77.2,205.7,79.3,214.4,79.8,217z"/>
	<path class="st5" d="M82.7,202.7c0.4,1.2,1.7,4.7,3.5,3.4c-0.1-0.3,0.3-1,0.8-1.8c0.6-1,1.3-2,1.3-2l-3-2.6l-0.2-0.2
		c-0.5,1-1.3,1.9-2.2,2.5C82.7,202.2,82.6,202.5,82.7,202.7z"/>
	<path class="st8" d="M88.2,202.3c0,0-0.7,1-1.3,2c-1.8-1.1-1.8-3.4-1.7-4.6L88.2,202.3z"/>
	<path class="st5" d="M88.3,203.6c0,0-4.5-2.5-2.9-5.3s2.1-4.9,5-3.5s2.9,2.8,2.6,3.9S89.5,204.2,88.3,203.6z"/>
	<path class="st4" d="M93.8,197.1c-0.2-1.2-0.8-1.3-1.3-1.3c-0.9-1.5-2.7-2.3-4.4-1.7c-0.9,1.1-2.1,1.8-3.5,2.1c0,0,0.5,1,2.7,1.6
		c0.7,0.2,1.4,0.1,2.1-0.2c-0.9,0.5-2,0.9-3,1.1c2.8,0.3,5.5-2.3,5.8-2.6c0.2,0.6,0.3,1.2,0.2,1.8c-0.2,0.8-0.9,2.3-0.5,2.5
		C91.9,200.7,94.1,199,93.8,197.1z"/>
	<path class="st9" d="M152.7,252.2c-1-2.6-3-4.7-5.5-5.9c-3.9-1.9-8.4-1.2-11.6,1.3l-29.4-14.4c0-1-0.1-2.1-0.4-3.2
		c-1.8-5.9-7.9-9.2-13.8-7.5c-1.3,0.4-2.1,1.8-1.7,3.1s1.8,2.1,3.1,1.7c1.5-0.4,3-0.3,4.4,0.4c3,1.5,4.3,5.1,2.8,8.1
		s-5.1,4.3-8.1,2.8c-1.7-0.8-2.9-2.4-3.3-4.2c-0.3-1.4-1.6-2.2-3-1.9s-2.2,1.6-1.9,3c0.8,3.3,3,6.1,6,7.6c2.5,1.2,5.3,1.4,8,0.7
		c1.4-0.4,2.6-1.1,3.7-1.9l29.5,14.4c0,4,2.2,7.9,6.1,9.8c3,1.5,6.5,1.5,9.6,0.1c1.2-0.6,1.8-2.1,1.2-3.3c-0.6-1.2-2.1-1.8-3.3-1.2
		c-1.7,0.8-3.6,0.8-5.3,0c-3-1.5-4.3-5.1-2.8-8.1s5.1-4.3,8.1-2.8c1.4,0.6,2.5,1.8,3,3.2c0.5,1.3,2,1.9,3.3,1.4
		C152.6,255,153.2,253.5,152.7,252.2z"/>
	<path class="st5" d="M85.8,234.3c0.1,0.5,0.2,0.9,0.4,1.3c0.4,0.4,1.4,1.5,1.4,2.1c0,0-0.1,0.3-0.3,0.2s-1-0.8-1.4-0.8
		c0.1,0.5,0.2,1.1,0.4,1.6c0.3,0.6,0.5,1.2,0.5,1.9c-0.1,0.3-2.2-1.4-2.8-2.3s0-4.3,0-4.3L85.8,234.3z"/>
	<path class="st5" d="M81.6,204.6c0,0-5.2-0.3-6.2,3s1.7,16.4,2.3,17.8c1.1,2.5,6.2,9.5,6.2,9.5l1.9-0.6c0,0-3.4-10.8-4.2-11.8
		C80.4,220.8,83.1,206,81.6,204.6z"/>
	<path class="st1" d="M74.4,212c0,0.1,5,0.9,8-0.7c0,0,2.6-8.1-1.1-7.7s-5.9,1.5-6,3.3C75.1,208.6,74.8,210.3,74.4,212z"/>
	<path class="st5" d="M96.2,221.4c-0.3,0-0.6,0.1-0.9,0.2c-0.3,0.2-0.6,0.6,0,0.9c1,0.5,2.9,0.3,2.8,0
		C98,221.6,97.6,221.4,96.2,221.4z"/>
	<path class="st5" d="M123.8,92.6c-0.3,0.3-0.3,0.7-0.2,1l0,0c0.5,0.8,1.1,1.6,1.9,2.1l0.3,0.3l0.1,0.1h0.1c0.8,0.8,0.5,0.9,2,2.5
		c1.7,1.8,2.9,1.8,3.2,1.6s-0.3-1.1-0.9-2.1c0-0.1-0.1-0.1-0.1-0.2s-0.2-0.3-0.3-0.4c-0.7-1.3-0.6-1.9-0.4-3.7
		c0.1-1.5,2.4-8.5,2.4-8.5l-3.2-0.6c0,0-1,5.6-2.1,6.4c-0.6,0.3-1.2,0.6-1.8,0.8c-0.1,0-0.1,0-0.1,0.1
		C124.4,92.2,124.1,92.4,123.8,92.6z"/>
	<path class="st6" d="M123.8,92.6c-0.3,0.3-0.3,0.7-0.2,1l0,0c0.5,0.8,0.9,1.4,1.9,2.1l0.3,0.3l0.1,0.1h0.1c0.8,0.8,0.5,0.9,2,2.5
		c1.7,1.8,2.9,1.8,3.2,1.6s-0.3-1.1-0.9-2.1c-1.2-0.4-2.2-1.2-3-2.2c-1-1.3-1.7-3-2.4-3.9c-0.1,0-0.1-0.1-0.1,0
		C124.4,92.1,124.1,92.3,123.8,92.6z"/>
	<path class="st5" d="M150,90.6c0.2,1,1.6,0.8,3.2,0.4s1.2,0.1,3.5-0.2s3-1.1,3-1.4s-1.1-0.4-2.3-0.5c-0.2,0-0.3,0-0.5-0.1
		c-1.3-0.3-2.6-0.9-3.6-1.8c-1.2-0.7-2.9-3.5-2.9-3.5l-3.1,0.2l2.3,3.6c0.3,0.6,0.4,1.4,0.3,2.1C150,89.9,149.9,90.3,150,90.6z"/>
	<path class="st6" d="M153.2,91.1c1.6-0.4,1.2,0.1,3.5-0.2s2.9-1.1,3-1.4c0.2-0.4-1-0.5-2.2-0.6l-0.1,0.1c-1,0.6-2.1,1-3.3,1
		c-1.5,0-3.2-0.4-4.2-0.4v1.1C150.2,91.6,151.6,91.4,153.2,91.1z"/>
	<path class="st7" d="M138.1,70.7l-2.9,7.8l-3.8,10.2c-0.7,0-1.3,0-2-0.2c-0.7-0.3-1.4-0.6-2-1c0,0,1.1-11,3-17.3
		c0.4-1.3,0.9-2.6,1.7-3.7C135.2,63.1,138.1,70.7,138.1,70.7z"/>
	<path class="st4" d="M135.1,58.3c-1.9-0.6-7.3,0.2-12.8,1.2l-1.1-1.9l-11.8-0.9c0,0-3.9,8.6-1.8,14.1c0.3,0.8,1.1,1.4,2,1.3h9.5
		c5.9,0,12.4-4,13.3-4.2c1.4-0.3,1.9,2.5,3.3,5.4s13,12.9,13,12.9c0.8,0,1.7-0.1,2.5-0.3c0.4-0.1,0.8-0.4,1.1-0.7
		C152.3,85.2,139.4,59.6,135.1,58.3z"/>
	<path class="st4" d="M117.2,21.7c-1.4-0.2-2.9-0.2-4.3,0c-4.5,0.4-6,5.5-5.3,9.3c0.6,3.6-1.2,4.6-3.3,7.4
		c-4.2,5.7-1.5,10.5,1.9,11.7c2,0.7,4.8-1.1,4.8-1.1c4.3-2.7,8.4-5.7,12.3-8.9C129.2,37.8,121.5,22.8,117.2,21.7z"/>
	<path class="st5" d="M117.9,38.1c0.1,0.4-1.8,1.2-3.3,0.9s-3-1.9-2.7-2.1c0.5-0.3,0.9-0.9,0.6-4.3h0.3l4.5,0.5c0,0,0,1.4,0.1,2.7
		C117.5,36.6,117.6,37.4,117.9,38.1z"/>
	<path class="st10" d="M117.3,33.1c0,0,0,1.4,0.1,2.7c-2.5,0.1-4-2-4.6-3.2L117.3,33.1z"/>
	<path class="st5" d="M118.2,34.3c0,0-5.9,0.6-6.2-3.1s-1.3-6.1,2.5-6.6s4.6,0.8,5,2S119.7,34.1,118.2,34.3z"/>
	<path class="st4" d="M117.6,24.1c0,0-0.7,4.5-4.1,5.5c-2.4,0.8-3.5,0.3-3.5,0.3c0.8-1.1,1.3-2.4,1.6-3.7c0.1-0.6,0.6-1.2,1.2-1.4
		C114.5,24.2,116.6,22.6,117.6,24.1z"/>
	<path class="st4" d="M116.5,25c0.9,0.3,1.6,0.9,2.1,1.7c0.6,1.1,1,2.3,1.1,3.6c0,0,1-4.1-0.5-5.7c-0.6-0.7-1.6-0.8-2.3-0.2
		C116.7,24.6,116.6,24.8,116.5,25z"/>
	<path class="st1" d="M107.3,50.1c0.1,0.4,0.2,0.9,0.3,1.2c0.1,0.6,0.2,1.1,0.3,1.6c0.2,1.4,0.1,2.3,0.2,3.2
		c0.1,0.5,0.2,1.1,0.4,1.8s6.6,1.3,10.3,1c0.8,0,1.6-0.1,2.3-0.5c1.3-1.1,1.2,1.3,1.3-10.5c0.1-5.8-4.9-10.9-4.9-10.9
		s-0.4,2.5-5.3-0.5c-0.2-0.1-2.1,2.8-4,6.3C106.2,46.9,106.7,47.7,107.3,50.1z"/>
	<path class="st4" d="M135.2,78.5l-3.8,10.2c-0.7,0-1.3,0-2-0.2c-0.7-0.3-1.4-0.6-2-1c0,0,1.1-11,3-17.3L135.2,78.5z"/>
	<path class="st1" d="M117.6,37.1c0,0,5.1,0.9,5.7,3.1s4.7,14.4,4.7,14.4s-3.2,1.1-4.4-0.1s-4.2-11.1-4.2-11.1L117.6,37.1z"/>
	<path class="st6" d="M107.9,53c0.2,1.4,0.1,2.3,0.2,3.2c4.6,0,10.8-3.6,10.8-3.6L107.9,53z"/>
	<path class="st6" d="M118.9,49.6c0,0-7.2-0.2-8.4-4.3c-1.3-4.5-2.8,1.8-2.8,1.8l0.8,4h7.9L118.9,49.6z"/>
	<path class="st3" d="M131.4,38.5l-0.4-1c-0.4-1-1.4-1.7-2.5-1.7h-7.2v24H151V40.4h-16.8C133,40.4,131.9,39.6,131.4,38.5z"/>
	<path class="st2" d="M125.8,50.4v-1.7l6.1-2.7v1.8l-4.2,1.7l4.2,1.7V53L125.8,50.4z"/>
	<path class="st2" d="M138.2,44h1.6l-5.6,11.6h-1.6L138.2,44z"/>
	<path class="st2" d="M146.6,48.7v1.7l-6.1,2.7v-1.8l4.2-1.7l-4.2-1.7v-1.8L146.6,48.7z"/>
	<path class="st5" d="M118.9,50.6l0.5-0.8c0.4-0.1,0.7-0.3,1-0.5c0.7-0.5,0.6-1.2,0.9-1.1v1.6l0,0c1.5,0.4,3.2,0,3.2,0.3
		c0,0.8-0.5,1.6-1.3,1.8c-0.6,0.4-1.3,0.5-2,0.3s-1.7-0.4-1.7-0.4L118.9,50.6z"/>
	<path class="st1" d="M112.2,36.6c0,0-4.7,0.3-5.8,2.1s-2.6,11.1-2,14.3s15.6-0.6,15.6-0.6l-0.5-2.8c0,0-8.6,0-9.1-1.1
		C109.7,47.1,112.2,36.6,112.2,36.6z"/>
	<path class="st5" d="M134.8,40.4c0.3,0.7,1,1.2,1.8,1.1c0.7-0.1,1.5-1.6,0.8-1.9C136.4,39.3,135.4,39.6,134.8,40.4z"/>
	<polygon class="st11" points="180.6,104.3 197.7,72 197.9,72.1 180.8,104.3 	"/>
	
		<rect x="251.5" y="68.2" transform="matrix(0.7334 -0.6798 0.6798 0.7334 10.9741 193.0422)" class="st11" width="0.2" height="28.7"/>
	<g class="st12">
		<path class="st4" d="M178.4,120.2c-3.8,0-7.2-2.7-7.9-6.6v-0.2c-0.2-2.1,0.4-4.2,1.6-5.8c1.4-1.7,3.3-2.7,5.5-3l87.2-12
			c4.3-0.5,8.1,2.4,8.7,6.7l0,0c0.3,2-0.3,4.1-1.5,5.8c-1.2,1.6-3.1,2.7-5.1,3l-87.2,12C179.3,120.2,178.8,120.2,178.4,120.2z
			 M265.7,92.7c-0.3,0-0.6,0-0.9,0.1l-87.2,12c-2.1,0.3-4,1.3-5.3,3c-1.2,1.5-1.8,3.5-1.6,5.6v0.2c0.8,4.2,4.7,7,9,6.3l87.2-12
			c1.9-0.3,3.7-1.4,4.9-3c1.2-1.6,1.8-3.7,1.5-5.6l0,0C272.8,95.5,269.5,92.7,265.7,92.7z"/>
	</g>
	<path class="st3" d="M273.4,99.3c0.3,2-0.3,4.1-1.5,5.7s-3,2.7-5,3l-15.8,2.2L249,94.9l15.8-2.2C269,92.2,272.8,95.1,273.4,99.3
		L273.4,99.3z"/>
	<path class="st2" d="M263.8,103.4h-0.6c-1.1,0-2.1-0.4-2.8-1.2c-1.5-1.6-1.5-4.1,0.1-5.6l0,0c1.8-1.3,4.3-0.9,5.6,0.9
		c1,1.4,1,3.4-0.1,4.8C265.4,102.9,264.6,103.3,263.8,103.4z M261,97.2c-1.3,1.3-1.3,3.4-0.1,4.7c0.6,0.6,1.4,1,2.3,1
		s1.7-0.3,2.3-0.9c1.3-1.3,1.3-3.4,0.1-4.7c-1.1-1.3-3.1-1.4-4.4-0.3C261.1,97.1,261.1,97.1,261,97.2L261,97.2z"/>
	
		<rect x="256.1" y="103.6" transform="matrix(0.7152 -0.6989 0.6989 0.7152 1.0813 210.4773)" class="st2" width="5.4" height="0.6"/>
	<path class="st2" d="M255.5,107.1L255.5,107.1c-0.2-0.2-0.2-0.6,0-0.8l2.3-2.2c0.2-0.2,0.6-0.2,0.8,0l0,0c0.2,0.2,0.2,0.6,0,0.8
		l-2.3,2.2c-0.1,0.2-0.4,0.3-0.6,0.2C255.6,107.2,255.5,107.2,255.5,107.1z"/>
	<g class="st13">
		<path class="st14" d="M126.8,185.7h-17.9c-0.4,0-0.8-0.3-0.8-0.8l0,0l0,0c0-0.4,0.3-0.8,0.8-0.8l0,0h17.9c0.4,0,0.8,0.3,0.8,0.8
			l0,0l0,0C127.6,185.4,127.3,185.7,126.8,185.7L126.8,185.7z"/>
		<path class="st14" d="M117.6,191.4h-9c-0.3,0-0.6-0.3-0.6-0.6l0,0c0-0.3,0.3-0.6,0.6-0.6h9c0.3,0,0.6,0.3,0.6,0.6l0,0
			C118.2,191.2,117.9,191.4,117.6,191.4z"/>
		<path class="st14" d="M124.4,189h-15.8c-0.3,0-0.6-0.3-0.6-0.6l0,0c0-0.3,0.3-0.6,0.6-0.6h15.8c0.3,0,0.6,0.3,0.6,0.6l0,0
			c0,0.3-0.2,0.6-0.4,0.6C124.5,189,124.5,189,124.4,189z"/>
		<path class="st14" d="M141.8,189h-14.7c-0.3,0-0.6-0.3-0.6-0.6l0,0c0-0.3,0.3-0.6,0.6-0.6h14.7c0.3,0,0.6,0.3,0.6,0.6l0,0
			c0,0.3-0.2,0.6-0.4,0.6C141.9,189,141.9,189,141.8,189z"/>
		<path class="st14" d="M128.8,191.4h-9c-0.3,0-0.6-0.3-0.6-0.6l0,0c0-0.3,0.3-0.6,0.6-0.6h9c0.3,0,0.6,0.3,0.6,0.6l0,0
			C129.4,191.2,129.1,191.4,128.8,191.4z"/>
		<path class="st14" d="M149,185.7h-17.9c-0.4,0-0.8-0.3-0.8-0.8l0,0l0,0c0-0.4,0.3-0.8,0.8-0.8l0,0H149c0.4,0,0.8,0.3,0.8,0.8l0,0
			l0,0C149.8,185.4,149.5,185.7,149,185.7L149,185.7z"/>
		<path class="st14" d="M126.8,198.1h-17.9c-0.4,0-0.8-0.3-0.8-0.8l0,0l0,0c0-0.4,0.3-0.8,0.8-0.8l0,0h17.9c0.4,0,0.8,0.3,0.8,0.8
			l0,0l0,0C127.6,197.7,127.3,198.1,126.8,198.1L126.8,198.1z"/>
		<path class="st14" d="M117.6,203.8h-9c-0.3,0-0.6-0.3-0.6-0.6l0,0c0-0.3,0.3-0.6,0.6-0.6h9c0.3,0,0.6,0.3,0.6,0.6l0,0
			C118.2,203.5,117.9,203.8,117.6,203.8z"/>
		<path class="st14" d="M124.4,201.4h-15.8c-0.3,0-0.6-0.3-0.6-0.6l0,0c0-0.3,0.3-0.6,0.6-0.6h15.8c0.3,0,0.6,0.3,0.6,0.6l0,0
			c0,0.3-0.2,0.6-0.4,0.6C124.5,201.4,124.5,201.4,124.4,201.4z"/>
		<path class="st14" d="M141.8,201.4h-14.7c-0.3,0-0.6-0.3-0.6-0.6l0,0c0-0.3,0.3-0.6,0.6-0.6h14.7c0.3,0,0.6,0.3,0.6,0.6l0,0
			c0,0.3-0.2,0.6-0.4,0.6C141.9,201.4,141.9,201.4,141.8,201.4z"/>
		<path class="st14" d="M128.8,203.8h-9c-0.3,0-0.6-0.3-0.6-0.6l0,0c0-0.3,0.3-0.6,0.6-0.6h9c0.3,0,0.6,0.3,0.6,0.6l0,0
			C129.4,203.5,129.1,203.8,128.8,203.8z"/>
		<path class="st14" d="M149,198.1h-17.9c-0.4,0-0.8-0.3-0.8-0.8l0,0l0,0c0-0.4,0.3-0.8,0.8-0.8l0,0H149c0.4,0,0.8,0.3,0.8,0.8l0,0
			l0,0C149.8,197.7,149.5,198.1,149,198.1L149,198.1z"/>
	</g>
	<g>
		<polygon class="st4" points="231.5,117.5 224,119.3 220.2,126.1 217.4,110.6 		"/>
		<rect x="224.7" y="117.4" transform="matrix(0.797 -0.604 0.604 0.797 -27.5573 160.7988)" class="st4" width="1.4" height="8"/>
	</g>
	<path class="st15" d="M205.2,163.1H199c-6.4,0-11.6-5.2-11.6-11.6v-6.2c0-6.4,5.2-11.6,11.6-11.6h6.2c6.4,0,11.6,5.2,11.6,11.6v6.2
		C216.8,157.9,211.6,163.1,205.2,163.1z"/>
	<g>
		<path class="st3" d="M191.1,157l5.7-10.3c0.5-0.9,1.7-1.2,2.6-0.7c0.2,0.1,0.4,0.3,0.6,0.5l3.3,4.5c0.6,0.8,1.8,1,2.7,0.4
			c0.1-0.1,0.2-0.1,0.2-0.2l0,0c0.7-0.8,2-0.8,2.7-0.1c0.1,0.1,0.2,0.2,0.3,0.3l3.5,5.5c0.6,0.9,0.3,2.1-0.6,2.6
			c-0.3,0.2-0.6,0.3-1,0.3h-18.3c-1,0-1.9-0.8-1.9-1.9C190.9,157.6,190.9,157.3,191.1,157z"/>
		<circle class="st3" cx="204.6" cy="141.9" r="2.2"/>
	</g>
	<path class="st16" d="M252.4,163.9l-25.4,3.5c-1,0.1-1.9-0.6-2.1-1.6l-3.5-25.4c-0.1-1,0.6-1.9,1.6-2.1l25.4-3.5
		c1-0.1,1.9,0.6,2.1,1.6l3.5,25.4C254.1,162.8,253.4,163.8,252.4,163.9z"/>
	<path class="st1" d="M228.1,161l4.3-11c0.4-1,1.4-1.4,2.4-1.1c0.3,0.1,0.5,0.3,0.7,0.5l3.9,4c0.7,0.8,1.9,0.8,2.7,0
		c0.1-0.1,0.1-0.2,0.2-0.2l0,0c0.6-0.9,1.8-1.1,2.7-0.5c0.1,0.1,0.2,0.2,0.3,0.3l4.3,4.9c0.7,0.8,0.6,2-0.2,2.7
		c-0.3,0.2-0.6,0.4-1,0.4l-18.2,2.5c-1,0.3-1.9-0.3-2.2-1.3C227.9,161.8,227.9,161.4,228.1,161z"/>
	<circle class="st1" cx="239.4" cy="144.3" r="2.2"/>
	<rect x="163.1" y="254.6" class="st3" width="14.8" height="12.7"/>
	<rect x="162.5" y="254" class="st4" width="15.9" height="1"/>
	<rect x="163.1" y="258" class="st17" width="14.8" height="4"/>
	<path class="st18" d="M171.4,164.3h-1.6c-0.2,0-0.3-0.1-0.3-0.3s0.1-0.3,0.3-0.3l0,0h1.6c0.2,0,0.3,0.1,0.3,0.3
		S171.6,164.3,171.4,164.3L171.4,164.3z M168.2,164.3h-1.6c-0.2,0-0.3-0.1-0.3-0.3s0.1-0.3,0.3-0.3l0,0h1.6c0.2,0,0.3,0.1,0.3,0.3
		S168.4,164.3,168.2,164.3L168.2,164.3z M165,164.3h-1.6c-0.2,0-0.3-0.1-0.3-0.3s0.1-0.3,0.3-0.3h1.6c0.2,0,0.3,0.1,0.3,0.3
		S165.2,164.3,165,164.3L165,164.3L165,164.3z M161.8,164.3h-1.6c-0.2,0-0.3-0.1-0.3-0.3s0.1-0.3,0.3-0.3h1.6c0.2,0,0.3,0.1,0.3,0.3
		S162,164.3,161.8,164.3L161.8,164.3L161.8,164.3z M158.6,164.3H157c-0.2,0-0.3-0.1-0.3-0.3s0.1-0.3,0.3-0.3h1.6
		c0.2,0,0.3,0.1,0.3,0.3C158.9,164.2,158.8,164.3,158.6,164.3L158.6,164.3L158.6,164.3z M155.4,164.3h-1.6c-0.2,0-0.3-0.1-0.3-0.3
		s0.1-0.3,0.3-0.3h1.6c0.2,0,0.3,0.1,0.3,0.3S155.6,164.3,155.4,164.3L155.4,164.3L155.4,164.3z M152.2,164.3h-1.5
		c-0.2,0-0.3-0.1-0.3-0.3s0.1-0.3,0.3-0.3h1.6c0.2,0,0.3,0.1,0.3,0.3C152.5,164.2,152.4,164.3,152.2,164.3L152.2,164.3z
		 M149.1,164.3h-1.6c-0.2,0-0.3-0.1-0.3-0.3s0.1-0.3,0.3-0.3l0,0h1.6c0.2,0,0.3,0.1,0.3,0.3C149.3,164.2,149.2,164.3,149.1,164.3
		L149.1,164.3z M145.9,164.3h-1.6c-0.2,0-0.3-0.1-0.3-0.3s0.1-0.3,0.3-0.3l0,0h1.6c0.2,0,0.3,0.1,0.3,0.3
		C146.1,164.2,146,164.3,145.9,164.3L145.9,164.3z M142.7,164.3h-1.6c-0.2,0-0.3-0.1-0.3-0.3s0.1-0.3,0.3-0.3h1.6
		c0.2,0,0.3,0.1,0.3,0.3C142.9,164.2,142.8,164.3,142.7,164.3L142.7,164.3z M139.5,164.3h-1.6c-0.2,0-0.3-0.1-0.3-0.3
		s0.1-0.3,0.3-0.3h1.6c0.2,0,0.3,0.1,0.3,0.3C139.7,164.2,139.6,164.3,139.5,164.3L139.5,164.3z M136.3,164.3h-1.6
		c-0.2,0-0.3-0.1-0.3-0.3s0.1-0.3,0.3-0.3h1.6c0.2,0,0.3,0.1,0.3,0.3C136.5,164.2,136.4,164.3,136.3,164.3L136.3,164.3z
		 M133.1,164.3h-1.6c-0.2,0-0.3-0.1-0.3-0.3s0.1-0.3,0.3-0.3h1.6c0.2,0,0.3,0.1,0.3,0.3C133.3,164.2,133.2,164.3,133.1,164.3
		L133.1,164.3z M129.9,164.3h-1.6c-0.2,0-0.3-0.1-0.3-0.3s0.1-0.3,0.3-0.3l0,0h1.6c0.2,0,0.3,0.1,0.3,0.3
		C130.1,164.2,130,164.3,129.9,164.3L129.9,164.3z M126.7,164.3h-1.6c-0.2,0-0.3-0.1-0.3-0.3s0.1-0.3,0.3-0.3l0,0h1.6
		c0.2,0,0.3,0.1,0.3,0.3C126.9,164.2,126.8,164.3,126.7,164.3L126.7,164.3z M123.5,164.3h-1.6c-0.2,0-0.3-0.1-0.3-0.3
		s0.1-0.3,0.3-0.3l0,0h1.6c0.2,0,0.3,0.1,0.3,0.3C123.7,164.2,123.6,164.3,123.5,164.3L123.5,164.3z M120.3,164.3h-1.6
		c-0.2,0-0.3-0.1-0.3-0.3s0.1-0.3,0.3-0.3h1.6c0.2,0,0.3,0.1,0.3,0.3S120.5,164.3,120.3,164.3z M117.1,164.3h-1.6
		c-0.1,0-0.3-0.1-0.2-0.3s0.1-0.3,0.3-0.2h1.6c0.2,0,0.3,0.1,0.3,0.3C117.4,164.2,117.2,164.3,117.1,164.3L117.1,164.3z
		 M172.9,163.8c-0.1,0-0.2,0-0.2-0.1c-0.1-0.1-0.1-0.3,0-0.4c0,0,0,0,0.1,0c0.4-0.3,0.7-0.7,0.9-1.1c0.1-0.1,0.2-0.2,0.3-0.1
		s0.2,0.2,0.1,0.3c-0.2,0.5-0.6,1-1.1,1.3C173,163.8,173,163.8,172.9,163.8L172.9,163.8z M114,163.7c-0.1,0-0.1,0-0.2-0.1
		c-0.5-0.4-0.8-0.8-1-1.4c0-0.1,0-0.3,0.2-0.3s0.3,0,0.3,0.2c0.1,0.5,0.4,0.9,0.8,1.2c0.1,0.1,0.1,0.3,0,0.4L114,163.7z M174.1,161
		c-0.2,0-0.3-0.1-0.3-0.3v-1.6c0-0.2,0.1-0.3,0.3-0.3s0.3,0.1,0.3,0.3v1.6C174.4,160.9,174.3,161,174.1,161L174.1,161L174.1,161z
		 M113,160.8c-0.2,0-0.3-0.1-0.3-0.3v-1.6c0-0.2,0.1-0.3,0.3-0.3c0.1,0,0.3,0.1,0.3,0.2c0,0,0,0,0,0.1v1.6
		C113.2,160.7,113.1,160.8,113,160.8L113,160.8z M174.1,157.8c-0.2,0-0.3-0.1-0.3-0.3v-1.6c0-0.2,0.1-0.3,0.3-0.3s0.3,0.1,0.3,0.3
		l0,0v1.6C174.4,157.7,174.3,157.8,174.1,157.8L174.1,157.8L174.1,157.8z M113,157.7c-0.2,0-0.3-0.1-0.3-0.3v-1.6
		c0-0.2,0.1-0.3,0.3-0.3c0.1,0,0.3,0.1,0.3,0.2c0,0,0,0,0,0.1v1.6C113.2,157.5,113.1,157.7,113,157.7L113,157.7z M174.1,154.6
		c-0.2,0-0.3-0.1-0.3-0.3v-1.6c0-0.2,0.1-0.3,0.3-0.3s0.3,0.1,0.3,0.3v1.6C174.4,154.5,174.3,154.6,174.1,154.6L174.1,154.6
		L174.1,154.6z M113,154.5c-0.2,0-0.3-0.1-0.3-0.3v-1.6c0-0.2,0.1-0.3,0.3-0.3c0.1,0,0.3,0.1,0.3,0.2c0,0,0,0,0,0.1v1.6
		C113.2,154.3,113.1,154.5,113,154.5L113,154.5z M174.1,151.4c-0.2,0-0.3-0.1-0.3-0.3v-1.6c0-0.2,0.1-0.3,0.3-0.3s0.3,0.1,0.3,0.3
		l0,0v1.6C174.4,151.3,174.3,151.4,174.1,151.4L174.1,151.4L174.1,151.4z M113,151.3c-0.2,0-0.3-0.1-0.3-0.3v-1.6
		c0-0.2,0.1-0.3,0.3-0.3c0.1,0,0.3,0.1,0.3,0.2c0,0,0,0,0,0.1v1.6C113.2,151.1,113.1,151.3,113,151.3L113,151.3z M174.1,148.2
		c-0.2,0-0.3-0.1-0.3-0.3v-1.6c0-0.2,0.1-0.3,0.3-0.3s0.3,0.1,0.3,0.3v1.6C174.4,148.1,174.3,148.2,174.1,148.2L174.1,148.2
		L174.1,148.2z M113,148.1c-0.2,0-0.3-0.1-0.3-0.3v-1.6c0-0.2,0.1-0.3,0.3-0.3c0.1,0,0.3,0.1,0.3,0.2c0,0,0,0,0,0.1v1.6
		C113.2,147.9,113.1,148.1,113,148.1L113,148.1z M174.1,145c-0.2,0-0.3-0.1-0.3-0.3v-1.6c0-0.2,0.1-0.3,0.3-0.3s0.3,0.1,0.3,0.3v1.6
		C174.4,144.9,174.3,145,174.1,145L174.1,145L174.1,145z M113,144.9c-0.2,0-0.3-0.1-0.3-0.3V143c0-0.2,0.1-0.3,0.3-0.3
		c0.1,0,0.3,0.1,0.3,0.2c0,0,0,0,0,0.1v1.6C113.2,144.7,113.1,144.9,113,144.9L113,144.9z M174.1,141.8c-0.2,0-0.3-0.1-0.3-0.3v-1.6
		c0-0.2,0.1-0.3,0.3-0.3s0.3,0.1,0.3,0.3v1.6C174.4,141.7,174.3,141.8,174.1,141.8L174.1,141.8L174.1,141.8z M113,141.7
		c-0.2,0-0.3-0.1-0.3-0.3v-1.6c0-0.2,0.1-0.3,0.3-0.3c0.1,0,0.3,0.1,0.3,0.2c0,0,0,0,0,0.1v1.6C113.2,141.6,113.1,141.7,113,141.7
		L113,141.7z M174.1,138.6c-0.2,0-0.3-0.1-0.3-0.3v-1.6c0-0.2,0.1-0.3,0.3-0.3s0.3,0.1,0.3,0.3v1.6
		C174.4,138.5,174.3,138.6,174.1,138.6L174.1,138.6L174.1,138.6z M113,138.5c-0.2,0-0.3-0.1-0.3-0.3v-1.6c0-0.2,0.1-0.3,0.3-0.3
		c0.1,0,0.3,0.1,0.3,0.2c0,0,0,0,0,0.1v1.6C113.2,138.4,113.1,138.5,113,138.5L113,138.5z M174.1,135.4c-0.2,0-0.3-0.1-0.3-0.3v-1.6
		c0-0.2,0.1-0.3,0.3-0.3s0.3,0.1,0.3,0.3l0,0v1.6C174.4,135.3,174.3,135.4,174.1,135.4L174.1,135.4L174.1,135.4z M113,135.3
		c-0.2,0-0.3-0.1-0.3-0.3v-1.6c0-0.2,0.1-0.3,0.3-0.3c0.1,0,0.3,0.1,0.3,0.2c0,0,0,0,0,0.1v1.6C113.2,135.2,113.1,135.3,113,135.3
		L113,135.3z M174.1,132.2c-0.2,0-0.3-0.1-0.3-0.3v-0.6c0-0.3,0-0.5-0.1-0.8c0-0.1,0-0.3,0.2-0.3s0.3,0,0.3,0.2
		c0.1,0.3,0.2,0.6,0.2,0.9v0.7C174.4,132.1,174.3,132.2,174.1,132.2L174.1,132.2z M113,132.1c-0.2,0-0.3-0.1-0.3-0.3v-0.5
		c0-0.4,0.1-0.7,0.2-1.1c0.1-0.1,0.2-0.2,0.3-0.1s0.2,0.2,0.1,0.3c-0.1,0.3-0.2,0.6-0.2,0.9v0.6C113.2,132,113.1,132.1,113,132.1
		L113,132.1z M173.1,129.4c-0.1,0-0.1,0-0.2-0.1c-0.4-0.3-0.8-0.5-1.3-0.5c-0.1,0-0.3-0.1-0.2-0.3s0.1-0.3,0.3-0.2
		c0.6,0,1.2,0.2,1.6,0.6c0.1,0.1,0.1,0.3,0,0.4C173.2,129.3,173.1,129.4,173.1,129.4L173.1,129.4z M114.2,129.3
		c-0.1,0-0.2,0-0.2-0.1c-0.1-0.1-0.1-0.3,0-0.4c0,0,0,0,0.1,0c0.5-0.3,1.1-0.5,1.7-0.5l0,0c0.2,0,0.3,0.1,0.3,0.3s-0.1,0.3-0.3,0.3
		c-0.5,0-1,0.1-1.4,0.4H114.2z M170,128.8h-1.6c-0.2,0-0.3-0.1-0.3-0.3c0-0.1,0.1-0.3,0.2-0.3c0,0,0,0,0.1,0h1.6
		c0.2,0,0.3,0.1,0.3,0.3S170.2,128.8,170,128.8L170,128.8z M166.8,128.8h-1.6c-0.2,0-0.3-0.1-0.3-0.3c0-0.1,0.1-0.3,0.2-0.3
		c0,0,0,0,0.1,0h1.6c0.2,0,0.3,0.1,0.3,0.3S167,128.8,166.8,128.8z M163.6,128.8H162c-0.2,0-0.3-0.1-0.3-0.3c0-0.1,0.1-0.3,0.2-0.3
		c0,0,0,0,0.1,0h1.6c0.2,0,0.3,0.1,0.3,0.3C163.9,128.7,163.8,128.8,163.6,128.8L163.6,128.8L163.6,128.8z M160.4,128.8h-1.6
		c-0.2,0-0.3-0.1-0.3-0.3c0-0.1,0.1-0.3,0.2-0.3c0,0,0,0,0.1,0h1.6c0.2,0,0.3,0.1,0.3,0.3S160.6,128.8,160.4,128.8L160.4,128.8
		L160.4,128.8z M157.2,128.8h-1.6c-0.2,0-0.3-0.1-0.3-0.3c0-0.1,0.1-0.3,0.2-0.3c0,0,0,0,0.1,0h1.6c0.2,0,0.3,0.1,0.3,0.3
		S157.4,128.8,157.2,128.8L157.2,128.8L157.2,128.8z M154,128.8h-1.6c-0.2,0-0.3-0.1-0.3-0.3c0-0.1,0.1-0.3,0.2-0.3c0,0,0,0,0.1,0
		h1.6c0.2,0,0.3,0.1,0.3,0.3S154.2,128.8,154,128.8L154,128.8L154,128.8z M150.8,128.8h-1.6c-0.2,0-0.3-0.1-0.3-0.3
		c0-0.1,0.1-0.3,0.2-0.3c0,0,0,0,0.1,0h1.6c0.2,0,0.3,0.1,0.3,0.3S151,128.8,150.8,128.8L150.8,128.8L150.8,128.8z M147.6,128.8H146
		c-0.2,0-0.3-0.1-0.3-0.3c0-0.1,0.1-0.3,0.2-0.3c0,0,0,0,0.1,0h1.6c0.2,0,0.3,0.1,0.3,0.3C147.9,128.7,147.8,128.8,147.6,128.8
		L147.6,128.8L147.6,128.8z M144.4,128.8h-1.6c-0.2,0-0.3-0.1-0.3-0.3c0-0.1,0.1-0.3,0.2-0.3c0,0,0,0,0.1,0h1.6
		c0.2,0,0.3,0.1,0.3,0.3S144.6,128.8,144.4,128.8L144.4,128.8L144.4,128.8z M141.2,128.8h-1.6c-0.2,0-0.3-0.1-0.3-0.3
		c0-0.1,0.1-0.3,0.2-0.3c0,0,0,0,0.1,0h1.6c0.2,0,0.3,0.1,0.3,0.3S141.4,128.8,141.2,128.8L141.2,128.8L141.2,128.8z M138,128.8
		h-1.6c-0.2,0-0.3-0.1-0.3-0.3c0-0.1,0.1-0.3,0.2-0.3c0,0,0,0,0.1,0h1.6c0.2,0,0.3,0.1,0.3,0.3S138.2,128.8,138,128.8L138,128.8
		L138,128.8z M134.8,128.8h-1.6c-0.2,0-0.3-0.1-0.3-0.3c0-0.1,0.1-0.3,0.2-0.3c0,0,0,0,0.1,0h1.6c0.2,0,0.3,0.1,0.3,0.3
		S135,128.8,134.8,128.8L134.8,128.8L134.8,128.8z M131.6,128.8H130c-0.2,0-0.3-0.1-0.3-0.3c0-0.1,0.1-0.3,0.2-0.3c0,0,0,0,0.1,0
		h1.6c0.2,0,0.3,0.1,0.3,0.3C131.9,128.7,131.8,128.8,131.6,128.8L131.6,128.8L131.6,128.8z M128.4,128.8h-1.6
		c-0.2,0-0.3-0.1-0.3-0.3c0-0.1,0.1-0.3,0.2-0.3c0,0,0,0,0.1,0h1.6c0.2,0,0.3,0.1,0.3,0.3S128.6,128.8,128.4,128.8L128.4,128.8
		L128.4,128.8z M125.2,128.8h-1.5c-0.2,0-0.3-0.1-0.3-0.3c0-0.1,0.1-0.3,0.2-0.3c0,0,0,0,0.1,0h1.6c0.2,0,0.3,0.1,0.3,0.3
		C125.6,128.7,125.4,128.8,125.2,128.8L125.2,128.8z M122.1,128.8h-1.6c-0.2,0-0.3-0.1-0.3-0.3c0-0.1,0.1-0.3,0.2-0.3c0,0,0,0,0.1,0
		h1.6c0.2,0,0.3,0.1,0.3,0.3S122.3,128.8,122.1,128.8z M118.9,128.8h-1.6c-0.2,0-0.3-0.1-0.3-0.3c0-0.1,0.1-0.3,0.2-0.3
		c0,0,0,0,0.1,0h1.6c0.2,0,0.3,0.1,0.3,0.3S119.1,128.8,118.9,128.8z"/>
	<path class="st18" d="M262.3,208.6h-1.4c-0.1,0-0.2-0.1-0.2-0.2c0-0.1,0.1-0.2,0.2-0.2l0,0h1.4c0.1,0,0.2,0.1,0.2,0.2
		S262.4,208.6,262.3,208.6z M259.4,208.6H258c-0.1,0-0.2-0.1-0.2-0.2c0-0.1,0.1-0.2,0.2-0.2h1.4c0.1,0,0.2,0.1,0.2,0.2
		C259.7,208.5,259.6,208.6,259.4,208.6z M256.6,208.6h-1.4c-0.1,0-0.2-0.1-0.2-0.2c0-0.1,0.1-0.2,0.2-0.2l0,0h1.4
		c0.1,0,0.2,0.1,0.2,0.2C256.8,208.5,256.7,208.6,256.6,208.6L256.6,208.6z M253.8,208.6h-1.4c-0.1,0-0.2-0.1-0.2-0.2
		c0-0.1,0.1-0.2,0.2-0.2l0,0h1.4c0.1,0,0.2,0.1,0.2,0.2S253.9,208.6,253.8,208.6L253.8,208.6z M250.9,208.6h-1.4
		c-0.1,0-0.2-0.1-0.2-0.2c0-0.1,0.1-0.2,0.2-0.2l0,0h1.4c0.1,0,0.2,0.1,0.2,0.2C251.2,208.5,251.1,208.6,250.9,208.6L250.9,208.6z
		 M248.1,208.6h-1.4c-0.1,0-0.2-0.1-0.2-0.2c0-0.1,0.1-0.2,0.2-0.2h1.4c0.1,0,0.2,0.1,0.2,0.2C248.4,208.5,248.2,208.6,248.1,208.6
		L248.1,208.6z M245.3,208.6h-1.4c-0.1,0-0.2-0.1-0.2-0.2c0-0.1,0.1-0.2,0.2-0.2h1.4c0.1,0,0.2,0.1,0.2,0.2S245.4,208.6,245.3,208.6
		L245.3,208.6z M242.5,208.6h-1.4c-0.1,0-0.2-0.1-0.2-0.2c0-0.1,0.1-0.2,0.2-0.2h1.4c0.1,0,0.2,0.1,0.2,0.2S242.6,208.6,242.5,208.6
		z M239.6,208.6h-1.4c-0.1,0-0.2-0.1-0.2-0.2c0-0.1,0.1-0.2,0.2-0.2l0,0h1.4c0.1,0,0.2,0.1,0.2,0.2
		C239.9,208.5,239.8,208.6,239.6,208.6L239.6,208.6z M236.8,208.6h-1.5c-0.1,0-0.2-0.1-0.2-0.2c0-0.1,0.1-0.2,0.2-0.2h1.4
		c0.1,0,0.2,0.1,0.2,0.2C237,208.5,236.9,208.6,236.8,208.6L236.8,208.6z M263.2,207.7L263.2,207.7c-0.1,0-0.2-0.1-0.2-0.2l0,0v-1.4
		c0-0.1,0.1-0.2,0.2-0.2s0.2,0.1,0.2,0.2l0,0v1.4C263.4,207.6,263.3,207.7,263.2,207.7L263.2,207.7z M234.5,207.7
		c-0.1,0-0.2-0.1-0.2-0.2v-1.4c0-0.1,0.1-0.2,0.2-0.2c0.1,0,0.2,0.1,0.2,0.2v1.4C234.7,207.6,234.6,207.7,234.5,207.7L234.5,207.7z
		 M263.2,204.9c-0.1,0-0.2-0.1-0.2-0.2v-1.4c0-0.1,0.1-0.2,0.2-0.2s0.2,0.1,0.2,0.2v1.4C263.4,204.8,263.3,204.9,263.2,204.9
		L263.2,204.9z M234.5,204.9c-0.1,0-0.2-0.1-0.2-0.2v-1.4c0-0.1,0.1-0.2,0.2-0.2c0.1,0,0.2,0.1,0.2,0.2v1.4
		C234.7,204.8,234.6,204.9,234.5,204.9L234.5,204.9z M263.2,202.1c-0.1,0-0.2-0.1-0.2-0.2v-1.4c0-0.1,0.1-0.2,0.2-0.2
		s0.2,0.1,0.2,0.2l0,0v1.4C263.4,202,263.3,202.1,263.2,202.1L263.2,202.1z M234.5,202c-0.1,0-0.2-0.1-0.2-0.2v-1.4l0,0
		c0-0.1,0.1-0.2,0.2-0.2c0.1,0,0.2,0.1,0.2,0.2l0,0v1.4C234.7,201.9,234.6,202,234.5,202L234.5,202z M262.3,199.7h-1.4
		c-0.1,0-0.2-0.1-0.2-0.2c0-0.1,0.1-0.2,0.2-0.2l0,0h1.5c0.1,0,0.2,0.1,0.2,0.2C262.5,199.6,262.4,199.7,262.3,199.7L262.3,199.7z
		 M259.5,199.7h-1.4c-0.1,0-0.2-0.1-0.2-0.2c0-0.1,0.1-0.2,0.2-0.2h1.4c0.1,0,0.2,0.1,0.2,0.2C259.7,199.6,259.6,199.7,259.5,199.7z
		 M256.7,199.7h-1.4c-0.1,0-0.2-0.1-0.2-0.2c0-0.1,0.1-0.2,0.2-0.2h1.4c0.1,0,0.2,0.1,0.2,0.2C256.9,199.6,256.8,199.7,256.7,199.7z
		 M253.8,199.7h-1.4c-0.1,0-0.2-0.1-0.2-0.2c0-0.1,0.1-0.2,0.2-0.2l0,0h1.4c0.1,0,0.2,0.1,0.2,0.2
		C254.1,199.6,254,199.7,253.8,199.7L253.8,199.7z M251,199.7h-1.4c-0.1,0-0.2-0.1-0.2-0.2c0-0.1,0.1-0.2,0.2-0.2h1.4
		c0.1,0,0.2,0.1,0.2,0.2C251.2,199.6,251.1,199.7,251,199.7L251,199.7z M248.2,199.7h-1.5c-0.1,0-0.2-0.1-0.2-0.2
		c0-0.1,0.1-0.2,0.2-0.2h1.4c0.1,0,0.2,0.1,0.2,0.2C248.4,199.6,248.3,199.7,248.2,199.7L248.2,199.7z M245.3,199.7h-1.4
		c-0.1,0-0.2-0.1-0.2-0.2c0-0.1,0.1-0.2,0.2-0.2h1.4c0.1,0,0.2,0.1,0.2,0.2C245.6,199.6,245.5,199.7,245.3,199.7L245.3,199.7z
		 M242.5,199.7h-1.4c-0.1,0-0.2-0.1-0.2-0.2c0-0.1,0.1-0.2,0.2-0.2h1.4c0.1,0,0.2,0.1,0.2,0.2C242.7,199.6,242.6,199.7,242.5,199.7z
		 M239.7,199.7h-1.4c-0.1,0-0.2-0.1-0.2-0.2c0-0.1,0.1-0.2,0.2-0.2l0,0h1.4c0.1,0,0.2,0.1,0.2,0.2
		C239.9,199.6,239.8,199.7,239.7,199.7z M236.8,199.7h-1.4c-0.1,0-0.2-0.1-0.2-0.2c0-0.1,0.1-0.2,0.2-0.2l0,0h1.4
		c0.1,0,0.2,0.1,0.2,0.2C237.1,199.6,237,199.7,236.8,199.7L236.8,199.7z"/>
	<path class="st18" d="M161.2,124.1h-1.6c-0.2,0-0.3-0.1-0.3-0.3c0-0.2,0.1-0.3,0.3-0.3l0,0h1.6c0.2,0,0.3,0.1,0.3,0.3
		C161.4,124,161.3,124.1,161.2,124.1z M158,124.1h-1.6c-0.2,0-0.3-0.1-0.3-0.3c0-0.2,0.1-0.3,0.3-0.3h1.6c0.2,0,0.3,0.1,0.3,0.3
		S158.2,124.1,158,124.1L158,124.1L158,124.1z M154.9,124.1h-1.6c-0.2,0-0.3-0.1-0.3-0.3c0-0.2,0.1-0.3,0.3-0.3h1.6
		c0.2,0,0.3,0.1,0.3,0.3S155.1,124.1,154.9,124.1z M151.8,124.1h-1.6c-0.2,0-0.3-0.1-0.3-0.3c0-0.2,0.1-0.3,0.3-0.3l0,0h1.6
		c0.2,0,0.3,0.1,0.3,0.3C152,124,151.9,124.1,151.8,124.1z M148.6,124.1H147c-0.2,0-0.3-0.1-0.3-0.3c0-0.2,0.1-0.3,0.3-0.3l0,0h1.6
		c0.2,0,0.3,0.1,0.3,0.3C148.9,124,148.8,124.1,148.6,124.1L148.6,124.1z M145.5,124.1h-1.6c-0.2,0-0.3-0.1-0.3-0.3
		c0-0.2,0.1-0.3,0.3-0.3h1.6c0.2,0,0.3,0.1,0.3,0.3S145.7,124.1,145.5,124.1L145.5,124.1z M142.4,124.1h-1.6c-0.2,0-0.3-0.1-0.3-0.3
		c0-0.2,0.1-0.3,0.3-0.3h1.6c0.2,0,0.3,0.1,0.3,0.3C142.6,124,142.5,124.1,142.4,124.1L142.4,124.1z M139.2,124h-0.1
		c-0.5-0.3-0.8-0.8-0.8-1.4v-0.2c0-0.2,0.1-0.3,0.3-0.3c0.1,0,0.3,0.1,0.3,0.2c0,0,0,0,0,0.1v0.2c0,0.4,0.2,0.7,0.5,0.9
		c0.1,0.1,0.2,0.2,0.1,0.4C139.4,123.9,139.3,124,139.2,124L139.2,124z M162.4,123.3L162.4,123.3c-0.2-0.1-0.3-0.2-0.2-0.4
		s0.1-0.2,0.1-0.4v-1.1c0-0.2,0.1-0.3,0.3-0.3c0.1,0,0.3,0.1,0.3,0.2c0,0,0,0,0,0.1v1.1c0,0.2,0,0.4-0.1,0.6
		C162.6,123.2,162.5,123.3,162.4,123.3L162.4,123.3z M138.6,121.1c-0.2,0-0.3-0.1-0.3-0.3v-1.6c0-0.2,0.1-0.3,0.3-0.3
		c0.1,0,0.3,0.1,0.3,0.2c0,0,0,0,0,0.1v1.6C138.9,121,138.8,121.1,138.6,121.1L138.6,121.1z M162.5,120.2c-0.2,0-0.3-0.1-0.3-0.3
		v-1.6c0-0.2,0.1-0.3,0.3-0.3c0.1,0,0.3,0.1,0.3,0.2c0,0,0,0,0,0.1v1.6C162.7,120.1,162.6,120.2,162.5,120.2L162.5,120.2z
		 M138.6,117.9c-0.2,0-0.3-0.1-0.3-0.3V116c0-0.2,0.1-0.3,0.3-0.3c0.1,0,0.3,0.1,0.3,0.2c0,0,0,0,0,0.1v1.6
		C138.9,117.8,138.8,117.9,138.6,117.9L138.6,117.9z M162.5,117c-0.2,0-0.3-0.1-0.3-0.3v-1.6c0-0.2,0.1-0.3,0.3-0.3
		c0.1,0,0.3,0.1,0.3,0.2c0,0,0,0,0,0.1v1.6C162.7,116.9,162.6,117,162.5,117L162.5,117z M138.6,114.8c-0.2,0-0.3-0.1-0.3-0.3v-1.6
		c0-0.2,0.1-0.3,0.3-0.3c0.1,0,0.3,0.1,0.3,0.2c0,0,0,0,0,0.1v1.6C138.9,114.7,138.8,114.8,138.6,114.8L138.6,114.8z M162.5,113.9
		c-0.2,0-0.3-0.1-0.3-0.3V112c0-0.2,0.1-0.3,0.3-0.3c0.1,0,0.3,0.1,0.3,0.2c0,0,0,0,0,0.1v1.6C162.7,113.8,162.6,113.9,162.5,113.9
		L162.5,113.9z M138.6,111.7c-0.2,0-0.3-0.1-0.3-0.3v-1.6c0-0.2,0.1-0.3,0.3-0.3c0.1,0,0.3,0.1,0.3,0.2c0,0,0,0,0,0.1v1.6
		C138.9,111.6,138.8,111.7,138.6,111.7L138.6,111.7z M162.5,110.8c-0.2,0-0.3-0.1-0.3-0.3v-1.6c0-0.2,0.1-0.3,0.3-0.3
		c0.1,0,0.3,0.1,0.3,0.2c0,0,0,0,0,0.1v1.6C162.7,110.7,162.6,110.8,162.5,110.8L162.5,110.8z M138.6,108.5c-0.2,0-0.3-0.1-0.3-0.3
		v-1.6c0-0.2,0.1-0.3,0.3-0.3c0.1,0,0.3,0.1,0.3,0.2c0,0,0,0,0,0.1v1.6C138.9,108.4,138.8,108.5,138.6,108.5L138.6,108.5z
		 M162.5,107.6c-0.2,0-0.3-0.1-0.3-0.3v-1.6c0-0.2,0.1-0.3,0.3-0.3c0.1,0,0.3,0.1,0.3,0.2c0,0,0,0,0,0.1v1.6
		C162.7,107.5,162.6,107.6,162.5,107.6L162.5,107.6z M138.6,105.4c-0.2,0-0.3-0.1-0.3-0.3V104c0-0.2,0-0.4,0.1-0.6
		c0.1-0.1,0.2-0.2,0.3-0.2s0.2,0.2,0.2,0.3s-0.1,0.2-0.1,0.4v1.1C138.9,105.3,138.7,105.4,138.6,105.4L138.6,105.4z M162.5,104.5
		c-0.2,0-0.3-0.1-0.3-0.3V104c0-0.4-0.2-0.7-0.5-0.9c-0.1-0.1-0.2-0.2-0.1-0.4s0.2-0.2,0.4-0.1c0.5,0.3,0.8,0.8,0.8,1.4v0.2
		C162.7,104.4,162.6,104.5,162.5,104.5L162.5,104.5z M160.3,103h-1.6c-0.2,0-0.3-0.1-0.3-0.3c0-0.1,0.1-0.3,0.2-0.3c0,0,0,0,0.1,0
		h1.6c0.2,0,0.3,0.1,0.3,0.3S160.5,103,160.3,103z M157.1,103h-1.6c-0.2,0-0.3-0.1-0.3-0.3c0-0.1,0.1-0.3,0.2-0.3c0,0,0,0,0.1,0h1.6
		c0.2,0,0.3,0.1,0.3,0.3C157.4,102.9,157.3,103,157.1,103L157.1,103L157.1,103z M154,103h-1.6c-0.2,0-0.3-0.1-0.3-0.3
		c0-0.1,0.1-0.3,0.2-0.3c0,0,0,0,0.1,0h1.6c0.2,0,0.3,0.1,0.3,0.3S154.2,103,154,103L154,103L154,103z M150.9,103h-1.6
		c-0.2,0-0.3-0.1-0.3-0.3c0-0.1,0.1-0.3,0.2-0.3c0,0,0,0,0.1,0h1.6c0.2,0,0.3,0.1,0.3,0.3S151.1,103,150.9,103z M147.7,103h-1.6
		c-0.2,0-0.3-0.1-0.3-0.3c0-0.1,0.1-0.3,0.2-0.3c0,0,0,0,0.1,0h1.6c0.2,0,0.3,0.1,0.3,0.3S147.9,103,147.7,103L147.7,103L147.7,103z
		 M144.6,103H143c-0.2,0-0.3-0.1-0.3-0.3c0-0.1,0.1-0.3,0.2-0.3c0,0,0,0,0.1,0h1.6c0.2,0,0.3,0.1,0.3,0.3
		C144.9,102.9,144.8,103,144.6,103L144.6,103L144.6,103z M141.5,103h-1.6c-0.2,0-0.3-0.1-0.3-0.3c0-0.1,0.1-0.3,0.2-0.3
		c0,0,0,0,0.1,0h1.6c0.2,0,0.3,0.1,0.3,0.3S141.7,103,141.5,103L141.5,103z"/>
	<path class="st18" d="M262.3,221.7h-1.4c-0.1,0-0.2-0.1-0.2-0.2c0-0.1,0.1-0.2,0.2-0.2l0,0h1.4c0.1,0,0.2,0.1,0.2,0.2
		C262.5,221.6,262.4,221.7,262.3,221.7z M259.4,221.7H258c-0.1,0-0.2-0.1-0.2-0.2c0-0.1,0.1-0.2,0.2-0.2h1.4c0.1,0,0.2,0.1,0.2,0.2
		C259.6,221.6,259.6,221.7,259.4,221.7z M256.6,221.7h-1.4c-0.1,0-0.2-0.1-0.2-0.2c0-0.1,0.1-0.2,0.2-0.2l0,0h1.4
		c0.1,0,0.2,0.1,0.2,0.2C256.8,221.6,256.7,221.7,256.6,221.7L256.6,221.7z M253.8,221.7h-1.4c-0.1,0-0.2-0.1-0.2-0.2
		c0-0.1,0.1-0.2,0.2-0.2l0,0h1.4c0.1,0,0.2,0.1,0.2,0.2C254,221.6,253.9,221.7,253.8,221.7z M250.9,221.7h-1.4
		c-0.1,0-0.2-0.1-0.2-0.2c0-0.1,0.1-0.2,0.2-0.2l0,0h1.4c0.1,0,0.2,0.1,0.2,0.2C251.1,221.6,251.1,221.7,250.9,221.7L250.9,221.7z
		 M248.1,221.7h-1.4c-0.1,0-0.2-0.1-0.2-0.2c0-0.1,0.1-0.2,0.2-0.2h1.4c0.1,0,0.2,0.1,0.2,0.2C248.3,221.6,248.2,221.7,248.1,221.7z
		 M245.3,221.7h-1.4c-0.1,0-0.2-0.1-0.2-0.2c0-0.1,0.1-0.2,0.2-0.2h1.4c0.1,0,0.2,0.1,0.2,0.2C245.5,221.6,245.4,221.7,245.3,221.7
		L245.3,221.7z M242.5,221.7h-1.4c-0.1,0-0.2-0.1-0.2-0.2c0-0.1,0.1-0.2,0.2-0.2h1.4c0.1,0,0.2,0.1,0.2,0.2
		C242.7,221.6,242.6,221.7,242.5,221.7z M239.6,221.7h-1.4c-0.1,0-0.2-0.1-0.2-0.2c0-0.1,0.1-0.2,0.2-0.2l0,0h1.4
		c0.1,0,0.2,0.1,0.2,0.2C239.8,221.6,239.8,221.7,239.6,221.7L239.6,221.7z M236.8,221.7h-1.5c-0.1,0-0.2-0.1-0.2-0.2
		c0-0.1,0.1-0.2,0.2-0.2h1.4c0.1,0,0.2,0.1,0.2,0.2C236.9,221.6,236.9,221.7,236.8,221.7L236.8,221.7z M263.2,220.8L263.2,220.8
		c-0.1,0-0.2-0.1-0.2-0.2l0,0v-1.4c0-0.1,0.1-0.2,0.2-0.2s0.2,0.1,0.2,0.2l0,0v1.4C263.4,220.7,263.3,220.8,263.2,220.8L263.2,220.8
		z M234.5,220.8c-0.1,0-0.2-0.1-0.2-0.2v-1.4c0-0.1,0.1-0.2,0.2-0.2c0.1,0,0.2,0.1,0.2,0.2v1.4C234.7,220.7,234.6,220.8,234.5,220.8
		L234.5,220.8z M263.2,218c-0.1,0-0.2-0.1-0.2-0.2v-1.5c0-0.1,0.1-0.2,0.2-0.2s0.2,0.1,0.2,0.2v1.4C263.4,217.9,263.3,218,263.2,218
		L263.2,218z M234.5,217.9c-0.1,0-0.2-0.1-0.2-0.2v-1.4c0-0.1,0.1-0.2,0.2-0.2c0.1,0,0.2,0.1,0.2,0.2v1.4
		C234.7,217.8,234.6,217.9,234.5,217.9L234.5,217.9z M263.2,215.1c-0.1,0-0.2-0.1-0.2-0.2v-1.4c0-0.1,0.1-0.2,0.2-0.2
		s0.2,0.1,0.2,0.2l0,0v1.4C263.4,215,263.3,215.1,263.2,215.1L263.2,215.1z M234.5,215.1c-0.1,0-0.2-0.1-0.2-0.2v-1.4l0,0
		c0-0.1,0.1-0.2,0.2-0.2c0.1,0,0.2,0.1,0.2,0.2l0,0v1.4C234.7,215,234.6,215.1,234.5,215.1L234.5,215.1z M262.3,212.8h-1.4
		c-0.1,0-0.2-0.1-0.2-0.2c0-0.1,0.1-0.2,0.2-0.2h1.5c0.1,0,0.2,0.1,0.2,0.2C262.5,212.7,262.4,212.8,262.3,212.8L262.3,212.8z
		 M259.5,212.8h-1.4c-0.1,0-0.2-0.1-0.2-0.2c0-0.1,0.1-0.2,0.2-0.2h1.4c0.1,0,0.2,0.1,0.2,0.2S259.6,212.8,259.5,212.8L259.5,212.8z
		 M256.7,212.8h-1.4c-0.1,0-0.2-0.1-0.2-0.2c0-0.1,0.1-0.2,0.2-0.2h1.4c0.1,0,0.2,0.1,0.2,0.2C256.9,212.7,256.8,212.8,256.7,212.8z
		 M253.8,212.8h-1.4c-0.1,0-0.2-0.1-0.2-0.2c0-0.1,0.1-0.2,0.2-0.2h1.4c0.1,0,0.2,0.1,0.2,0.2C254.1,212.7,254,212.8,253.8,212.8
		L253.8,212.8z M251,212.8h-1.4c-0.1,0-0.2-0.1-0.2-0.2c0-0.1,0.1-0.2,0.2-0.2l0,0h1.4c0.1,0,0.2,0.1,0.2,0.2S251.1,212.8,251,212.8
		L251,212.8z M248.2,212.8h-1.5c-0.1,0-0.2-0.1-0.2-0.2c0-0.1,0.1-0.2,0.2-0.2h1.4c0.1,0,0.2,0.1,0.2,0.2
		C248.4,212.7,248.3,212.8,248.2,212.8L248.2,212.8z M245.3,212.8h-1.4c-0.1,0-0.2-0.1-0.2-0.2c0-0.1,0.1-0.2,0.2-0.2h1.4
		c0.1,0,0.2,0.1,0.2,0.2C245.6,212.7,245.5,212.8,245.3,212.8L245.3,212.8z M242.5,212.8h-1.4c-0.1,0-0.2-0.1-0.2-0.2
		c0-0.1,0.1-0.2,0.2-0.2h1.4c0.1,0,0.2,0.1,0.2,0.2S242.6,212.8,242.5,212.8L242.5,212.8z M239.7,212.8h-1.4c-0.1,0-0.2-0.1-0.2-0.2
		c0-0.1,0.1-0.2,0.2-0.2h1.4c0.1,0,0.2,0.1,0.2,0.2S239.8,212.8,239.7,212.8L239.7,212.8z M236.8,212.8h-1.4c-0.1,0-0.2-0.1-0.2-0.2
		c0-0.1,0.1-0.2,0.2-0.2h1.4c0.1,0,0.2,0.1,0.2,0.2C237.1,212.7,237,212.8,236.8,212.8L236.8,212.8z"/>
	<path class="st19" d="M150.6,211.9h-1.4c-0.1,0-0.2-0.1-0.2-0.2c0-0.1,0.1-0.2,0.2-0.2h1.4c0.1,0,0.2,0.1,0.2,0.2
		C150.8,211.8,150.7,211.9,150.6,211.9z M147.7,211.9h-1.4c-0.1,0-0.2-0.1-0.2-0.2c0-0.1,0.1-0.2,0.2-0.2h1.4c0.1,0,0.2,0.1,0.2,0.2
		C147.9,211.8,147.9,211.9,147.7,211.9z M144.9,211.9h-1.4c-0.1,0-0.2-0.1-0.2-0.2c0-0.1,0.1-0.2,0.2-0.2h1.4c0.1,0,0.2,0.1,0.2,0.2
		C145.1,211.8,145.1,211.9,144.9,211.9z M142.1,211.9h-1.4c-0.1,0-0.2-0.1-0.2-0.2c0-0.1,0.1-0.2,0.2-0.2h1.4c0.1,0,0.2,0.1,0.2,0.2
		C142.3,211.8,142.3,211.9,142.1,211.9z M139.3,211.9h-1.4c-0.1,0-0.2-0.1-0.2-0.2c0-0.1,0.1-0.2,0.2-0.2h1.4c0.1,0,0.2,0.1,0.2,0.2
		C139.5,211.8,139.5,211.9,139.3,211.9z M136.5,211.9h-1.4c-0.1,0-0.2-0.1-0.2-0.2c0-0.1,0.1-0.2,0.2-0.2h1.4c0.1,0,0.2,0.1,0.2,0.2
		C136.7,211.8,136.6,211.9,136.5,211.9z M133.7,211.9h-1.4c-0.1,0-0.2-0.1-0.2-0.2c0-0.1,0.1-0.2,0.2-0.2h1.4c0.1,0,0.2,0.1,0.2,0.2
		C133.9,211.8,133.8,211.9,133.7,211.9z M130.9,211.9h-1.4c-0.1,0-0.2-0.1-0.2-0.2c0-0.1,0.1-0.2,0.2-0.2h1.4c0.1,0,0.2,0.1,0.2,0.2
		C131.1,211.8,131,211.9,130.9,211.9L130.9,211.9z M128.1,211.9h-1.4c-0.1,0-0.2-0.1-0.2-0.2c0-0.1,0.1-0.2,0.2-0.2h1.4
		c0.1,0,0.2,0.1,0.2,0.2C128.3,211.8,128.2,211.9,128.1,211.9z M125.3,211.9h-1.4c-0.1,0-0.2-0.1-0.2-0.2c0-0.1,0.1-0.2,0.2-0.2h1.4
		c0.1,0,0.2,0.1,0.2,0.2C125.5,211.8,125.4,211.9,125.3,211.9L125.3,211.9z M122.5,211.9h-1.4c-0.1,0-0.2-0.1-0.2-0.2
		c0-0.1,0.1-0.2,0.2-0.2h1.4c0.1,0,0.2,0.1,0.2,0.2C122.7,211.8,122.6,211.9,122.5,211.9z M119.7,211.9h-1.4c-0.1,0-0.2-0.1-0.2-0.2
		c0-0.1,0.1-0.2,0.2-0.2h1.4c0.1,0,0.2,0.1,0.2,0.2C119.9,211.8,119.8,211.9,119.7,211.9z M116.9,211.9h-1.4c-0.1,0-0.2-0.1-0.2-0.2
		c0-0.1,0.1-0.2,0.2-0.2h1.4c0.1,0,0.2,0.1,0.2,0.2C117.1,211.8,117,211.9,116.9,211.9z M114.1,211.9h-1.4c-0.1,0-0.2-0.1-0.2-0.2
		c0-0.1,0.1-0.2,0.2-0.2h1.4c0.1,0,0.2,0.1,0.2,0.2C114.3,211.8,114.2,211.9,114.1,211.9z M111.3,211.9h-1.4c-0.1,0-0.2-0.1-0.2-0.2
		c0-0.1,0.1-0.2,0.2-0.2h1.4c0.1,0,0.2,0.1,0.2,0.2C111.5,211.8,111.4,211.9,111.3,211.9z M108.4,211.9H107c-0.1,0-0.2-0.1-0.2-0.3
		s0.1-0.2,0.3-0.2h1.4c0.1,0,0.2,0.1,0.2,0.2C108.7,211.8,108.6,211.9,108.4,211.9L108.4,211.9z M151.9,211.4c-0.1,0-0.1,0-0.2-0.1
		c-0.1-0.1,0-0.2,0-0.3c0,0,0,0,0.1,0c0.4-0.2,0.7-0.6,0.8-1c0.1-0.1,0.2-0.2,0.3-0.1c0.1,0.1,0.2,0.2,0.1,0.3
		c-0.2,0.5-0.5,0.9-1,1.2L151.9,211.4z M105.8,211.3c-0.1,0-0.1,0-0.2-0.1c-0.4-0.3-0.7-0.8-0.8-1.3c0-0.1,0-0.3,0.2-0.3
		s0.3,0,0.3,0.2c0.1,0.4,0.4,0.8,0.7,1c0.1,0.1,0.1,0.2,0,0.3l0,0C105.9,211.3,105.8,211.3,105.8,211.3L105.8,211.3z M152.9,209
		c-0.1,0-0.2-0.1-0.2-0.2v-1.4c0-0.1,0.1-0.2,0.2-0.2c0.1,0,0.2,0.1,0.2,0.2v1.4C153.2,208.9,153.1,209,152.9,209L152.9,209z
		 M104.9,208.7c-0.1,0-0.2-0.1-0.2-0.2v-1.4c0-0.1,0.1-0.2,0.2-0.2s0.2,0.1,0.2,0.2v1.4C105.2,208.6,105.1,208.7,104.9,208.7
		L104.9,208.7z M152.9,206.2c-0.1,0-0.2-0.1-0.2-0.2v-1.4c0-0.1,0.1-0.2,0.2-0.2c0.1,0,0.2,0.1,0.2,0.2v1.4
		C153.2,206.1,153.1,206.2,152.9,206.2L152.9,206.2z M104.9,205.9c-0.1,0-0.2-0.1-0.2-0.2v-1.4c0-0.1,0.1-0.2,0.2-0.2
		s0.2,0.1,0.2,0.2l0,0v1.4C105.2,205.8,105.1,205.9,104.9,205.9L104.9,205.9z M152.9,203.4c-0.1,0-0.2-0.1-0.2-0.2v-1.4
		c0-0.1,0.1-0.2,0.2-0.2c0.1,0,0.2,0.1,0.2,0.2v1.4C153.2,203.3,153.1,203.4,152.9,203.4L152.9,203.4z M104.9,203.1
		c-0.1,0-0.2-0.1-0.2-0.2v-1.4c0-0.1,0.1-0.2,0.2-0.2s0.2,0.1,0.2,0.2l0,0v1.4C105.2,203,105.1,203.1,104.9,203.1L104.9,203.1z
		 M152.9,200.6c-0.1,0-0.2-0.1-0.2-0.2V199c0-0.1,0.1-0.2,0.2-0.2c0.1,0,0.2,0.1,0.2,0.2l0,0v1.4
		C153.2,200.5,153.1,200.6,152.9,200.6L152.9,200.6z M104.9,200.3c-0.1,0-0.2-0.1-0.2-0.2v-1.4c0-0.1,0.1-0.2,0.2-0.2
		s0.2,0.1,0.2,0.2v1.4C105.2,200.2,105.1,200.3,104.9,200.3L104.9,200.3z M152.9,197.8c-0.1,0-0.2-0.1-0.2-0.2v-1.4
		c0-0.1,0.1-0.2,0.2-0.2c0.1,0,0.2,0.1,0.2,0.2v1.4C153.2,197.7,153.1,197.8,152.9,197.8L152.9,197.8z M104.9,197.5
		c-0.1,0-0.2-0.1-0.2-0.2v-1.4c0-0.1,0.1-0.2,0.2-0.2s0.2,0.1,0.2,0.2v1.4C105.2,197.4,105.1,197.5,104.9,197.5L104.9,197.5z
		 M152.9,195c-0.1,0-0.2-0.1-0.2-0.2v-1.5c0-0.1,0.1-0.2,0.2-0.2c0.1,0,0.2,0.1,0.2,0.2v1.4C153.2,194.9,153.1,195,152.9,195
		L152.9,195z M104.9,194.7c-0.1,0-0.2-0.1-0.2-0.2v-1.4c0-0.1,0.1-0.2,0.2-0.2s0.2,0.1,0.2,0.2l0,0v1.4
		C105.2,194.6,105.1,194.7,104.9,194.7L104.9,194.7z M152.9,192.2c-0.1,0-0.2-0.1-0.2-0.2v-1.4c0-0.1,0.1-0.2,0.2-0.2
		c0.1,0,0.2,0.1,0.2,0.2l0,0v1.4C153.2,192,153.1,192.2,152.9,192.2L152.9,192.2z M104.9,191.9c-0.1,0-0.2-0.1-0.2-0.2v-1.4
		c0-0.1,0.1-0.2,0.2-0.2s0.2,0.1,0.2,0.2v1.4C105.2,191.8,105.1,191.9,104.9,191.9L104.9,191.9z M152.9,189.3
		c-0.1,0-0.2-0.1-0.2-0.2v-1.4c0-0.1,0.1-0.2,0.2-0.2c0.1,0,0.2,0.1,0.2,0.2v1.4C153.2,189.2,153.1,189.3,152.9,189.3L152.9,189.3z
		 M104.9,189.1c-0.1,0-0.2-0.1-0.2-0.2v-1.4c0-0.1,0.1-0.2,0.2-0.2s0.2,0.1,0.2,0.2l0,0v1.4C105.2,189,105.1,189.1,104.9,189.1
		L104.9,189.1z M152.9,186.5c-0.1,0-0.2-0.1-0.2-0.2v-1.4c0-0.1,0.1-0.2,0.2-0.2c0.1,0,0.2,0.1,0.2,0.2v1.4
		C153.2,186.4,153.1,186.5,152.9,186.5L152.9,186.5z M104.9,186.3c-0.1,0-0.2-0.1-0.2-0.2v-1.4c0-0.1,0.1-0.2,0.2-0.2
		s0.2,0.1,0.2,0.2v1.4C105.2,186.2,105.1,186.3,104.9,186.3L104.9,186.3z M152.9,183.7c-0.1,0-0.2-0.1-0.2-0.2v-1.4
		c0-0.1,0.1-0.2,0.2-0.2c0.1,0,0.2,0.1,0.2,0.2l0,0v1.4C153.2,183.6,153.1,183.7,152.9,183.7L152.9,183.7z M104.9,183.5
		c-0.1,0-0.2-0.1-0.2-0.2v-1.4c0-0.1,0.1-0.2,0.2-0.2s0.2,0.1,0.2,0.2l0,0v1.4C105.2,183.4,105.1,183.5,104.9,183.5L104.9,183.5z
		 M152.9,180.9c-0.1,0-0.2-0.1-0.2-0.2v-1.4c0-0.1,0.1-0.2,0.2-0.2c0.1,0,0.2,0.1,0.2,0.2v1.4C153.2,180.8,153.1,180.9,152.9,180.9
		L152.9,180.9z M104.9,180.7c-0.1,0-0.2-0.1-0.2-0.2v-1.4c0-0.1,0.1-0.2,0.2-0.2s0.2,0.1,0.2,0.2v1.4
		C105.2,180.5,105.1,180.7,104.9,180.7L104.9,180.7z M152.8,178.1c-0.1,0-0.2-0.1-0.2-0.2c-0.1-0.4-0.4-0.8-0.7-1
		c-0.1-0.1-0.1-0.2,0-0.3s0.2-0.1,0.3,0c0.4,0.3,0.7,0.8,0.8,1.3C153.1,178,153,178.1,152.8,178.1L152.8,178.1z M105.1,177.9
		L105.1,177.9c-0.2-0.1-0.3-0.2-0.2-0.3c0.2-0.5,0.5-0.9,1-1.2c0.1-0.1,0.2,0,0.3,0.1c0.1,0.1,0,0.2-0.1,0.3l0,0
		c-0.4,0.2-0.7,0.6-0.8,1C105.2,177.9,105.2,177.9,105.1,177.9L105.1,177.9z M150.8,176.4h-1.4c-0.1,0-0.2-0.1-0.2-0.2
		c0-0.1,0.1-0.2,0.2-0.2h1.4c0.1,0,0.2,0.1,0.2,0.3C150.9,176.4,150.9,176.4,150.8,176.4L150.8,176.4z M148,176.4h-1.4
		c-0.1,0-0.2-0.1-0.2-0.2c0-0.1,0.1-0.2,0.2-0.2l0,0h1.4c0.1,0,0.2,0.1,0.2,0.2C148.3,176.3,148.2,176.4,148,176.4L148,176.4z
		 M145.2,176.4h-1.4c-0.1,0-0.2-0.1-0.2-0.2c0-0.1,0.1-0.2,0.2-0.2h1.4c0.1,0,0.2,0.1,0.2,0.2C145.4,176.3,145.3,176.4,145.2,176.4z
		 M142.4,176.4H141c-0.1,0-0.2-0.1-0.2-0.2c0-0.1,0.1-0.2,0.2-0.2l0,0h1.4c0.1,0,0.2,0.1,0.2,0.2
		C142.6,176.3,142.5,176.4,142.4,176.4L142.4,176.4L142.4,176.4z M139.6,176.4h-1.4c-0.1,0-0.2-0.1-0.2-0.2c0-0.1,0.1-0.2,0.2-0.2
		l0,0h1.4c0.1,0,0.2,0.1,0.2,0.2C139.8,176.3,139.7,176.4,139.6,176.4z M136.8,176.4h-1.4c-0.1,0-0.2-0.1-0.2-0.2
		c0-0.1,0.1-0.2,0.2-0.2h1.4c0.1,0,0.2,0.1,0.2,0.2C137,176.3,136.9,176.4,136.8,176.4z M134,176.4h-1.4c-0.1,0-0.2-0.1-0.2-0.2
		c0-0.1,0.1-0.2,0.2-0.2h1.4c0.1,0,0.2,0.1,0.2,0.2C134.2,176.3,134.1,176.4,134,176.4L134,176.4z M131.2,176.4h-1.4
		c-0.1,0-0.2-0.1-0.2-0.2c0-0.1,0.1-0.2,0.2-0.2h1.4c0.1,0,0.2,0.1,0.2,0.2C131.4,176.3,131.3,176.4,131.2,176.4z M128.4,176.4H127
		c-0.1,0-0.2-0.1-0.2-0.2c0-0.1,0.1-0.2,0.2-0.2h1.4c0.1,0,0.2,0.1,0.2,0.2C128.6,176.3,128.5,176.4,128.4,176.4L128.4,176.4
		L128.4,176.4z M125.6,176.4h-1.4c-0.1,0-0.2-0.1-0.2-0.2c0-0.1,0.1-0.2,0.2-0.2h1.4c0.1,0,0.2,0.1,0.2,0.2
		C125.8,176.3,125.7,176.4,125.6,176.4z M122.8,176.4h-1.4c-0.1,0-0.2-0.1-0.2-0.2c0-0.1,0.1-0.2,0.2-0.2h1.4c0.1,0,0.2,0.1,0.2,0.2
		C123,176.3,122.9,176.4,122.8,176.4L122.8,176.4z M120,176.4h-1.4c-0.1,0-0.2-0.1-0.2-0.2c0-0.1,0.1-0.2,0.2-0.2h1.4
		c0.1,0,0.2,0.1,0.2,0.2C120.2,176.3,120.1,176.4,120,176.4L120,176.4z M117.1,176.4h-1.4c-0.1,0-0.2-0.1-0.2-0.2
		c0-0.1,0.1-0.2,0.2-0.2h1.4c0.1,0,0.2,0.1,0.2,0.2C117.4,176.3,117.3,176.4,117.1,176.4L117.1,176.4z M114.3,176.4h-1.4
		c-0.1,0-0.2-0.1-0.2-0.2c0-0.1,0.1-0.2,0.2-0.2h1.4c0.1,0,0.2,0.1,0.2,0.2C114.6,176.3,114.5,176.4,114.3,176.4L114.3,176.4z
		 M111.5,176.4h-1.4c-0.1,0-0.2-0.1-0.2-0.2c0-0.1,0.1-0.2,0.2-0.2h1.4c0.1,0,0.2,0.1,0.2,0.2C111.8,176.3,111.7,176.4,111.5,176.4
		L111.5,176.4z M108.7,176.4h-1.4c-0.1,0-0.2-0.1-0.2-0.2c0-0.1,0.1-0.2,0.2-0.2h1.4c0.1,0,0.2,0.1,0.2,0.2
		C109,176.3,108.9,176.4,108.7,176.4L108.7,176.4z"/>
	<path class="st16" d="M152.8,168.8H119c-7.6,0-13.7-6.1-13.7-13.7V147c0-7.6,6.1-13.7,13.7-13.7h33.8c7.6,0,13.7,6.1,13.7,13.7v8.1
		C166.5,162.7,160.3,168.8,152.8,168.8z"/>
	<path class="st1" d="M128.9,144.1v14.1c0,0.6,0.5,1.1,1.1,1.1c0.2,0,0.4-0.1,0.6-0.2l10.7-7c0.5-0.2,0.7-0.8,0.5-1.3
		c-0.1-0.2-0.3-0.4-0.5-0.5l-10.7-7c-0.4-0.4-1-0.4-1.4,0C129,143.5,128.9,143.8,128.9,144.1z"/>
	<rect x="162.5" y="176.2" class="st15" width="31.6" height="47.2"/>
	<path class="st3" d="M181.3,191.3h-0.4v-1.9c0-0.7,0.6-1.3,1.3-1.3h5.4c0.4,0,0.7-0.3,0.8-0.6l0.8-3.2c0.1-0.2,0-0.5-0.1-0.7
		c-0.2-0.2-0.4-0.3-0.7-0.3h-7v-0.4h7c0.4,0,0.8,0.2,1,0.5s0.3,0.7,0.2,1.1l-0.8,3.2c-0.1,0.6-0.6,1-1.2,0.9h-5.4
		c-0.4,0-0.8,0.3-0.8,0.8l0,0v1.9H181.3z"/>
	<path class="st3" d="M185.9,184.9h-8.4c-1,0-1.8-0.8-1.8-1.8l0,0l0,0c0-1,0.8-1.8,1.8-1.8l0,0h8.4c1,0,1.8,0.8,1.8,1.8l0,0l0,0
		C187.7,184.1,186.9,184.9,185.9,184.9z"/>
	<path class="st3" d="M181.1,199.4L181.1,199.4c-0.6,0-1.2-0.5-1.2-1.1v-0.1V191c0-0.6,0.5-1.2,1.1-1.2h0.1l0,0
		c0.6,0,1.2,0.5,1.2,1.1v0.1v7.2C182.3,198.8,181.8,199.4,181.1,199.4C181.2,199.4,181.1,199.4,181.1,199.4z"/>
	<path class="st5" d="M226.6,215.1c0.3,1,0.6,2,0.7,3.1c-0.2,1.1-0.5,2.1-1,3.1c-0.4,0.5-0.5-2.1-0.8-2.4s-0.1,1-0.3,1.1
		s-0.6-1-0.8-1.4s0.4-1.8,0.5-2.9S226.6,215.1,226.6,215.1z"/>
	<path class="st1" d="M207.4,195c-0.2-2,1.3-3.7,3.3-3.9c0.7-0.1,1.5,0.1,2.1,0.5c0.1,0,0.1,0.1,0.2,0.1
		c3.7,2.4,11.7,13.5,12.3,14.7s2.2,10,2.2,10s-2,0.7-3,0c0,0-3.3-8.4-3.7-8.9s-13-7.5-13.2-10.1C207.5,196.7,207.5,195.9,207.4,195z
		"/>
	<path class="st6" d="M229.8,260.3c0,0,1.5,1.4,1.2,2.3s-1.6,1.6-1.8,2.8s-0.9,1.8-1.6,1.8h-3.1c0,0-0.5-0.8,0.7-1.1
		s1.6-1.6,1.5-2.9c0-1,0-2,0.1-3l2.5-0.6L229.8,260.3z"/>
	<path class="st6" d="M211.4,263.8c0,0,0.3,3.1-0.4,3.4h-8.4c0,0,0-1,1.4-1.2s3.7-1,4.1-2.8S211.4,263.8,211.4,263.8z"/>
	<path class="st4" d="M204.3,219.9c0,0,0.4,5.5,1,12c0.7,8.9,1.6,19.8,1.6,21.9c0.1,3.6,0.7,9.3,0.7,9.3c1.2,0.9,2.8,1.2,4.2,0.8
		c1.6-5.5,2.7-11.2,3.2-16.9v-0.4c0.7-8.8,1.7-27.5,1.7-27.5L204.3,219.9z"/>
	<path class="st7" d="M204.3,219.9c0,0,0.4,5.5,1,12c0,0.2,1.2,1.1,1.4,1.3c0.4,0.4,0.9,0.8,1.3,1.2c0.9,0.7,1.8,1.6,2.6,2.5
		c0.7,1.2,1.3,2.6,1.7,3.9c0.7,1.5,1.4,3.1,2,4.7c0.3,0.5,0.5,0.9,0.7,1.5c0-0.1,0.3-4.4,0.3-4.5c0.7-8.8,1.4-23.4,1.4-23.4
		L204.3,219.9z"/>
	<path class="st4" d="M206.4,220.6c0,0,8,19.7,13.3,29c5.3,9.3,6.9,11.9,6.9,11.9s3-1.2,3.3-2c0,0-2-17.9-5.5-22.3
		c-2-2.5-4.3-9.9-4.4-12.5s-0.7-7.7-0.7-7.7L206.4,220.6z"/>
	<path class="st5" d="M213.3,191c0,0-5.4,2.7-8.5,1.8c0.6-0.7,1.3-1.3,2.1-1.7c-0.1-0.6-0.2-1.2-0.3-1.6c-0.1-0.6-0.2-1.1-0.2-1.7
		l2.1-1.7l1.9-1.6C210.3,187,211.3,189.4,213.3,191z"/>
	<path class="st1" d="M218.6,218.6c-2,1.3-4.3,2.2-6.6,2.8c-2.8,0.7-6.3,0.5-7.5,0.6c-0.1,0-0.2,0-0.3-0.1c-0.1,0-0.6-3.5-1.1-7.8
		c0-0.2,0-0.4-0.1-0.5v-0.1c-0.2-1.7-0.4-3.5-0.5-5.3c-0.1-1.4-0.2-2.8-0.3-4.1c-0.1-1.6-0.1-3.1-0.1-4.3c0-0.5,0-1,0.1-1.5
		c0.3-2.1,1.2-4.1,2.7-5.7l0.9-1.1c1.2,0.1,2.3-0.2,3.3-0.8c1.2-0.8,2.4-1.6,2.6-1.4c1.8,1,3.2,3.5,4.2,6.8c0.6,2.1,1.1,4.2,1.3,6.4
		c0.1,0.7,0.2,1.5,0.2,2.2v0.4c0.1,2,0.4,3.9,0.6,5.5c0.3,2.2,0.7,4.1,1,5.5c0.1,0.5,0.2,1.1,0.3,1.6
		C219.5,217.9,218.9,218.4,218.6,218.6z"/>
	<path class="st8" d="M210.5,186.1c-0.9,1.5-2.2,2.7-3.9,3.3c-0.1-0.6-0.2-1.1-0.2-1.7l2.1-1.7L210.5,186.1z"/>
	<path class="st5" d="M205.5,187.7c0,0,5.2,0.7,5.6-2.4s1.4-5.2-1.9-5.8s-4.1,0.5-4.5,1.6C204.2,182,204.1,187.4,205.5,187.7z"/>
	<path class="st4" d="M212.8,179c0-0.1,0.2-0.1,0.4-0.1c-0.2-0.1-0.3-0.1-0.5-0.1c-0.1-0.3-0.2-0.9-0.8-1.1c0.2,0.1,0.3,0.3,0.4,0.5
		c-0.7-0.7-2.1-1.1-6.1-0.8c-5.2,0.5-3.4,3.8-2.7,4.2s2.4-0.7,3.6-0.7s1.5,1.9,2,2.1s0.3-0.2,0.8-0.5s0.6,0.7,0.5,1.3
		s0.7,1.4,0.7,1.4l0.8-0.9c0.8-0.9,1.5-4.5,1.1-5.3C212.9,179.1,212.8,179.1,212.8,179L212.8,179z"/>
	<path class="st6" d="M211.2,200.1c0,0-4.4,3.3-9,4c-0.1-1.6-0.1-3.1-0.1-4.3L211.2,200.1z"/>
	<path class="st5" d="M184.3,195.9c-0.1-0.1-1-3-2.5-2.8c-1,0.1-2.6,0.7-2.2,2c0.2,0.5,3.2,2.3,3.2,2.3L184.3,195.9z"/>
	<path class="st1" d="M211.7,193.7c1.7,1,2.3,3.2,1.2,5c-0.4,0.6-1,1.1-1.6,1.4c-0.1,0-0.1,0-0.2,0.1c-4.1,1.6-17.8,1.7-19.1,1.5
		s-9.4-4-9.4-4s0.6-2.1,1.7-2.4c0,0,8.8,2.2,9.4,2.1s13.6-6.3,15.9-4.9C210.2,192.8,211,193.3,211.7,193.7z"/>
	<g class="st20">
		<path class="st19" d="M304.1,96h-10.9c-0.4,0-0.8-0.3-0.8-0.8l0,0l0,0c0-0.4,0.3-0.8,0.8-0.8l0,0h10.9c0.4,0,0.8,0.3,0.8,0.8l0,0
			l0,0C304.9,95.6,304.5,96,304.1,96z"/>
		<path class="st19" d="M304.1,99.3h-10.9c-0.4,0-0.8-0.3-0.8-0.8l0,0l0,0c0-0.4,0.3-0.8,0.8-0.8l0,0h10.9c0.4,0,0.8,0.3,0.8,0.8
			l0,0l0,0C304.9,98.9,304.5,99.3,304.1,99.3z"/>
		<path class="st19" d="M304.1,102.6h-10.9c-0.4,0-0.8-0.3-0.8-0.8l0,0l0,0c0-0.4,0.3-0.8,0.8-0.8l0,0h10.9c0.4,0,0.8,0.3,0.8,0.8
			l0,0l0,0C304.9,102.2,304.5,102.6,304.1,102.6L304.1,102.6z"/>
	</g>
	<g class="st20">
		<path class="st19" d="M261.3,181.5h-26c-0.6,0-1.1-0.5-1.1-1.1l0,0c0-0.6,0.5-1.1,1.1-1.1h26c0.6,0,1.1,0.5,1.1,1.1l0,0
			C262.4,181,261.9,181.5,261.3,181.5z"/>
		<path class="st19" d="M261.3,192.4h-26c-0.6,0-1.1-0.5-1.1-1.1l0,0c0-0.6,0.5-1.1,1.1-1.1h26c0.6,0,1.1,0.5,1.1,1.1l0,0
			c0.1,0.5-0.3,1-0.9,1.1C261.4,192.4,261.4,192.4,261.3,192.4z"/>
		<path class="st19" d="M261.3,187h-31.1c-0.6,0-1.1-0.5-1.1-1.1l0,0c0-0.6,0.5-1.1,1.1-1.1h31.1c0.6,0,1.1,0.5,1.1,1.1l0,0
			C262.4,186.5,261.9,187,261.3,187z"/>
	</g>
	<g class="st20">
		<path class="st19" d="M134.1,105.4h-26c-0.6,0-1.1-0.5-1.1-1.1l0,0c0-0.6,0.5-1.1,1.1-1.1h26c0.6,0,1.1,0.5,1.1,1.1l0,0
			C135.2,104.9,134.7,105.4,134.1,105.4z"/>
		<path class="st19" d="M126.1,112.4h-14.2c-0.6,0-1.1-0.5-1.1-1.1l0,0c0-0.6,0.5-1.1,1.1-1.1h14.2c0.6,0,1.1,0.5,1.1,1.1l0,0
			C127.2,111.9,126.7,112.4,126.1,112.4z"/>
		<circle class="st19" cx="107" cy="111.3" r="1.1"/>
		<path class="st19" d="M128.9,116.8h-17c-0.6,0-1.1-0.5-1.1-1.1l0,0c0-0.6,0.5-1.1,1.1-1.1h17c0.6,0,1.1,0.5,1.1,1.1l0,0
			C130,116.3,129.5,116.8,128.9,116.8z"/>
		<circle class="st19" cx="107" cy="115.7" r="1.1"/>
		<path class="st19" d="M126.1,121.6h-14.2c-0.6,0-1.1-0.5-1.1-1.1l0,0c0-0.6,0.5-1.1,1.1-1.1h14.2c0.6,0,1.1,0.5,1.1,1.1l0,0
			C127.2,121.1,126.7,121.6,126.1,121.6z"/>
		<circle class="st19" cx="107" cy="120.5" r="1.1"/>
	</g>
	<path class="st1" d="M153,114.9h-0.6c-1.1,0-2.1-0.4-2.8-1.2c-1.5-1.5-1.5-3.9,0-5.4c0,0,0,0,0.1-0.1l0,0c1.5-1.5,4-1.5,5.5,0
		s1.5,4,0,5.5c0,0,0,0-0.1,0.1C154.6,114.4,153.8,114.8,153,114.9z M150.2,108.7c-1.3,1.3-1.3,3.3-0.1,4.6c0.6,0.6,1.4,1,2.3,1
		c0.9,0,1.7-0.3,2.3-0.9c1.3-1.3,1.3-3.3,0.1-4.6c-1.1-1.3-3.1-1.4-4.4-0.3C150.3,108.6,150.3,108.6,150.2,108.7z"/>
	
		<rect x="145.4" y="115" transform="matrix(0.7152 -0.6989 0.6989 0.7152 -38.405 136.3119)" class="st1" width="5.3" height="0.6"/>
	<path class="st1" d="M144.8,118.5L144.8,118.5c-0.2-0.2-0.2-0.6,0-0.8l2.2-2.2c0.2-0.2,0.6-0.2,0.8,0l0,0c0.2,0.2,0.2,0.6,0,0.8
		l-2.2,2.2c-0.1,0.2-0.4,0.3-0.6,0.2C144.9,118.6,144.8,118.6,144.8,118.5z"/>
	<g class="st21">
		<path class="st19" d="M295.3,267.4L295.3,267.4c-0.5,0-1-0.3-1.2-0.8l-30-91.4c-0.1-0.3,0.1-0.7,0.4-0.8c0.1,0,0.2,0,0.2,0l0,0
			c0.5,0,1,0.3,1.2,0.8l30,91.4C296.1,267,295.8,267.4,295.3,267.4z"/>
		<path class="st19" d="M319.5,267.2L319.5,267.2c-0.5,0-1-0.3-1.2-0.8l-30-91.4c-0.1-0.3,0.1-0.7,0.4-0.8c0.1,0,0.2,0,0.2,0l0,0
			c0.5,0,1,0.3,1.2,0.8l30,91.4C320.3,266.9,320,267.2,319.5,267.2z"/>
		<path class="st19" d="M293.5,187.7l-24.3,0.1c-0.5,0-1-0.3-1.1-0.8l0,0c-0.1-0.3,0.1-0.7,0.4-0.8c0.1,0,0.2,0,0.2,0l24.3-0.1
			c0.5,0,1,0.3,1.1,0.8l0,0c0.1,0.3-0.1,0.7-0.4,0.8C293.6,187.7,293.6,187.7,293.5,187.7z"/>
		<path class="st19" d="M298.7,203.7l-24.3,0.1c-0.5,0-1-0.3-1.1-0.8l0,0c-0.1-0.3,0.1-0.7,0.4-0.8c0.1,0,0.2,0,0.2,0l24.3-0.1
			c0.5,0,1,0.3,1.1,0.8l0,0c0.1,0.3-0.1,0.7-0.4,0.8C298.9,203.7,298.8,203.7,298.7,203.7z"/>
		<path class="st19" d="M303.7,219.1l-24.3,0.1c-0.5,0-1-0.3-1.1-0.8l0,0c-0.1-0.3,0.1-0.7,0.4-0.8c0.1,0,0.2,0,0.2,0l24.3-0.1
			c0.5,0,1,0.3,1.1,0.8l0,0C304.5,218.7,304.2,219.1,303.7,219.1z"/>
		<path class="st19" d="M309.4,236.4l-24.3,0.1c-0.5,0-1-0.3-1.1-0.8l0,0c-0.1-0.3,0.1-0.7,0.4-0.8c0.1,0,0.2,0,0.2,0l24.3-0.1
			c0.5,0,1,0.3,1.1,0.8l0,0C310.2,236,309.9,236.4,309.4,236.4z"/>
		<path class="st19" d="M315.4,254.5l-24.3,0.1c-0.5,0-1-0.3-1.1-0.8l0,0c-0.1-0.3,0.1-0.7,0.4-0.8c0.1,0,0.2,0,0.2,0l24.3-0.1
			c0.5,0,1,0.3,1.1,0.8l0,0c0.1,0.3-0.1,0.7-0.4,0.8C315.6,254.5,315.5,254.5,315.4,254.5z"/>
	</g>
	<path class="st1" d="M263.1,133.2L263.1,133.2c-0.2,0-0.4-0.1-0.4-0.3l-0.4-2c0-0.2,0.1-0.4,0.3-0.4l0,0c0.2,0,0.4,0.1,0.4,0.3
		l0.4,2C263.4,133,263.3,133.2,263.1,133.2z"/>
	<rect x="262" y="127.1" transform="matrix(0.9818 -0.19 0.19 0.9818 -19.6596 52.1421)" class="st1" width="0.2" height="3"/>
	<path class="st5" d="M262,110.8c-0.1-1-0.3-1.9-0.7-2.8c-0.6-0.7-1.5-1.1-2.4-1.1c-0.4,0.3,1.1,1.6,1.1,2s-0.7,0.1-0.3,1
		c0.4,0.6,0.8,1.2,1.4,1.7L262,110.8z"/>
	<path class="st1" d="M261.1,110.6c0.7-0.5,0.8-0.5,0.8-0.5s6.2,5.4,6.8,5.8s9.9,3.2,9.9,3.2l1.5,7.5c0,0-12.6-6.1-14.1-7.3
		c-2.5-2-5.6-7.8-5.6-7.8C260.5,111.2,260.8,110.9,261.1,110.6z"/>
	<path class="st6" d="M278.8,183.1c0,0-0.1,2.6-0.6,3.2h-6.9c0-0.3,0.1-0.9,1-1c1.5-0.3,2.7-1.2,3.3-2.6
		C276.4,181,278.8,183.1,278.8,183.1z"/>
	<path class="st6" d="M292.3,182.7c0,0,0.5,3.4-0.2,3.5c-0.1,0-2.8,0.1-3.9,0.1h-3.6c-0.3,0-0.5-0.3-0.3-0.5c0.2-0.4,0.6-0.6,1-0.7
		c1.6-0.3,3.1-1.3,3.9-2.7C289.9,180.6,292.3,182.7,292.3,182.7z"/>
	<path class="st4" d="M275.2,147.6c2,6.3,4.5,12.4,7.4,18.3c5.5,11.6,5.7,17.2,5.7,17.2c0.6,0.2,1.3,0.3,1.9,0.2
		c0.7-0.1,1.4-0.3,2-0.7c0,0-0.4-13.9-2.9-19.7s-3.1-21.9-3.1-21.9L275.2,147.6z"/>
	<path class="st4" d="M272.1,141.8c0,7.7,0.5,15.4,1.6,23.1c1.8,12.7,1,18.7,1,18.7c0.6,0.2,1.3,0.4,1.9,0.3c0.9,0,1.8-0.2,2.6-0.7
		c0,0,2.6-12.7,1.8-19.1s3.5-21.9,3.5-21.9L272.1,141.8z"/>
	<path class="st5" d="M280.6,117.5l-2,1.5l-2.9-0.6c0.1-0.8,0.2-1.6,0.4-2.4v-0.2c0.2-0.9,0.3-1.6,0.3-1.6l2.7-1.4l1-0.5
		c0,0-0.1,0.9-0.1,1.1C279.9,114.8,280.1,116.2,280.6,117.5z"/>
	<path class="st1" d="M286.4,143.1c-0.7,3-14.9,1.7-14.7-0.1c0-0.1,0-0.9,0.1-2.1c0.1-2.5,0.3-6.4,0.3-6.7l0,0
		c0.3-2.2,0.4-4.5,0.5-6.7c0-1.4,0.2-2.8,0.5-4.2c0.2-1.1,0.5-2.2,0.8-3.2c0.2-0.6,0.5-1.2,1-1.6c0.3-0.3,0.7-0.5,1.1-0.7
		c0.1,0,0.2-0.1,0.3-0.1c1.7-0.5,4-1.1,4.6-0.9c1.7,0.5,3,3.5,3.8,7.3C286.5,131.1,286.9,141.1,286.4,143.1z"/>
	<path class="st22" d="M279.9,113.5c-0.6,1.2-2.8,2.1-3.8,2.5v-0.2c0.2-0.9,0.3-1.6,0.3-1.6l2.7-1.4
		C279.7,112.9,280.1,113.1,279.9,113.5z"/>
	<path class="st5" d="M275.1,114.1c0,0,4.9,1.5,5.9-1.6s2.2-5-1-6.1s-4.1-0.1-4.6,0.8C274.8,108.3,273.8,113.7,275.1,114.1z"/>
	<path class="st4" d="M275.5,107c0,0,0.3,3.6,1.1,3.4s1.4-0.3,1.3,0.8s-1.1,2.3,1.2,2.5s5.6-5.7,5-6.8
		C282.2,103.7,272.9,103.1,275.5,107z"/>
	<path class="st6" d="M271.9,140.9c0.1-2.5,0.3-6.4,0.3-6.7l0,0l8.4-5C280.5,129.2,280.9,140.9,271.9,140.9z"/>
	<path class="st5" d="M265.2,130.4c-0.6-0.5-1.3-0.9-2-1.3c-0.5-0.1-0.9-0.2-1.4-0.1c0,0.1-0.2,0.3,0,0.4s0.4,0.1,0.3,0.1
		s-0.8-0.3-0.9,0.1s-0.3,1.6,0.5,1.9s2.8,0,3,0.1C265.9,132,265.2,130.4,265.2,130.4z"/>
	<path class="st1" d="M265.2,130.1c0,0,8.3,1.4,9.1,1.1c1.2-0.6-0.5-9-0.5-9c0-1.2,1-2.3,2.2-2.4c1.4-0.1,2.7,0.3,3.8,1.1
		c0,0,1.7,1.5,1.5,3.2c-0.5,3.7-1.2,11.4-3.7,12.5c-3.2,1.5-12.6-4.2-12.6-4.2c-0.2-0.3-0.3-0.7-0.3-1.1S264.9,130.5,265.2,130.1z"
		/>
	<path class="st5" d="M259.6,109.8c0,0-0.5-1.1-0.6-1.3s0.1-0.2,0.3,0s0.5,0.7,0.8,0.7S259.6,109.8,259.6,109.8z"/>
	<path class="st23" d="M195.8,267.2h-14c-0.5,0-0.9-0.4-0.9-0.9v-1.5c0-0.5,0.3-0.9,0.8-0.9c0.1,0,0.1,0,0.2,0l14,1.5
		c0.5,0,0.8,0.4,0.8,0.9l0,0C196.8,266.8,196.3,267.2,195.8,267.2z"/>
</g>
</svg>
