<?xml version="1.0" encoding="utf-8"?>
<!-- Generator: Adobe Illustrator 26.2.1, SVG Export Plug-In . SVG Version: 6.00 Build 0)  -->
<svg version="1.1" id="Layer_1" xmlns="http://www.w3.org/2000/svg" xmlns:xlink="http://www.w3.org/1999/xlink" x="0px" y="0px"
	 viewBox="0 0 389 269.9" style="enable-background:new 0 0 389 269.9;" xml:space="preserve">
<style type="text/css">
	.st0{opacity:0.1;fill:#8650F4;}
	.st1{opacity:8.000000e-02;fill:#3D3C7C;enable-background:new    ;}
	.st2{opacity:8.000000e-02;}
	.st3{fill:#1A3174;}
	.st4{fill:#48ADFF;}
	.st5{fill:#F7F7F7;}
	.st6{opacity:0.5;fill:#9566F5;}
	.st7{opacity:0.5;fill:#48ADFF;}
	.st8{fill:#9566F5;}
	.st9{fill:#FBB03B;}
	.st10{fill:#E16F7C;}
	.st11{opacity:0.1;}
	.st12{fill:#9475FA;}
	.st13{fill:#007BE0;}
	.st14{fill:#BABABA;}
	.st15{fill:#EEA886;}
	.st16{fill:#4A4997;}
	.st17{fill:#EEA987;}
	.st18{fill:#C78D71;}
	.st19{fill:#EDDAD3;}
	.st20{opacity:0.3;fill:#1A3174;enable-background:new    ;}
	.st21{opacity:0.2;fill:#1A3174;enable-background:new    ;}
</style>
<path class="st0" d="M36.9,269.7c0,0-51-55.3-33.1-119.7c11.7-42.1,50.7-16.6,48.5-84.8s114.6-75.4,147-55.5s33,32.4,99.8,24.6
	s95.9,52.2,61.2,102.5c-30.3,44.1,68.4,39.7,9.7,133.1L36.9,269.7z"/>
<g>
	<path class="st1" d="M298.5,243.3c0,2.3-44.4,2.3-99,2.3s-99,0-99-2.3c0-2.3,44.4-2.3,99-2.3S298.5,241,298.5,243.3z"/>
	<g>
		<g class="st2">
			<polygon class="st3" points="268.3,241.6 267.3,241.6 272.1,122.3 189.9,122.3 185.1,241.6 184.1,241.6 188.9,121.3 273.1,121.3 
							"/>
		</g>
		<g class="st2">
			<polygon class="st3" points="276,241.6 271.3,122.3 189,122.3 193.7,241.6 192.9,241.6 188.1,121.3 272.1,121.3 276.9,241.6 			
				"/>
		</g>
		<polygon class="st4" points="193.3,202.7 276.5,202.7 271.7,82.9 188.6,82.9 		"/>
		<polygon class="st5" points="265.4,202.7 182.3,202.7 187.1,82.9 270.2,82.9 		"/>
		<path class="st6" d="M200.1,99.8h21.9c1.1,0,1.8,0.6,1.8,1.3v1.2c0,0.8-0.8,1.3-1.8,1.3h-21.9c-1.1,0-1.8-0.6-1.8-1.3V101
			C198.3,100.4,199.2,99.8,200.1,99.8z"/>
		<path class="st7" d="M200.1,93.1h21.9c1.1,0,1.8,0.6,1.8,1.3v1.2c0,0.8-0.8,1.3-1.8,1.3h-21.9c-1.1,0-1.8-0.6-1.8-1.3v-1.2
			C198.3,93.7,199.2,93.1,200.1,93.1z"/>
		<path class="st7" d="M199.9,149.5h14.6c0.7,0,1.2,0.6,1.2,1.2v1.1c0,0.7-0.6,1.2-1.2,1.2h-14.6c-0.7,0-1.2-0.6-1.2-1.2v-1.1
			C198.7,150,199.2,149.5,199.9,149.5z"/>
		<polygon class="st7" points="229.9,156.1 202.9,156.1 202.9,155.6 229.3,155.6 229.3,147.1 229.9,147.1 		"/>
		<path class="st8" d="M261.7,98.5c-1.6-4.4-5.9-7.3-10.7-7.2c-0.2,0-0.6,0-0.8,0l0,0c-0.2,0-0.5,0-0.7,0.1c-0.4,0-0.6,0.1-1,0.2
			c-0.1,0-0.1,0-0.2,0c-0.2,0-0.5,0.1-0.6,0.2c-0.8,0.2-1.6,0.7-2.3,1.2c-2.2,1.3-3.6,3.5-4.4,5.8c-0.1,0.5-0.2,1-0.4,1.4
			c0,0.2-0.1,0.4-0.1,0.6v0.1c-0.2,1.6,0,3.2,0.6,4.8c0.1,0.2,0.1,0.5,0.2,0.7c0.5,1,1,1.9,1.7,2.8c1.4,1.8,3.5,2.9,5.5,3.5
			c3.4,0.8,7.1,0.2,9.8-2.2C261.9,107.7,263.3,102.8,261.7,98.5z M254.2,109.9c-1.9,0.7-3.8,0.7-5.6,0c-1.2-0.5-2.4-1.3-3.4-2.4
			c0,0,0,0,0-0.1c-0.5-0.6-1-1.3-1.3-2l0,0c-0.1-0.1-0.1-0.4-0.2-0.5c-0.6-1.8-0.6-3.6-0.1-5.2v-0.1c0.7-2.4,2.5-4.3,5-5.2
			c0.6-0.2,1.3-0.4,2-0.5l0,0c0.2,0,0.4,0,0.6,0c3.5,0,6.6,2,7.8,5.4C260.6,103.7,258.5,108.3,254.2,109.9z"/>
		<path class="st4" d="M243.6,99.8L241,99c1.1-3.2,3.5-5.9,6.7-7.1c1.1-0.4,2.2-0.6,3.4-0.6l0.1,2.8c-0.8,0-1.7,0.2-2.5,0.5
			C246.2,95.4,244.3,97.3,243.6,99.8z"/>
		<path class="st9" d="M243.8,105.5l-2.5,1.1c-0.1-0.2-0.2-0.5-0.2-0.7c-0.8-2.3-0.8-4.7-0.1-7l2.6,0.8c-0.5,1.7-0.5,3.5,0.1,5.2
			C243.7,105.2,243.8,105.3,243.8,105.5z"/>
		<path class="st10" d="M243.1,109.3c-0.7-0.8-1.3-1.7-1.7-2.8l2.5-1.1c0.4,0.7,0.7,1.4,1.3,2L243.1,109.3z"/>
		<g class="st11">
			<polygon class="st3" points="182.8,202.7 181.8,202.7 186.6,82.4 271.7,82.4 271.7,83.4 187.6,83.4 			"/>
		</g>
		<polygon class="st12" points="265.4,202.7 270.2,82.4 271.7,82.4 276.5,202.7 		"/>
		<g>
			<polygon class="st10" points="192.5,177.9 192.2,177.1 212.8,165.3 224.8,173.5 259.3,154.4 259.8,155.2 224.8,174.7 
				212.8,166.5 			"/>
		</g>
		<path class="st8" d="M226.3,137.3l-3.1,1.7L226.3,137.3L226.3,137.3z M248.5,125.4c-0.6-1.1-1.3-2.2-2.3-3.1c-0.4-0.4-0.6-0.7-1-1
			c-1-0.8-1.9-1.4-3.1-2c-5.2-2.4-11.3-1.7-15.6,2c-0.4,0.2-0.7,0.6-1,1l-0.1,0.1c-4.2,4.4-5.2,11.2-2.3,16.6c1.4,2.8,3.7,5,6.6,6.4
			c0.2,0.1,0.6,0.2,0.8,0.4c0.8,0.4,1.7,0.6,2.6,0.7c0.5,0.1,1,0.1,1.4,0.2c5.6,0.5,11.2-2.5,13.8-7.7c0.2-0.5,0.5-1,0.7-1.6
			C250.8,133.3,250.4,129,248.5,125.4z M245.8,136.9c-1.9,4.1-6.1,6.5-10.7,6.1c-1.1-0.1-2.2-0.4-3.1-0.7c-0.1,0-0.2-0.1-0.4-0.1
			c-0.1,0-0.2,0-0.4-0.1c-2.2-1.1-3.8-2.8-4.9-4.7l0,0c-1.4-2.9-1.7-6.5-0.2-9.6c0.5-1.1,1.1-1.9,1.9-2.8l0,0c1.1-1.2,2.4-2,3.8-2.5
			c2.5-1,5.4-1,7.9,0c1.2,0.5,2.4,1.2,3.4,2.2C246.7,127.5,247.7,132.6,245.8,136.9z M226.3,137.3l-3.1,1.7L226.3,137.3L226.3,137.3
			z"/>
		<path class="st9" d="M226.3,137.3l-3.1,1.7c-2.9-5.4-1.9-12.1,2.3-16.6l2.6,2.5c-0.7,0.8-1.4,1.8-1.9,2.8
			C224.8,130.7,224.8,134.3,226.3,137.3z"/>
		<path class="st10" d="M232,142.3l-1.3,3.4c-0.2-0.1-0.6-0.2-0.8-0.4c-2.9-1.3-5.2-3.6-6.6-6.4l3.2-1.7c1.1,2,2.9,3.8,4.9,4.8
			C231.5,142.2,231.7,142.2,232,142.3z"/>
		<path class="st10" d="M234.7,146.6c-1.4-0.1-2.8-0.5-4.1-1l1.3-3.4c1,0.4,2,0.6,3.1,0.7L234.7,146.6z"/>
		<polygon class="st9" points="191.3,192.5 190.8,191.7 212.5,178.4 221.7,186.4 236.8,181.7 250.2,182.6 258.4,174.9 259,175.6 
			250.6,183.5 236.9,182.7 221.4,187.4 212.5,179.6 		"/>
		<path class="st7" d="M204.6,139.3c-0.1-0.2-0.4-0.5-0.5-0.6c-0.1-0.1-0.4-0.2-0.6-0.4c-0.2-0.1-0.5-0.1-0.7-0.1
			c-0.2,0-0.5,0-0.7,0.1c-0.2,0-0.5,0.1-0.6,0.4c-0.2,0.1-0.4,0.4-0.5,0.6c-0.1,0.2-0.1,0.5-0.1,0.7c0,0.2,0,0.5,0.1,0.7
			c0.1,0.2,0.2,0.5,0.5,0.6c0.1,0.1,0.4,0.2,0.6,0.4c0.2,0.1,0.5,0.1,0.7,0.1c0.2,0,0.5,0,0.7-0.1c0.2,0,0.4-0.2,0.6-0.4
			c0.2-0.1,0.4-0.4,0.5-0.6c0.1-0.2,0.1-0.5,0.1-0.7C204.7,139.8,204.7,139.5,204.6,139.3z M203.8,140.4c-0.1,0.1-0.1,0.2-0.2,0.4
			c-0.1,0.1-0.2,0.2-0.4,0.2c-0.1,0.1-0.2,0.1-0.4,0.1s-0.2,0-0.4-0.1c-0.1,0-0.2-0.1-0.4-0.2c-0.1-0.2-0.2-0.5-0.2-0.8
			c0-0.4,0-0.6,0.2-0.8c0.1-0.2,0.5-0.4,0.7-0.4c0.2,0,0.6,0.1,0.7,0.4c0.1,0.1,0.2,0.2,0.2,0.4c0.1,0.1,0.1,0.4,0.1,0.5
			C203.9,140.1,203.8,140.2,203.8,140.4z M208.3,138.1l-3.4,4.3l-3.6,4.2l0.8,0.6l3.4-4.3l3.5-4.2L208.3,138.1z M209.4,144.7
			c-0.1-0.2-0.2-0.5-0.5-0.6c-0.1-0.1-0.4-0.2-0.6-0.4c-0.5-0.2-1.1-0.2-1.6,0c-0.2,0-0.4,0.2-0.6,0.4c-0.2,0.1-0.4,0.4-0.5,0.6
			c-0.1,0.2-0.1,0.5-0.1,0.7c0,0.2,0,0.5,0.1,0.7c0.1,0.2,0.2,0.5,0.5,0.6c0.1,0.1,0.4,0.2,0.6,0.4s0.5,0.1,0.7,0.1
			c0.2,0,0.5,0,0.8-0.1c0.2,0,0.4-0.2,0.6-0.4c0.4-0.4,0.6-0.8,0.6-1.3C209.5,145.2,209.5,144.9,209.4,144.7z M208.2,146.1
			c-0.1,0.2-0.5,0.4-0.7,0.4c-0.2,0-0.4,0-0.5-0.1c-0.1,0-0.2-0.1-0.4-0.2c-0.1-0.1-0.2-0.2-0.2-0.4c-0.1-0.1-0.1-0.4-0.1-0.5
			c0-0.2,0.1-0.4,0.1-0.5c0.1-0.1,0.1-0.2,0.2-0.4c0.1-0.1,0.2-0.1,0.4-0.2c0.1-0.1,0.2-0.1,0.4-0.1s0.2,0,0.4,0.1
			c0.1,0,0.2,0.1,0.4,0.2c0.2,0.2,0.4,0.5,0.4,0.8C208.6,145.6,208.5,145.9,208.2,146.1z"/>
		<path class="st13" d="M136.3,236.8c-0.7,1.2-1.4,2.5-2.3,3.6c-1,1.1-4.4,2.9-4.4,6c0,3.4,5.9,2.4,8.2,2.3s2.5-1.9,3.5-3.7
			c1-1.8,1.9-1.6,2.2-3.1c-0.1-1.7-0.4-3.4-1-5L136.3,236.8z"/>
		<path class="st14" d="M142.3,235.8c0.1,0.5,0.1,1,0.2,1.4c0,0-6.5,1.2-6.5,0c0.1-0.7,0.2-1.4,0.6-2L142.3,235.8z"/>
		<path class="st15" d="M201.5,114c0,0,6.8-1.4,7.3-1.1s0.5,0.7-0.1,0.8l-6.5,1.6c0,0,8.3-0.2,8.6-0.1c0.2,0.1,0.4,0.8,0,1
			c-0.4,0.1-8.5,1-8.5,1s7.7-0.2,8,0c0.2,0.2,0.2,0.6,0,0.8c-0.1,0.1-0.2,0.1-0.4,0.2l-7.7,0.7c0,0,5.6,0.1,5.8,0.6
			c0.1,0.5,0.2,0.8-1.2,0.7c-1.4-0.1-4.9,0.1-4.9,0.1L201.5,114z"/>
		<path class="st13" d="M171.3,236.3c0,0,2.9,3.1,5.8,3.8s4.9,1.4,4.9,3.4c0,1.9-8.3,3-11.6,1.2c-4.9-2.8-5.4-1.9-6-3.2
			s0.7-5,0.6-5.4C164.8,235.7,171.3,236.3,171.3,236.3z"/>
		<path class="st14" d="M171,234.9c0.1,0.5,0.2,1,0.4,1.6c0,0-6.5,0.8-6.2-0.4c0.1-1,0.4-2,0.4-2L171,234.9z"/>
		<path class="st16" d="M165.2,146c0,0,2.4,22.7,3.6,30.5c1.4,9.1,1.9,16.7,2.3,21.3c0.5,5.9,0.6,35,1,36.8c0.4,1.8-7.8,0.5-7.8,0.5
			s-4-38-5.5-44.4c-1.4-5.9-6.5-31.2-7.8-29.5s-2.8,29.5-3.7,34.1s-3.8,40.9-3.8,40.9s-6.5,1.3-8.2-0.1c0,0-0.8-31.2-0.2-39.9
			c0.2-3.4-3.8-39.7,1.4-54.3C139.3,134.1,165.2,146,165.2,146z"/>
		<path class="st16" d="M166.1,139.4c0.2,3.6,0.7,11.3,0.7,11.3l0,0l-1.2,0.1l-1.1,0.1l-2,0.2l-6.2-0.1l-6.5-0.1l-5-0.1l-2.3-0.1
			l-2.2-0.2l-4.8-0.5c0,0,0.1-2.9,0.2-6.7l0,0c0.2-5.6,0.5-13.1,0.4-15.8c0-2.3-0.6-5.6-1.3-8.6c-0.7-3-1.3-5.5-1.4-5.9
			c0,0-1.9,9-1.9,12.5c0,1.8,0.1,6.2,0.2,10.8c0.1,6.7,0,13.8-1.1,14c-0.5,0.1-1.2,0-1.9-0.1l0,0c-0.6-0.1-1.1-0.2-1.6-0.4l0,0
			c-1.2-0.2-2-0.5-2-0.5s-0.6-12.7-0.8-20.6c-0.1-2.6-0.1-4.8-0.1-5.6c0.1-1.8,3.4-27.2,4.8-28.3c0.7-0.4,1.6-0.7,2.3-1.1
			c3.7-1.6,9.5-3.7,10.3-4.1l0,0l0,0l0,0c0.4-0.1,0.7-0.2,1.1-0.4c0.1,0,0.5,0,1.1,0c0.2,0,0.6,0,1,0c2.6,0.2,6.7,0.6,7.9,0.7
			c0.1,0,0.2,0,0.2,0l0,0l0,0c0,0,0.6,0.2,1.6,0.6l0.1,0.1l0,0c0.4,0.1,1.1,0.4,1.8,0.7l0,0c2.4,1.1,5.5,2.5,7.8,3.6
			c0.8,0.5,1.9,1,2.8,1.4c-0.1,3.2-0.4,6.7-0.6,10.3c0,0-0.1,1.9-0.2,4.9l0,0c-0.1,3-0.2,7.1-0.2,11.2c-0.2,2-0.4,4.1-0.4,6.1
			C165.5,132.9,166,137.1,166.1,139.4z"/>
		<path class="st3" d="M166.2,147.6c-8.6,0.7-17.2,0.7-25.8,0v4c0,0,18.1,2.6,26.4-0.7L166.2,147.6z"/>
		<path class="st4" d="M169.7,161.1l-2.6,1.8l-1.1,0.6c0,0-0.7-6.4-1.3-12c0-0.2,0-0.4,0-0.6c-0.1-1.1-0.2-2.3-0.4-3.2
			c-0.1-0.8-0.1-1.6-0.2-2.2c0-0.4-0.1-0.7-0.1-1.1c-0.2-2.4-0.7-5-1.3-8c-0.6-2.9-1.1-6-1.4-9c-1-7.7-2.2-15.2-2.8-19.8
			c-0.7-5-1.6-8.9-2.3-11.6c-1-3.6-1.7-5.3-1.7-5.3h0.1c0.4,0.1,1.1,0.4,1.8,0.7l0,0c3,1.2,7.9,3.5,8,3.4c1,0.5,1.9,1.1,2.9,1.7v0.2
			c0,3.1-0.2,6.6-0.5,10.2c0,0-0.1,2.3-0.2,5.5c-0.1,3.4-0.4,7.9-0.6,12.2c-0.1,1.3-0.2,2.5-0.1,3.8c0.1,1.7,0.2,3.5,0.5,5.4v0.1
			c0,0.4,0.1,0.8,0.1,1.3c1.2,9.6,3.1,20.6,4.2,24C171,159.9,170.2,160.6,169.7,161.1z"/>
		<path class="st16" d="M153.8,93.4c0,0,0.2,3.6-2.8,3.7c-3,0.1-5.4-2.8-5.4-2.8l5,1.2l3.1-2.5L153.8,93.4z"/>
		<path class="st15" d="M193.9,116.9c0,0,2.2-0.6,2.5-1.9c0.4-1.1,1-2,1.7-2.9c0.5-0.5,1.3-2.8,1.9-2.2c0.6,0.6-1.2,3.6-1.4,4.3
			s2.8-0.6,3.5-0.4s2.2,5.5,0,6.1s-4.8-0.2-5.2,0c-0.5,0.2-1.1,0.4-1.6,0.5L193.9,116.9z"/>
		<path class="st17" d="M149.7,65.9c0,0,7,1.2,5.8,12.1s-7.3,10-7.8,10c-0.5,0-6.2,0.1-6.5-13.2C141.2,74.8,141.2,64.8,149.7,65.9z"
			/>
		<path class="st17" d="M152.7,84.7c0,0,0,4.6,0.2,5.5c0.2,1-5.6,4.1-9.4,0.5c0.4-2.2,0.5-4.4,0.5-6.6
			C143.8,82.4,152.7,84.7,152.7,84.7z"/>
		<path class="st17" d="M155.5,75.5c0,0,0.7-0.8,1.1,0c0.4,0.8-1,4.3-1.2,4.7c0,0-0.1,0.4-0.4,0.1C155.1,78.6,155.2,77,155.5,75.5z"
			/>
		<path class="st17" d="M141.3,74.6c0,0-0.7-0.8-1.1,0c-0.4,0.8,0.8,4.4,1,4.7c0,0,0.2,0.4,0.5,0.2
			C141.7,77.9,141.5,76.2,141.3,74.6z"/>
		<path class="st16" d="M156.1,73.9c-0.2,1.4-0.5,2.6-0.5,2.6l-1,1.3c0-1.1,0-2.3-0.1-3.4c-0.1-0.2-0.1-0.5-0.2-0.8
			c-0.1-0.6-0.2-1.2-0.4-1.4c-0.1-0.2-6-2-11.2,0.4c0,0,0,0.5,0,1s-0.1,1.2-0.4,1.3c-0.5,0.2-0.2,3.5-0.2,3.5l-0.8-1
			c0,0-0.2-1.7-0.5-3.6l0,0c0-0.5-0.1-1-0.1-1.4c-0.1-1.9,0.1-5.5,2.6-7.6c1.7-0.7,4.4-1.3,9.1,0c0.5,0.1,1,0.4,1.4,0.6
			C156.8,68.7,156.1,73.9,156.1,73.9z"/>
		<path class="st18" d="M144.5,86.4c1,1.1,2.3,1.6,3.7,1.4c1.3,0,2.8-0.5,3.7-1.4c-0.7,1.4-2.2,2.4-3.7,2.5
			C146.7,88.9,145.3,88,144.5,86.4z"/>
		<path class="st13" d="M153.2,93.6l-2.6,1.9c0,0,2.2-4.7,2.3-6.5L153.2,93.6z"/>
		<polygon class="st4" points="156.4,96.2 156.2,96 153.8,94.1 153.2,93.6 153.2,93.5 152.9,90.5 152.9,90.4 152.9,90 152.9,90 
			152.9,90 152.8,89 152.8,89 154.5,90.6 154.6,90.7 154.6,90.7 		"/>
		<path class="st4" d="M196.8,122c0,0-15.4,4.1-19.1,3.1c-1.7-0.5-4-2.9-6.2-5.6c-0.7-1-1.4-1.9-2-2.9l0,0c-2.6-3.8-4.8-7.6-4.8-7.6
			s-7.9-9.2-1.6-13.3c1.4-0.1,2.9,0.1,4.2,0.8c1.4,1.1,4.8,7.6,5.4,8.8c0.6,1.2,6.5,12.4,7,12.6c0.5,0.2,5.5-0.7,8.3-0.8
			c2.8-0.2,5.4-0.7,8-1.4L196.8,122z"/>
		<path class="st17" d="M152.5,90.7c-0.5,1.7-1.1,3.2-1.9,4.8c0,0-2.8-2.4-3.6-3.2S152.5,90.7,152.5,90.7z"/>
		<path class="st13" d="M147.8,92.9l2.9,2.6c0,0-3.4-0.2-4-0.7L147.8,92.9z"/>
		<path class="st4" d="M143.9,88c1.1,1.8,2.4,3.5,3.8,4.9l-2.5,4.2l-4.1-7.3L143.9,88z"/>
		<path class="st4" d="M148.4,114.8c-0.4-7.1-2.9-15.6-4.8-20.7c-1-2.6-1.7-4.3-1.9-4.6l0,0l0,0l0,0l0,0c-0.8,0.4-6.6,2.5-10.3,4.1
			c-1.7,0.7-3,1.2-3.2,1.4c-1.6,1.1-4.3,27.8-4.6,29.6c-0.1,1.2,0,7.8,0.1,13.9v1c0.1,5.8,0.2,10.8,0.2,10.8s1,0.2,2.2,0.5
			c1.3,0.2,2.9,0.6,4.1,0.6c0.6,0,1,0,1.3,0c-0.2,0.6-0.4,1.2-0.6,1.8c0,0.1-0.1,0.2-0.1,0.4l0,0c-0.1,0.5-0.1,1.1,0.1,1.8l0,0
			c0.1,0.4,0.2,0.7,0.5,1.1c0,0.1,0.1,0.2,0.2,0.2l0,0c0.5,0.8,1.1,1.6,1.8,2c0.1,0.1,0.4,0.2,0.5,0.4c0,0,0.1,0.1,0.2,0.1l5.4,2.4
			l4.3,1.9c0,0,0.5-4.8,1.1-11.8c0-0.5,0.1-0.8,0.1-1.3c0.1-1,0.2-1.9,0.2-2.9c0-0.6,0.1-1.2,0.1-1.8c0.2-2.2,0.5-4.3,0.7-6.5
			c0.4-2.8,0.7-5.8,1.1-9.1C147.8,124.9,148.5,118.1,148.4,114.8z M132.2,149.4c0.5-5.6-0.5-20.5-0.4-23.7c0.4-3.8,1-7.7,2-11.2
			c0.8,3,1.9,16.6,1.9,16.6C135.8,135.5,134.1,143.1,132.2,149.4z"/>
		<rect x="149.9" y="147.8" class="st13" width="6.5" height="4.8"/>
		<polygon class="st19" points="135.4,173.2 114.1,173.2 119.1,159 140.5,159 		"/>
		<polygon class="st5" points="135.4,173.2 114.1,173.2 119.1,159 140.5,159 		"/>
		<polygon class="st20" points="119.1,187.4 140.5,187.4 135.4,173.2 114.1,173.2 		"/>
		<polygon class="st5" points="135.4,201.5 114.1,201.5 119.1,187.4 140.5,187.4 		"/>
		<polygon class="st20" points="119.1,215.7 140.5,215.7 135.4,201.5 114.1,201.5 		"/>
		<polygon class="st21" points="132.5,162 120.4,162 120.6,161.4 132.7,161.4 		"/>
		<polygon class="st21" points="131.8,163.8 119.7,163.8 119.8,163.3 131.9,163.3 		"/>
		<polygon class="st21" points="128.7,165.7 118.9,165.7 119,165.2 128.8,165.2 		"/>
		<polygon class="st21" points="132.5,190.1 120.4,190.1 120.6,189.7 132.7,189.7 		"/>
		<polygon class="st21" points="125.7,192.1 119.7,192.1 119.8,191.6 125.9,191.6 		"/>
		<path class="st15" d="M130.3,151.8c0,0,0.1,0.4,0.4,1c0.4,1.1,1.4,2.3,0.8,3.7c-0.6,1.4-5.9,0.5-6.6-0.1s-0.5-2.9,1.3-5.6
			C128,147.9,130.3,151.8,130.3,151.8z"/>
		<path class="st15" d="M131.6,155.8c0,1.7-0.2,3.4-0.5,4.9c-0.4,2.3-1.1,5.2-1.7,5c-0.8-0.1,0-2.3,0.1-4.7c0.1-2.4-0.2-1.7-0.2-1.7
			s0.1-0.1-0.5,2.2s-1.4,5-2,5c-0.6,0-0.7-0.1-0.6-1.1c-0.1,0.5-0.4,0.6-0.6,0.5c-1.2-0.2-0.7-4-0.6-5.5c-0.1,1.1-0.4,1.9-1,1.3
			c-0.6-0.6,0.1-6,0.2-7.9C124.6,151.9,131.6,155.8,131.6,155.8z"/>
		<path class="st4" d="M132.1,136.5l-0.1,17.3c-2.8-0.2-5.5-0.8-8.2-1.8l-0.4-24.2L132.1,136.5z"/>
	</g>
</g>
</svg>
