<?xml version="1.0" encoding="utf-8"?>
<!-- Generator: Adobe Illustrator 26.2.1, SVG Export Plug-In . SVG Version: 6.00 Build 0)  -->
<svg version="1.1" id="Layer_1" xmlns="http://www.w3.org/2000/svg" xmlns:xlink="http://www.w3.org/1999/xlink" x="0px" y="0px"
	 viewBox="0 0 386.3 268" style="enable-background:new 0 0 386.3 268;" xml:space="preserve">
<style type="text/css">
	.st0{opacity:0.1;fill:#C865CD;}
	.st1{fill:#48ADFF;}
	.st2{fill:#3D3C7C;}
	.st3{fill:#FCC05F;}
	.st4{fill:#4A4997;}
	.st5{opacity:0.12;}
	.st6{fill:#FFFFFF;}
	.st7{opacity:0.25;}
	.st8{opacity:0.5;}
	.st9{opacity:0.5;fill:#48ADFF;enable-background:new    ;}
	.st10{fill:#FBB03B;}
	.st11{fill:#FFFFFF;stroke:#48ADFF;stroke-width:0.71;stroke-miterlimit:10;}
	.st12{fill:#9566F5;}
	.st13{opacity:0.1;fill:#1A3174;enable-background:new    ;}
	.st14{opacity:0.1;fill:#3D3C7C;enable-background:new    ;}
	.st15{opacity:0.2;}
	.st16{opacity:0.1;}
	.st17{fill:#1A3174;}
	.st18{fill:#A379F6;}
	.st19{fill:#007BE0;}
	.st20{fill:#F7A594;}
	.st21{fill:#F4856D;}
</style>
<path class="st0" d="M36.7,267.8c0,0-50.7-54.9-32.9-118.9c11.6-41.8,50.3-16.5,48.2-84.2S165.8-10.1,197.9,9.6S230.7,41.8,297,34
	s95.2,51.8,60.8,101.8c-30.1,43.8,67.9,39.4,9.7,132.2L36.7,267.8z"/>
<g id="plant">
	<path class="st1" d="M127.4,224.6H155l0,0v18.8c0,7.6-6.2,13.8-13.8,13.8l0,0c-7.6,0-13.8-6.2-13.8-13.8L127.4,224.6L127.4,224.6
		L127.4,224.6z"/>
	<rect x="125.9" y="238.8" class="st2" width="1.5" height="29.2"/>
	<rect x="155" y="238.8" class="st2" width="1.5" height="29.2"/>
	<rect x="143.3" y="238.8" class="st2" width="1.5" height="29.2"/>
	<rect x="125.9" y="257.2" class="st2" width="29.2" height="1.5"/>
	<path class="st3" d="M162.7,193.6c1.7,2.4-1.7,4.5-2.2,7.8s3.3,5.2-0.8,9.5c-2.5,2.7-4.6-0.9-6.6,3.2s-0.4,4.8-2.7,6.3
		c-4,2.6-10-3.1-8-7.2s6.2-3.7,4.2-7.1s-2.6-4.8,0.7-6.6c4.1-2.1,7.7-0.2,8-3.3S160.5,190.4,162.7,193.6z"/>
	<path class="st2" d="M145.3,224.4l-0.7-0.1c3.2-16.2,13.9-27.6,13.9-27.7l0.5,0.5C158.9,197.2,148.4,208.4,145.3,224.4z"/>
	<path class="st1" d="M109.3,187.6c-1.7,3.5,3.1,5.6,4.5,9.9s-3.6,5.8,2.6,10.8c3.8,3,4.6,1.1,6,8c1.2,6,5.8,0.3,9.2,3.8
		c4.4,4.5,11.3-5.4,7.7-10.4s-7.6-3.7-5.8-8.6s-0.4-8.5-5.1-10.1c-5.8-2-7.9,2.9-9-1.2S111.6,183,109.3,187.6z"/>
	<path class="st2" d="M138.6,224.9c-7.4-20.6-23.6-33.3-23.7-33.4l0.6-0.7c0.2,0.1,16.5,13,24,33.8L138.6,224.9z"/>
</g>
<path class="st4" d="M158.5,168.5H157v-1c0.5,0,1,0,1.4,0L158.5,168.5z"/>
<path class="st4" d="M160,168.5v-1h1.4v1C161,168.5,160.5,168.5,160,168.5z"/>
<path class="st4" d="M155.6,168.4l-1.5-0.1l0.1-1l1.4,0.1V168.4z"/>
<path class="st4" d="M162.9,168.4l-0.1-1c0.5,0,1-0.1,1.4-0.1l0.1,1L162.9,168.4z"/>
<path class="st4" d="M152.7,168.1c-0.5-0.1-1-0.1-1.4-0.2l0.1-1l1.4,0.2L152.7,168.1z"/>
<path class="st4" d="M165.9,168.1l-0.1-1c0.5,0,1-0.1,1.4-0.2l0.1,1L165.9,168.1z"/>
<path class="st4" d="M149.8,167.8l-1.4-0.2l0.2-1l1.4,0.2L149.8,167.8z"/>
<path class="st4" d="M168.4,167.7l-0.2-1l1.4-0.2l0.2,0.9L168.4,167.7z"/>
<path class="st4" d="M146.9,167.2c-0.5-0.1-1-0.2-1.4-0.3l0.2-0.9l1.4,0.3L146.9,167.2z"/>
<path class="st4" d="M171.3,167.2l-0.2-1c0.5-0.1,0.9-0.2,1.4-0.3l0.2,1L171.3,167.2z"/>
<path class="st4" d="M143.6,166.6l-1.4-0.4l0.3-0.9c0.5,0.1,0.9,0.3,1.4,0.4L143.6,166.6z"/>
<path class="st4" d="M174.1,166.5l-0.2-0.9c0.5-0.1,0.9-0.2,1.4-0.4l0.3,0.9L174.1,166.5z"/>
<path class="st4" d="M140.8,165.7l-1.4-0.5l0.3-0.9c0.4,0.1,0.9,0.3,1.4,0.4L140.8,165.7z"/>
<path class="st4" d="M176.9,165.7l-0.3-0.9l1.4-0.5l0.3,0.9L176.9,165.7z"/>
<path class="st4" d="M138,164.8l-1.4-0.5l0.4-0.9l1.4,0.5L138,164.8z"/>
<path class="st4" d="M179.7,164.7l-0.3-0.9c0.4-0.2,0.9-0.3,1.3-0.5l0.4,0.9L179.7,164.7z"/>
<path class="st4" d="M105.8,136.1c-0.2-0.4-0.4-0.9-0.7-1.3l0.9-0.4c0.2,0.4,0.4,0.9,0.6,1.3L105.8,136.1z"/>
<path class="st4" d="M211.8,136l-0.9-0.4c0.2-0.4,0.4-0.9,0.6-1.3l0.9,0.4C212.2,135.1,212,135.5,211.8,136z"/>
<path class="st4" d="M104.6,133.5c-0.2-0.4-0.4-0.9-0.6-1.4l0.9-0.4c0.2,0.4,0.4,0.9,0.6,1.3L104.6,133.5z"/>
<path class="st4" d="M213.1,133.3l-0.9-0.4c0.2-0.4,0.4-0.9,0.6-1.3l0.9,0.4C213.5,132.4,213.3,132.9,213.1,133.3z"/>
<path class="st4" d="M103.4,130.8c-0.2-0.5-0.3-0.9-0.5-1.4l0.9-0.3l0.5,1.4L103.4,130.8z"/>
<path class="st4" d="M214.2,130.6l-0.9-0.4c0.2-0.4,0.3-0.9,0.5-1.4l0.9,0.3C214.6,129.7,214.4,130.1,214.2,130.6z"/>
<path class="st4" d="M102.4,128l-0.4-1.4l0.9-0.3c0.1,0.5,0.3,0.9,0.4,1.4L102.4,128z"/>
<path class="st4" d="M215.2,127.8l-0.9-0.3c0.1-0.5,0.3-0.9,0.4-1.4l0.9,0.3C215.5,126.9,215.4,127.4,215.2,127.8z"/>
<path class="st4" d="M101.6,125.2c-0.1-0.5-0.3-0.9-0.4-1.4l1-0.2c0.1,0.5,0.2,0.9,0.4,1.4L101.6,125.2z"/>
<path class="st4" d="M216.1,125l-0.9-0.3c0.1-0.5,0.2-0.9,0.4-1.4l0.9,0.2C216.3,124.1,216.2,124.5,216.1,125z"/>
<path class="st4" d="M100.8,122.3c-0.1-0.5-0.2-0.9-0.3-1.4l0.9-0.2c0.1,0.5,0.2,1,0.3,1.4L100.8,122.3z"/>
<path class="st4" d="M216.8,122.2l-0.9-0.2c0.1-0.5,0.2-0.9,0.3-1.4l1,0.2C217,121.2,216.9,121.7,216.8,122.2z"/>
<path class="st4" d="M100.2,119.5c-0.1-0.5-0.2-1-0.2-1.4l1-0.1c0.1,0.5,0.2,1,0.2,1.4L100.2,119.5z"/>
<path class="st4" d="M217.4,119.3l-1-0.2c0.1-0.5,0.2-1,0.2-1.4l1,0.1C217.5,118.3,217.4,118.8,217.4,119.3z"/>
<path class="st4" d="M99.8,116.6c-0.1-0.5-0.1-1-0.2-1.5l1-0.1c0.1,0.5,0.1,1,0.2,1.4L99.8,116.6z"/>
<path class="st4" d="M99.5,113.7c0-0.5-0.1-1-0.1-1.5l1-0.1c0,0.5,0,1,0.1,1.4L99.5,113.7z"/>
<path class="st4" d="M212,84.8c-0.2-0.4-0.4-0.9-0.6-1.3l0.9-0.4c0.2,0.4,0.4,0.9,0.6,1.3L212,84.8z"/>
<path class="st4" d="M210.8,82.3l-0.7-1.3l0.9-0.5l0.7,1.3L210.8,82.3z"/>
<path class="st4" d="M209.4,79.7c-0.2-0.4-0.5-0.8-0.7-1.2l0.8-0.5c0.2,0.4,0.5,0.8,0.8,1.3L209.4,79.7z"/>
<path class="st4" d="M207.9,77.3l-0.8-1.2l0.8-0.6c0.3,0.4,0.6,0.8,0.8,1.2L207.9,77.3z"/>
<path class="st4" d="M111,75.3l-0.8-0.6c0.3-0.4,0.6-0.8,0.9-1.2l0.8,0.6L111,75.3z"/>
<path class="st4" d="M112.7,73l-0.8-0.6c0.3-0.4,0.6-0.8,0.9-1.2l0.8,0.6C113.3,72.2,113,72.6,112.7,73z"/>
<path class="st4" d="M125.3,61.1l-0.6-0.8l1.2-0.8l0.5,0.8C126.1,60.5,125.7,60.8,125.3,61.1z"/>
<path class="st4" d="M191.9,60.8c-0.4-0.3-0.8-0.5-1.2-0.8l0.5-0.8l1.2,0.8L191.9,60.8z"/>
<path class="st4" d="M127.7,59.5l-0.5-0.8l1.3-0.8l0.5,0.8L127.7,59.5z"/>
<path class="st4" d="M189.4,59.2c-0.4-0.2-0.8-0.5-1.2-0.7l0.5-0.8l1.3,0.8L189.4,59.2z"/>
<path class="st4" d="M186.9,57.8l-1.3-0.7l0.4-0.9l1.3,0.7L186.9,57.8z"/>
<path class="st4" d="M184.4,56.4l-1.3-0.6l0.4-0.9c0.4,0.2,0.9,0.4,1.3,0.6L184.4,56.4z"/>
<path class="st4" d="M181.7,55.2c-0.4-0.2-0.9-0.4-1.3-0.5l0.4-0.9c0.5,0.2,0.9,0.4,1.4,0.6L181.7,55.2z"/>
<path class="st4" d="M179,54.2l-1.4-0.5l0.3-0.9l1.4,0.5L179,54.2z"/>
<path class="st4" d="M176.3,53.2l-1.4-0.4l0.3-0.9l1.4,0.4L176.3,53.2z"/>
<path class="st4" d="M173.5,52.4c-0.5-0.1-0.9-0.2-1.4-0.3l0.2-1c0.5,0.1,1,0.2,1.4,0.4L173.5,52.4z"/>
<path class="st4" d="M170.7,51.8l-1.4-0.3l0.2-1l1.4,0.3L170.7,51.8z"/>
<path class="st4" d="M167.9,51.3l-1.4-0.2l0.1-1l1.5,0.2L167.9,51.3z"/>
<path class="st4" d="M165,50.9c-0.5,0-1-0.1-1.4-0.1l0.1-1l1.5,0.1L165,50.9z"/>
<g class="st5">
	<path class="st2" d="M132.6,162.4c-0.4-0.2-0.9-0.4-1.3-0.7l0.4-0.9l1.3,0.7L132.6,162.4z"/>
	<path class="st2" d="M130,161.1l-1.3-0.7l0.5-0.8c0.4,0.2,0.8,0.5,1.3,0.7L130,161.1z"/>
	<path class="st2" d="M127.4,159.6l-1.2-0.8l0.5-0.8l1.2,0.8L127.4,159.6z"/>
	<path class="st2" d="M125,158c-0.4-0.3-0.8-0.6-1.2-0.9l0.6-0.8c0.4,0.3,0.8,0.6,1.2,0.8L125,158z"/>
	<path class="st2" d="M122.6,156.2l-1.2-0.9l0.6-0.8l1.1,0.9L122.6,156.2z"/>
	<path class="st2" d="M120.3,154.4l-1.1-1l0.7-0.7l1.1,1L120.3,154.4z"/>
	<path class="st2" d="M118.1,152.4c-0.4-0.3-0.7-0.7-1.1-1l0.7-0.7c0.3,0.3,0.7,0.7,1,1L118.1,152.4z"/>
	<path class="st2" d="M116,150.4c-0.3-0.4-0.7-0.7-1-1.1l0.7-0.6l1,1L116,150.4z"/>
	<path class="st2" d="M114.1,148.2c-0.3-0.4-0.6-0.7-1-1.1l0.8-0.6c0.3,0.4,0.6,0.7,0.9,1.1L114.1,148.2z"/>
	<path class="st2" d="M112.2,146c-0.3-0.4-0.6-0.8-0.9-1.2l0.8-0.6c0.3,0.4,0.6,0.8,0.9,1.1L112.2,146z"/>
	<path class="st2" d="M110.4,143.6l-0.8-1.2l0.8-0.6c0.3,0.4,0.5,0.8,0.8,1.2L110.4,143.6z"/>
	<path class="st2" d="M108.8,141.2L108,140l0.8-0.5c0.2,0.4,0.5,0.8,0.8,1.2L108.8,141.2z"/>
	<path class="st2" d="M185.1,162.4l-0.4-0.9l1.3-0.7l0.4,0.9C186,161.9,185.5,162.1,185.1,162.4z"/>
	<path class="st2" d="M187.7,161l-0.5-0.9l1.2-0.7l0.5,0.8L187.7,161z"/>
	<path class="st2" d="M190.2,159.5l-0.5-0.8c0.4-0.2,0.8-0.5,1.2-0.8l0.5,0.8C191,159,190.6,159.3,190.2,159.5z"/>
	<path class="st2" d="M192.7,157.9l-0.6-0.8c0.4-0.3,0.8-0.6,1.2-0.8l0.6,0.8L192.7,157.9z"/>
	<path class="st2" d="M195,156.2l-0.6-0.8c0.4-0.3,0.8-0.6,1.1-0.9l0.6,0.8L195,156.2z"/>
	<path class="st2" d="M197.3,154.3l-0.6-0.7c0.4-0.3,0.7-0.6,1.1-1l0.6,0.7C198.1,153.7,197.7,154,197.3,154.3z"/>
	<path class="st2" d="M199.5,152.4l-0.7-0.7l1-1l0.7,0.7C200.2,151.7,199.9,152,199.5,152.4z"/>
	<path class="st2" d="M201.6,150.3l-0.7-0.7c0.3-0.3,0.7-0.7,1-1.1l0.7,0.7C202.3,149.6,201.9,149.9,201.6,150.3z"/>
	<path class="st2" d="M203.6,148.1l-0.7-0.6c0.3-0.4,0.6-0.7,0.9-1.1l0.8,0.6C204.2,147.4,203.9,147.8,203.6,148.1z"/>
	<path class="st2" d="M205.5,145.9l-0.8-0.6c0.3-0.4,0.6-0.8,0.9-1.1l0.8,0.6C206.1,145.1,205.8,145.5,205.5,145.9z"/>
	<path class="st2" d="M207.2,143.5l-0.8-0.6l0.8-1.2l0.8,0.5L207.2,143.5z"/>
	<path class="st2" d="M208.9,141.1l-0.8-0.5c0.3-0.4,0.5-0.8,0.8-1.2l0.8,0.5L208.9,141.1z"/>
	<path class="st2" d="M218.1,113.4l-1-0.1c0-0.5,0.1-1,0.1-1.4h1L218.1,113.4z"/>
	<path class="st2" d="M218.2,110.5h-1c0-0.5,0-1,0-1.4v-0.4h1v0.4C218.2,109.5,218.2,110,218.2,110.5z"/>
	<path class="st2" d="M217.2,107.2l-0.1-1.4h1l0.1,1.5L217.2,107.2z"/>
	<path class="st2" d="M217.1,104.3c0-0.5-0.1-1-0.1-1.4l1-0.1c0,0.5,0.1,1,0.1,1.5H217.1z"/>
	<path class="st2" d="M216.8,101.5c-0.1-0.5-0.1-1-0.2-1.4l1-0.1c0.1,0.5,0.1,1,0.2,1.4L216.8,101.5z"/>
	<path class="st2" d="M216.3,98.6c-0.1-0.5-0.2-0.9-0.3-1.4l1-0.2c0.1,0.5,0.2,1,0.3,1.4L216.3,98.6z"/>
	<path class="st2" d="M215.8,95.8c-0.1-0.5-0.2-0.9-0.4-1.4l0.9-0.2c0.1,0.5,0.2,0.9,0.4,1.4L215.8,95.8z"/>
	<path class="st2" d="M215,93c-0.1-0.5-0.3-0.9-0.4-1.4l0.9-0.3c0.1,0.5,0.3,0.9,0.4,1.4L215,93z"/>
	<path class="st2" d="M214.2,90.2l-0.5-1.4l0.9-0.3c0.2,0.5,0.3,0.9,0.5,1.4L214.2,90.2z"/>
	<path class="st2" d="M100.3,107.8h-1c0-0.5,0-1,0-1.5h1C100.3,106.8,100.3,107.3,100.3,107.8z"/>
	<path class="st2" d="M100.4,104.9l-1-0.1l0.1-1.5l1,0.1C100.5,103.9,100.5,104.4,100.4,104.9z"/>
	<path class="st2" d="M100.7,102l-1-0.1c0.1-0.5,0.1-1,0.2-1.4l1,0.1C100.8,101.1,100.8,101.6,100.7,102z"/>
	<path class="st2" d="M101.1,99.2l-1-0.2c0.1-0.5,0.2-1,0.3-1.4l1,0.2C101.3,98.2,101.2,98.7,101.1,99.2z"/>
	<path class="st2" d="M101.7,96.3l-1-0.2c0.1-0.5,0.2-1,0.3-1.4l0.9,0.2L101.7,96.3z"/>
	<path class="st2" d="M102.4,93.5l-0.9-0.3c0.1-0.5,0.3-0.9,0.4-1.4l0.9,0.3C102.6,92.6,102.5,93.1,102.4,93.5z"/>
	<path class="st2" d="M103.2,90.8l-0.9-0.3c0.2-0.5,0.3-0.9,0.5-1.4l0.9,0.3C103.5,89.8,103.4,90.3,103.2,90.8z"/>
	<path class="st2" d="M104.2,88l-0.9-0.3c0.2-0.4,0.4-0.9,0.6-1.4l0.9,0.4C104.5,87.1,104.4,87.6,104.2,88z"/>
	<path class="st2" d="M105.3,85.3l-0.9-0.4c0.2-0.4,0.4-0.9,0.6-1.3l0.9,0.4C105.7,84.5,105.5,84.9,105.3,85.3z"/>
	<path class="st2" d="M106.5,82.7l-0.9-0.4c0.2-0.4,0.4-0.9,0.7-1.3l0.9,0.5C107,81.9,106.8,82.3,106.5,82.7z"/>
	<path class="st2" d="M107.9,80.2l-0.8-0.5c0.2-0.4,0.5-0.8,0.7-1.3l0.8,0.5C108.4,79.3,108.1,79.8,107.9,80.2z"/>
	<path class="st2" d="M204.5,72.6l-0.9-1.1l0.8-0.6c0.3,0.4,0.6,0.8,0.9,1.1L204.5,72.6z"/>
	<path class="st2" d="M202.6,70.4c-0.3-0.4-0.6-0.7-1-1.1l0.7-0.7l1,1.1L202.6,70.4z"/>
	<path class="st2" d="M200.7,68.3c-0.3-0.3-0.7-0.7-1-1l0.7-0.7c0.4,0.3,0.7,0.7,1,1L200.7,68.3z"/>
	<path class="st2" d="M198.6,66.2l-1.1-1l0.6-0.7c0.4,0.3,0.7,0.7,1.1,1L198.6,66.2z"/>
	<path class="st2" d="M196.4,64.3l-1.1-0.9l0.6-0.8c0.4,0.3,0.8,0.6,1.1,0.9L196.4,64.3z"/>
	<path class="st2" d="M130.2,58l-0.5-0.8l1.3-0.7l0.5,0.9C131,57.6,130.6,57.8,130.2,58z"/>
	<path class="st2" d="M132.7,56.7l-0.4-0.9l1.3-0.6l0.4,0.9L132.7,56.7z"/>
	<path class="st2" d="M135.3,55.5l-0.4-0.9c0.4-0.2,0.9-0.4,1.4-0.6l0.4,0.9C136.2,55.1,135.8,55.3,135.3,55.5z"/>
	<path class="st2" d="M138,54.4l-0.4-0.9c0.5-0.2,0.9-0.3,1.4-0.5l0.3,0.9L138,54.4z"/>
	<path class="st2" d="M140.7,53.4l-0.3-0.9l1.4-0.4l0.3,0.9L140.7,53.4z"/>
	<path class="st2" d="M143.5,52.6l-0.2-0.9l1.4-0.4l0.2,0.9L143.5,52.6z"/>
	<path class="st2" d="M146.3,51.9l-0.2-1l1.4-0.3l0.2,1L146.3,51.9z"/>
	<path class="st2" d="M149.1,51.4l-0.2-1l1.4-0.2l0.1,1C150.1,51.2,149.6,51.3,149.1,51.4z"/>
	<path class="st2" d="M152,51l-0.1-1c0.5-0.1,1-0.1,1.5-0.2l0.1,1L152,51z"/>
	<path class="st2" d="M154.9,50.7l-0.1-1l1.5-0.1v1L154.9,50.7z"/>
	<path class="st2" d="M162.1,50.7l-1.4-0.1v-1l1.5,0.1L162.1,50.7z"/>
	<path class="st2" d="M157.8,50.6v-1h1.5v1H157.8L157.8,50.6z"/>
</g>
<path class="st6" d="M173.7,105.2c0.1-0.5,0.1-0.9,0.1-1.4c0-5.7-4.6-10.4-10.3-10.4c-4.2,0-8.1,2.5-9.7,6.4
	c-3-2.7-7.6-2.4-10.2,0.6c-1.2,1.3-1.8,3.1-1.8,4.8h-1.3c-3.9,0-7,3.1-7,7l0,0c0,3.9,3.1,7,7,7h32.8c3.9,0,7-3.1,7-7l0,0
	C180.2,108.5,177.4,105.5,173.7,105.2z"/>
<path class="st1" d="M136.6,139.3h43.9c1.5,0,2.7,1.2,2.7,2.7v36.8c0,1.5-1.2,2.7-2.7,2.7h-43.9c-1.5,0-2.7-1.2-2.7-2.7V142
	C134,140.5,135.2,139.3,136.6,139.3z"/>
<path class="st6" d="M173.5,164.7h-29.7c-1,0-1.8-0.8-1.8-1.8l0,0l0,0c0-1,0.8-1.8,1.8-1.8h29.7c1,0,1.8,0.8,1.8,1.8l0,0
	C175.3,163.9,174.5,164.7,173.5,164.7L173.5,164.7z"/>
<path class="st6" d="M173.5,170.4h-29.7c-1,0-1.8-0.8-1.8-1.8l0,0c0-1,0.8-1.8,1.8-1.8h29.7c1,0,1.8,0.8,1.8,1.8l0,0
	C175.3,169.6,174.5,170.4,173.5,170.4z"/>
<g class="st7">
	<path class="st1" d="M149.4,168.8c0,0.3-0.3,0.6-0.6,0.6s-0.6-0.3-0.6-0.6s0.3-0.6,0.6-0.6l0,0
		C149.1,168.2,149.4,168.5,149.4,168.8z"/>
	<path class="st1" d="M151.5,168.8c0,0.3-0.3,0.6-0.6,0.6s-0.6-0.3-0.6-0.6s0.3-0.6,0.6-0.6S151.5,168.5,151.5,168.8L151.5,168.8z"
		/>
	<path class="st1" d="M153.6,168.8c0,0.3-0.3,0.6-0.6,0.6s-0.6-0.3-0.6-0.6s0.3-0.6,0.6-0.6l0,0
		C153.4,168.2,153.6,168.5,153.6,168.8z"/>
	<path class="st1" d="M155.8,168.8c0,0.3-0.3,0.6-0.6,0.6s-0.6-0.3-0.6-0.6s0.3-0.6,0.6-0.6l0,0
		C155.5,168.2,155.8,168.5,155.8,168.8z"/>
	<path class="st1" d="M157.9,168.8c0,0.3-0.3,0.6-0.6,0.6s-0.6-0.3-0.6-0.6s0.3-0.6,0.6-0.6l0,0
		C157.6,168.2,157.9,168.5,157.9,168.8z"/>
	<path class="st1" d="M160,168.8c0,0.3-0.3,0.6-0.6,0.6s-0.6-0.3-0.6-0.6s0.3-0.6,0.6-0.6l0,0C159.7,168.2,160,168.5,160,168.8z"/>
	<path class="st1" d="M162.2,168.8c0,0.3-0.3,0.6-0.6,0.6s-0.6-0.3-0.6-0.6s0.3-0.6,0.6-0.6S162.2,168.5,162.2,168.8L162.2,168.8z"
		/>
	<path class="st1" d="M164.3,168.8c0,0.3-0.3,0.6-0.6,0.6s-0.6-0.3-0.6-0.6s0.3-0.6,0.6-0.6l0,0C164,168.2,164.3,168.5,164.3,168.8z
		"/>
	<path class="st1" d="M166.4,168.8c0,0.3-0.3,0.6-0.6,0.6s-0.6-0.3-0.6-0.6s0.3-0.6,0.6-0.6S166.4,168.5,166.4,168.8L166.4,168.8z"
		/>
</g>
<circle class="st6" cx="158.7" cy="149.4" r="6.8"/>
<g class="st8">
	<path class="st1" d="M158.7,149.2c0.7,0,1.3-0.3,1.7-0.8c0.3-0.4,0.5-0.9,0.5-1.3c0.1-1.2-0.8-2.2-2-2.3s-2.2,0.8-2.3,2
		c0,0.1,0,0.2,0,0.3c0,0.5,0.2,1,0.5,1.3C157.4,148.9,158,149.2,158.7,149.2z"/>
	<path class="st1" d="M162.5,153c0,1.4-7.6,1.4-7.6,0v-1.6c0.3-2.2,7-2.3,7.6,0V153z"/>
</g>
<path class="st9" d="M145.3,168.3v-0.1c0-0.4-0.4-0.7-0.8-0.6c-0.3,0-0.6,0.3-0.6,0.6v0.1h-0.1v1.2c0,0.2,1.6,0.2,1.6,0L145.3,168.3
	L145.3,168.3z M144.2,168.2c0-0.2,0.2-0.4,0.4-0.5c0,0,0,0,0.1,0c0.2,0,0.4,0.2,0.5,0.4c0,0,0,0,0,0.1v0.1h-0.9v-0.1H144.2z
	 M144.7,169v0.4c0,0.1,0,0.1-0.1,0.1l0,0c-0.1,0-0.1,0-0.1-0.1l0,0V169c-0.1-0.1-0.1-0.2-0.1-0.3s0.1-0.1,0.2-0.1
	c0.1,0,0.2,0.1,0.2,0.2C144.8,168.9,144.8,169,144.7,169L144.7,169z"/>
<g class="st8">
	<path class="st1" d="M144.6,162.9c0.2,0,0.4-0.2,0.4-0.5c0-0.2-0.2-0.4-0.4-0.4c-0.3,0-0.5,0.2-0.5,0.4c0,0.1,0,0.2,0.1,0.3
		C144.3,162.8,144.5,162.9,144.6,162.9z"/>
	<path class="st1" d="M145.4,163.7c0,0.3-1.6,0.3-1.6,0v-0.3c0.1-0.4,1.5-0.5,1.6,0V163.7z"/>
	<path class="st9" d="M155,163.5h-6.5c-0.3,0-0.5-0.2-0.5-0.5l0,0c0-0.3,0.2-0.5,0.5-0.5h6.5c0.3,0,0.5,0.2,0.5,0.5l0,0
		C155.5,163.3,155.3,163.5,155,163.5z"/>
	<path class="st9" d="M163.6,163.5h-6.5c-0.3,0-0.5-0.2-0.5-0.5l0,0l0,0c0-0.3,0.2-0.5,0.5-0.5h6.5c0.3,0,0.5,0.2,0.5,0.5l0,0
		C164.1,163.3,163.9,163.5,163.6,163.5L163.6,163.5z"/>
</g>
<path class="st1" d="M154.9,172.9h5.9c0.8,0,1.5,0.7,1.5,1.5l0,0c0,0.8-0.7,1.5-1.5,1.5h-5.9c-0.8,0-1.5-0.7-1.5-1.5l0,0
	C153.4,173.6,154.1,172.9,154.9,172.9z"/>
<path class="st3" d="M97.8,108.9c-3.7,3.2-8.2,5.6-12.9,6.7l-0.1,11.1c0,5.2,2.2,10.2,6,13.7c2,2,4.3,3.7,6.8,5l0.2-0.1V108.9
	L97.8,108.9z"/>
<path class="st10" d="M97.8,108.9v36.4c2.4-1.3,4.7-2.9,6.7-4.8c3.8-3.5,6.1-8.4,6.1-13.6v-11.1C105.9,114.5,101.5,112.2,97.8,108.9
	z"/>
<path class="st6" d="M92,124.9v8.6c0,1,11.7,1,11.7,0v-8.6H92z M98.4,129.5v2.5c0,0.3-0.3,0.6-0.6,0.6c-0.3,0-0.6-0.3-0.6-0.6v-2.4
	c-0.7-0.3-1.1-1.2-0.8-1.9c0.3-0.7,1.2-1.1,1.9-0.8c0.6,0.2,0.9,0.8,0.9,1.4C99.3,128.8,98.9,129.3,98.4,129.5L98.4,129.5z"/>
<path class="st6" d="M102.7,124.3h-1.2v-0.6c0-2-1.6-3.7-3.7-3.7s-3.7,1.6-3.7,3.7v0.6H93v-0.6c-0.1-2.7,1.9-4.9,4.6-5.1
	c2.7-0.1,4.9,1.9,5.1,4.6c0,0.1,0,0.3,0,0.4V124.3z"/>
<rect x="163.4" y="35.5" class="st1" width="21.2" height="26.4"/>
<rect x="166.2" y="38.2" class="st11" width="21.2" height="26.4"/>
<rect x="169.7" y="40.9" class="st11" width="21.2" height="26.4"/>
<rect x="172.2" y="43.7" class="st1" width="21.2" height="26.4"/>
<g class="st8">
	<rect x="179.1" y="48" class="st6" width="10.9" height="1.7"/>
	<rect x="175.9" y="52" class="st6" width="14.2" height="1.7"/>
	<rect x="175.9" y="56.1" class="st6" width="14.2" height="1.7"/>
	<rect x="175.9" y="60.1" class="st6" width="14.2" height="1.7"/>
	<rect x="175.9" y="64.2" class="st6" width="14.2" height="1.7"/>
</g>
<path class="st12" d="M128.8,71.4c0.9-1.6,1.6-3.3,1.8-5.1l0.6,0.1l1.1,0.2l0,0c0.3-2,0.2-4-0.3-6l-1.6,0.4
	c-0.4-1.8-1.2-3.4-2.3-4.9l1.4-1c-1.2-1.6-2.7-3-4.4-4.1l-0.9,1.5c-1.6-0.9-3.3-1.6-5.1-1.8l0.2-1.7c-2-0.3-4-0.2-6,0.3l0.4,1.6
	c-1.8,0.4-3.4,1.2-4.9,2.3l-1-1.4c-1.6,1.2-3,2.7-4,4.4l1.4,0.9c-0.9,1.6-1.6,3.3-1.8,5.1l-1.2-0.2l-0.5-0.1l0,0c-0.3,2-0.2,4,0.3,6
	l1.6-0.4c0.4,1.8,1.2,3.4,2.3,4.9l-1.4,1c1.2,1.6,2.7,3,4.4,4l0.9-1.4c1.6,1,3.3,1.6,5.1,1.9l-0.2,1.3l-0.1,0.4c2,0.3,4,0.2,6-0.3
	l-0.4-1.6c1.8-0.4,3.4-1.2,4.9-2.3l1,1.3c1.6-1.2,3-2.7,4-4.4L128.8,71.4z M113.1,70.7c-3.5-2.1-4.7-6.7-2.5-10.3
	c2.1-3.5,6.7-4.7,10.3-2.5c3.5,2.1,4.7,6.7,2.5,10.3C121.3,71.7,116.7,72.8,113.1,70.7L113.1,70.7z"/>
<path class="st1" d="M100.8,70.4c-0.5-0.8-1.2-1.5-2-2l0.2-0.2l0.3-0.5l0,0c-0.9-0.6-1.9-1-2.9-1.2l-0.2,0.9c-0.9-0.2-1.9-0.2-2.9,0
	l-0.2-0.9c-1,0.2-2,0.6-2.9,1.2l0.5,0.7c-0.8,0.5-1.5,1.2-2,2L88,69.9c-0.6,0.9-1,1.9-1.2,2.9l0.9,0.2c-0.2,0.9-0.2,1.9,0,2.8
	L86.8,76c0.2,1,0.6,2,1.2,2.9l0.7-0.5c0.5,0.8,1.2,1.5,2,2l-0.3,0.5l-0.1,0.2l0,0c0.9,0.6,1.9,1,2.9,1.2l0.2-0.9
	c0.9,0.2,1.9,0.2,2.9,0l0.2,0.9c1-0.2,2-0.6,2.9-1.2l-0.5-0.8c0.8-0.5,1.5-1.2,2-2l0.6,0.4l0.2,0.1c0.6-0.9,1-1.9,1.2-2.9l-0.9-0.2
	c0.2-0.9,0.2-1.9,0-2.9l0.9-0.2c-0.2-1-0.6-2-1.2-2.9L100.8,70.4z M96.9,77.7c-1.8,1.2-4.3,0.7-5.5-1.1c-1.2-1.8-0.7-4.3,1.1-5.5
	c1.8-1.2,4.3-0.7,5.5,1.1l0,0C99.2,74,98.7,76.5,96.9,77.7L96.9,77.7z"/>
<path class="st12" d="M205.6,74.6h18.2c0.4,0,0.7,0.3,0.7,0.7v10.3c0,0.4-0.3,0.7-0.7,0.7h-18.2c-0.4,0-0.7-0.3-0.7-0.7V75.3
	C204.9,74.9,205.2,74.6,205.6,74.6z"/>
<g class="st8">
	<rect x="204.9" y="76.8" class="st6" width="19.6" height="2"/>
	<path class="st6" d="M209.4,84h-2.9c-0.2,0-0.3,0.1-0.3,0.3l0,0l0,0c0,0.2,0.1,0.3,0.3,0.3l0,0h2.9c0.2,0,0.3-0.1,0.3-0.3l0,0l0,0
		C209.7,84.1,209.6,84,209.4,84L209.4,84z"/>
	<path class="st6" d="M213.8,84H211c-0.2,0-0.3,0.1-0.3,0.3l0,0l0,0c0,0.2,0.1,0.3,0.3,0.3l0,0h2.9c0.2,0,0.3-0.1,0.3-0.3l0,0l0,0
		C214.2,84.1,214.1,84,213.8,84C213.9,84,213.8,84,213.8,84z"/>
	<path class="st6" d="M218.2,84h-2.9c-0.2,0-0.3,0.1-0.3,0.3l0,0l0,0c0,0.2,0.1,0.3,0.3,0.3l0,0h2.9c0.2,0,0.3-0.1,0.3-0.3l0,0l0,0
		C218.6,84.1,218.4,84,218.2,84L218.2,84z"/>
	<path class="st6" d="M222.7,84h-2.9c-0.2,0-0.3,0.1-0.3,0.3l0,0l0,0c0,0.2,0.1,0.3,0.3,0.3l0,0h2.9c0.2,0,0.3-0.1,0.3-0.3l0,0
		C223,84.1,222.9,84,222.7,84z"/>
	<path class="st6" d="M206.4,75.2L206.4,75.2c-0.2,0-0.4,0.2-0.4,0.4v0.1c0,0.2,0.2,0.4,0.4,0.4l0,0c0.2,0,0.4-0.2,0.4-0.4v-0.1
		C206.8,75.3,206.6,75.2,206.4,75.2z"/>
	<path class="st6" d="M207.2,75.6L207.2,75.6c0,0.2,0.2,0.4,0.4,0.4h1.5c0.2,0,0.4-0.2,0.4-0.4l0,0c0-0.2-0.2-0.4-0.4-0.4h-1.5
		C207.4,75.2,207.2,75.4,207.2,75.6z"/>
	<path class="st6" d="M207,79.9h2c0.3,0,0.6,0.3,0.6,0.6v1.7c0,0.3-0.3,0.6-0.6,0.6h-2c-0.3,0-0.6-0.3-0.6-0.6v-1.7
		C206.4,80.1,206.7,79.9,207,79.9z"/>
</g>
<path class="st10" d="M215.9,115.4v-1.3c0-0.6-0.5-1.1-1.1-1.1l0,0h-11.7c-0.6,0-1.1,0.5-1.1,1.1l0,0v23.6h30.3v-22.3
	C232.3,115.4,215.9,115.4,215.9,115.4z"/>
<polygon class="st6" points="233.6,116.2 203.9,116.2 202,137.7 232.1,137.7 "/>
<path class="st3" d="M232.3,137.7H202l3.2-21.2c0.1-0.6,0.6-1.1,1.3-1.1h27.7c0.7,0,1.3,0.6,1.3,1.3c0,0.1,0,0.1,0,0.2L232.3,137.7z
	"/>
<circle class="st1" cx="235.5" cy="116.2" r="6.9"/>
<path class="st6" d="M235.5,123.4c-4,0-7.2-3.2-7.2-7.2s3.2-7.2,7.2-7.2s7.2,3.2,7.2,7.2S239.4,123.4,235.5,123.4L235.5,123.4z
	 M235.5,109.5c-3.7,0-6.7,3-6.7,6.7s3,6.7,6.7,6.7s6.7-3,6.7-6.7l0,0C242.1,112.5,239.2,109.6,235.5,109.5z"/>
<path class="st6" d="M232.1,115v4.9c0,0.6,6.7,0.6,6.7,0V115H232.1z M235.8,117.6v1.4c0,0.2-0.1,0.4-0.3,0.4s-0.4-0.1-0.4-0.3V119
	v-1.4c-0.3-0.1-0.5-0.4-0.5-0.8c0-0.5,0.4-0.8,0.8-0.8c0.5,0,0.8,0.4,0.8,0.8C236.3,117.2,236.1,117.5,235.8,117.6z"/>
<path class="st6" d="M238.2,114.6h-0.7v-0.3c0.1-1.1-0.8-2.1-1.9-2.2c-1.1-0.1-2.1,0.8-2.2,1.9c0,0.1,0,0.2,0,0.3v0.3h-0.7v-0.3
	c0.1-1.5,1.4-2.7,2.9-2.6c1.4,0.1,2.5,1.2,2.6,2.6L238.2,114.6z"/>
<circle class="st13" cx="211.4" cy="58.2" r="2.7"/>
<circle class="st14" cx="141.7" cy="68.1" r="2.7"/>
<g class="st15">
	<circle class="st12" cx="230" cy="103.4" r="1.4"/>
</g>
<circle class="st14" cx="84.6" cy="106.1" r="1.4"/>
<circle class="st14" cx="106.4" cy="156.7" r="2.7"/>
<g class="st16">
	<path class="st17" d="M149,41.7L149,41.7c-0.3,0-0.5-0.2-0.5-0.5l0,0v-4.9c0-0.3,0.2-0.5,0.5-0.5l0,0l0,0c0.3,0,0.5,0.2,0.5,0.5
		l0,0v4.9C149.5,41.5,149.3,41.7,149,41.7L149,41.7z"/>
	<path class="st17" d="M146.1,38.8L146.1,38.8c0-0.3,0.2-0.5,0.5-0.5l0,0h4.9c0.3,0,0.5,0.2,0.5,0.5l0,0l0,0c0,0.2-0.2,0.5-0.4,0.5
		l0,0h-4.9C146.3,39.3,146.1,39.1,146.1,38.8C146,38.8,146,38.8,146.1,38.8z"/>
</g>
<g class="st15">
	<path class="st12" d="M201.3,105L201.3,105c-0.3,0-0.5-0.2-0.5-0.5v-4.9c0-0.3,0.2-0.5,0.5-0.5l0,0c0.3,0,0.5,0.2,0.5,0.5l0,0v4.9
		C201.8,104.8,201.6,105,201.3,105L201.3,105z"/>
	<path class="st12" d="M198.4,102.1L198.4,102.1c0-0.3,0.2-0.5,0.5-0.5l0,0h4.9c0.3,0,0.5,0.2,0.5,0.5l0,0l0,0
		c0,0.2-0.2,0.5-0.4,0.5l0,0H199C198.6,102.5,198.4,102.3,198.4,102.1L198.4,102.1z"/>
</g>
<g class="st15">
	<path class="st12" d="M196.3,169.9L196.3,169.9c-0.3,0-0.5-0.2-0.5-0.5v-4.9c0-0.3,0.2-0.5,0.5-0.5l0,0c0.3,0,0.5,0.2,0.5,0.5l0,0
		v4.9C196.8,169.7,196.6,169.9,196.3,169.9L196.3,169.9z"/>
	<path class="st12" d="M193.4,166.9L193.4,166.9c0-0.3,0.2-0.5,0.5-0.5l0,0h4.9c0.3,0,0.5,0.2,0.5,0.5l0,0l0,0
		c0,0.3-0.2,0.5-0.5,0.5h-4.9C193.6,167.4,193.4,167.2,193.4,166.9z"/>
</g>
<g class="st15">
	<path class="st12" d="M155.3,134.8c-0.9,0-1.7-0.8-1.7-1.7s0.8-1.7,1.7-1.7s1.7,0.8,1.7,1.7l0,0C157,134,156.3,134.8,155.3,134.8z
		 M155.3,131.9c-0.7,0-1.2,0.6-1.2,1.2s0.6,1.2,1.2,1.2c0.7,0,1.2-0.6,1.2-1.2S156,131.9,155.3,131.9L155.3,131.9z"/>
</g>
<polygon class="st2" points="191.5,268 185.8,268 185.2,255.5 192.1,255.5 "/>
<polygon class="st2" points="291.7,268 285.9,268 285.3,255.5 292.3,255.5 "/>
<path class="st12" d="M286.6,233.7c-0.6,2-1.3,4-2.1,6.1h-95.7c0,0-12.3-50.2,0-59.4c0.4-0.3,0.7-0.5,1.1-0.7
	c16.6-8.6,83.3-10.6,96.8,0.4c0.1,0.1,0.2,0.2,0.3,0.2C292.1,184.9,296.5,203.2,286.6,233.7z"/>
<path class="st12" d="M298.6,204.1h-13.3c-2.2,0-4.1,1.6-4.4,3.9l-4.2,30.5h-77.5L195,208c-0.3-2.2-2.2-3.9-4.4-3.9h-13.3
	c-2.5,0-4.4,2-4.4,4.4c0,0.3,0,0.5,0.1,0.8l7.4,53.3h115.3l7.4-53.3c0.4-2.4-1.2-4.7-3.6-5.2C299.1,204.1,298.9,204.1,298.6,204.1z"
	/>
<g>
	<path class="st18" d="M225,239.8h-36.1l3.5-35.2C198.7,207.3,215.5,221.7,225,239.8z"/>
	<path class="st18" d="M286.6,233.7c-0.6,2-1.3,4-2.1,6.1h-34.8c6-11.1,20.5-27.9,34.5-35.6L286.6,233.7z"/>
	<path class="st18" d="M276,222.4c6.2,2.1,5,15.3,0,17.3h-75.8c-5.7-1.5-6.1-18.9,2-17.6C252.2,231.5,254.6,216.6,276,222.4z"/>
</g>
<path class="st1" d="M218.3,209.1c0,3.2,0.1,6.3,0.5,9.4h35.5l2.1-34.7c-2.1-12.7-7.9-15.7-17-15.7c-8.2,0-13.6,6.7-16.9,15.6
	C219.6,191.4,218.3,200.8,218.3,209.1z"/>
<path class="st1" d="M218.3,209.7l12.9-0.8c-7.1-2.3-7.7-13.3-0.4-20.1l-8.2-5.2C219.6,191.4,218.3,201.5,218.3,209.7z"/>
<polygon class="st4" points="215.8,225.6 264.6,225.6 264.6,209.1 220.6,209.1 "/>
<path class="st4" d="M270.8,220.4L257.7,268h-10.2c3.2-20.3,2.5-33.4,5.6-50.2C255.7,203.9,274,207.6,270.8,220.4z"/>
<path class="st4" d="M213.3,220.4l13.1,47.6h10.2c-3.2-20.3-2.5-33.4-5.6-50.2C228.4,203.9,210.1,207.6,213.3,220.4z"/>
<g>
	<path class="st19" d="M254.1,268L254.1,268c0-3.6,2.9-6.5,6.4-6.5s6.4,2.9,6.4,6.4v0.1H254.1z"/>
	<path class="st19" d="M261.7,261.6l-2.3-0.7c-1.5-3-8.1-2.6-7.2,1c-1.4,0.3-2.8,0-3.9-0.9l-0.8,7h13.9L261.7,261.6z"/>
	<path class="st19" d="M230.1,268C230.1,268,230.1,267.9,230.1,268c-0.1-3.6-3.1-6.4-6.6-6.2c-3.3,0.1-6,2.8-6.1,6.1v0.1H230.1z"/>
	<path class="st19" d="M222.4,261.6l2.3-0.7c1.5-3,8.1-2.6,7.2,1c1.4,0.3,2.8,0,3.9-0.9l0.8,6.9h-13.9L222.4,261.6z"/>
</g>
<path class="st1" d="M233.9,169.2c4.8,2.9,5.5,11.6,3,15l-13.7,10.2l13.9,7.2l-2.2,7.4c0,0-14.5-1.2-21.6-8.5
	C206.4,193.5,223.1,172.9,233.9,169.2z"/>
<path class="st1" d="M243.6,182.3c-4.1-5.1-1.3-13.1,4-12.9c17,6,22.3,22.6,16.9,30.1c-4.6,6.4-24.9,8.9-24.9,8.9v-7l14.1-3
	C253.7,198.4,246.4,187.1,243.6,182.3z"/>
<path class="st20" d="M228.7,206.6c-0.3-2.9,1.7-5.5,4.6-5.9c6.2-1.1,8.4,2.3,9,4.7c0.1,0.5-0.2,1.1-0.7,1.2c-0.1,0-0.2,0-0.3,0
	c-0.5,0-0.9-0.4-1-0.8c-0.1-0.7-0.5-1.3-1.1-1.7c0.6,1.2,0.4,2.5-1.4,2.5H228.7z"/>
<path class="st2" d="M242.6,206.6l4.9-24.3h1c-0.3,1.7-5.1,26-5.2,26.8h-14.5l-1.6-2.4h15.4L242.6,206.6L242.6,206.6z"/>
<polygon class="st6" points="248.5,182.3 284.6,182.3 279.3,209.1 243.3,209.1 "/>
<path class="st20" d="M238,171c0,2.8,8.3,4.6,11,1.7c0.4-0.5,0.7-1,0.8-1.6l1.6-7l-9.9-3.7l-0.3,0.9L238,171z"/>
<path class="st21" d="M249.8,171l1.6-7l-9.4-2.5C239.6,168.7,248.2,174.5,249.8,171z"/>
<path class="st20" d="M240.7,157.6c-0.5,6.9,4.9,13,9.5,13.3s10.9-4.8,11.4-11.7s-3.7-12.8-9.5-13.3S241.2,150.7,240.7,157.6z"/>
<path class="st4" d="M248.4,146.4c6.3-4,9.8-0.2,13,3.8c2.2,2.8,3.8,4.8,6.5,5.2c-5.3,6.7-15.9,2.3-19.2-4.4
	c-0.3,3.8-4.8,6.9-7.9,6.6C239.7,153.3,242.6,144.8,248.4,146.4z"/>
<circle class="st20" cx="241.9" cy="157.6" r="2.8"/>
</svg>
