<?xml version="1.0" encoding="utf-8"?>
<!-- Generator: Adobe Illustrator 26.2.1, SVG Export Plug-In . SVG Version: 6.00 Build 0)  -->
<svg version="1.1" id="Layer_1" xmlns="http://www.w3.org/2000/svg" xmlns:xlink="http://www.w3.org/1999/xlink" x="0px" y="0px"
	 viewBox="0 0 390.7 271" style="enable-background:new 0 0 390.7 271;" xml:space="preserve">
<style type="text/css">
	.st0{opacity:0.1;fill:#FBB03B;}
	.st1{opacity:0.8;fill:#3D3C7C;enable-background:new    ;}
	.st2{fill:#A379F6;}
	.st3{fill:#8650F4;}
	.st4{fill:#9566F5;}
	.st5{fill:#ECECEC;}
	.st6{fill:#3D3C7C;}
	.st7{fill:#FAFAFA;}
	.st8{opacity:0.5;fill:#3D3C7C;enable-background:new    ;}
	.st9{fill:#E1E1E1;}
	.st10{fill:#E16F7C;}
	.st11{fill:#FFFFFF;}
	.st12{opacity:0.2;}
	.st13{fill:#9475FA;}
	.st14{fill:#48ADFF;}
	.st15{opacity:0.5;fill:#48ADFF;enable-background:new    ;}
	.st16{fill:#FFC19D;}
	.st17{fill:#FF9C6A;}
	.st18{fill:#007BE0;}
	.st19{opacity:0.6;}
	.st20{fill:#4A4997;}
</style>
<path class="st0" d="M37.1,270.7c0,0-51.3-55.5-33.3-120.2c11.7-42.3,50.9-16.7,48.8-85.2S167.7-10.3,200.1,9.6
	s33.2,32.6,100.2,24.7s96.3,52.4,61.5,103c-30.4,44.3,68.7,39.8,9.8,133.7L37.1,270.7z"/>
<g>
	<path class="st1" d="M304.5,248.7c0,0.1-48.9,0.1-109.2,0.1s-109.1,0-109.1-0.1s48.9-0.1,109.2-0.1S304.5,248.6,304.5,248.7z"/>
	<path class="st2" d="M110.9,183h66.6c2.3,0,4.2,1.9,4.2,4.2v57.3c0,2.3-1.9,4.2-4.2,4.2h-66.6c-2.3,0-4.2-1.9-4.2-4.2v-57.3
		C106.8,184.9,108.6,183,110.9,183z"/>
	<path class="st3" d="M106.7,226.1H134c1,0,1.9-0.9,1.9-1.9h-29.2V226.1z"/>
	<path class="st4" d="M107.1,207.4h27.6c1.3,0,2.4,1.1,2.4,2.4v12.3c0,1.3-1.1,2.4-2.4,2.4h-27.6c-1.3,0-2.4-1.1-2.4-2.4v-12.3
		C104.8,208.4,105.8,207.4,107.1,207.4z"/>
	<ellipse class="st5" cx="129.1" cy="216.1" rx="4.8" ry="4.8"/>
	<g>
		<path class="st3" d="M133.9,216.1c0-0.4-0.1-0.8-0.2-1.2c-0.7-2.5-3.2-4-5.8-3.4c-0.1,0-0.3,0.1-0.4,0.1c-0.4,0.2-0.8,0.4-1.2,0.6
			c-0.4,0.3-0.7,0.6-1,1c-0.6,0.8-0.9,1.8-0.9,2.8s0.3,2,0.9,2.8c0.3,0.4,0.6,0.7,1,1s0.8,0.5,1.2,0.6c0.8,0.3,1.6,0.4,2.5,0.2
			c0.7-0.1,1.4-0.4,2-0.9c0.9-0.6,1.5-1.5,1.7-2.6C133.8,216.9,133.9,216.5,133.9,216.1c0,0.4,0,0.8-0.1,1.2
			c-0.6,2.6-3.2,4.2-5.8,3.6c-0.2,0-0.3-0.1-0.5-0.2c-0.4-0.2-0.9-0.4-1.2-0.7c-0.4-0.3-0.7-0.6-1-1c-1.3-1.7-1.3-4.1,0-5.8
			c0.3-0.4,0.6-0.7,1-1s0.8-0.5,1.2-0.7c0.8-0.3,1.7-0.4,2.6-0.2c1.9,0.4,3.3,1.8,3.8,3.6C133.9,215.4,133.9,215.7,133.9,216.1z"/>
	</g>
	<path class="st6" d="M251.3,248.6l-64.6-0.3c-7.8,0-14-6.3-14-14.1l0,0l0.7-161.8c0-7.8,6.4-14,14.1-14l64.6,0.3
		c7.8,0,14,6.4,14,14.1l0,0l-0.7,161.8C265.4,242.3,259,248.6,251.3,248.6L251.3,248.6z"/>
	<path class="st7" d="M252,64.2l-12.5-0.1l-36.6-0.2h-4.4h-11c-5.4,0-9.9,4.4-9.9,9.8l0,0l-0.7,158c0,5.4,4.4,9.9,9.8,9.9l64.4,0.3
		c5.4,0,9.9-4.4,9.9-9.8l0,0l0.7-157.9C261.8,68.7,257.5,64.3,252,64.2L252,64.2z"/>
	<path class="st8" d="M252.5,78.6c0,0.4-0.3,0.8-0.8,0.8l0,0c-0.4,0-0.8-0.4-0.8-0.8l0,0c0-0.4,0.4-0.8,0.8-0.8
		C252.1,77.7,252.5,78.1,252.5,78.6L252.5,78.6z"/>
	<path class="st8" d="M252.5,81.5c0,0.4-0.3,0.8-0.8,0.8l0,0c-0.4,0-0.8-0.3-0.9-0.7c0-0.4,0.3-0.8,0.7-0.9c0.1,0,0.1,0,0.2,0
		C252.1,80.7,252.5,81,252.5,81.5z"/>
	<path class="st8" d="M252.4,84.4c0,0.4-0.3,0.8-0.8,0.8l0,0c-0.4,0-0.8-0.4-0.8-0.8s0.4-0.8,0.8-0.8
		C252.1,83.5,252.4,83.9,252.4,84.4L252.4,84.4z"/>
	<path class="st5" d="M190.7,106.1h64.6c1.1,0,2.1,0.9,2.1,2.1v39.5c0,1.1-0.9,2.1-2.1,2.1h-64.6c-1.1,0-2.1-0.9-2.1-2.1v-39.5
		C188.7,107,189.6,106.1,190.7,106.1z"/>
	<path class="st9" d="M188.8,103.3h64.6c1.1,0,2.1,0.9,2.1,2.1v39.5c0,1.1-0.9,2.1-2.1,2.1h-64.6c-1.1,0-2.1-0.9-2.1-2.1v-39.5
		C186.8,104.2,187.7,103.3,188.8,103.3z"/>
	<path class="st10" d="M186.7,100.9h64.6c1.1,0,2.1,0.9,2.1,2.1v39.5c0,1.1-0.9,2.1-2.1,2.1h-64.6c-1.1,0-2.1-0.9-2.1-2.1V103
		C184.6,101.8,185.5,100.9,186.7,100.9z"/>
	<path class="st11" d="M195.9,110.9c0,0.6-0.4,0.9-1.3,0.9h-1.7v-3.2h1.5c0.8,0,1.2,0.3,1.2,0.8c0,0.3-0.2,0.6-0.4,0.7
		C195.7,110.2,195.9,110.5,195.9,110.9z M193.7,109.1v0.8h0.8c0.4,0,0.6-0.1,0.6-0.4s-0.2-0.4-0.6-0.4H193.7z M195.2,110.8
		c0-0.3-0.2-0.4-0.6-0.4h-0.9v0.8h0.9C195,111.2,195.2,111.1,195.2,110.8L195.2,110.8z"/>
	<path class="st11" d="M198.6,111.1h-1.5l-0.3,0.7H196l1.4-3.2h0.7l1.4,3.2h-0.8L198.6,111.1z M198.4,110.5l-0.5-1.2l-0.5,1.2H198.4
		z"/>
	<path class="st11" d="M203,108.5v3.2h-0.6l-1.6-2v2h-0.7v-3.2h0.6l1.6,1.9v-1.9H203z"/>
	<path class="st11" d="M204.9,110.5l-0.4,0.4v0.8h-0.7v-3.2h0.7v1.5l1.4-1.5h0.8l-1.3,1.4l1.4,1.8h-0.9L204.9,110.5z"/>
	<path class="st11" d="M195.3,124.3h-0.6v0.8h-0.3v-0.8h-1.7v-0.2l1.6-2h0.3l-1.5,1.9h1.3v-0.7h0.3v0.7h0.6L195.3,124.3z"/>
	<path class="st11" d="M197.5,124.2c0,0.5-0.4,0.9-1.1,0.9c-0.4,0-0.8-0.1-1.1-0.4l0.1-0.2c0.3,0.2,0.6,0.3,0.9,0.3
		c0.5,0,0.8-0.2,0.8-0.6s-0.2-0.6-0.8-0.6h-0.2v-0.2l0.8-1h-1.4v-0.3h1.9v0.2l-0.8,1C197.2,123.4,197.5,123.7,197.5,124.2z"/>
	<path class="st11" d="M199.9,124.2c0,0.5-0.4,0.9-1.1,0.9c-0.4,0-0.8-0.1-1.1-0.4l0.1-0.2c0.2,0.2,0.6,0.3,0.9,0.3
		c0.5,0,0.8-0.2,0.8-0.6s-0.2-0.6-1-0.6h-0.6l0.1-1.5h1.6v0.3h-1.4l-0.1,1h0.4C199.6,123.3,199.9,123.7,199.9,124.2z"/>
	<path class="st11" d="M202.5,124.2c0,0.5-0.4,0.9-0.9,0.9c0,0,0,0-0.1,0c-0.8,0-1.2-0.6-1.2-1.5s0.6-1.5,1.4-1.5
		c0.2,0,0.5,0,0.7,0.2l-0.1,0.2c-0.2-0.1-0.4-0.2-0.6-0.1c-0.6,0-1,0.4-1,1.2c0,0.1,0,0.2,0,0.2c0.2-0.3,0.5-0.5,0.9-0.5
		C202,123.2,202.5,123.6,202.5,124.2C202.5,124.1,202.5,124.1,202.5,124.2z M202.2,124.2c0-0.4-0.3-0.6-0.7-0.6s-0.7,0.2-0.8,0.6
		l0,0c0,0.3,0.3,0.6,0.8,0.6C201.8,124.8,202.1,124.6,202.2,124.2L202.2,124.2L202.2,124.2z"/>
	<path class="st11" d="M208.9,125l-0.7-0.9l-0.7,0.9h-0.3l0.9-1.1l-0.8-1.1h0.3l0.7,0.9l0.7-0.9h0.3l-0.8,1.1l0.9,1.1H208.9z"/>
	<path class="st11" d="M211.1,125l-0.7-0.9l-0.7,0.9h-0.3l0.9-1.1l-0.8-1.1h0.3l0.7,0.9l0.7-0.9h0.3l-0.8,1.1l0.9,1.1H211.1z"/>
	<path class="st11" d="M213.4,125l-0.7-0.9L212,125h-0.3l0.9-1.1l-0.8-1.1h0.3l0.7,0.9l0.7-0.9h0.3l-0.8,1.1l0.9,1.1H213.4z"/>
	<path class="st11" d="M215.7,125l-0.7-0.9l-0.7,0.9H214l0.9-1.1l-0.8-1.1h0.3l0.7,0.9l0.7-0.9h0.3l-0.8,1.1l0.9,1.1H215.7z"/>
	<path class="st11" d="M223.5,125l-0.7-0.9l-0.7,0.9h-0.3l0.9-1.1l-0.8-1.1h0.3l0.7,0.9l0.7-0.9h0.3l-0.8,1.1l0.9,1.1H223.5z"/>
	<path class="st11" d="M225.7,125l-0.7-0.9l-0.7,0.9H224l0.9-1.1l-0.8-1.1h0.3l0.7,0.9l0.7-0.9h0.3l-0.8,1.1l0.9,1.1H225.7z"/>
	<path class="st11" d="M228,125l-0.7-0.9l-0.7,0.9h-0.3l0.9-1.1l-0.8-1.1h0.3l0.7,0.9l0.7-0.9h0.3l-0.8,1.1l0.9,1.1H228z"/>
	<path class="st11" d="M230.2,125l-0.7-0.9l-0.7,0.9h-0.3l0.9-1.1l-0.8-1.1h0.3l0.7,0.9l0.7-0.9h0.3l-0.8,1.1l0.9,1.1H230.2z"/>
	<path class="st11" d="M237.2,122.1v3h-0.3v-2.7h-0.7v-0.3H237.2z"/>
	<path class="st11" d="M239.9,124.2c0,0.5-0.4,0.9-1.1,0.9c-0.4,0-0.8-0.1-1.1-0.4l0.1-0.2c0.3,0.2,0.6,0.3,0.9,0.3
		c0.5,0,0.8-0.2,0.8-0.6s-0.2-0.6-0.8-0.6h-0.2v-0.2l0.8-1h-1.5v-0.3h1.9v0.2l-0.8,1C239.6,123.4,239.9,123.7,239.9,124.2z"/>
	<path class="st11" d="M242.8,124.3h-0.6v0.8h-0.3v-0.8h-1.7v-0.2l1.6-2h0.3l-1.5,1.9h1.3v-0.7h0.3v0.7h0.6L242.8,124.3z"/>
	<path class="st11" d="M245.1,124.8v0.3H243v-0.2l1.2-1.2c0.3-0.3,0.4-0.5,0.4-0.7s-0.2-0.6-0.7-0.6c-0.3,0-0.6,0.1-0.8,0.3
		l-0.2-0.2c0.3-0.3,0.7-0.4,1.1-0.4c0.6,0,1,0.3,1,0.8c0,0.4-0.2,0.7-0.5,0.9l-1,1L245.1,124.8z"/>
	<path class="st11" d="M191.2,131.2c0-0.4,0.4-0.8,0.8-0.7c0.2,0,0.4,0.1,0.5,0.2l-0.2,0.2c-0.1-0.1-0.2-0.2-0.4-0.2
		s-0.4,0.2-0.4,0.4l0,0c0,0.2,0.2,0.4,0.4,0.4l0,0c0.1,0,0.3-0.1,0.4-0.2l0.2,0.2c-0.3,0.3-0.8,0.3-1.1,0
		C191.3,131.6,191.2,131.4,191.2,131.2z"/>
	<path class="st11" d="M193.7,131.6h-0.6l-0.1,0.3h-0.3l0.6-1.4h0.3l0.6,1.4h-0.3L193.7,131.6z M193.6,131.3l-0.2-0.5l-0.2,0.5
		H193.6z"/>
	<path class="st11" d="M195.2,131.9l-0.3-0.4h-0.3v0.4h-0.3v-1.4h0.6c0.4,0,0.6,0.2,0.6,0.5c0,0.2-0.1,0.4-0.3,0.4l0.3,0.5H195.2z
		 M194.9,130.8h-0.3v0.5h0.3c0.2,0,0.3-0.1,0.3-0.2S195.1,130.7,194.9,130.8L194.9,130.8z"/>
	<path class="st11" d="M195.7,131.8l0.1-0.2c0.1,0.1,0.3,0.2,0.5,0.1c0.2,0,0.3-0.1,0.3-0.1c0-0.3-0.8-0.1-0.8-0.6
		c0-0.2,0.2-0.4,0.6-0.4c0.2,0,0.3,0,0.5,0.1l-0.1,0.2c-0.1-0.1-0.3-0.1-0.4-0.1c-0.2,0-0.3,0.1-0.3,0.2c0,0.3,0.8,0.1,0.8,0.6
		c0,0.2-0.2,0.4-0.6,0.4C196.1,131.9,195.9,131.9,195.7,131.8z"/>
	<path class="st11" d="M199,130.5v1.4h-0.3v-0.6h-0.6v0.6h-0.3v-1.4h0.3v0.6h0.6v-0.6H199z"/>
	<path class="st11" d="M199.2,131.2c0-0.4,0.3-0.8,0.7-0.8s0.8,0.3,0.8,0.7s-0.3,0.8-0.7,0.8l0,0
		C199.6,131.9,199.2,131.6,199.2,131.2L199.2,131.2z M200.4,131.2c0-0.2-0.2-0.4-0.4-0.4s-0.4,0.2-0.4,0.4s0.2,0.4,0.4,0.4
		C200.2,131.6,200.4,131.4,200.4,131.2L200.4,131.2L200.4,131.2z"/>
	<path class="st11" d="M201,130.5h0.3v1.1h0.7v0.3h-1V130.5z"/>
	<path class="st11" d="M202.2,130.5h0.6c0.4,0,0.7,0.2,0.8,0.6c0,0.4-0.2,0.7-0.6,0.8c-0.1,0-0.1,0-0.2,0h-0.6V130.5z M202.9,131.6
		c0.2,0,0.4-0.1,0.5-0.4c0,0,0,0,0-0.1c0-0.2-0.2-0.4-0.4-0.4c0,0,0,0-0.1,0h-0.3v0.9H202.9z"/>
	<path class="st11" d="M205,131.6v0.3h-1.1v-1.4h1.1v0.3h-0.7v0.3h0.6v0.2h-0.6v0.3L205,131.6z"/>
	<path class="st11" d="M206.1,131.9l-0.3-0.4h-0.3v0.4h-0.3v-1.4h0.6c0.4,0,0.6,0.2,0.6,0.5c0,0.2-0.1,0.4-0.3,0.4l0.3,0.5H206.1z
		 M205.8,130.8h-0.3v0.5h0.3c0.2,0,0.3-0.1,0.3-0.2S206,130.7,205.8,130.8L205.8,130.8z"/>
	<path class="st11" d="M191.7,135.4h19.4c0.4,0,0.8,0.3,0.8,0.8v0.3c0,0.4-0.3,0.8-0.8,0.8h-19.4c-0.4,0-0.8-0.3-0.8-0.8v-0.3
		C190.9,135.7,191.3,135.4,191.7,135.4z"/>
	<path class="st11" d="M235.6,135.4h10.1c0.4,0,0.8,0.3,0.8,0.8v0.3c0,0.4-0.3,0.8-0.8,0.8h-10.1c-0.4,0-0.8-0.3-0.8-0.8v-0.3
		C234.8,135.7,235.2,135.4,235.6,135.4z"/>
	<g class="st12">
		<path class="st11" d="M251,100.9h-64.1c-1.3,0-2.3,1-2.3,2.3v11.5c4.1,2.8,9.6,3.3,14.6,2.3c5.8-1.2,11.1-4.2,16.5-6.6
			s11.4-4.4,17.2-3.4c5.5,1,10.2,4.4,15.2,6.9c1.6,0.8,3.4,1.5,5.1,2.1v-12.8C253.3,101.9,252.3,100.9,251,100.9L251,100.9z"/>
	</g>
	<path class="st13" d="M190.2,161.5h9.5c2.3,0,4.2,1.9,4.2,4.2v9.5c0,2.3-1.9,4.2-4.2,4.2h-9.5c-2.3,0-4.2-1.9-4.2-4.2v-9.5
		C186.1,163.3,187.9,161.5,190.2,161.5z"/>
	<path class="st11" d="M196.7,173.1h-3.9c-0.1,0-0.2-0.1-0.2-0.2l-1.4-5.7h-1.4c-0.1,0-0.2-0.1-0.2-0.2c0-0.1,0.1-0.2,0.2-0.2h1.5
		c0.1,0,0.2,0.1,0.2,0.2l1.4,5.7h3.7c0.1,0,0.2,0.1,0.2,0.2S196.8,173.1,196.7,173.1z"/>
	<circle class="st10" cx="193.6" cy="174.2" r="0.7"/>
	<path class="st11" d="M193.6,175.1c-0.6,0-1-0.4-1-1s0.4-1,1-1s1,0.4,1,1S194.1,175.1,193.6,175.1z M193.6,173.7
		c-0.3,0-0.5,0.2-0.5,0.5s0.2,0.5,0.5,0.5s0.5-0.2,0.5-0.5S193.8,173.7,193.6,173.7z"/>
	<circle class="st10" cx="197.6" cy="174.2" r="0.7"/>
	<path class="st11" d="M197.6,175.1c-0.6,0-1-0.4-1-1s0.4-1,1-1s1,0.4,1,1S198.2,175.1,197.6,175.1z M197.6,173.7
		c-0.3,0-0.5,0.2-0.5,0.5s0.2,0.5,0.5,0.5s0.5-0.2,0.5-0.5S197.9,173.7,197.6,173.7z"/>
	<path class="st11" d="M198.2,172h-5.6c-0.1,0-0.2-0.1-0.2-0.2c0-0.1,0.1-0.2,0.2-0.2h5.4l0.6-3.4h-7c-0.1,0-0.2-0.1-0.2-0.2l0,0
		c0-0.1,0.1-0.2,0.2-0.2h7.3c0.1,0,0.1,0,0.2,0.1c0,0.1,0,0.1,0,0.2l-0.7,3.9C198.4,171.9,198.3,172,198.2,172z"/>
	<path class="st9" d="M211.6,164.6h32.6c1,0,1.8,0.8,1.8,1.8v0.7c0,1-0.8,1.8-1.8,1.8h-32.6c-1,0-1.8-0.8-1.8-1.8v-0.7
		C209.8,165.4,210.6,164.6,211.6,164.6z"/>
	<path class="st9" d="M211.6,173h14.7c1,0,1.8,0.8,1.8,1.8v0.7c0,1-0.8,1.8-1.8,1.8h-14.7c-1,0-1.8-0.8-1.8-1.8v-0.7
		C209.8,173.8,210.6,173,211.6,173z"/>
	<path class="st9" d="M261,154.7c0,0.1-18.8,0.1-42,0.1s-42-0.1-42-0.1s18.8-0.1,42-0.1C242.2,154.6,261,154.7,261,154.7z"/>
	<path class="st14" d="M199.7,186.4h39.4c4.3,0,7.7,3.5,7.7,7.7v3.1c0,4.3-3.5,7.7-7.7,7.7h-39.4c-4.3,0-7.7-3.5-7.7-7.7v-3.1
		C192,189.9,195.4,186.4,199.7,186.4z"/>
	<path class="st11" d="M218.3,194.8c0,0.9-0.7,1.5-1.8,1.5h-0.7v1.1h-1.1v-4.1h1.9C217.6,193.3,218.3,193.9,218.3,194.8z
		 M217.2,194.8c0-0.4-0.2-0.6-0.7-0.6h-0.6v1.2h0.6C216.9,195.4,217.1,195.2,217.2,194.8L217.2,194.8z"/>
	<path class="st11" d="M221.4,196.6h-1.7l-0.3,0.8h-1.2l1.8-4.1h1.1l1.8,4.1h-1.2L221.4,196.6z M221.1,195.7l-0.5-1.3l-0.5,1.3
		H221.1z"/>
	<path class="st11" d="M225.2,195.9v1.5H224v-1.5l-1.6-2.6h1.2l1,1.6l1-1.6h1.1L225.2,195.9z"/>
	<circle class="st15" cx="187.2" cy="82.8" r="3.6"/>
	<path class="st9" d="M206.9,80.9h24c0.7,0,1.3,0.6,1.3,1.3v0.5c0,0.7-0.6,1.3-1.3,1.3h-24c-0.7,0-1.3-0.6-1.3-1.3v-0.5
		C205.6,81.5,206.2,80.9,206.9,80.9z"/>
	<rect x="194.9" y="210.2" class="st6" width="54.4" height="3.6"/>
	<path class="st7" d="M197.5,212c0.5,0.2,6.9,0.2,6.9,12.7s-0.3,28.2,6.4,28.7s41.9,0,41.9,0v-31.5c0-5.3-4.3-9.5-9.5-9.6L197.5,212
		z"/>
	<path class="st6" d="M197.5,212l26.5,0.1l13.4,0.1h3.7c1.3-0.1,2.5,0,3.8,0.2c4.1,0.8,7.3,4.1,7.8,8.3c0.1,0.7,0.1,1.4,0.1,2.1v2.1
		c0,2.8,0,5.7,0,8.7v20h-0.1c-12.3,0.1-24,0.2-34.7,0.2c-1.3,0-2.6,0-3.9-0.1c-1.3,0-2.6-0.1-3.8-0.2c-0.6-0.1-1.2-0.4-1.7-0.8
		c-0.5-0.4-0.9-0.9-1.2-1.4c-0.6-1-1.1-2.2-1.4-3.3c-0.6-2.2-1-4.5-1.1-6.8c-0.2-2.2-0.3-4.3-0.3-6.3c-0.1-4,0-7.6-0.1-10.8
		c0.1-2.7-0.5-5.4-1.5-7.9c-0.4-0.9-1-1.7-1.7-2.4c-0.5-0.5-1.1-0.9-1.8-1.2C198.7,212.3,198.1,212.1,197.5,212h0.4
		c0.4,0.1,0.9,0.2,1.3,0.4c0.7,0.3,1.3,0.7,1.8,1.2c0.7,0.7,1.3,1.5,1.7,2.4c1.1,2.5,1.6,5.3,1.6,8c0.1,3.2,0,6.8,0.1,10.8
		c0.1,2,0.1,4.1,0.4,6.3c0.2,2.3,0.5,4.5,1.1,6.7c0.3,1.2,0.8,2.3,1.4,3.3c0.3,0.5,0.7,1,1.2,1.4s1,0.6,1.6,0.8
		c1.2,0.2,2.5,0.1,3.8,0.2h3.9c10.6,0.1,22.4,0,34.7-0.2l-0.1,0.1v-19.9c0-2.9,0-5.8,0-8.7v-2.1c0-0.7,0-1.4-0.1-2.1
		c-0.2-1.3-0.6-2.6-1.3-3.8c-0.7-1.1-1.6-2.1-2.7-2.9c-1.1-0.7-2.3-1.2-3.5-1.5c-1.2-0.2-2.5-0.2-3.8-0.2h-3.7l-13.4-0.1L197.5,212z
		"/>
	<path class="st9" d="M210.9,253.5c0,0,5.5,0,6.7-8.1c1.4-9.7,0-18.2,7.5-18.5s27.6,0,27.6,0v26.6H210.9z"/>
	<path class="st7" d="M224.1,227c0,0,6-0.7,6,9.3s0.2,16.7,6.9,17.4s47.8,0,47.8,0s-6.5-3.1-7-12.2s-2.4-14.6-8.9-14.8
		S224.1,227,224.1,227z"/>
	<path class="st6" d="M224.1,227h0.4h1.2l4.6-0.1l16.9-0.2l11.6-0.1h6.5h3.4c1.2,0,2.3,0.2,3.4,0.7s2.1,1.3,2.8,2.2
		c0.7,1,1.3,2.1,1.6,3.3c0.7,2.4,1.1,4.9,1.3,7.5c0,0.6,0.1,1.3,0.1,1.9l0.1,1l0.2,0.9l0.1,0.5l0.1,0.5l0.3,0.9
		c0.2,0.6,0.5,1.2,0.8,1.8c1.2,2.4,3,4.4,5.4,5.8l0.4,0.2h-0.5h-1.1c-11,0.2-21.5,0.3-31.1,0.3c-4.8,0-9.3,0-13.6-0.2
		c-1.1,0-2.1-0.1-3.1-0.3s-1.9-0.7-2.7-1.4c-0.7-0.7-1.3-1.5-1.7-2.4s-0.6-1.8-0.8-2.7c-0.3-1.7-0.5-3.4-0.5-5.1
		c-0.1-1.6-0.1-3.2-0.1-4.6c0-0.7,0-1.4,0-2.1c0-0.3,0-0.7,0-1l-0.1-0.9l-0.1-0.4l-0.1-0.4l-0.2-0.8l-0.3-0.8l-0.1-0.4l-0.2-0.3
		c-0.4-0.8-0.9-1.5-1.6-2.1c-0.5-0.4-1.1-0.7-1.7-0.9c-0.4-0.1-0.8-0.2-1.2-0.2l0,0c0.4,0,0.8,0.1,1.2,0.2c0.6,0.2,1.2,0.5,1.7,0.9
		c0.7,0.6,1.3,1.3,1.6,2.1c1,1.8,1.2,4.4,1.1,7.2c0,1.4,0,3,0.1,4.6c0,1.7,0.2,3.4,0.5,5.1c0.2,0.9,0.4,1.8,0.8,2.6
		c0.4,0.9,0.9,1.7,1.6,2.3c0.8,0.6,1.7,1.1,2.6,1.3c1,0.2,2.1,0.3,3.1,0.3c4.2,0.2,8.8,0.2,13.6,0.2c9.6,0,20.1-0.1,31.1-0.3h1.1
		v0.2c-2.4-1.3-4.3-3.4-5.5-5.9c-0.3-0.6-0.6-1.2-0.8-1.9l-0.3-1l-0.1-0.5l-0.1-0.5l-0.2-1l-0.1-1c-0.1-0.7-0.1-1.3-0.1-1.9
		c-0.1-2.5-0.5-5-1.2-7.4c-0.4-1.2-0.9-2.2-1.6-3.2c-0.7-0.9-1.6-1.7-2.7-2.2c-1.1-0.4-2.2-0.6-3.4-0.6h-3.4h-6.5l-11.6,0.1
		l-16.8,0.1h-4.6H224L224.1,227z"/>
	<path class="st6" d="M225.7,226.9c0,0-0.5,0-1.3,0.1c-1.2,0.2-2.3,0.7-3.2,1.6c-1.2,1.3-2.1,3-2.4,4.7c-0.4,2.2-0.6,4.4-0.6,6.6
		c0,2.2-0.3,4.5-0.8,6.6c-0.2,0.9-0.6,1.9-1,2.8c-0.3,0.8-0.8,1.5-1.3,2.2c-0.4,0.6-1,1.1-1.6,1.4c-0.5,0.2-1,0.4-1.5,0.5
		c-0.3,0.1-0.7,0.1-1,0.1c-0.1,0-0.2,0-0.4,0h0.4c0.3,0,0.7-0.1,1-0.1c0.5-0.1,1-0.3,1.5-0.6c0.6-0.4,1.1-0.8,1.5-1.4
		c0.5-0.7,0.9-1.4,1.2-2.2c0.4-0.9,0.7-1.8,1-2.7c0.5-2.2,0.7-4.4,0.7-6.6c0-2.2,0.2-4.4,0.6-6.6c0.3-1.8,1.2-3.5,2.5-4.8
		c0.9-0.9,2.1-1.4,3.3-1.5c0.2,0,0.4,0,0.6,0h0.4L225.7,226.9z"/>
	<path class="st9" d="M245.7,219.3c0,0.1-7.7,0.1-17.2,0.1s-17.2-0.1-17.2-0.1s7.7-0.1,17.2-0.1S245.7,219.3,245.7,219.3z"/>
	<path class="st9" d="M246.4,224.5c0,0.1-7.5,0.1-16.7,0.1s-16.7-0.1-16.7-0.1s7.5-0.1,16.7-0.1S246.4,224.4,246.4,224.5z"/>
	<path class="st9" d="M269.9,234.5c0,0.1-7.7,0.1-17.2,0.1s-17.2-0.1-17.2-0.1s7.7-0.1,17.2-0.1
		C262.2,234.4,269.9,234.4,269.9,234.5z"/>
	<path class="st9" d="M270.4,240.4c0,0.1-7.1,0.1-15.8,0.1s-15.8-0.1-15.8-0.1s7.1-0.1,15.8-0.1
		C263.3,240.3,270.4,240.4,270.4,240.4z"/>
	<path class="st11" d="M238.2,107h3.4c0.8,0,1.5,0.7,1.5,1.5v3.4c0,0.8-0.7,1.5-1.5,1.5h-3.4c-0.8,0-1.5-0.7-1.5-1.5v-3.4
		C236.7,107.6,237.4,107,238.2,107z"/>
	<path class="st11" d="M124.1,100l-3.2-0.4c-5.6,3.7-13.1,2.2-16.8-3.4s-2.2-13.1,3.4-16.8s13.1-2.2,16.8,3.4
		c2.8,4.2,2.7,9.7-0.3,13.8l0,0L124.1,100z"/>
	<path class="st6" d="M124.1,100c0,0,0-0.1,0-0.2s0-0.4,0-0.7c0-0.6,0-1.4,0-2.5h0.1l0,0c0,0,0,0-0.1,0c0,0,0,0,0-0.1
		c1.1-1.6,1.9-3.4,2.1-5.4c0.2-1.3,0.1-2.6-0.1-3.8c-0.3-1.4-0.8-2.8-1.6-4c-0.9-1.4-2-2.5-3.3-3.5c-1.4-1-3-1.7-4.7-2
		c-1.8-0.3-3.7-0.3-5.5,0.2c-1.9,0.5-3.6,1.5-5,2.8c-0.7,0.7-1.4,1.4-1.9,2.3c-0.3,0.4-0.5,0.8-0.7,1.3l-0.3,0.7l-0.1,0.3l-0.1,0.3
		c-0.6,1.8-0.8,3.7-0.5,5.5c0.2,1.7,0.9,3.4,1.9,4.9c0.9,1.4,2,2.5,3.4,3.4c1.2,0.8,2.6,1.4,4,1.7l1,0.2c0.3,0,0.7,0.1,1,0.1
		c0.6,0.1,1.2,0.1,1.8,0c1.9-0.2,3.8-0.9,5.4-1.9l0,0l2.3,0.3l0.6,0.1L124.1,100L124.1,100h-0.7l-2.4-0.3l0,0
		c-1.6,1.1-3.5,1.8-5.5,2c-0.6,0.1-1.2,0.1-1.9,0c-0.3,0-0.7,0-1-0.1l-1-0.2c-1.5-0.3-2.8-0.9-4.1-1.7c-1.4-0.9-2.5-2.1-3.5-3.5
		c-1-1.5-1.7-3.2-1.9-4.9c-0.3-1.9-0.1-3.8,0.5-5.6l0.1-0.3l0.1-0.3c0.1-0.2,0.2-0.4,0.3-0.7c0.2-0.4,0.5-0.9,0.7-1.3
		c0.5-0.8,1.2-1.6,1.9-2.3c1.4-1.4,3.2-2.4,5.1-2.9c1.8-0.5,3.7-0.6,5.6-0.2c1.7,0.3,3.4,1,4.8,2.1c1.3,1,2.4,2.2,3.3,3.6
		c0.8,1.3,1.3,2.6,1.6,4.1c0.2,1.3,0.3,2.6,0.1,3.9c-0.3,2-1,3.8-2.2,5.4l-0.1-0.1l0,0c0,0,0,0,0.1,0l0,0c0,1.1,0,2,0,2.5v0.6
		C124.1,99.8,124.1,99.9,124.1,100z"/>
	<polygon class="st10" points="108.9,90.3 110.4,88.7 113.5,91.2 119.3,85.3 120.8,86.8 113.4,94.3 	"/>
	<path class="st16" d="M135.6,84.6c0.7-4.7,4.9-8.1,9.7-7.7h0.5c5.1,0.7,7.3,5.3,6.5,10.4l-1.8,18l-0.1,3.7l-12.1,1.1l0.3-7.8
		c0,0-4.8-1.1-4.5-6C134.2,93.8,134.9,88.9,135.6,84.6z"/>
	<path class="st17" d="M138.6,102.1c2.3,0.2,4.5-0.3,6.6-1.4c0,0-1.7,3.5-6.6,2.7V102.1z"/>
	<path class="st6" d="M137.5,89.4c0,0.4,0.2,0.7,0.6,0.8c0.4,0.1,0.7-0.2,0.8-0.6l0,0c0-0.4-0.2-0.7-0.6-0.8
		C137.9,88.8,137.6,89,137.5,89.4L137.5,89.4z"/>
	<path class="st6" d="M136.4,87c0.1,0.1,0.6-0.2,1.4-0.2s1.3,0.5,1.4,0.4c0.1-0.1,0-0.2-0.3-0.4c-0.3-0.2-0.7-0.4-1.1-0.4
		c-0.4,0-0.8,0.1-1.1,0.3C136.5,86.8,136.4,87,136.4,87z"/>
	<path class="st6" d="M144.5,90.1c0,0.4,0.2,0.7,0.6,0.8c0.4,0.1,0.7-0.2,0.8-0.6l0,0c0-0.4-0.2-0.7-0.6-0.8
		C144.9,89.5,144.6,89.7,144.5,90.1L144.5,90.1z"/>
	<path class="st6" d="M143.8,87.7c0.1,0.1,0.6-0.3,1.4-0.2c0.8,0.1,1.3,0.5,1.4,0.4s0-0.2-0.3-0.4c-0.3-0.2-0.7-0.4-1.1-0.4
		c-0.4,0-0.8,0.1-1.1,0.3C143.9,87.5,143.8,87.7,143.8,87.7z"/>
	<path class="st6" d="M140.7,93.1c-0.4-0.2-0.8-0.3-1.2-0.3c-0.2,0-0.4-0.1-0.4-0.2c0-0.2,0.1-0.4,0.2-0.6l0.7-1.4
		c0.6-1.2,1.1-2.4,1.6-3.7c-0.7,1.1-1.3,2.4-1.8,3.6l-0.7,1.5c-0.1,0.2-0.2,0.5-0.2,0.8c0,0.1,0.2,0.2,0.3,0.3
		c0.1,0,0.2,0.1,0.3,0.1C139.9,93.1,140.3,93.1,140.7,93.1z"/>
	<path class="st6" d="M142.9,93.8c-0.1,0-0.2,0.8-0.9,1.3s-1.6,0.4-1.6,0.5s0.2,0.2,0.5,0.2c0.5,0,1-0.1,1.3-0.4
		c0.4-0.3,0.6-0.7,0.7-1.1C143,94,142.9,93.8,142.9,93.8z"/>
	<path class="st16" d="M151.1,92c0.1-0.7,0.7-1.3,1.5-1.2c0,0,0,0,0.1,0c0.9,0.2,1.9,0.8,1.7,2.6c-0.4,3.3-3.6,2.3-3.6,2.2
		S151,93.4,151.1,92z"/>
	<path class="st17" d="M151.6,94.4c0,0,0.1,0,0.1,0.1c0.1,0.1,0.3,0.1,0.4,0.1c0.5-0.2,0.8-0.7,0.8-1.2c0-0.3,0-0.6-0.1-0.8
		c0-0.2-0.2-0.4-0.4-0.5c-0.1,0-0.3,0-0.4,0.1c0,0.1,0,0.2-0.1,0.2s-0.1-0.1,0-0.2c0-0.1,0.1-0.2,0.1-0.2c0.1,0,0.2,0,0.3,0
		c0.3,0.1,0.5,0.3,0.6,0.6c0.1,0.3,0.1,0.7,0.1,1c0,0.6-0.4,1.1-1,1.3c-0.2,0-0.4,0-0.5-0.2C151.6,94.5,151.6,94.4,151.6,94.4z"/>
	<path class="st6" d="M153.8,88.6c-0.3,1-0.2,2.6-1,2.3c-1.7-0.4-1.3,3.1-2.1,2.7s-1.5-1.3-1.6-3.5c-0.1-2.7,1-4.7,0-7.8
		c-0.7-1.3-2-2.1-3.4-2.1c-1.5,0-2.8,0.7-3.6,1.9c-0.2-1-0.6-2.4-1.5-2.8c-0.9-0.5-1.9-0.4-2.7,0.2c-0.7,0.7-0.9,1.8-0.3,2.6
		c-0.4,0.1-0.8,0-1.1-0.4c0,0.4,0.1,0.9,0.4,1.2c-0.4-0.1-0.7-0.3-0.9-0.6c0.1,0.4,0.2,0.8,0.3,1.2c-1.5-0.1-2.8-1.2-3.3-2.6
		c-0.5-1.8-0.2-3.8,0.9-5.4c1-1.7,2.9-2.8,4.9-2.8c1.9-0.1,3.6,1,4.4,2.8c1.6-1,3.6-1.1,5.3-0.5c1.4,0.7,2.4,2.1,2.6,3.6
		c0.9-0.3,2-0.1,2.7,0.5l0.2,0.2c1,1,1.5,2.4,1.2,3.8c-0.1,0.6-0.3,1.1-0.4,1.6C154.4,85.8,153.8,88.6,153.8,88.6z"/>
	<path class="st6" d="M136.2,81.6L136.2,81.6c-0.2-0.2-0.3-0.3-0.4-0.4c-0.3-0.4-0.5-0.9-0.6-1.4c-0.1-0.8,0.1-1.6,0.7-2.1
		c0.6-0.7,1.6-1.1,2.6-1c0.5,0.1,1,0.3,1.4,0.5c0.4,0.3,0.7,0.6,1,0.9c0.5,0.6,0.8,1.3,1,2c0.1,0.5,0.2,1,0.2,1.5c0,0.2,0,0.3,0,0.4
		v0.1c0-0.7,0-1.3-0.2-2s-0.5-1.4-1-2c-0.6-0.7-1.4-1.2-2.3-1.3c-0.9-0.1-1.8,0.2-2.4,0.9c-0.5,0.5-0.7,1.3-0.7,2
		c0,0.5,0.2,1,0.5,1.4C136.1,81.5,136.2,81.6,136.2,81.6z"/>
	<path class="st6" d="M135.6,83.1l-0.1-0.2l-0.3-0.5c-0.3-0.6-0.6-1.2-0.8-1.9c-0.1-0.5-0.2-0.9-0.2-1.4s0.1-1.1,0.3-1.6
		c0.2-0.6,0.6-1,1.2-1.4c0.5-0.4,1.2-0.6,1.8-0.6s1.3,0.1,1.9,0.3c0.6,0.2,1.1,0.5,1.6,0.9c0.8,0.6,1.4,1.5,1.7,2.4
		c0.2,0.7,0.1,1.4-0.1,2c-0.1,0.2-0.1,0.3-0.2,0.5c-0.1,0.1-0.1,0.2-0.1,0.2c0.1-0.2,0.2-0.4,0.3-0.7c0.2-0.7,0.2-1.3,0-2
		c-0.3-1-0.9-1.8-1.7-2.4c-0.9-0.7-2.1-1.1-3.2-1.1c-0.6,0-1.2,0.2-1.8,0.6c-0.5,0.3-0.9,0.8-1.1,1.3s-0.3,1-0.3,1.5
		s0.1,0.9,0.2,1.4c0.2,0.6,0.4,1.3,0.7,1.9l0.2,0.5C135.5,83.1,135.6,83.1,135.6,83.1z"/>
	<path class="st6" d="M152.6,86.4c0,0,0.3-0.2,0.7-0.7c0.5-0.6,0.9-1.4,1.1-2.2c0.2-0.8,0.1-1.6-0.1-2.4c-0.2-0.6-0.4-0.9-0.4-1
		s0.1,0.1,0.2,0.2c0.1,0.2,0.2,0.5,0.3,0.7c0.3,0.8,0.3,1.7,0.2,2.5c-0.2,0.8-0.6,1.6-1.1,2.2c-0.2,0.2-0.4,0.4-0.6,0.5
		C152.7,86.3,152.6,86.4,152.6,86.4z"/>
	<path class="st6" d="M149.6,86.3c0,0,0.2-0.1,0.4-0.2c0.4-0.3,0.7-0.6,0.8-1l0.1-0.3v0.3c0,0.5-0.1,1-0.1,1.6l-0.1-0.1
		c0.4-0.3,0.8-0.7,1.1-1.1c0.4-0.5,0.6-1.1,0.8-1.8c0.1-0.5,0.1-1.1,0-1.6s-0.3-0.9-0.5-1.4l0.1,0.1c0.1,0.1,0.1,0.2,0.1,0.3
		c0.2,0.3,0.3,0.7,0.4,1c0.3,1.2,0,2.4-0.7,3.4c-0.3,0.4-0.7,0.8-1.1,1.1l-0.1,0.1v-0.2c0.1-0.6,0.1-1.1,0.2-1.6h0.1
		c-0.2,0.4-0.5,0.8-0.9,1c-0.1,0.1-0.2,0.1-0.3,0.2L149.6,86.3z"/>
	<path class="st6" d="M148.7,79.3c-0.2-0.4-0.5-0.7-0.8-1c-0.4-0.3-0.8-0.5-1.2-0.6c-0.5-0.1-1.1,0-1.6,0.2s-1,0.5-1.3,0.9
		c-0.3,0.3-0.5,0.7-0.7,1.1s-0.3,0.8-0.4,1.2c0-0.1,0-0.2,0-0.3c0-0.3,0.1-0.6,0.2-0.9c0.2-0.4,0.4-0.8,0.7-1.2
		c0.4-0.4,0.9-0.8,1.4-1s1.1-0.3,1.7-0.1c0.5,0.1,0.9,0.3,1.2,0.6c0.2,0.2,0.4,0.5,0.6,0.8c0.1,0.1,0.1,0.2,0.1,0.2
		C148.6,79.2,148.7,79.2,148.7,79.3z"/>
	<path class="st6" d="M147.9,76.7c-0.3-0.2-0.6-0.3-0.9-0.4c-0.8-0.2-1.6-0.1-2.3,0.3s-1.3,1-1.6,1.7c-0.3,0.5-0.4,0.9-0.4,0.9
		c0-0.1,0-0.2,0-0.3c0.1-0.2,0.2-0.5,0.3-0.7c0.4-0.7,0.9-1.4,1.6-1.8s1.6-0.5,2.4-0.3c0.2,0.1,0.5,0.2,0.7,0.3
		C147.7,76.6,147.8,76.6,147.9,76.7z"/>
	<path class="st18" d="M137.1,234.5l0.3,9.2c0,0-9.2,3.4-9.3,5.1h17.8l0.1-14.3H137.1z"/>
	<path class="st9" d="M143,242.9c0.4,0.1,0.6,0.5,0.5,0.8c-0.1,0.4-0.5,0.6-0.8,0.5c-0.4-0.1-0.6-0.5-0.5-0.9
		C142.3,243,142.7,242.8,143,242.9"/>
	<path class="st18" d="M145.9,248.8l-0.1-1.4l-17,0.6c0,0-0.8,0.4-0.7,0.9L145.9,248.8z"/>
	<path class="st11" d="M137.2,243.6c0,0.1,0.4,0.1,0.9,0.4s0.7,0.6,0.7,0.6s0-0.5-0.6-0.9C137.6,243.3,137.2,243.5,137.2,243.6z"/>
	<path class="st11" d="M135.3,244.3c0,0.1,0.4,0.2,0.7,0.6c0.3,0.4,0.4,0.8,0.5,0.8s0.1-0.5-0.2-0.9
		C136,244.4,135.3,244.3,135.3,244.3z"/>
	<path class="st11" d="M134.3,246.6c0.1,0,0.2-0.4,0-0.9s-0.6-0.7-0.7-0.6c-0.1,0.1,0.2,0.3,0.4,0.7S134.2,246.6,134.3,246.6z"/>
	<path class="st11" d="M137.3,241.5c0,0.1,0.4,0,0.9,0s0.9,0.2,0.9,0.1s-0.3-0.4-0.9-0.4C137.6,241.2,137.3,241.4,137.3,241.5z"/>
	<path class="st18" d="M157.5,235.3l0.7,11.1l-2,8.9c-0.1,0.6,0.2,1.2,0.9,1.4h0.1l0,0c0.4,0.1,0.7-0.1,1-0.3
		c1.6-1.7,7.6-7.9,7.5-8.8s0-11.7,0-11.7L157.5,235.3z"/>
	<path class="st18" d="M157.2,256.7l8.4-9.8v0.5c0,0.4-0.1,0.8-0.4,1.1c-0.7,0.9-2.6,3.2-7.1,7.9C158,256.6,157.6,256.8,157.2,256.7
		L157.2,256.7z"/>
	<g class="st19">
		<path class="st11" d="M163.2,243.4c-0.3,0.2-0.3,0.6-0.1,0.9c0.2,0.3,0.6,0.4,0.9,0.2c0.3-0.2,0.4-0.7,0.1-1
			C163.9,243.2,163.5,243.1,163.2,243.4"/>
	</g>
	<path class="st11" d="M159.6,251.8c-0.3-0.3-0.6-0.6-1-0.8c-0.4-0.1-0.9-0.2-1.3-0.2c0,0,0.1-0.1,0.4-0.2c0.3-0.1,0.7,0,1,0.1
		s0.6,0.4,0.8,0.6C159.6,251.6,159.6,251.8,159.6,251.8z"/>
	<path class="st11" d="M158.8,253.3c-0.3-0.2-0.7-0.3-1-0.4c-0.4-0.1-0.7-0.1-1.1-0.1C157.5,252.4,158.4,252.6,158.8,253.3z"/>
	<path class="st11" d="M160.9,249.8c-0.5-0.3-1-0.6-1.5-0.8c-0.5-0.1-1.1-0.3-1.7-0.3c0.6-0.2,1.2-0.2,1.7,0.1
		C160.1,248.9,160.6,249.3,160.9,249.8z"/>
	<path class="st11" d="M161,246.4c0,0.1-0.6-0.2-1.4-0.2s-1.4,0.2-1.4,0.1c0.4-0.3,0.9-0.4,1.4-0.4C160.1,246,160.6,246.1,161,246.4
		z"/>
	<path class="st11" d="M160.9,243.1c-0.5-0.1-1-0.2-1.5-0.2c-0.5,0.1-1,0.2-1.5,0.4c0,0,0.1-0.2,0.4-0.3c0.3-0.2,0.7-0.3,1.1-0.4
		c0.4,0,0.8,0,1.1,0.2S160.9,243.1,160.9,243.1z"/>
	<path class="st11" d="M159.4,242.3c0-0.1,0-0.3,0-0.4c0-0.4,0.1-0.8,0.3-1.1c0.1-0.3,0.3-0.5,0.5-0.6s0.4-0.1,0.5,0.1
		c0.1,0.1,0.2,0.3,0.2,0.5c0,0.8-0.6,1.4-1.4,1.5c-0.7,0.1-1.5-0.2-1.9-0.9c-0.1-0.2-0.1-0.4,0-0.5c0.1-0.2,0.3-0.3,0.5-0.3
		c0.3,0.1,0.5,0.2,0.8,0.4s0.6,0.5,0.8,0.8c0.1,0.2,0.2,0.4,0.2,0.4c-0.3-0.4-0.7-0.8-1.1-1.1c-0.2-0.1-0.4-0.2-0.7-0.3
		c-0.1,0-0.2,0-0.2,0.1s0,0.2,0.1,0.4c0.3,0.6,1,0.9,1.6,0.8c0.6-0.1,1.1-0.6,1.2-1.3c0-0.1,0-0.3-0.1-0.4c-0.1-0.1-0.2-0.1-0.3-0.1
		c-0.2,0.1-0.4,0.3-0.5,0.5C159.6,241.3,159.5,241.8,159.4,242.3z"/>
	<path class="st20" d="M129.3,157c-0.9,3.8-1.3,7.7-1.1,11.6c0.1,2.5,8,73.7,8,73.7l10.1-0.9l-1.7-66.6l0.4,0.4c0,0,6,28,6.4,32.5
		c0.4,4,5.1,36,5.1,36l9.8-0.5l-2.2-40.4l-3-36.7l-1.2-10.7L129.3,157z"/>
	<path class="st6" d="M146.5,169.1c-0.1,0.1-0.3,0.2-0.5,0.2c-0.4,0.2-0.9,0.4-1.4,0.5c-0.3,0.1-0.7,0.1-1,0
		c-0.4-0.1-0.8-0.3-1.1-0.5c-0.3-0.3-0.5-0.7-0.6-1.2c-0.1-0.4-0.2-0.9-0.3-1.4c-0.3-1.9-0.5-3.6-0.6-4.8c-0.1-0.6-0.1-1.1-0.1-1.4
		c0-0.2,0-0.4,0-0.5c0,0.2,0.1,0.4,0.1,0.5c0,0.4,0.1,0.9,0.2,1.4c0.2,1.2,0.4,2.9,0.7,4.8c0,0.9,0.3,1.7,0.8,2.4
		c0.5,0.5,1.2,0.7,1.9,0.6c0.5-0.1,0.9-0.2,1.4-0.4C146.2,169.2,146.3,169.1,146.5,169.1z"/>
	<path class="st6" d="M143.3,160.3c0,0,0.1-0.1,0.2-0.1c0.2,0,0.4,0.1,0.6,0.2c0.3,0.2,0.4,0.5,0.5,0.9c-0.1,0.6-0.6,1.1-1.2,1
		c-0.3,0-0.5-0.1-0.7-0.3c-0.2-0.3-0.3-0.7-0.2-1c0.1-0.2,0.2-0.4,0.4-0.6c0.1-0.1,0.2-0.1,0.2-0.1c-0.2,0.2-0.4,0.4-0.4,0.7
		c-0.1,0.3,0,0.6,0.2,0.8s0.6,0.3,0.9,0.2s0.6-0.4,0.6-0.7s-0.1-0.6-0.3-0.8C143.9,160.4,143.6,160.3,143.3,160.3z"/>
	<path class="st6" d="M161,165.3c-0.1,0-0.3,0-0.4,0c-0.3,0-0.7,0-1,0c-2.3-0.2-4.5-1.2-6.2-2.8c-0.3-0.2-0.5-0.5-0.7-0.8
		c-0.1-0.1-0.2-0.2-0.2-0.3c0,0,0.4,0.4,1,1c0.9,0.8,1.8,1.4,2.9,1.8c1,0.5,2.1,0.8,3.3,0.9C160.5,165.3,161,165.3,161,165.3z"/>
	<path class="st20" d="M133.8,160.3c-0.1,0.4-0.4,0.8-0.6,1.1c-0.6,0.9-1.2,1.7-2,2.4s-1.6,1.3-2.5,1.8c-0.4,0.2-0.8,0.4-1.2,0.5
		c0.3-0.2,0.7-0.5,1.1-0.7c0.9-0.5,1.7-1.2,2.4-1.9s1.4-1.5,2-2.3C133.6,160.7,133.8,160.3,133.8,160.3z"/>
	<path class="st16" d="M123.8,120c-1.5,4.4-1.3,4-4.1,17c-0.5,2.4,0.4,6.2,2.6,7.3s6-0.1,7.3-2.2l2.1-19.7L123.8,120z"/>
	<path class="st14" d="M160,143.7l-0.1-10.4v-1l10.6-2.4c0,0-2.1-6.8-4-14.1c-0.9-2.9-2.9-5.4-5.6-6.8l0,0l-0.2-0.1l0,0l-10.1-4.3
		c-2,2.2-5,3.9-7.9,3.1c-1.6-0.5-3.1-1.5-4.2-2.8l-6.8,2.3l0,0c-2,0.7-3.7,2-4.7,3.8c-1.4,2.5-6,14.1-6.1,14.4l8.5,0.8
		c0,0-1.5,27.5-1,32.4c0,0,2.1,1.4,7.2,1.7c10.5,0.5,26.2-0.2,26.2-0.2c-0.2-1.6-0.5-4.2-0.6-5.6L160,143.7z"/>
	<path class="st18" d="M129.6,115.9c0,0-0.2,6.6-0.5,14.6s-0.6,14.6-0.7,14.6c-0.1,0,0.2-6.6,0.5-14.6S129.6,115.9,129.6,115.9z"/>
	<path class="st18" d="M158.8,117.7c-0.1,0,0.1,5.8,0.5,13s0.7,13,0.8,13s-0.1-5.8-0.5-13C159.2,123.5,158.9,117.7,158.8,117.7z"/>
	<path class="st16" d="M170.5,134.8c-0.3-2.6-0.6-4.9-0.6-4.9l-8.4,2l0.4,1.4l-6.5-6.6l-1,0.1l-3.3,3.4c1.3,2.9,2.8,5.7,4.5,8.4
		c2.2,3.1,5.6,7.7,10.2,7.3C170.1,145.5,171.2,139.4,170.5,134.8z"/>
	<path class="st17" d="M166,136.3c-0.5-0.7-1.1-1.2-1.9-1.7c-0.7-0.5-1.4-0.9-2.2-1.2c0.6,0.5,1.3,1,2,1.4
		C164.6,135.4,165.3,135.9,166,136.3z"/>
	<path class="st16" d="M144,118l2.9-1.5l3.8,1.2l1.9,1.7l2.9,7.2l2.3,2.9l-4,5.3l-2.6-4.7c-1.2-0.5-2.2-1.3-3-2.3
		c-0.9-1.4-1.3-2.1-1.3-2.1s-1.3-0.6-1.5-1.2c-0.1-0.3-0.2-0.7-0.2-1l0.6-0.9c0-0.4,0-0.8,0.2-1.2c0.1-0.2,0.3-0.3,0.5-0.4
		c0,0-0.2-0.8,0.1-1.1c0.5-0.3,1.1-0.6,1.7-0.8l0,0l-1.3-0.7C147,118.5,144.1,119.3,144,118z"/>
	<path class="st17" d="M148.3,120.6c0,0-0.4,0-1,0.2s-0.9,0.3-1,0.2C146.8,120.7,147.5,120.5,148.3,120.6L148.3,120.6z"/>
	<path class="st17" d="M147.4,122.2c-0.3,0.1-0.6,0.1-0.8,0.1c-0.3,0.1-0.6,0.1-0.8,0.1c0.2-0.2,0.5-0.3,0.8-0.3
		C146.8,122.2,147.1,122.2,147.4,122.2z"/>
	<path class="st17" d="M146.2,124.8c0,0-0.1-0.2-0.1-0.4s0-0.4,0.1-0.4s0.1,0.2,0.1,0.4S146.2,124.8,146.2,124.8z"/>
	<path class="st17" d="M146.7,125.6c0-0.5-0.4-0.9-0.9-1.1c0,0,0.1,0,0.2,0c0.2,0.1,0.3,0.2,0.4,0.3c0.1,0.1,0.2,0.3,0.2,0.5
		C146.8,125.5,146.7,125.6,146.7,125.6z"/>
	<path class="st17" d="M149,123.2c0,0-0.2-0.3-0.5-0.5c-0.2-0.1-0.4-0.2-0.7-0.2c0,0,0.1-0.1,0.2-0.1c0.2,0,0.4,0,0.5,0.1
		c0.2,0.1,0.3,0.2,0.4,0.4C149,123.1,149,123.2,149,123.2z"/>
	<path class="st17" d="M150.3,121.6c0,0-0.1-0.3-0.5-0.5c-0.2-0.1-0.4-0.2-0.6-0.2c0.1,0,0.1,0,0.2,0c0.2,0,0.3,0.1,0.5,0.2
		C150,121.2,150.2,121.3,150.3,121.6C150.3,121.5,150.3,121.6,150.3,121.6z"/>
	<path class="st17" d="M151.2,120.9c0,0,0-0.1,0-0.2c0-0.4-0.3-0.7-0.7-0.9c-0.1-0.1-0.2-0.1-0.2-0.1s0.1,0,0.3,0
		c0.2,0.1,0.4,0.2,0.5,0.4c0.1,0.2,0.2,0.4,0.2,0.6C151.3,120.7,151.2,120.8,151.2,120.9z"/>
	<path class="st17" d="M150,119c0,0.1-0.6,0.1-1.3,0.2s-1.3,0.4-1.3,0.3c0.4-0.2,0.8-0.4,1.3-0.4c0.3-0.1,0.7-0.1,1-0.1
		C149.7,118.9,149.8,118.9,150,119z"/>
	<g>
		<path class="st18" d="M141.7,135.2c0-0.8-0.3-1.7-0.7-2.4c-0.8-1.2-2.5-1.4-4-1.4c-1.4,0.2-2.9,0.2-4.3-0.1l-4.1,12.2
			c1.5-0.4,2.9-1.4,3.7-2.7c0.3-0.7,0.8-1.4,1.4-2c1-0.5,2.1-0.7,3.2-0.6c1.2,0,2.3-0.2,3.4-0.5c0.5-0.1,0.9-0.3,1.2-0.7
			C141.8,136.5,141.9,135.8,141.7,135.2z"/>
	</g>
	<path class="st6" d="M131.1,121l1.3,13.6c0,0.6,0.3,1.2,0.8,1.6l8.2-0.2c0.5-0.7,0.7-1.5,0.6-2.3l-0.9-13c0-0.8-0.3-1.3-0.7-1.4
		l-8.7-0.2C131.4,119.1,131.1,120,131.1,121z"/>
	<path class="st16" d="M129.9,123.7c-0.3-0.4-0.3-1,0-1.5c0.4-0.4,0.9-0.6,1.4-0.6s1.1,0.1,1.5,0.4c0.6,0.3,1.2,0.6,1.7,0.9
		c0.4,0.2,0.7,0.6,0.8,1c0.1,0.5-0.4,1-0.8,0.7c0.6,0.3,1,0.8,1.1,1.4s-0.2,0.9-0.8,1c0.4,0.2,0.7,0.7,0.5,1.1
		c-0.3,0.4-0.8,0.6-1.3,0.3c-0.4-0.2-0.8-0.5-1.1-0.9c0.3,0.7,0.3,1.4,0.1,2.1c-1.2-0.4-2.4-1.8-2.1-3.1c-0.6-0.5-0.8-1.4-0.5-2.1
		c-0.6-0.3-1-0.8-1-1.5"/>
	<path class="st16" d="M129.8,122.5l-0.1,5.8l-1.5,2.3l-6.9,6.2c0,0,1,8.4,4.1,7.5c3.1-0.9,3.9-1.5,5.7-4.9c1-1.8,1.6-4.8,2.2-6.4
		c0.2-1.4,0.2-2.8,0-4.2L129.8,122.5z"/>
	<path class="st17" d="M135,127.1c0,0-0.2-0.2-0.5-0.4c-0.4-0.4-0.9-0.6-1.4-0.8c-0.3-0.1-0.6-0.1-0.8,0s-0.4,0.2-0.6,0.3
		c-0.2,0.1-0.3,0.3-0.4,0.5c0-0.1,0-0.1,0.1-0.2c0.1-0.2,0.2-0.3,0.3-0.4c0.2-0.2,0.4-0.3,0.7-0.3c0.3-0.1,0.6-0.1,0.9,0
		c0.5,0.1,1,0.4,1.4,0.8C134.7,126.7,134.8,126.9,135,127.1z"/>
	<path class="st17" d="M134.9,124.7c-0.2-0.1-0.4-0.2-0.6-0.3c-0.2-0.1-0.5-0.2-0.7-0.3c-0.3-0.1-0.6-0.2-0.9-0.2
		c-0.3-0.1-0.6-0.1-0.9,0c-0.2,0-0.5,0.1-0.7,0.3c-0.2,0.1-0.3,0.3-0.4,0.5c0,0,0-0.1,0.1-0.2c0.1-0.2,0.2-0.3,0.3-0.4
		c0.2-0.2,0.5-0.3,0.7-0.3c0.3-0.1,0.7-0.1,1,0s0.6,0.1,0.9,0.3c0.2,0.1,0.5,0.2,0.7,0.3C134.5,124.5,134.7,124.6,134.9,124.7z"/>
	<path class="st17" d="M122.1,140.1c-0.2-0.7-0.2-1.4-0.1-2.2s0.4-1.5,0.8-2.2c0.5-0.8,1.1-1.6,1.8-2.2c0.7-0.7,1.5-1.3,2.2-1.9
		c0.6-0.5,1.2-1.1,1.7-1.7c0.4-0.4,0.7-0.8,1-1.3c0.1-0.2,0.2-0.3,0.3-0.5c-0.1,0.1-0.3,0.3-0.4,0.5c-0.3,0.4-0.6,0.8-1,1.2
		c-0.5,0.5-1.1,1-1.8,1.6s-1.5,1.2-2.2,1.9s-1.3,1.4-1.8,2.3c-0.4,0.7-0.7,1.5-0.8,2.3c-0.1,0.5-0.1,1.1,0,1.6
		c0,0.1,0.1,0.3,0.1,0.4C122,140,122.1,140.1,122.1,140.1z"/>
</g>
</svg>
